<?xml version="1.0" encoding="UTF-8" standalone="no"?>
<!DOCTYPE svg PUBLIC "-//W3C//DTD SVG 1.1//EN" "http://www.w3.org/Graphics/SVG/1.1/DTD/svg11.dtd">
<svg width="100%" height="100%" viewBox="0 0 1080 1080" version="1.1" xmlns="http://www.w3.org/2000/svg" xmlns:xlink="http://www.w3.org/1999/xlink" xml:space="preserve" xmlns:serif="http://www.serif.com/" style="fill-rule:evenodd;clip-rule:evenodd;stroke-linecap:round;stroke-linejoin:round;stroke-miterlimit:1.5;">
    <g transform="matrix(1,0,0,1,-5306.7,-3238.38)">
        <g transform="matrix(1,0,0,1,5306.7,3238.38)">
            <rect id="_01" serif:id="01" x="0" y="0" width="1080" height="1080" style="fill:none;"/>
            <g id="_011" serif:id="01">
                <g>
                    <g>
                        <g>
                            <g transform="matrix(1.01068,0,0,1.03858,16.4698,-27.5816)">
                                <rect x="237" y="378" width="562" height="337" style="fill:rgb(79,207,189);"/>
                            </g>
                            <g>
                                <g transform="matrix(0.156584,0,0,0.142433,458.89,671.16)">
                                    <rect x="237" y="378" width="562" height="337" style="fill:rgb(79,207,189);"/>
                                </g>
                                <g transform="matrix(0.30605,0,0,0.0623145,381.466,728.445)">
                                    <rect x="237" y="378" width="562" height="337" style="fill:rgb(79,207,189);"/>
                                </g>
                            </g>
                        </g>
                        <g>
                            <g transform="matrix(0.698516,0,0,0.698516,-27.4013,280.965)">
                                <g transform="matrix(1.04704,0,0,1.04704,-38.2551,-17.4564)">
                                    <path d="M704.883,433.797L813.327,496.407L813.327,371.187L704.883,308.577L704.883,433.797Z" style="fill:rgb(4,8,19);"/>
                                </g>
                                <g transform="matrix(-1.04704,0,0,1.04704,1664.91,-17.4564)">
                                    <path d="M704.883,433.797L813.327,496.407L813.327,371.187L704.883,308.577L704.883,433.797Z" style="fill:rgb(4,8,19);"/>
                                </g>
                                <g transform="matrix(1.04704,0,0,1.04704,-38.2551,-17.4564)">
                                    <path d="M704.883,308.577L813.327,371.187L921.77,308.577L813.141,245.86L704.883,308.577Z" style="fill:rgb(4,8,19);"/>
                                </g>
                            </g>
                            <g transform="matrix(1.25006,0,0,1.25006,-174.855,-97.2818)">
                                <g transform="matrix(1.04704,0,0,1.04704,-38.2551,-17.4564)">
                                    <path d="M704.883,433.797L813.327,496.407L813.327,371.187L704.883,308.577L704.883,433.797Z" style="fill:rgb(4,8,19);"/>
                                </g>
                                <g transform="matrix(-1.04704,0,0,1.04704,1664.91,-17.4564)">
                                    <path d="M704.883,433.797L813.327,496.407L813.327,371.187L704.883,308.577L704.883,433.797Z" style="fill:rgb(4,8,19);"/>
                                </g>
                                <g transform="matrix(1.04704,0,0,1.04704,-38.2551,-17.4564)">
                                    <path d="M704.883,308.577L813.327,371.187L921.77,308.577L813.141,245.86L704.883,308.577Z" style="fill:rgb(4,8,19);"/>
                                </g>
                            </g>
                            <g transform="matrix(1.07943,0,0,1.07943,-611.915,298.522)">
                                <g transform="matrix(1.04704,0,0,1.04704,-38.2551,-17.4564)">
                                    <path d="M704.883,433.797L813.327,496.407L813.327,371.187L704.883,308.577L704.883,433.797Z" style="fill:rgb(4,8,19);"/>
                                </g>
                                <g transform="matrix(-1.04704,0,0,1.04704,1664.91,-17.4564)">
                                    <path d="M704.883,433.797L813.327,496.407L813.327,371.187L704.883,308.577L704.883,433.797Z" style="fill:rgb(4,8,19);"/>
                                </g>
                                <g transform="matrix(1.04704,0,0,1.04704,-38.2551,-17.4564)">
                                    <path d="M704.883,308.577L813.327,371.187L921.77,308.577L813.141,245.86L704.883,308.577Z" style="fill:rgb(4,8,19);"/>
                                </g>
                            </g>
                            <g transform="matrix(0.549346,0,0,0.549346,344.118,485.781)">
                                <g transform="matrix(1.04704,0,0,1.04704,-38.2551,-17.4564)">
                                    <path d="M704.883,433.797L813.327,496.407L813.327,371.187L704.883,308.577L704.883,433.797Z" style="fill:rgb(4,8,19);"/>
                                </g>
                                <g transform="matrix(-1.04704,0,0,1.04704,1664.91,-17.4564)">
                                    <path d="M704.883,433.797L813.327,496.407L813.327,371.187L704.883,308.577L704.883,433.797Z" style="fill:rgb(4,8,19);"/>
                                </g>
                                <g transform="matrix(1.04704,0,0,1.04704,-38.2551,-17.4564)">
                                    <path d="M704.883,308.577L813.327,371.187L921.77,308.577L813.141,245.86L704.883,308.577Z" style="fill:rgb(4,8,19);"/>
                                </g>
                            </g>
                            <g transform="matrix(0.794845,0,0,0.794845,-373.886,77.7285)">
                                <g transform="matrix(1.04704,0,0,1.04704,-38.2551,-17.4564)">
                                    <path d="M704.883,433.797L813.327,496.407L813.327,371.187L704.883,308.577L704.883,433.797Z" style="fill:rgb(4,8,19);"/>
                                </g>
                                <g transform="matrix(-1.04704,0,0,1.04704,1664.91,-17.4564)">
                                    <path d="M704.883,433.797L813.327,496.407L813.327,371.187L704.883,308.577L704.883,433.797Z" style="fill:rgb(4,8,19);"/>
                                </g>
                                <g transform="matrix(1.04704,0,0,1.04704,-38.2551,-17.4564)">
                                    <path d="M704.883,308.577L813.327,371.187L921.77,308.577L813.141,245.86L704.883,308.577Z" style="fill:rgb(4,8,19);"/>
                                </g>
                            </g>
                            <g transform="matrix(0.0559126,-0.671336,0.721903,0.47997,23.3327,630.658)">
                                <path d="M314.376,458.367L502.14,588.467" style="fill:none;stroke:black;stroke-width:44.14px;"/>
                            </g>
                            <g transform="matrix(0.162123,-0.625459,0.646155,0.458085,258.726,482.5)">
                                <path d="M309.839,465.102L502.14,588.467" style="fill:none;stroke:black;stroke-width:42.83px;"/>
                            </g>
                            <g transform="matrix(0.709049,0.0247605,-0.0247605,0.709049,401.311,240.865)">
                                <path d="M309.839,465.102L496.166,572.678" style="fill:none;stroke:black;stroke-width:35.24px;"/>
                            </g>
                            <g transform="matrix(0.70834,0.0402225,-0.0402225,0.70834,147.805,75.771)">
                                <path d="M309.839,465.102L496.166,572.678" style="fill:none;stroke:black;stroke-width:35.24px;"/>
                            </g>
                            <g transform="matrix(1,0,0,1,28.5285,-4.47466)">
                                <g transform="matrix(1.04704,0,0,1.04704,-38.2551,-17.4564)">
                                    <path d="M704.883,433.797L813.327,496.407L813.327,371.187L704.883,308.577L704.883,433.797Z" style="fill:none;stroke:white;stroke-width:24.85px;"/>
                                </g>
                                <g transform="matrix(-1.04704,0,0,1.04704,1664.91,-17.4564)">
                                    <path d="M704.883,433.797L813.327,496.407L813.327,371.187L704.883,308.577L704.883,433.797Z" style="fill:none;stroke:white;stroke-width:24.85px;"/>
                                </g>
                                <g transform="matrix(1.04704,0,0,1.04704,-38.2551,-17.4564)">
                                    <path d="M704.883,308.577L813.327,371.187L921.77,308.577L813.141,245.86L704.883,308.577Z" style="fill:none;stroke:white;stroke-width:24.85px;"/>
                                </g>
                            </g>
                            <g transform="matrix(0.863541,0,0,0.863541,-436.331,378.644)">
                                <g transform="matrix(1.04704,0,0,1.04704,-38.2551,-17.4564)">
                                    <path d="M704.883,433.797L813.327,496.407L813.327,371.187L704.883,308.577L704.883,433.797Z" style="fill:none;stroke:white;stroke-width:24.85px;"/>
                                </g>
                                <g transform="matrix(-1.04704,0,0,1.04704,1664.91,-17.4564)">
                                    <path d="M704.883,433.797L813.327,496.407L813.327,371.187L704.883,308.577L704.883,433.797Z" style="fill:none;stroke:white;stroke-width:24.85px;"/>
                                </g>
                                <g transform="matrix(1.04704,0,0,1.04704,-38.2551,-17.4564)">
                                    <path d="M704.883,308.577L813.327,371.187L921.77,308.577L813.141,245.86L704.883,308.577Z" style="fill:none;stroke:white;stroke-width:24.85px;"/>
                                </g>
                            </g>
                            <g transform="matrix(0.63576,0,0,0.63576,-244.498,136.77)">
                                <g transform="matrix(1.04704,0,0,1.04704,-38.2551,-17.4564)">
                                    <path d="M704.883,433.797L813.327,496.407L813.327,371.187L704.883,308.577L704.883,433.797Z" style="fill:none;stroke:white;stroke-width:24.85px;"/>
                                </g>
                                <g transform="matrix(-1.04704,0,0,1.04704,1664.91,-17.4564)">
                                    <path d="M704.883,433.797L813.327,496.407L813.327,371.187L704.883,308.577L704.883,433.797Z" style="fill:none;stroke:white;stroke-width:24.85px;"/>
                                </g>
                                <g transform="matrix(1.04704,0,0,1.04704,-38.2551,-17.4564)">
                                    <path d="M704.883,308.577L813.327,371.187L921.77,308.577L813.141,245.86L704.883,308.577Z" style="fill:none;stroke:white;stroke-width:24.85px;"/>
                                </g>
                            </g>
                            <g transform="matrix(0.439609,0,0,0.439609,433.37,526.508)">
                                <g transform="matrix(1.04704,0,0,1.04704,-38.2551,-17.4564)">
                                    <path d="M704.883,433.797L813.327,496.407L813.327,371.187L704.883,308.577L704.883,433.797Z" style="fill:none;stroke:white;stroke-width:24.85px;"/>
                                </g>
                                <g transform="matrix(-1.04704,0,0,1.04704,1664.91,-17.4564)">
                                    <path d="M704.883,433.797L813.327,496.407L813.327,371.187L704.883,308.577L704.883,433.797Z" style="fill:none;stroke:white;stroke-width:24.85px;"/>
                                </g>
                                <g transform="matrix(1.04704,0,0,1.04704,-38.2551,-17.4564)">
                                    <path d="M704.883,308.577L813.327,371.187L921.77,308.577L813.141,245.86L704.883,308.577Z" style="fill:none;stroke:white;stroke-width:24.85px;"/>
                                </g>
                            </g>
                            <g transform="matrix(0.558943,0,0,0.558943,86.1173,332.765)">
                                <g transform="matrix(1.04704,0,0,1.04704,-38.2551,-17.4564)">
                                    <path d="M704.883,433.797L813.327,496.407L813.327,371.187L704.883,308.577L704.883,433.797Z" style="fill:none;stroke:white;stroke-width:24.85px;"/>
                                </g>
                                <g transform="matrix(-1.04704,0,0,1.04704,1664.91,-17.4564)">
                                    <path d="M704.883,433.797L813.327,496.407L813.327,371.187L704.883,308.577L704.883,433.797Z" style="fill:none;stroke:white;stroke-width:24.85px;"/>
                                </g>
                                <g transform="matrix(1.04704,0,0,1.04704,-38.2551,-17.4564)">
                                    <path d="M704.883,308.577L813.327,371.187L921.77,308.577L813.141,245.86L704.883,308.577Z" style="fill:none;stroke:white;stroke-width:24.85px;"/>
                                </g>
                            </g>
                            <g transform="matrix(0.70834,0.0402225,-0.0402225,0.70834,147.805,75.771)">
                                <path d="M309.839,465.102L496.166,572.678" style="fill:none;stroke:white;stroke-width:12.5px;"/>
                            </g>
                            <g transform="matrix(0.709049,0.0247605,-0.0247605,0.709049,401.311,240.865)">
                                <path d="M309.839,465.102L496.166,572.678" style="fill:none;stroke:white;stroke-width:12.5px;"/>
                            </g>
                            <g transform="matrix(0.162123,-0.625459,0.646155,0.458085,258.726,482.5)">
                                <path d="M309.839,465.102L502.14,588.467" style="fill:none;stroke:white;stroke-width:18.08px;"/>
                            </g>
                            <g transform="matrix(0.0559126,-0.671336,0.721903,0.47997,23.3327,630.658)">
                                <path d="M314.376,458.367L502.14,588.467" style="fill:none;stroke:white;stroke-width:18.08px;"/>
                            </g>
                        </g>
                    </g>
                </g>
            </g>
        </g>
    </g>
</svg>
