<svg width="259" height="238" viewBox="0 0 259 238" fill="none" xmlns="http://www.w3.org/2000/svg">
<path d="M14.259 191.71L14.4778 191.703C14.462 191.16 14.4541 190.614 14.4541 190.069C14.4541 181.884 16.2556 173.634 20.6567 166.412C25.3492 158.712 33.1877 152.261 42.7655 149.541C47.0515 148.325 51.4663 147.877 55.9474 147.877C64.2728 147.875 72.8233 149.426 81.1771 150.456C86.5245 151.117 92.0186 151.528 97.4861 151.528C109.366 151.528 121.124 149.587 130.974 144.014C136.576 140.843 141.227 136.684 145.817 132.474C150.406 128.263 154.936 124.002 160.285 120.608C169.412 114.818 180.594 112.08 191.912 112.08C204.631 112.08 217.52 115.539 227.84 121.989C247.35 134.18 257.821 155.407 257.842 176.19C257.842 176.212 257.842 176.233 257.842 176.252C257.843 199.323 245.121 221.973 224.891 236.997L225.019 237.176V236.955H34.5746V237.176L34.7328 237.022C22.5864 224.179 14.9547 208.204 14.4778 191.703L14.259 191.71L14.04 191.716C14.522 208.349 22.2095 224.422 34.4162 237.329L34.4808 237.397H225.093L225.149 237.353C245.473 222.256 258.278 199.492 258.28 176.252C258.28 176.233 258.28 176.212 258.28 176.19C258.26 155.26 247.715 133.89 228.071 121.614C217.67 115.114 204.71 111.639 191.912 111.637C180.526 111.637 169.265 114.39 160.052 120.233C154.659 123.657 150.11 127.939 145.524 132.146C140.937 136.355 136.308 140.487 130.758 143.628C121.004 149.148 109.32 151.087 97.4861 151.087C92.0403 151.087 86.5635 150.676 81.2302 150.017C72.8928 148.99 64.3261 147.434 55.9474 147.434C51.4377 147.434 46.9819 147.886 42.6471 149.116C32.9547 151.868 25.0334 158.388 20.2841 166.18C15.8323 173.485 14.0161 181.819 14.0161 190.069C14.0161 190.618 14.0242 191.169 14.04 191.716L14.259 191.71Z" fill="#D3DFFF"/>
<path d="M258.056 185.404C258.302 175.448 256.61 165.302 252.024 156.488C247.439 147.674 239.789 140.295 230.432 137.183C218.469 133.204 205.514 136.414 193.05 138.216C176.594 140.596 158.722 140.132 144.822 130.915C133.995 123.736 126.803 112.047 116.368 104.292C97.4565 90.235 69.5558 91.9427 50.5446 105.863C31.5332 119.78 21.33 144.015 21.3101 167.745C21.2877 194.116 33.6868 219.983 53.3946 237.134H238.329C250.153 222.485 257.591 204.252 258.056 185.404Z" fill="#A8EBFF"/>
<path d="M116.826 218.401C114.557 220.058 112.212 221.253 109.045 221.819L109.791 224.098C104.268 230.665 103.309 234.714 104.134 237.062L121.157 226.945L116.826 218.401Z" fill="#102048"/>
<path d="M112.752 208.579L105.74 211.728L109.045 221.818C112.212 221.252 114.557 220.057 116.826 218.4L112.752 208.579Z" fill="#F9B384"/>
<path d="M73.0168 227.584V216.613L65.5372 216.455L64.0132 227.498C67.3131 228.105 70.2989 228.103 73.0168 227.584Z" fill="#F9B384"/>
<path d="M64.0138 227.499L63.6679 230.004C55.549 232.638 52.9727 234.66 52.4487 237.095H73.0174V227.585C70.2995 228.104 67.3138 228.106 64.0138 227.499Z" fill="#102048"/>
<path d="M97.6374 128.863L83.2253 146.667L82.211 147.924L80.5794 165.553L75.2783 222.915L61.5626 222.598C60.3426 185.365 58.5662 146.659 62.5773 120.512L63.9796 111.221L96.7025 113.584L97.6374 128.863Z" fill="#4FCFBD"/>
<path d="M36.3202 71.479L35.2802 70.2858C34.6567 69.5705 33.7472 69.1792 32.8052 69.2182L19.7849 69.7759C19.712 69.7794 19.6814 69.875 19.7392 69.921C22.5645 72.1324 26.075 73.2938 30.0872 73.6851L34.0997 79.2373L36.3202 71.479Z" fill="#F9B384"/>
<path d="M83.2255 146.666L82.2112 147.923L80.5796 165.552C75.5497 154.554 77.069 138.787 77.069 138.787L83.2255 146.666Z" fill="#102048"/>
<path d="M97.638 128.863C101.21 156.119 108.465 185.424 117.35 214.014L104.494 218.504C88.7561 184.396 82.4452 165.963 77.0693 138.788L97.638 128.863Z" fill="#4FCFBD"/>
<path d="M82.3173 65.1389L80.1064 74.749L84.8968 79.6338L90.7189 78.4511L92.0454 64.6661L82.3173 65.1389Z" fill="#F9B384"/>
<path d="M82.9531 122.341C76.0114 122.341 70.2312 120.14 65.6152 119.057L66.4031 116.049C71.6365 118.338 76.9341 119.673 82.3234 119.673C83.023 119.673 83.7233 119.65 84.4259 119.605C84.4495 119.94 84.4753 120.275 84.5033 120.609C84.0889 121.169 83.7086 121.746 83.3624 122.339C83.2256 122.341 83.0888 122.341 82.9531 122.341Z" fill="#162B62"/>
<path d="M80.3409 72.8577C80.3409 72.8577 84.5481 79.2385 91.0927 74.9858L96.9361 85.2652L94.2482 117.403C84.4466 121.202 74.9894 119.947 65.7324 115.749L72.7446 78.1762L80.3409 72.8577Z" fill="white"/>
<path d="M85.9283 81.3691C85.5143 81.3691 85.0998 81.3302 84.6928 81.2541C83.5507 81.0274 82.4637 80.5122 81.5923 79.7491C80.7178 78.9949 80.0558 77.9964 79.7563 76.9146C80.4057 77.8229 81.1641 78.5842 82.0322 79.1631C82.9017 79.735 83.8638 80.1422 84.8677 80.3263C85.3204 80.4166 85.7808 80.4609 86.2424 80.4609C86.8016 80.4609 87.3627 80.3954 87.9145 80.2697C88.4994 80.1333 89.0697 79.9226 89.6268 79.65C89.5643 79.866 89.5025 80.0802 89.4408 80.2945C89.0354 80.5742 88.5925 80.8044 88.125 80.9761C87.4271 81.2417 86.6786 81.3691 85.9283 81.3691Z" fill="#BBC4DB"/>
<path d="M80.5159 72.9771L71.6002 72.9382C68.7496 72.9647 65.9542 73.7349 63.4857 75.1778L51.4742 82.1943L36.3204 71.4811L30.1265 78.3346L45.5715 91.7071C48.0211 93.7378 51.3065 94.4123 54.345 93.5059L63.7454 90.7014L54.2791 125.32C60.923 127.211 66.0395 128.459 72.2767 126.146C75.666 118.349 81.598 99.7061 80.5159 72.9771Z" fill="#599FCF"/>
<path d="M81.9772 55.4878C81.9772 55.4878 79.4383 55.8543 77.0688 52.1203C74.8567 48.636 78.5685 40.5662 85.0157 43.9088C89.1062 39.8916 94.9602 41.6939 98.9896 47.5348C98.9896 47.5348 100.49 47.3524 101.962 49.2256C103.945 51.7521 103.104 60.0149 97.0058 63.2832L81.9772 55.4878Z" fill="#102048"/>
<path d="M81.8423 67.1985C81.8423 67.1985 83.0123 71.0529 85.8336 71.5574C89.4565 72.2072 91.2241 67.8872 91.2241 67.8872L81.8423 67.1985Z" fill="#E28B6D"/>
<path d="M97.0812 53.9996L96.3425 61.0567C96.3425 61.0567 95.0944 65.3625 90.8357 68.7796C86.5724 72.1966 80.8786 68.5565 80.584 63.6558C80.5793 63.6044 80.5793 63.5478 80.5747 63.4947C80.4999 62.1668 80.4952 60.9292 80.5373 59.7944C80.701 55.1026 81.6498 52.2132 81.6498 52.2132L89.2183 48.9484L97.0812 53.9996Z" fill="#F9B384"/>
<path d="M96.1052 60.1084C94.0852 59.2232 93.3038 57.1641 93.2397 54.4269C88.9237 55.4361 84.9235 55.02 81.1716 53.4797L79.1328 49.6909L87.7291 46.4031L97.538 49.0216L99.6871 55.5955L96.1052 60.1084Z" fill="#102048"/>
<path d="M89.7308 59.2261C89.5891 59.7484 89.1795 60.0901 88.8163 59.9892C88.4529 59.8883 88.2734 59.3837 88.4153 58.8614C88.5571 58.3391 88.9665 57.9974 89.3297 58.0983C89.6931 58.1992 89.8726 58.7038 89.7308 59.2261Z" fill="#102048"/>
<path d="M83.8479 58.1651C83.7532 58.698 83.376 59.0751 83.0051 59.0079C82.6344 58.9406 82.4104 58.4537 82.5051 57.9208C82.5997 57.3879 82.9771 57.009 83.3478 57.078C83.7187 57.1435 83.9425 57.6304 83.8479 58.1651Z" fill="#102048"/>
<path d="M85.5902 57.7249C85.7452 58.2383 85.6823 58.8261 85.4223 59.3201C85.2941 59.5679 85.1156 59.7946 84.8997 59.9787C84.6885 60.161 84.4705 60.285 84.3068 60.4284C84.1469 60.5647 84.019 60.7276 83.9863 60.8816C83.9443 61.025 83.9996 61.1879 84.121 61.3862C84.3882 61.7846 84.6701 62.2166 84.9167 62.6539L84.7449 62.792C84.3843 62.4326 84.0439 62.0785 83.7164 61.6713C83.5534 61.4677 83.3776 61.1313 83.4506 60.7683C83.524 60.4266 83.7306 60.177 83.9504 59.9946C84.1703 59.8176 84.3868 59.6883 84.564 59.5555C84.7379 59.4263 84.8833 59.2599 85.0093 59.0757C85.2521 58.7022 85.392 58.2436 85.3743 57.7638L85.5902 57.7249Z" fill="#E28B6D"/>
<path d="M87.7437 56.9327C88.2582 56.5574 88.9191 56.2989 89.6199 56.3927C89.9659 56.4405 90.2983 56.5928 90.5619 56.8123C90.8293 57.0283 91.0257 57.3081 91.1653 57.6037L91.0161 57.71C90.5689 57.2762 90.1009 56.9363 89.5519 56.8566C89.0033 56.7716 88.42 56.9239 87.8249 57.0991L87.7437 56.9327Z" fill="#102048"/>
<path d="M82.2261 55.9916C82.4367 55.7986 82.6761 55.6304 82.9495 55.5153C83.2204 55.3985 83.5312 55.3294 83.85 55.3631C84.1687 55.3985 84.4736 55.5454 84.6986 55.7561C84.9285 55.9633 85.0835 56.2235 85.1891 56.4926L85.0348 56.5918C84.6478 56.2005 84.259 55.8818 83.7979 55.8305C83.3351 55.7738 82.8351 55.9597 82.322 56.1474L82.2261 55.9916Z" fill="#102048"/>
<path d="M83.6833 64.0781L87.2409 64.1808C87.1419 64.8925 86.8625 65.4733 86.3721 65.9C85.7219 66.4665 84.7139 66.3975 84.1632 65.7318C83.7858 65.2767 83.6177 64.7279 83.6833 64.0781Z" fill="white"/>
<path d="M90.5673 64.6211C89.5171 64.6211 88.666 63.7606 88.666 62.7001C88.666 61.6378 89.5171 60.7774 90.5673 60.7774C91.6171 60.7774 92.4682 61.6378 92.4682 62.7001C92.4682 63.7606 91.6171 64.6211 90.5673 64.6211Z" fill="#FAA280"/>
<path d="M80.5748 63.4951C80.5303 62.7073 80.5107 61.9495 80.5107 61.2289C80.5109 60.7332 80.5202 60.2551 80.5374 59.7948C81.3508 60.0073 81.9492 60.7597 81.9492 61.6521C81.9492 62.5267 81.3695 63.2685 80.5748 63.4951Z" fill="#FAA280"/>
<path d="M105.117 109.131L100.909 129.809L110.57 129.493L114.347 114.329C116.15 107.088 115.618 99.4431 112.757 92.5612C111.359 89.1973 109.579 85.6298 107.505 81.9029C106.508 80.1129 104.853 78.7922 102.894 78.2504L91.0487 74.9856C85.2437 93.2039 82.5294 110.765 85.3271 127.132L98.6889 125.437C98.8631 116.418 98.643 106.366 101.844 94.2449C101.844 94.2449 105.584 99.4431 105.117 109.131Z" fill="#599FCF"/>
<path d="M94.5072 59.9075C96.1051 58.7107 96.9317 58.608 97.9787 59.5428C99.2438 60.6742 98.9155 65.5784 94.0112 63.8097L94.5072 59.9075Z" fill="#F9B384"/>
<path d="M95.3254 61.5742C95.2769 61.2998 95.3082 60.9953 95.4352 60.7262C95.5576 60.4553 95.7667 60.2251 96.0175 60.064C96.2689 59.9064 96.5677 59.8144 96.8747 59.8374C97.1778 59.8515 97.4993 60.0304 97.6238 60.3101L97.4755 60.4181C97.2913 60.2676 97.081 60.2375 96.8715 60.2534C96.6608 60.2729 96.449 60.3491 96.2618 60.4659C95.8798 60.6978 95.622 61.082 95.5082 61.5742H95.3254Z" fill="#E28B6D"/>
<path d="M62.162 97.5127L61.7119 97.3852L65.042 85.33L65.4922 85.4575L62.162 97.5127Z" fill="#102048"/>
<path d="M100.556 100.776L100.094 100.706C100.443 98.3579 102.58 90.2721 102.671 89.9286L103.122 90.0508C103.1 90.134 100.901 98.4535 100.556 100.776Z" fill="#102048"/>
<path d="M112.943 145.959C111.211 147.649 109.24 148.935 107.147 149.825C105.421 150.567 103.604 151.035 101.761 151.231C99.3382 151.493 96.8804 151.281 94.5208 150.601C92.3844 149.985 90.3304 148.988 88.4762 147.603C87.6216 146.966 86.8079 146.251 86.0475 145.452C82.4969 141.722 80.7279 136.917 80.73 132.114C80.727 127.073 82.6745 122.039 86.551 118.265C87.35 117.491 88.1918 116.797 89.0722 116.195C89.9863 115.565 90.9386 115.027 91.9235 114.579C92.5968 114.271 93.282 114.01 93.9794 113.785C94.9201 113.484 95.881 113.256 96.8511 113.104C99.2921 112.725 101.787 112.831 104.194 113.415C105.388 113.699 106.559 114.108 107.694 114.635C109.087 115.283 110.418 116.114 111.655 117.116C112.279 117.62 112.875 118.174 113.446 118.771C120.731 126.421 120.507 138.59 112.943 145.959Z" fill="#FBC343"/>
<path d="M99.2691 147.031C97.756 147.031 96.2433 146.803 94.7853 146.351C93.5498 145.971 92.3538 145.425 91.23 144.717C90.574 144.305 89.9429 143.836 89.3435 143.313C89.3433 143.313 89.3431 143.311 89.3428 143.311C84.3842 137.17 84.8224 128.121 90.5509 122.542C93.488 119.683 97.2734 118.261 101.059 118.261C104.797 118.261 108.537 119.647 111.456 122.402C116.008 128.53 115.431 137.269 109.831 142.722C109.225 143.313 108.583 143.843 107.911 144.31C106.247 145.473 104.407 146.265 102.502 146.681C101.437 146.914 100.353 147.031 99.2691 147.031ZM97.9572 137.795C97.9502 137.796 97.9431 137.798 97.936 137.8L99.3165 141.615C100.79 141.293 102.682 140.257 104.311 138.853L105.883 140.503L108.227 138.282L107.841 137.876H107.842L106.582 136.554C108.224 134.282 108.255 132.161 107.31 130.545C107.099 130.024 106.79 129.551 106.394 129.135C105.515 128.213 104.58 127.869 103.644 127.869C102.264 127.869 100.884 128.618 99.6925 129.365C98.5006 130.114 97.4963 130.863 96.8664 130.863C96.702 130.863 96.5629 130.812 96.4528 130.697C96.4367 130.679 96.4214 130.661 96.4071 130.644C96.4207 130.272 96.6848 129.776 97.3559 129.123C98.2947 128.207 99.5473 127.499 101.129 127.009L99.6869 123.284C99.6867 123.284 99.6864 123.284 99.686 123.284L99.5167 122.846C98.1714 123.201 96.7866 123.98 95.5507 124.975L93.972 123.317L93.8288 123.457L93.8251 123.454L91.654 125.568L93.2887 127.283C92.2645 128.662 91.8 130.012 91.7995 131.23C91.7993 131.733 91.8783 132.214 92.0298 132.666C92.2042 133.489 92.6058 134.229 93.1989 134.852C94.0992 135.796 95.055 136.148 96.009 136.148C97.3919 136.148 98.7705 135.41 99.9659 134.67C101.162 133.931 102.174 133.193 102.826 133.193C102.996 133.193 103.141 133.243 103.259 133.356C103.23 133.708 102.929 134.181 102.257 134.836C101.077 135.985 99.3615 136.909 97.7746 137.29L97.9572 137.795ZM88.9027 142.918C88.8607 142.878 88.8186 142.837 88.7766 142.796C86.2041 139.85 84.9417 136.159 84.9748 132.48C84.9476 136.207 86.2529 139.949 88.9027 142.918ZM111.348 122.259C111.269 122.172 111.188 122.085 111.106 122C108.111 118.856 104.117 117.273 100.121 117.273C96.3432 117.273 92.5646 118.688 89.63 121.536C89.6329 121.535 89.6359 121.531 89.6387 121.527C90.1819 121 90.7553 120.517 91.3493 120.086C91.3495 120.086 91.3498 120.086 91.35 120.086C91.3584 120.081 91.367 120.074 91.3755 120.067C91.4866 119.987 91.5985 119.909 91.7111 119.833C91.7305 119.819 91.7498 119.807 91.7692 119.792C91.7883 119.78 91.8074 119.768 91.8265 119.755C91.8379 119.746 91.8492 119.739 91.861 119.732C91.8654 119.729 91.8697 119.725 91.8741 119.723C91.8874 119.714 91.9011 119.706 91.9146 119.697C91.9189 119.693 91.9235 119.691 91.9284 119.69C92.0783 119.589 92.2301 119.495 92.3797 119.406C92.4114 119.385 92.4431 119.364 92.4767 119.348C92.4874 119.339 92.4981 119.332 92.5087 119.325C92.6196 119.259 92.7315 119.196 92.8436 119.132C92.8893 119.107 92.9353 119.082 92.9814 119.056C93.2316 118.92 93.4849 118.792 93.7405 118.67C94.165 118.47 94.5955 118.291 95.0319 118.133L95.0634 118.123C95.1201 118.1 95.179 118.082 95.2315 118.063C95.2988 118.04 95.3618 118.018 95.4289 117.997C95.8048 117.871 96.1829 117.76 96.5689 117.666V117.664C97.763 117.369 98.9852 117.222 100.207 117.222C102.544 117.222 104.879 117.762 107.014 118.838C108.332 119.504 109.575 120.378 110.694 121.453C110.802 121.577 110.905 121.699 111.006 121.825C111.123 121.968 111.237 122.113 111.348 122.259Z" fill="#E1AF3C"/>
<path d="M88.9579 142.979C88.939 142.958 88.9208 142.937 88.9021 142.918C88.9213 142.935 88.9406 142.953 88.96 142.969L88.9579 142.979ZM84.9741 132.479C85.0032 128.495 86.5537 124.531 89.6101 121.555C89.6164 121.548 89.623 121.543 89.6293 121.535C86.5677 124.522 85.01 128.492 84.9741 132.479ZM111.565 122.506C111.528 122.47 111.492 122.437 111.455 122.401C111.42 122.353 111.384 122.306 111.348 122.258C111.422 122.339 111.494 122.422 111.565 122.506Z" fill="#E1AF3C"/>
<path d="M89.3425 143.312C89.2128 143.201 89.0853 143.088 88.9604 142.971C88.941 142.955 88.9217 142.937 88.9025 142.919C86.2527 139.95 84.9474 136.208 84.9745 132.481C85.0104 128.494 86.5681 124.524 89.6297 121.537C92.5644 118.689 96.3429 117.274 100.121 117.274C104.116 117.274 108.111 118.857 111.106 122.001C111.188 122.086 111.269 122.173 111.348 122.26C111.384 122.308 111.42 122.355 111.456 122.403C108.536 119.648 104.797 118.262 101.059 118.262C97.2732 118.262 93.4878 119.684 90.5507 122.543C84.8222 128.122 84.384 137.171 89.3425 143.312Z" fill="#D2A338"/>
<path d="M91.3491 120.088L91.9233 114.582C92.5967 114.274 93.2819 114.013 93.9792 113.789C94.92 113.488 95.8809 113.259 96.851 113.107L96.5682 117.657L96.568 117.666C96.5679 117.666 96.5673 117.666 96.5672 117.666C95.601 117.903 94.6538 118.24 93.7397 118.672C93.6737 118.703 93.6076 118.735 93.542 118.767C93.4367 118.818 93.3273 118.872 93.2198 118.928C93.1502 118.969 93.0744 119.004 93.0049 119.045C92.9968 119.049 92.9886 119.054 92.9805 119.057C92.9345 119.082 92.8886 119.109 92.8427 119.134C92.7546 119.183 92.6669 119.231 92.5792 119.284C92.5546 119.298 92.5312 119.312 92.5079 119.327C92.3075 119.445 92.1097 119.569 91.9137 119.698C91.8994 119.705 91.8867 119.714 91.8733 119.725C91.8573 119.736 91.8414 119.746 91.8256 119.757C91.8062 119.769 91.7873 119.782 91.7684 119.794C91.7489 119.808 91.7297 119.821 91.7102 119.835C91.6908 119.847 91.6712 119.859 91.651 119.872C91.5584 119.937 91.4659 120.001 91.3747 120.068C91.3661 120.076 91.3577 120.081 91.3491 120.088Z" fill="#FCD57C"/>
<path d="M91.3491 120.088C91.3577 120.081 91.3661 120.076 91.3747 120.068C91.3661 120.076 91.3575 120.083 91.3491 120.088ZM91.8256 119.757C91.8414 119.746 91.8573 119.736 91.8733 119.725C91.8689 119.727 91.8645 119.73 91.8601 119.734C91.8484 119.741 91.837 119.748 91.8256 119.757ZM91.9137 119.698C92.1097 119.569 92.3075 119.445 92.5079 119.327C92.4972 119.334 92.4865 119.341 92.4758 119.35C92.4422 119.366 92.4105 119.387 92.3788 119.408C92.2293 119.497 92.0774 119.59 91.9275 119.691C91.9226 119.693 91.9181 119.695 91.9137 119.698ZM92.8427 119.134C92.8886 119.109 92.9345 119.082 92.9805 119.057C92.9345 119.084 92.8884 119.109 92.8427 119.134ZM93.7397 118.672C94.6538 118.24 95.601 117.903 96.5672 117.666C96.5673 117.666 96.5679 117.666 96.568 117.666V117.668C96.1821 117.761 95.804 117.873 95.428 117.999C95.3609 118.02 95.2979 118.041 95.2307 118.064C95.1781 118.084 95.1193 118.101 95.0625 118.124L95.031 118.135C94.5946 118.293 94.1642 118.471 93.7397 118.672Z" fill="#EAC777"/>
<path d="M94.5212 150.605C93.4264 150.29 92.3541 149.874 91.3193 149.357C92.3546 149.872 93.4271 150.289 94.5212 150.604V150.605Z" fill="#40599A"/>
<path d="M94.5211 150.603C93.4269 150.287 92.3545 149.871 91.3192 149.356C90.3331 148.864 89.3808 148.28 88.4756 147.605L88.9575 142.982L88.958 142.981C89.0519 143.083 89.1477 143.188 89.2449 143.289C89.4028 143.455 89.5631 143.618 89.7284 143.772C89.5986 143.623 89.4722 143.473 89.3491 143.321C89.9471 143.841 90.5761 144.307 91.2295 144.717C92.3531 145.426 93.5497 145.971 94.7848 146.352L94.5211 150.603Z" fill="#FCCC5F"/>
<path d="M91.2291 144.718C90.5757 144.307 89.9467 143.841 89.3486 143.321C89.3462 143.317 89.3444 143.316 89.3418 143.312C89.3421 143.312 89.3423 143.314 89.3425 143.314C89.9419 143.836 90.5731 144.305 91.2291 144.718Z" fill="#E5BB59"/>
<path d="M89.7284 143.772C89.5631 143.618 89.4028 143.456 89.2449 143.289C89.1477 143.188 89.0519 143.084 88.958 142.981L88.9601 142.97C89.0881 143.091 89.2179 143.208 89.3491 143.321C89.4722 143.473 89.5986 143.624 89.7284 143.772Z" fill="#E5BB59"/>
<path d="M89.3489 143.32C89.2177 143.207 89.088 143.09 88.96 142.97C89.0848 143.087 89.2123 143.2 89.3421 143.311C89.3447 143.315 89.3464 143.317 89.3489 143.32Z" fill="#D9B156"/>
<path d="M111.655 117.118C110.615 116.275 109.509 115.555 108.354 114.96C109.509 115.553 110.616 116.274 111.655 117.118H111.655H111.655Z" fill="#859DDB"/>
<path d="M111.006 121.825C110.905 121.699 110.801 121.577 110.693 121.453C109.575 120.379 108.332 119.504 107.014 118.838L107.016 118.822L107.694 114.639C107.916 114.741 108.136 114.848 108.354 114.959C109.509 115.554 110.615 116.275 111.655 117.117L111.017 121.749L111.006 121.825Z" fill="#FCCC5F"/>
<path d="M103.846 150.891C104.97 150.641 106.076 150.287 107.147 149.827C107.148 149.827 107.149 149.825 107.15 149.825L107.15 149.827C106.076 150.287 104.97 150.641 103.846 150.891Z" fill="#F2F6FF"/>
<path d="M101.763 151.23L102.5 146.68C104.405 146.264 106.246 145.473 107.91 144.31L107.15 149.825C107.149 149.825 107.148 149.826 107.147 149.826C106.076 150.287 104.971 150.641 103.846 150.891C103.157 151.043 102.462 151.156 101.763 151.23Z" fill="#FCD57C"/>
<path d="M99.3158 141.615L97.9354 137.8C97.9424 137.798 97.9496 137.796 97.9566 137.795L99.1477 141.086C100.554 140.778 102.346 139.818 103.92 138.504C103.986 138.45 104.052 138.395 104.117 138.338L105.681 139.979L107.84 137.876L108.226 138.281L105.882 140.503L104.31 138.853C102.682 140.257 100.789 141.293 99.3158 141.615ZM106.581 136.553L106.204 136.157C107.191 134.792 107.637 133.455 107.636 132.249C107.636 131.642 107.523 131.07 107.309 130.544C108.255 132.161 108.223 134.282 106.581 136.553ZM96.0084 136.148C95.0543 136.148 94.0985 135.796 93.1982 134.852C92.6051 134.229 92.2035 133.489 92.0291 132.665C92.2393 133.292 92.589 133.862 93.0604 134.356C93.4423 134.758 93.8346 135.05 94.2323 135.256C94.7673 135.532 95.3121 135.647 95.8565 135.647C97.2328 135.645 98.6043 134.91 99.7939 134.176C100.984 133.441 101.991 132.706 102.64 132.706C102.818 132.706 102.97 132.763 103.09 132.889C103.213 133.018 103.273 133.17 103.258 133.356C103.141 133.243 102.995 133.193 102.826 133.193C102.174 133.193 101.161 133.931 99.9652 134.67C98.7698 135.41 97.3913 136.148 96.0084 136.148ZM96.4064 130.644C96.1035 130.265 96.1868 129.64 97.1966 128.655C98.1308 127.747 99.3771 127.041 100.951 126.554L99.6854 123.284C99.6857 123.284 99.6861 123.284 99.6862 123.284L101.129 127.009C99.5467 127.499 98.294 128.207 97.3552 129.123C96.6841 129.776 96.4201 130.272 96.4064 130.644ZM93.2881 127.283L91.6533 125.568L93.8245 123.454L93.8281 123.457L91.8113 125.421L93.4199 127.11C93.3749 127.168 93.331 127.227 93.2881 127.283Z" fill="#D2A338"/>
<path d="M106.204 136.157L107.841 137.876L105.681 139.979L104.117 138.338C102.496 139.737 100.613 140.765 99.1473 141.086L97.7735 137.29C99.3604 136.909 101.076 135.985 102.256 134.836C103.283 133.836 103.444 133.26 103.09 132.889C102.531 132.303 101.31 133.239 99.7935 134.176C97.7835 135.419 95.2544 136.66 93.06 134.356C91.3925 132.607 91.2463 129.912 93.4195 127.11L91.8108 125.421L93.9709 123.317L95.5496 124.975C96.7855 123.98 98.1703 123.201 99.5156 122.846L100.951 126.554C99.3767 127.041 98.1304 127.747 97.1961 128.655C96.1384 129.686 96.0972 130.325 96.4517 130.697C96.9832 131.254 98.1882 130.311 99.6914 129.365C101.691 128.11 104.22 126.855 106.393 129.135C107.985 130.807 108.178 133.427 106.204 136.157Z" fill="#FBC343"/>
<mask id="mask0_67_3881" style="mask-type:luminance" maskUnits="userSpaceOnUse" x="91" y="122" width="17" height="20">
<path d="M106.205 136.155L107.842 137.874L105.682 139.977L104.118 138.336C102.497 139.735 100.614 140.764 99.1483 141.084L97.7745 137.288C99.3614 136.907 101.077 135.983 102.257 134.834C103.284 133.834 103.445 133.258 103.091 132.887C102.532 132.301 101.311 133.237 99.7945 134.174C97.7844 135.417 95.2554 136.658 93.0609 134.354C91.3934 132.605 91.2472 129.91 93.4205 127.108L91.8118 125.419L93.9719 123.315L95.5506 124.973C96.7864 123.978 98.1713 123.199 99.5166 122.844L100.952 126.552C99.3777 127.039 98.1314 127.745 97.1971 128.653C96.1394 129.684 96.0982 130.323 96.4526 130.695C96.9841 131.252 98.1891 130.309 99.6924 129.363C101.692 128.108 104.221 126.853 106.393 129.133C107.986 130.805 108.179 133.425 106.205 136.155Z" fill="white"/>
</mask>
<g mask="url(#mask0_67_3881)">
<path d="M94.2333 135.255C93.8356 135.05 93.4433 134.757 93.0614 134.355C92.2504 133.504 91.7993 132.431 91.7998 131.229C91.8003 129.959 92.3047 128.548 93.4209 127.109L91.8122 125.42L93.9723 123.317L94.9136 124.304L94.2333 135.255Z" fill="#FCD57C"/>
<path d="M105.682 139.979L104.118 138.337C104.053 138.394 103.987 138.449 103.921 138.504L105.553 128.431C105.838 128.614 106.119 128.846 106.394 129.134C107.19 129.97 107.637 131.043 107.637 132.249C107.638 133.454 107.192 134.791 106.205 136.156L107.842 137.875L105.682 139.979Z" fill="#FCD57C"/>
</g>
<path d="M102.637 128.538L101.419 132.194C101.419 132.194 98.0386 136.419 98.5141 136.957C99.5076 138.079 102.108 135.362 102.108 135.362L100.01 140.767C99.8949 141.126 100.107 141.505 100.471 141.589C101.604 141.845 103.997 142.093 106.146 140.385C108.939 138.164 108.29 132.826 108.29 132.826L109.486 128.869L102.637 128.538Z" fill="#F9B384"/>
<path d="M113.882 116.197L112.741 120.777L112.718 120.871L112.535 121.595L110.572 129.492L108.048 129.578L107.388 129.596L100.909 129.809L101.012 129.293L101.115 128.792L101.442 127.201L101.54 126.7L102.284 123.06L102.377 122.583L103.373 117.691L103.625 116.449L103.635 116.424V116.42L104.691 111.38C105.668 111.521 106.631 111.739 107.571 112.028C109.931 112.759 113.472 113.386 113.882 116.197Z" fill="#599FCF"/>
<path d="M35.6988 31.0822C33.9047 22.7662 25.7276 17.5203 17.5003 19.4554C9.68879 21.2932 4.60875 29.1258 6.06469 37.1C6.75869 40.9013 8.77414 44.0934 11.5309 46.303C13.7064 48.0469 15.2362 50.4813 15.828 53.2256L33.349 49.3606C32.758 46.6217 33.1415 43.7659 34.4011 41.2678C35.9308 38.2349 36.4724 34.6692 35.6988 31.0822Z" fill="#FFF4DC"/>
<path d="M16.945 34.4045L17.1266 34.0026L16.5461 33.7353C16.3671 33.652 16.178 33.6131 15.9947 33.6131C15.6507 33.6149 15.3285 33.7459 15.0839 33.9725C14.9616 34.0858 14.8588 34.2239 14.7863 34.3815C14.7138 34.5408 14.6727 34.7214 14.6729 34.9073C14.6729 34.9427 14.6743 34.9764 14.6769 35.0118C14.6898 35.1746 14.7312 35.3393 14.8024 35.4969L22.7728 53.1025L27.113 52.1447L27.109 32.7845C27.109 32.7278 27.1056 32.6712 27.0993 32.6145C27.0794 32.441 27.0256 32.2764 26.9454 32.1347C26.8251 31.9187 26.6481 31.7541 26.4493 31.6461C26.25 31.5381 26.0281 31.4814 25.8026 31.4814C25.6162 31.4814 25.4266 31.5204 25.2478 31.6018C25.0692 31.6833 24.9023 31.8107 24.768 31.9772L24.5515 32.2463C23.3376 33.7547 21.5456 34.5709 19.7123 34.5709C18.8402 34.5709 17.9597 34.3868 17.1266 34.0026L16.945 34.4045L16.7633 34.8082C17.712 35.2455 18.7178 35.4562 19.7123 35.4562C21.8021 35.4562 23.8465 34.5249 25.2306 32.804L25.4471 32.5366C25.4959 32.4764 25.5497 32.4357 25.6092 32.4074C25.6688 32.3808 25.7352 32.3667 25.8026 32.3667C25.9117 32.3667 26.0201 32.4056 26.094 32.4658C26.1313 32.4959 26.161 32.5296 26.1836 32.5703C26.2061 32.611 26.2225 32.657 26.2295 32.7172C26.2321 32.7402 26.2334 32.7615 26.2334 32.7845L26.2372 51.433L23.2754 52.0863L15.5987 35.1286C15.5702 35.0667 15.5548 35.0029 15.5497 34.9409L15.5484 34.9073C15.5486 34.8489 15.5604 34.7993 15.5815 34.7533C15.6132 34.6825 15.6696 34.6187 15.7439 34.5709C15.8178 34.5249 15.9067 34.4983 15.9947 34.4983C16.0573 34.4983 16.1197 34.5107 16.1827 34.5408L16.7634 34.8082L16.945 34.4045Z" fill="#040813"/>
<path d="M30.0138 62.4686C30.2148 63.4016 29.0899 64.4409 27.5008 64.7915C25.9121 65.142 24.4611 64.6693 24.2601 63.738C24.059 62.8068 25.1842 61.7675 26.773 61.4169C28.3619 61.0664 29.8129 61.5373 30.0138 62.4686Z" fill="#102048"/>
<path d="M15.8286 53.2266L33.3497 49.3616L34.9422 56.7445L17.4325 60.6484L15.8286 53.2266Z" fill="#599FCF"/>
<path d="M17.3931 60.4799L34.9141 56.6167L33.7349 59.4158C33.1694 60.7596 31.9963 61.744 30.5862 62.0574L23.5918 63.6154C22.1721 63.9306 20.6893 63.5287 19.6169 62.5372C18.5557 61.5546 17.3931 60.4799 17.3931 60.4799Z" fill="#599FCF"/>
<path d="M35.125 53.2411L15.8965 57.4797C15.6085 57.5434 15.3211 57.3575 15.2584 57.0654C15.1955 56.775 15.3798 56.4847 15.668 56.4209L34.8965 52.1806C35.1847 52.1169 35.4719 52.3028 35.5348 52.5949C35.5977 52.887 35.4133 53.1774 35.125 53.2411Z" fill="#102048"/>
<path d="M35.9719 57.1623L16.7434 61.4026C16.4551 61.4663 16.1679 61.2787 16.1051 60.9883C16.0422 60.6962 16.2266 60.4058 16.5149 60.3421L35.7433 56.1035C36.0316 56.0398 36.3188 56.2257 36.3816 56.5161C36.4445 56.8082 36.2601 57.0986 35.9719 57.1623Z" fill="#102048"/>
<path d="M0.613134 12.7212L8.70366 17.5971C9.29959 17.9565 10.0705 17.7582 10.4254 17.1563C10.7806 16.5543 10.5855 15.7735 9.98956 15.4159L1.89904 10.54C1.30328 10.1823 0.532406 10.3789 0.177263 10.9808C-0.177879 11.5846 0.0173774 12.3636 0.613134 12.7212Z" fill="#FFF4DC"/>
<path d="M24.6396 1.97818L20.4777 11.8026C20.2047 12.4488 20.5001 13.1942 21.1377 13.4704C21.7753 13.7466 22.5136 13.4474 22.7866 12.8029L26.9485 2.97851C27.2216 2.33405 26.9261 1.5869 26.2885 1.31071C25.6509 1.03628 24.9128 1.33373 24.6396 1.97818Z" fill="#FFF4DC"/>
<path d="M10.2557 2.52969L13.7973 13.0163C14.0213 13.6784 14.7353 14.0343 15.3916 13.8077C16.048 13.581 16.3984 12.8587 16.1742 12.1947L12.6326 1.70818C12.4085 1.04425 11.6947 0.69015 11.0383 0.916772C10.382 1.14339 10.0316 1.86576 10.2557 2.52969Z" fill="#FFF4DC"/>
<path d="M142.793 156.415H180.85V151.649H142.793V156.415Z" fill="#FBC343"/>
<path d="M152.724 156.406H168.341V151.649H152.724V156.406Z" fill="#E1AF3C"/>
<path d="M145.735 156.406H149.341V151.649H145.735V156.406Z" fill="#FDDB8E"/>
<path d="M173.459 156.406H177.063V151.649H173.459V156.406Z" fill="#FDDB8E"/>
<path d="M142.793 165.936H180.85V161.169H142.793V165.936Z" fill="#FBC343"/>
<path d="M168.341 165.928H152.724V161.17H168.341V165.928Z" fill="#E1AF3C"/>
<path d="M149.341 165.928H145.735V161.17H149.341V165.928Z" fill="#FDDB8E"/>
<path d="M177.063 165.928H173.459V161.17H177.063V165.928Z" fill="#FDDB8E"/>
<path d="M141.448 161.17H179.505V156.406H141.448V161.17Z" fill="#FBC343"/>
<path d="M151.378 161.17H166.995V156.406H151.378V161.17Z" fill="#E1AF3C"/>
<path d="M144.39 161.17H147.994V156.406H144.39V161.17Z" fill="#FDDB8E"/>
<path d="M172.115 161.17H175.719V156.406H172.115V161.17Z" fill="#FDDB8E"/>
<path d="M142.793 175.459H180.85V170.693H142.793V175.459Z" fill="#FBC343"/>
<path d="M168.341 175.449H152.724V170.694H168.341V175.449Z" fill="#E1AF3C"/>
<path d="M149.341 175.449H145.735V170.694H149.341V175.449Z" fill="#FDDB8E"/>
<path d="M177.063 175.449H173.459V170.694H177.063V175.449Z" fill="#FDDB8E"/>
<path d="M144.715 170.693H182.772V165.927H144.715V170.693Z" fill="#FBC343"/>
<path d="M170.264 170.693H154.647V165.927H170.264V170.693Z" fill="#E1AF3C"/>
<path d="M151.262 170.693H147.658V165.927H151.262V170.693Z" fill="#FDDB8E"/>
<path d="M178.986 170.693H175.382V165.927H178.986V170.693Z" fill="#FDDB8E"/>
<path d="M142.793 184.98H180.85V180.214H142.793V184.98Z" fill="#FBC343"/>
<path d="M168.341 184.972H152.724V180.216H168.341V184.972Z" fill="#E1AF3C"/>
<path d="M149.341 184.972H145.735V180.216H149.341V184.972Z" fill="#FDDB8E"/>
<path d="M177.063 184.972H173.459V180.216H177.063V184.972Z" fill="#FDDB8E"/>
<path d="M141.062 180.216H179.121V175.45H141.062V180.216Z" fill="#FBC343"/>
<path d="M150.994 180.216H166.611V175.45H150.994V180.216Z" fill="#E1AF3C"/>
<path d="M144.004 180.216H147.61V175.45H144.004V180.216Z" fill="#FDDB8E"/>
<path d="M171.73 180.216H175.336V175.45H171.73V180.216Z" fill="#FDDB8E"/>
<path d="M142.793 194.503H180.85V189.739H142.793V194.503Z" fill="#FBC343"/>
<path d="M152.724 194.503H168.341V189.739H152.724V194.503Z" fill="#E1AF3C"/>
<path d="M145.735 194.503H149.341V189.739H145.735V194.503Z" fill="#FDDB8E"/>
<path d="M173.459 194.503H177.063V189.739H173.459V194.503Z" fill="#FDDB8E"/>
<path d="M142.793 189.737H180.85V184.971H142.793V189.737Z" fill="#FBC343"/>
<path d="M152.724 189.737H168.341V184.971H152.724V189.737Z" fill="#E1AF3C"/>
<path d="M145.735 189.737H149.341V184.971H145.735V189.737Z" fill="#FDDB8E"/>
<path d="M173.459 189.737H177.063V184.971H173.459V189.737Z" fill="#FDDB8E"/>
<path d="M139.989 204.034H178.046V199.268H139.989V204.034Z" fill="#FBC343"/>
<path d="M165.536 204.034H149.918V199.268H165.536V204.034Z" fill="#E1AF3C"/>
<path d="M146.535 204.034H142.931V199.268H146.535V204.034Z" fill="#FDDB8E"/>
<path d="M174.26 204.034H170.654V199.268H174.26V204.034Z" fill="#FDDB8E"/>
<path d="M142.793 199.267H180.85V194.502H142.793V199.267Z" fill="#FBC343"/>
<path d="M168.341 199.267H152.724V194.502H168.341V199.267Z" fill="#E1AF3C"/>
<path d="M149.341 199.267H145.735V194.502H149.341V199.267Z" fill="#FDDB8E"/>
<path d="M177.063 199.267H173.459V194.502H177.063V199.267Z" fill="#FDDB8E"/>
<path d="M142.793 213.564H180.85V208.798H142.793V213.564Z" fill="#FBC343"/>
<path d="M152.724 213.564H168.341V208.8H152.724V213.564Z" fill="#E1AF3C"/>
<path d="M145.735 213.564H149.341V208.8H145.735V213.564Z" fill="#FDDB8E"/>
<path d="M173.459 213.564H177.063V208.8H173.459V213.564Z" fill="#FDDB8E"/>
<path d="M142.793 208.801H180.85V204.035H142.793V208.801Z" fill="#FBC343"/>
<path d="M152.724 208.801H168.341V204.035H152.724V208.801Z" fill="#E1AF3C"/>
<path d="M145.735 208.801H149.341V204.035H145.735V208.801Z" fill="#FDDB8E"/>
<path d="M173.459 208.801H177.063V204.035H173.459V208.801Z" fill="#FDDB8E"/>
<path d="M142.793 223.095H180.85V218.33H142.793V223.095Z" fill="#FBC343"/>
<path d="M152.724 223.095H168.341V218.33H152.724V223.095Z" fill="#E1AF3C"/>
<path d="M145.735 223.095H149.341V218.33H145.735V223.095Z" fill="#FDDB8E"/>
<path d="M173.459 223.095H177.063V218.33H173.459V223.095Z" fill="#FDDB8E"/>
<path d="M142.793 218.331H180.85V213.565H142.793V218.331Z" fill="#FBC343"/>
<path d="M152.724 218.331H168.341V213.565H152.724V218.331Z" fill="#E1AF3C"/>
<path d="M145.735 218.331H149.341V213.565H145.735V218.331Z" fill="#FDDB8E"/>
<path d="M173.459 218.331H177.063V213.565H173.459V218.331Z" fill="#FDDB8E"/>
<path d="M142.793 232.627H180.85V227.861H142.793V232.627Z" fill="#FBC343"/>
<path d="M152.724 232.627H168.341V227.861H152.724V232.627Z" fill="#E1AF3C"/>
<path d="M145.735 232.627H149.341V227.861H145.735V232.627Z" fill="#FDDB8E"/>
<path d="M173.459 232.627H177.063V227.861H173.459V232.627Z" fill="#FDDB8E"/>
<path d="M142.793 227.861H180.85V223.097H142.793V227.861Z" fill="#FBC343"/>
<path d="M152.724 227.861H168.341V223.097H152.724V227.861Z" fill="#E1AF3C"/>
<path d="M145.735 227.861H149.341V223.097H145.735V227.861Z" fill="#FDDB8E"/>
<path d="M173.459 227.861H177.063V223.097H173.459V227.861Z" fill="#FDDB8E"/>
<path d="M142.793 237.394H180.85V232.627H142.793V237.394Z" fill="#FBC343"/>
<path d="M152.724 237.394H168.341V232.627H152.724V237.394Z" fill="#E1AF3C"/>
<path d="M145.735 237.394H149.341V232.627H145.735V237.394Z" fill="#FDDB8E"/>
<path d="M173.459 237.394H177.063V232.627H173.459V237.394Z" fill="#FDDB8E"/>
<path d="M192.557 175.459H230.614V170.693H192.557V175.459Z" fill="#FBC343"/>
<path d="M218.104 175.449H202.487V170.692H205.494L205.601 170.773L205.66 170.692H218.104V175.449Z" fill="#E1AF3C"/>
<path d="M195.499 175.449H199.103V170.692H195.499V175.449Z" fill="#FDDB8E"/>
<path d="M226.827 175.459H224.209V175.45H223.222V170.693H226.827V175.459Z" fill="#FDDB8E"/>
<path d="M187.881 184.98H225.938V180.214H187.881V184.98Z" fill="#FBC343"/>
<path d="M213.429 184.972H197.812V180.216H213.429V184.972Z" fill="#E1AF3C"/>
<path d="M194.428 184.972H190.823V180.216H194.428V184.972Z" fill="#FDDB8E"/>
<path d="M222.152 184.972H218.548V180.216H222.152V184.972Z" fill="#FDDB8E"/>
<path d="M186.151 180.216H224.21V175.45H186.151V180.216Z" fill="#FBC343"/>
<path d="M196.082 180.216H211.699V175.45H196.082V180.216Z" fill="#E1AF3C"/>
<path d="M189.093 180.216H192.698V175.45H189.093V180.216Z" fill="#FDDB8E"/>
<path d="M216.818 180.216H220.424V175.45H216.818V180.216Z" fill="#FDDB8E"/>
<path d="M187.881 194.503H225.938V189.739H187.881V194.503Z" fill="#FBC343"/>
<path d="M213.429 194.503H197.812V189.739H213.429V194.503Z" fill="#E1AF3C"/>
<path d="M194.428 194.503H190.823V189.739H194.428V194.503Z" fill="#FDDB8E"/>
<path d="M222.152 194.503H218.548V189.739H222.152V194.503Z" fill="#FDDB8E"/>
<path d="M185.96 189.737H224.017V184.971H185.96V189.737Z" fill="#FBC343"/>
<path d="M195.891 189.737H211.508V184.971H195.891V189.737Z" fill="#E1AF3C"/>
<path d="M188.902 189.737H192.506V184.971H188.902V189.737Z" fill="#FDDB8E"/>
<path d="M216.625 189.737H220.231V184.971H216.625V189.737Z" fill="#FDDB8E"/>
<path d="M187.881 204.034H225.938V199.268H187.881V204.034Z" fill="#FBC343"/>
<path d="M197.812 204.034H213.429V199.268H197.812V204.034Z" fill="#E1AF3C"/>
<path d="M190.823 204.034H194.428V199.268H190.823V204.034Z" fill="#FDDB8E"/>
<path d="M218.548 204.034H222.152V199.268H218.548V204.034Z" fill="#FDDB8E"/>
<path d="M187.881 199.267H225.938V194.502H187.881V199.267Z" fill="#FBC343"/>
<path d="M197.812 199.267H213.429V194.502H197.812V199.267Z" fill="#E1AF3C"/>
<path d="M190.823 199.267H194.428V194.502H190.823V199.267Z" fill="#FDDB8E"/>
<path d="M218.548 199.267H222.152V194.502H218.548V199.267Z" fill="#FDDB8E"/>
<path d="M191.621 213.564H229.678V208.798H191.621V213.564Z" fill="#FBC343"/>
<path d="M217.169 213.564H201.552V208.8H217.169V213.564Z" fill="#E1AF3C"/>
<path d="M198.167 213.564H194.563V208.8H198.167V213.564Z" fill="#FDDB8E"/>
<path d="M222.287 213.564H225.892V208.8H222.287V213.564Z" fill="#FDDB8E"/>
<path d="M187.881 208.801H225.938V204.035H187.881V208.801Z" fill="#FBC343"/>
<path d="M213.429 208.801H197.812V204.035H213.429V208.801Z" fill="#E1AF3C"/>
<path d="M190.823 208.801H194.428V204.035H190.823V208.801Z" fill="#FDDB8E"/>
<path d="M218.548 208.801H222.152V204.035H218.548V208.801Z" fill="#FDDB8E"/>
<path d="M187.881 223.095H225.938V218.33H187.881V223.095Z" fill="#FBC343"/>
<path d="M197.812 223.095H213.429V218.33H197.812V223.095Z" fill="#E1AF3C"/>
<path d="M190.823 223.095H194.428V218.33H190.823V223.095Z" fill="#FDDB8E"/>
<path d="M218.548 223.095H222.152V218.33H218.548V223.095Z" fill="#FDDB8E"/>
<path d="M187.881 218.331H225.938V213.565H187.881V218.331Z" fill="#FBC343"/>
<path d="M197.812 218.331H213.429V213.565H197.812V218.331Z" fill="#E1AF3C"/>
<path d="M190.823 218.331H194.428V213.565H190.823V218.331Z" fill="#FDDB8E"/>
<path d="M218.548 218.331H222.152V213.565H218.548V218.331Z" fill="#FDDB8E"/>
<path d="M187.881 232.627H225.938V227.861H187.881V232.627Z" fill="#FBC343"/>
<path d="M197.812 232.627H213.429V227.861H197.812V232.627Z" fill="#E1AF3C"/>
<path d="M190.823 232.627H194.428V227.861H190.823V232.627Z" fill="#FDDB8E"/>
<path d="M218.548 232.627H222.152V227.861H218.548V232.627Z" fill="#FDDB8E"/>
<path d="M187.881 227.861H225.938V223.097H187.881V227.861Z" fill="#FBC343"/>
<path d="M197.812 227.861H213.429V223.097H197.812V227.861Z" fill="#E1AF3C"/>
<path d="M190.823 227.861H194.428V223.097H190.823V227.861Z" fill="#FDDB8E"/>
<path d="M218.548 227.861H222.152V223.097H218.548V227.861Z" fill="#FDDB8E"/>
<path d="M187.881 237.394H225.938V232.627H187.881V237.394Z" fill="#FBC343"/>
<path d="M197.812 237.394H213.429V232.627H197.812V237.394Z" fill="#E1AF3C"/>
<path d="M190.823 237.394H194.428V232.627H190.823V237.394Z" fill="#FDDB8E"/>
<path d="M218.548 237.394H222.152V232.627H218.548V237.394Z" fill="#FDDB8E"/>
<path d="M1.37695 237.426H257.871V236.762H1.37695" fill="#D3DFFF"/>
<rect x="136" y="143.401" width="98" height="93.0132" rx="12" fill="#92E6FF" fill-opacity="0.3"/>
<path d="M142.392 156.265H180.79V151.488H142.392V156.265Z" fill="#0AC3C7"/>
<path d="M152.412 156.255H168.169V151.487H152.412V156.255Z" fill="#097C7F"/>
<path d="M145.36 156.255H148.998V151.487H145.36V156.255Z" fill="#A1FCEF"/>
<path d="M173.333 156.255H176.969V151.487H173.333V156.255Z" fill="#A1FCEF"/>
<path d="M142.392 165.807H180.79V161.03H142.392V165.807Z" fill="#0AC3C7"/>
<path d="M168.169 165.799H152.412V161.031H168.169V165.799Z" fill="#097C7F"/>
<path d="M148.998 165.799H145.36V161.031H148.998V165.799Z" fill="#A1FCEF"/>
<path d="M176.969 165.799H173.333V161.031H176.969V165.799Z" fill="#A1FCEF"/>
<path d="M141.035 161.03H179.433V156.255H141.035V161.03Z" fill="#0AC3C7"/>
<path d="M151.054 161.03H166.811V156.255H151.054V161.03Z" fill="#097C7F"/>
<path d="M144.002 161.03H147.639V156.255H144.002V161.03Z" fill="#A1FCEF"/>
<path d="M171.977 161.03H175.613V156.255H171.977V161.03Z" fill="#A1FCEF"/>
<path d="M142.392 175.353H180.79V170.576H142.392V175.353Z" fill="#0AC3C7"/>
<path d="M168.169 175.342H152.412V170.575H168.169V175.342Z" fill="#097C7F"/>
<path d="M148.998 175.342H145.36V170.575H148.998V175.342Z" fill="#A1FCEF"/>
<path d="M176.969 175.342H173.333V170.575H176.969V175.342Z" fill="#A1FCEF"/>
<path d="M144.331 170.574H182.73V165.797H144.331V170.574Z" fill="#0AC3C7"/>
<path d="M170.109 170.574H154.352V165.797H170.109V170.574Z" fill="#097C7F"/>
<path d="M150.936 170.574H147.3V165.797H150.936V170.574Z" fill="#A1FCEF"/>
<path d="M178.91 170.574H175.273V165.797H178.91V170.574Z" fill="#A1FCEF"/>
<path d="M142.392 184.894H180.79V180.117H142.392V184.894Z" fill="#0AC3C7"/>
<path d="M168.169 184.886H152.412V180.119H168.169V184.886Z" fill="#097C7F"/>
<path d="M148.998 184.886H145.36V180.119H148.998V184.886Z" fill="#A1FCEF"/>
<path d="M176.969 184.886H173.333V180.119H176.969V184.886Z" fill="#A1FCEF"/>
<path d="M140.645 180.118H179.045V175.341H140.645V180.118Z" fill="#0AC3C7"/>
<path d="M150.666 180.118H166.423V175.341H150.666V180.118Z" fill="#097C7F"/>
<path d="M143.614 180.118H147.252V175.341H143.614V180.118Z" fill="#A1FCEF"/>
<path d="M171.588 180.118H175.226V175.341H171.588V180.118Z" fill="#A1FCEF"/>
<path d="M142.392 194.437H180.79V189.661H142.392V194.437Z" fill="#0AC3C7"/>
<path d="M152.412 194.437H168.169V189.661H152.412V194.437Z" fill="#097C7F"/>
<path d="M145.36 194.437H148.998V189.661H145.36V194.437Z" fill="#A1FCEF"/>
<path d="M173.333 194.437H176.969V189.661H173.333V194.437Z" fill="#A1FCEF"/>
<path d="M142.392 189.661H180.79V184.884H142.392V189.661Z" fill="#0AC3C7"/>
<path d="M152.412 189.661H168.169V184.884H152.412V189.661Z" fill="#097C7F"/>
<path d="M145.36 189.661H148.998V184.884H145.36V189.661Z" fill="#A1FCEF"/>
<path d="M173.333 189.661H176.969V184.884H173.333V189.661Z" fill="#A1FCEF"/>
<path d="M139.562 203.991H177.961V199.214H139.562V203.991Z" fill="#0AC3C7"/>
<path d="M165.338 203.991H149.581V199.214H165.338V203.991Z" fill="#097C7F"/>
<path d="M146.167 203.991H142.53V199.214H146.167V203.991Z" fill="#A1FCEF"/>
<path d="M174.141 203.991H170.503V199.214H174.141V203.991Z" fill="#A1FCEF"/>
<path d="M142.392 199.213H180.79V194.438H142.392V199.213Z" fill="#0AC3C7"/>
<path d="M168.169 199.213H152.412V194.438H168.169V199.213Z" fill="#097C7F"/>
<path d="M148.998 199.213H145.36V194.438H148.998V199.213Z" fill="#A1FCEF"/>
<path d="M176.969 199.213H173.333V194.438H176.969V199.213Z" fill="#A1FCEF"/>
<path d="M142.392 213.542H180.79V208.765H142.392V213.542Z" fill="#0AC3C7"/>
<path d="M152.412 213.542H168.169V208.767H152.412V213.542Z" fill="#097C7F"/>
<path d="M145.36 213.542H148.998V208.767H145.36V213.542Z" fill="#A1FCEF"/>
<path d="M173.333 213.542H176.969V208.767H173.333V213.542Z" fill="#A1FCEF"/>
<path d="M142.392 208.769H180.79V203.992H142.392V208.769Z" fill="#0AC3C7"/>
<path d="M152.412 208.769H168.169V203.992H152.412V208.769Z" fill="#097C7F"/>
<path d="M145.36 208.769H148.998V203.992H145.36V208.769Z" fill="#A1FCEF"/>
<path d="M173.333 208.769H176.969V203.992H173.333V208.769Z" fill="#A1FCEF"/>
<path d="M142.392 223.095H180.79V218.32H142.392V223.095Z" fill="#0AC3C7"/>
<path d="M152.412 223.095H168.169V218.32H152.412V223.095Z" fill="#097C7F"/>
<path d="M145.36 223.095H148.998V218.32H145.36V223.095Z" fill="#A1FCEF"/>
<path d="M173.333 223.095H176.969V218.32H173.333V223.095Z" fill="#A1FCEF"/>
<path d="M142.392 218.32H180.79V213.543H142.392V218.32Z" fill="#0AC3C7"/>
<path d="M152.412 218.32H168.169V213.543H152.412V218.32Z" fill="#097C7F"/>
<path d="M145.36 218.32H148.998V213.543H145.36V218.32Z" fill="#A1FCEF"/>
<path d="M173.333 218.32H176.969V213.543H173.333V218.32Z" fill="#A1FCEF"/>
<path d="M142.392 232.649H180.79V227.872H142.392V232.649Z" fill="#0AC3C7"/>
<path d="M152.412 232.649H168.169V227.872H152.412V232.649Z" fill="#097C7F"/>
<path d="M145.36 232.649H148.998V227.872H145.36V232.649Z" fill="#A1FCEF"/>
<path d="M173.333 232.649H176.969V227.872H173.333V232.649Z" fill="#A1FCEF"/>
<path d="M142.392 227.871H180.79V223.096H142.392V227.871Z" fill="#0AC3C7"/>
<path d="M152.412 227.871H168.169V223.096H152.412V227.871Z" fill="#097C7F"/>
<path d="M145.36 227.871H148.998V223.096H145.36V227.871Z" fill="#A1FCEF"/>
<path d="M173.333 227.871H176.969V223.096H173.333V227.871Z" fill="#A1FCEF"/>
<path d="M142.392 237.426H180.79V232.649H142.392V237.426Z" fill="#0AC3C7"/>
<path d="M152.412 237.426H168.169V232.649H152.412V237.426Z" fill="#097C7F"/>
<path d="M145.36 237.426H148.998V232.649H145.36V237.426Z" fill="#A1FCEF"/>
<path d="M173.333 237.426H176.969V232.649H173.333V237.426Z" fill="#A1FCEF"/>
<path d="M192.602 175.353H231V170.576H192.602V175.353Z" fill="#0AC3C7"/>
<path d="M218.378 175.342H202.621V170.574H205.655L205.763 170.655L205.823 170.574H218.378V175.342Z" fill="#097C7F"/>
<path d="M195.57 175.342H199.206V170.574H195.57V175.342Z" fill="#A1FCEF"/>
<path d="M227.18 175.353H224.538V175.344H223.542V170.576H227.18V175.353Z" fill="#A1FCEF"/>
<path d="M187.884 184.894H226.283V180.117H187.884V184.894Z" fill="#0AC3C7"/>
<path d="M213.661 184.886H197.904V180.119H213.661V184.886Z" fill="#097C7F"/>
<path d="M194.49 184.886H190.852V180.119H194.49V184.886Z" fill="#A1FCEF"/>
<path d="M222.462 184.886H218.826V180.119H222.462V184.886Z" fill="#A1FCEF"/>
<path d="M186.138 180.118H224.538V175.341H186.138V180.118Z" fill="#0AC3C7"/>
<path d="M196.158 180.118H211.916V175.341H196.158V180.118Z" fill="#097C7F"/>
<path d="M189.106 180.118H192.744V175.341H189.106V180.118Z" fill="#A1FCEF"/>
<path d="M217.081 180.118H220.719V175.341H217.081V180.118Z" fill="#A1FCEF"/>
<path d="M187.884 194.437H226.283V189.661H187.884V194.437Z" fill="#0AC3C7"/>
<path d="M213.661 194.437H197.904V189.661H213.661V194.437Z" fill="#097C7F"/>
<path d="M194.49 194.437H190.852V189.661H194.49V194.437Z" fill="#A1FCEF"/>
<path d="M222.462 194.437H218.826V189.661H222.462V194.437Z" fill="#A1FCEF"/>
<path d="M185.946 189.661H224.344V184.884H185.946V189.661Z" fill="#0AC3C7"/>
<path d="M195.965 189.661H211.723V184.884H195.965V189.661Z" fill="#097C7F"/>
<path d="M188.914 189.661H192.55V184.884H188.914V189.661Z" fill="#A1FCEF"/>
<path d="M216.886 189.661H220.524V184.884H216.886V189.661Z" fill="#A1FCEF"/>
<path d="M187.884 203.991H226.283V199.214H187.884V203.991Z" fill="#0AC3C7"/>
<path d="M197.904 203.991H213.661V199.214H197.904V203.991Z" fill="#097C7F"/>
<path d="M190.852 203.991H194.49V199.214H190.852V203.991Z" fill="#A1FCEF"/>
<path d="M218.826 203.991H222.462V199.214H218.826V203.991Z" fill="#A1FCEF"/>
<path d="M187.884 199.213H226.283V194.438H187.884V199.213Z" fill="#0AC3C7"/>
<path d="M197.904 199.213H213.661V194.438H197.904V199.213Z" fill="#097C7F"/>
<path d="M190.852 199.213H194.49V194.438H190.852V199.213Z" fill="#A1FCEF"/>
<path d="M218.826 199.213H222.462V194.438H218.826V199.213Z" fill="#A1FCEF"/>
<path d="M191.657 213.542H230.056V208.765H191.657V213.542Z" fill="#0AC3C7"/>
<path d="M217.435 213.542H201.678V208.767H217.435V213.542Z" fill="#097C7F"/>
<path d="M198.263 213.542H194.626V208.767H198.263V213.542Z" fill="#A1FCEF"/>
<path d="M222.598 213.542H226.236V208.767H222.598V213.542Z" fill="#A1FCEF"/>
<path d="M187.884 208.769H226.283V203.992H187.884V208.769Z" fill="#0AC3C7"/>
<path d="M213.661 208.769H197.904V203.992H213.661V208.769Z" fill="#097C7F"/>
<path d="M190.852 208.769H194.49V203.992H190.852V208.769Z" fill="#A1FCEF"/>
<path d="M218.826 208.769H222.462V203.992H218.826V208.769Z" fill="#A1FCEF"/>
<path d="M187.884 223.095H226.283V218.32H187.884V223.095Z" fill="#0AC3C7"/>
<path d="M197.904 223.095H213.661V218.32H197.904V223.095Z" fill="#097C7F"/>
<path d="M190.852 223.095H194.49V218.32H190.852V223.095Z" fill="#A1FCEF"/>
<path d="M218.826 223.095H222.462V218.32H218.826V223.095Z" fill="#A1FCEF"/>
<path d="M187.884 218.32H226.283V213.543H187.884V218.32Z" fill="#0AC3C7"/>
<path d="M197.904 218.32H213.661V213.543H197.904V218.32Z" fill="#097C7F"/>
<path d="M190.852 218.32H194.49V213.543H190.852V218.32Z" fill="#A1FCEF"/>
<path d="M218.826 218.32H222.462V213.543H218.826V218.32Z" fill="#A1FCEF"/>
<path d="M187.884 232.649H226.283V227.872H187.884V232.649Z" fill="#0AC3C7"/>
<path d="M197.904 232.649H213.661V227.872H197.904V232.649Z" fill="#097C7F"/>
<path d="M190.852 232.649H194.49V227.872H190.852V232.649Z" fill="#A1FCEF"/>
<path d="M218.826 232.649H222.462V227.872H218.826V232.649Z" fill="#A1FCEF"/>
<path d="M187.884 227.871H226.283V223.096H187.884V227.871Z" fill="#0AC3C7"/>
<path d="M197.904 227.871H213.661V223.096H197.904V227.871Z" fill="#097C7F"/>
<path d="M190.852 227.871H194.49V223.096H190.852V227.871Z" fill="#A1FCEF"/>
<path d="M218.826 227.871H222.462V223.096H218.826V227.871Z" fill="#A1FCEF"/>
<path d="M187.884 237.426H226.283V232.649H187.884V237.426Z" fill="#0AC3C7"/>
<path d="M197.904 237.426H213.661V232.649H197.904V237.426Z" fill="#097C7F"/>
<path d="M190.852 237.426H194.49V232.649H190.852V237.426Z" fill="#A1FCEF"/>
<path d="M218.826 237.426H222.462V232.649H218.826V237.426Z" fill="#A1FCEF"/>
</svg>
