<svg width="600" height="429" viewBox="0 0 600 429" fill="none" xmlns="http://www.w3.org/2000/svg">
<g clip-path="url(#clip0_72_338)">
<path d="M0.180039 41.6383L-1.9507e-05 41.7463C3.13479 56.0591 15.8073 66.0668 29.5998 67.9592C37.9329 69.0936 46.3127 66.6574 53.2576 61.9308C57.0064 59.374 61.0343 57.1323 65.1216 55.6612C71.0185 53.5383 77.0703 52.9964 82.6665 55.3839C86.2947 56.927 90.4918 55.6252 92.5535 52.2491C95.8089 46.8834 95.5784 42.0722 94.8312 39.0094C94.3018 36.8145 92.8308 34.9941 90.8519 33.921C77.542 26.7601 65.5556 35.248 56.7669 45.8823C51.412 52.3698 44.0458 57.0351 35.7253 58.2541C22.0643 60.2671 7.23292 54.2982 0.180039 41.6383Z" fill="url(#paint0_linear_72_338)"/>
<path d="M65.1214 55.6739C65.1214 55.6739 60.9009 63.5821 59.9015 65.9337C59.9015 65.9337 67.0517 80.8983 69.0647 100.346C71.0652 119.784 67.943 137.663 67.943 137.663C67.943 137.663 69.5581 149.396 88.3922 143.029C88.3922 143.029 91.0336 146.539 95.301 146.708C95.301 146.708 101.909 145.707 102.91 140.125C103.922 134.529 104.754 129.332 111.737 125.486C118.718 121.627 131.233 117.553 136.997 108.944C136.997 108.944 154.083 92.1357 149.079 65.2224C144.713 41.7716 164.922 16.342 203.71 6.06791C169.769 14.473 125 29.146 90.8518 33.9211C92.8306 34.9942 94.3017 36.8146 94.831 39.0095C95.5783 42.0723 95.8088 46.8835 92.5533 52.2492C90.4916 55.6253 86.2945 56.9271 82.6663 55.384C77.0701 52.9965 71.0183 53.5385 65.1214 55.6613V55.6739Z" fill="url(#paint1_linear_72_338)"/>
<path d="M373.196 274.187L373.446 274.038L372.964 273.937L373.196 274.187ZM373.414 273.987C372.607 272.657 371.811 271.365 371.028 270.121C368.358 265.885 365.837 262.177 363.617 259.186C363.219 258.655 362.832 258.146 362.455 257.658C358.617 252.684 355.552 244.564 354.036 235.136C351.819 221.367 352.907 204.802 359.708 191.151C362.88 184.783 367.294 179.051 373.196 174.53C375.904 172.454 378.607 170.571 381.291 168.875C395.046 160.183 408.414 156.38 420.71 156.38C422.854 156.38 424.966 156.497 427.044 156.722C434.554 157.54 441.586 159.796 447.969 163.221C433.442 154.749 369.361 115.552 332.967 64.3652C291.736 6.38827 269.286 -0.000188515 239.78 -0.000188515C232.142 -0.000188515 221.751 1.8184 209.674 4.63631C207.741 5.08646 205.754 5.57081 203.704 6.07137C164.924 16.3455 144.709 41.7643 149.079 65.2151C154.083 92.1356 137.005 108.948 137.005 108.948C137.005 108.948 152.699 117.841 167.676 151.643C167.679 151.643 167.681 151.641 167.683 151.639C170.396 157.752 173.085 164.685 175.654 172.523C175.654 172.523 177.352 175.715 181.22 180.368C186.814 175.205 193.059 168.763 198.682 161.368C198.684 161.366 198.687 161.363 198.689 161.359C198.691 161.357 198.693 161.354 198.696 161.35C200.086 159.522 201.438 157.635 202.733 155.696C204.878 152.482 206.864 149.124 208.607 145.642C216.504 129.896 220.923 115.759 227.007 106.9C231.139 100.881 236.04 97.296 243.324 97.296C244.431 97.296 245.594 97.3789 246.817 97.5481C246.817 97.5481 246.874 97.5571 246.986 97.5788C249.341 97.748 276.029 100.771 298.175 148.811C320.99 198.33 371.829 271.702 373.414 273.987Z" fill="url(#paint2_linear_72_338)"/>
<path d="M248.83 267.042C255.595 234.92 242.234 231.074 242.234 231.074C240.506 230.048 238.3 229.689 236.064 229.689C230.864 229.689 225.487 231.629 225.487 231.629C216.155 225.539 217.107 214.7 209.174 210.058C201.239 205.428 195.875 204.813 195.875 204.813C195.875 204.813 199.672 202.92 205.544 200.497C211.23 198.145 218.865 195.309 226.881 193.229C228.483 192.812 230.102 192.425 231.724 192.077C242.839 189.713 259.691 186.715 269.936 175.38C276.384 168.243 280.212 157.799 278.336 142.125C275.243 116.39 263.38 105.365 255.125 100.746C250.785 98.3208 247.443 97.6654 246.903 97.5735C246.927 97.5753 246.954 97.5771 246.986 97.5789C246.874 97.5573 246.817 97.5483 246.817 97.5483C245.594 97.3791 244.431 97.2962 243.324 97.2962C236.04 97.2962 231.139 100.881 227.007 106.901C220.923 115.763 216.508 129.899 208.607 145.647C206.864 149.126 204.876 152.484 202.733 155.696C201.438 157.636 200.086 159.523 198.696 161.35C198.693 161.354 198.691 161.357 198.689 161.359C198.687 161.363 198.684 161.366 198.682 161.368C193.06 168.763 186.818 175.207 181.223 180.371C172.001 188.885 164.536 193.912 164.536 193.912C164.584 195.095 164.694 196.215 164.825 197.29C166.273 208.25 171.904 213.891 171.904 213.891C186.409 221.295 223.582 253.754 223.582 253.754C234.144 254.525 248.83 267.042 248.83 267.042Z" fill="url(#paint3_linear_72_338)"/>
<path d="M370.938 427.784C381.531 427.784 390.168 423.909 390.168 423.909C390.168 423.909 388.384 416.989 389.724 407.824C391.061 398.661 444.922 351.963 447.382 340.339C448.514 334.95 447.346 332.539 445.284 328.462L445.259 328.439C442.871 323.736 439.279 316.814 436.65 300.562C436.121 297.292 435.872 294.435 435.872 291.885C435.878 276.305 445.241 272.241 457.353 256.262L457.366 256.237C461.682 250.547 466.347 243.325 471.063 233.521C475.644 224.008 477.091 215.267 476.596 207.454C475.404 188.317 462.573 174.656 455.533 168.543C452.807 166.181 450.951 164.939 450.951 164.939L450.83 164.867L450.734 164.818C450.36 164.613 449.551 164.143 448.347 163.444L448.237 163.383L447.972 163.226C441.591 159.8 434.554 157.54 427.044 156.723C424.966 156.497 422.854 156.38 420.71 156.38C408.414 156.38 395.046 160.183 381.291 168.875C378.605 170.573 375.902 172.458 373.192 174.536C367.292 179.055 362.879 184.786 359.708 191.151C352.907 204.802 351.819 221.367 354.036 235.136C355.552 244.564 358.618 252.683 362.461 257.661C362.835 258.146 363.221 258.655 363.617 259.186C365.837 262.177 368.358 265.885 371.028 270.121C371.822 271.38 372.629 272.687 373.444 274.034C385.116 293.315 398.705 321.119 402.684 343.016C408.05 372.52 365.367 402.243 357.095 406.933C348.836 411.624 354.418 423.909 354.418 423.909C359.855 426.815 365.641 427.784 370.938 427.784Z" fill="url(#paint4_linear_72_338)"/>
<path d="M108.179 271.141C134.548 263.191 136.668 252.364 136.666 249.082C136.666 248.452 136.587 248.099 136.587 248.099C136.59 248.009 136.592 247.917 136.592 247.825C136.59 241.21 128.063 233.667 128.063 233.667C128.931 222.561 138.902 218.196 139.167 209.008C139.183 208.462 139.19 207.931 139.19 207.414C139.19 200.59 137.943 196.379 137.527 195.179C137.635 195.178 137.75 195.178 137.878 195.178C141.434 195.178 152.657 195.369 164.825 197.29C164.694 196.215 164.584 195.095 164.535 193.912C164.535 193.912 172.001 188.885 181.223 180.371C181.223 180.371 181.221 180.37 181.22 180.368C177.35 175.715 175.649 172.528 175.649 172.528C173.081 164.69 170.396 157.751 167.677 151.647C167.676 151.645 167.677 151.647 167.676 151.643C157.297 158.406 145.797 163.059 136.045 166.192C129.231 170.328 124.035 173.837 120.985 175.958C119.139 177.249 117.981 179.311 117.886 181.554C117.09 200.255 107.745 242.601 107.745 242.601C109.31 246.05 109.81 250.677 109.81 255.204C109.807 263.339 108.179 271.141 108.179 271.141Z" fill="url(#paint5_linear_72_338)"/>
<path d="M463.22 428.259C474.473 428.259 482.904 425.007 482.904 425.007C482.904 425.007 480.226 409.693 480.226 400.422C480.226 391.434 490.308 333.345 490.313 323.674C490.313 323.368 490.304 323.111 490.282 322.904C489.607 316.213 464.865 300.513 458.824 292.459C456.424 289.263 455.702 282.88 455.704 276.351C455.704 266.77 457.26 256.871 457.353 256.262C445.241 272.241 435.878 276.305 435.872 291.885C435.872 294.435 436.121 297.292 436.65 300.562C439.279 316.814 442.871 323.736 445.259 328.439L445.284 328.462C455.729 342.146 465.607 362.844 465.604 373.799C465.604 373.896 465.602 373.993 465.6 374.089C465.384 388.268 455.194 401.098 448.937 405.788C445.295 408.518 444.531 414.58 444.531 419.172C444.53 422.469 444.922 425.007 444.922 425.007C451.26 427.447 457.593 428.259 463.22 428.259Z" fill="url(#paint6_linear_72_338)"/>
<path d="M373.446 274.038L373.414 273.987C371.829 271.702 320.99 198.33 298.175 148.811C276.029 100.771 249.341 97.7481 246.986 97.5788C247.744 97.721 250.98 98.4269 255.125 100.746C263.38 105.359 275.25 116.379 278.343 142.123C278.665 144.817 278.819 147.356 278.82 149.751C278.824 161.289 275.279 169.469 269.936 175.38C259.695 186.715 242.845 189.713 231.733 192.081C230.109 192.426 228.487 192.813 226.881 193.229C218.868 195.316 211.235 198.15 205.538 200.5C214.095 205.419 224.72 209.874 237.78 212.742C283.83 222.899 326.462 222.566 372.964 273.937L373.446 274.038Z" fill="url(#paint7_linear_72_338)"/>
<path d="M541.194 108.323C544.649 112.945 546.736 119.305 544.215 124.496C542.162 119.406 537.272 115.599 531.847 114.848C538.089 120.207 539.724 129.102 540.443 137.298C541.143 145.492 541.478 154.205 546.134 160.983C549.739 166.24 555.481 169.579 560.222 173.851C564.961 178.108 571.076 184.383 569.474 190.559C573.996 182.03 571.188 170.98 565.597 163.118C560.773 156.343 552.593 151.586 550.575 143.506C549.457 139.034 550.508 134.327 551.86 129.921C553.211 125.513 554.914 121.141 555.13 116.534C555.348 111.928 553.762 106.904 549.89 104.416C556.5 105.818 561.189 111.944 563.276 118.37C565.347 124.796 565.363 131.673 566.148 138.382C566.931 145.093 568.701 152.07 573.425 156.894C571.305 153.255 572.256 148.514 574.392 144.875C576.545 141.254 579.717 138.366 582.354 135.078C585.008 131.806 587.211 127.8 586.844 123.594C593.787 132.791 592.814 145.761 590.233 156.726C586.99 170.501 583.625 179.549 574.461 190.559C586.746 179.008 599.83 161.633 599.996 144.776C600.18 127.917 593.203 111.11 581.169 99.3092C583.322 102.48 585.576 105.919 585.593 109.74C585.609 113.579 582.254 117.652 578.498 116.868C576.396 116.417 574.809 114.598 573.958 112.612C573.107 110.626 572.857 108.456 572.423 106.335C569.969 94.2352 561.04 83.6532 549.523 79.1967C544.766 77.3439 539.692 76.5085 534.901 74.7565C530.111 73.0045 525.421 70.1002 523.184 65.5087C520.514 75.7918 522.918 87.2741 529.51 95.6036C533.082 100.127 537.756 103.699 541.194 108.323Z" fill="url(#paint8_linear_72_338)"/>
<path d="M453.696 167.1L453.588 167.22C460.629 173.333 473.458 186.994 474.652 206.131C497.514 218.308 525.981 219.479 549.711 209.073C557.631 205.6 565.421 200.499 569.075 192.662C569.292 192.191 569.497 191.721 569.666 191.238C565.061 195.012 559.898 198.064 554.329 200.173C537.038 206.732 517.336 204.069 500.299 196.881C483.273 189.695 468.382 178.337 453.696 167.1Z" fill="url(#paint9_linear_72_338)"/>
</g>
<defs>
<linearGradient id="paint0_linear_72_338" x1="47.6488" y1="68.2347" x2="47.6488" y2="31.2709" gradientUnits="userSpaceOnUse">
<stop stop-color="#4FCFBD"/>
<stop offset="1" stop-color="#599FCF"/>
</linearGradient>
<linearGradient id="paint1_linear_72_338" x1="131.806" y1="427.473" x2="131.806" y2="6.21376" gradientUnits="userSpaceOnUse">
<stop stop-color="#4FCFBD"/>
<stop offset="1" stop-color="#009FCF"/>
</linearGradient>
<linearGradient id="paint2_linear_72_338" x1="292.487" y1="426.54" x2="292.487" y2="54.5412" gradientUnits="userSpaceOnUse">
<stop stop-color="#599FCF"/>
<stop offset="1" stop-color="#4FCFBD"/>
</linearGradient>
<linearGradient id="paint3_linear_72_338" x1="221.675" y1="427.473" x2="221.675" y2="6.2138" gradientUnits="userSpaceOnUse">
<stop stop-color="#5980CF"/>
<stop offset="1" stop-color="#599FCF"/>
</linearGradient>
<linearGradient id="paint4_linear_72_338" x1="414.631" y1="427.472" x2="414.631" y2="6.21371" gradientUnits="userSpaceOnUse">
<stop stop-color="#5958CF"/>
<stop offset="1" stop-color="#4FCFBD"/>
</linearGradient>
<linearGradient id="paint5_linear_72_338" x1="144.484" y1="426.545" x2="144.484" y2="54.5469" gradientUnits="userSpaceOnUse">
<stop stop-color="#5980CF"/>
<stop offset="1" stop-color="#14D8CF"/>
</linearGradient>
<linearGradient id="paint6_linear_72_338" x1="463.094" y1="426.545" x2="463.094" y2="54.5467" gradientUnits="userSpaceOnUse">
<stop stop-color="#4FCFBD"/>
<stop offset="1" stop-color="#599FCF"/>
</linearGradient>
<linearGradient id="paint7_linear_72_338" x1="292.487" y1="426.54" x2="292.487" y2="54.5413" gradientUnits="userSpaceOnUse">
<stop stop-color="#599FCF"/>
<stop offset="1" stop-color="#769FCF"/>
</linearGradient>
<linearGradient id="paint8_linear_72_338" x1="579.042" y1="189.553" x2="552.704" y2="69.6437" gradientUnits="userSpaceOnUse">
<stop stop-color="#009FCF"/>
<stop offset="1" stop-color="#4FCFBD"/>
</linearGradient>
<linearGradient id="paint9_linear_72_338" x1="511.626" y1="428.004" x2="511.626" y2="153.388" gradientUnits="userSpaceOnUse">
<stop stop-color="#599FCF"/>
<stop offset="0.0335196" stop-color="#4FCFBD"/>
<stop offset="1" stop-color="#00CFBD"/>
</linearGradient>
<clipPath id="clip0_72_338">
<rect width="600" height="428.259" fill="white" transform="matrix(-1 0 0 1 600 0)"/>
</clipPath>
</defs>
</svg>
