<svg width="27" height="36" viewBox="0 0 27 36" fill="none" xmlns="http://www.w3.org/2000/svg">
<path d="M12.748 18.0332C12.4062 16.9395 12.4746 14.8203 12.6113 14.8203C13.2266 14.8203 13.1582 17.3496 12.748 18.0332ZM12.6797 21.2461C13.2949 22.4082 14.1836 23.3652 15.0039 24.0488C13.3633 24.3223 11.9961 25.0059 10.6973 25.4844C11.4492 24.1855 12.1328 22.6133 12.6797 21.2461ZM6.25391 29.791C6.5957 28.6973 8.16797 27.4668 8.64648 26.9883C7.14258 29.3809 6.25391 29.791 6.25391 29.791ZM17.3281 11.4023H26.625V33.8242C26.625 34.7812 25.873 35.4648 24.9844 35.4648H2.01562C1.05859 35.4648 0.375 34.7812 0.375 33.8242V2.10547C0.375 1.2168 1.05859 0.464844 2.01562 0.464844H15.6875V9.76172C15.6875 10.7188 16.3711 11.4023 17.3281 11.4023ZM16.7812 23.1602C15.4141 22.3398 14.457 21.1777 13.8418 19.4688C14.1152 18.2383 14.5938 16.3242 14.252 15.0938C13.9102 13.1113 11.3809 13.3164 10.9707 14.6152C10.6289 15.9141 10.9707 17.6914 11.5176 19.8789C10.7656 21.793 9.60352 24.3223 8.7832 25.7578C8.71484 25.7578 8.71484 25.7578 8.71484 25.7578C6.86914 26.7148 3.72461 28.834 5.02344 30.4062C5.36523 30.8848 6.11719 31.0898 6.45898 31.0898C7.68945 31.0898 8.91992 29.8594 10.6289 26.9199C12.4062 26.3047 14.3887 25.5527 16.0293 25.2793C17.5332 26.0996 19.3105 26.6465 20.4043 26.6465C22.4551 26.6465 22.5918 24.459 21.7715 23.6387C20.8145 22.75 18.0801 23.0234 16.7812 23.1602ZM26.1465 7.64258C26.4199 7.98438 26.625 8.39453 26.625 8.80469V9.21484H17.875V0.464844H18.2852C18.6953 0.464844 19.1055 0.669922 19.4473 0.943359L26.1465 7.64258ZM21.0195 25.1426C21.0195 25.1426 20.6777 25.6211 18.1484 24.5273C20.8828 24.3223 21.3613 24.9375 21.0195 25.1426Z" fill="#599FCF"/>
</svg>
