<svg width="98" height="65" viewBox="0 0 98 65" fill="none" xmlns="http://www.w3.org/2000/svg">
<path d="M12.8168 56.8679L12.8167 56.8679V56.8746V64.75H0.25V31.2794C10.251 13.3291 27.477 1.70838 45.7621 0.377984C64.0383 -0.951768 83.4216 7.99592 97.75 31.2852V64.75H85.1833L85.1834 56.8746L85.1832 56.8679C84.9458 47.9363 79.1666 40.6736 71.8769 40.3739L71.8667 40.3735L71.8564 40.3739C64.5667 40.6736 58.7875 47.9363 58.5501 56.8679L58.55 56.8679V56.8746V64.75H39.45V56.8746H39.4501L39.4499 56.8679C39.2125 47.9363 33.4333 40.6736 26.1436 40.3739L26.1333 40.3735L26.1231 40.3739C18.8334 40.6736 13.0542 47.9363 12.8168 56.8679ZM62.1369 5.72074L61.8167 5.62698V5.96067V32.4983V32.7483H62.0667H71.8667H72.1167V32.4983V10.0234V9.87455L71.9858 9.80361C68.8089 8.08112 65.5128 6.70912 62.1369 5.72074ZM59.05 5.14812V4.94588L58.8522 4.90364C55.6013 4.20936 52.304 3.85807 49 3.85807H48.75V4.10807V32.4983V32.7483H49H58.8H59.05V32.4983V5.14812ZM22.7315 11.7875L22.6167 11.8613V11.9979V32.4983V32.7483H22.8667H32.6667H32.9167V32.4983V19.7861V7.07385V6.71406L32.5795 6.83955C29.1778 8.10547 25.882 9.76311 22.7315 11.7875ZM35.6833 32.4983V32.7483H35.9333H45.7333H45.9833V32.4983V4.1812V3.91337L45.7161 3.93179C42.3988 4.16055 39.1014 4.74876 35.8637 5.68807L35.6833 5.74039V5.92817V32.4983ZM19.85 14.1673V13.6672L19.45 13.9674C13.0985 18.733 7.4846 24.9818 3.05229 32.3697L2.82514 32.7483H3.26667H19.6H19.85V32.4983V14.1673ZM74.8833 32.4983V32.7483H75.1333H94.7333H95.1758L94.9475 32.3693C89.6634 23.5961 82.8093 16.4646 74.9194 11.542L74.5922 11.9108L74.8833 12.2728V32.4983Z" fill="#4FCFBD" stroke="black" stroke-width="0.5"/>
</svg>
