<svg width="100" height="100" viewBox="0 0 100 100" fill="none" xmlns="http://www.w3.org/2000/svg">
<path d="M14.8168 73.8679L14.8167 73.8679V73.8746V81.75H2.25V48.2794C12.251 30.3291 29.477 18.7084 47.7621 17.378C66.0383 16.0482 85.4216 24.9959 99.75 48.2852V81.75H87.1833L87.1834 73.8746L87.1832 73.8679C86.9458 64.9363 81.1666 57.6736 73.8769 57.3739L73.8667 57.3735L73.8564 57.3739C66.5667 57.6736 60.7875 64.9363 60.5501 73.8679L60.55 73.8679V73.8746V81.75H41.45V73.8746H41.4501L41.4499 73.8679C41.2125 64.9363 35.4333 57.6736 28.1436 57.3739L28.1333 57.3735L28.1231 57.3739C20.8334 57.6736 15.0542 64.9363 14.8168 73.8679ZM64.1369 22.7207L63.8167 22.627V22.9607V49.4983V49.7483H64.0667H73.8667H74.1167V49.4983V27.0234V26.8745L73.9858 26.8036C70.8089 25.0811 67.5128 23.7091 64.1369 22.7207ZM61.05 22.1481V21.9459L60.8522 21.9036C57.6013 21.2094 54.304 20.8581 51 20.8581H50.75V21.1081V49.4983V49.7483H51H60.8H61.05V49.4983V22.1481ZM24.7315 28.7875L24.6167 28.8613V28.9979V49.4983V49.7483H24.8667H34.6667H34.9167V49.4983V36.7861V24.0739V23.7141L34.5795 23.8395C31.1778 25.1055 27.882 26.7631 24.7315 28.7875ZM37.6833 49.4983V49.7483H37.9333H47.7333H47.9833V49.4983V21.1812V20.9134L47.7161 20.9318C44.3988 21.1605 41.1014 21.7488 37.8637 22.6881L37.6833 22.7404V22.9282V49.4983ZM21.85 31.1673V30.6672L21.45 30.9674C15.0985 35.733 9.4846 41.9818 5.05229 49.3697L4.82514 49.7483H5.26667H21.6H21.85V49.4983V31.1673ZM76.8833 49.4983V49.7483H77.1333H96.7333H97.1758L96.9475 49.3693C91.6634 40.5961 84.8093 33.4646 76.9194 28.542L76.5922 28.9108L76.8833 29.2728V49.4983Z" fill="#4FCFBD" stroke="black" stroke-width="0.5"/>
<mask id="mask0_49_197" style="mask-type:alpha" maskUnits="userSpaceOnUse" x="2" y="17" width="98" height="65">
<path d="M14.8168 73.5529L14.8167 73.5529V73.5596V81.3294H2.25V48.2987C12.2504 30.5837 29.4758 19.1138 47.7619 17.8006C66.0395 16.4881 85.4224 25.3201 99.75 48.3045V81.3294H87.1833L87.1834 73.5596L87.1832 73.5529C86.9457 64.7333 81.164 57.5659 73.8768 57.2702L73.8667 57.2698L73.8565 57.2702C66.5693 57.5659 60.7876 64.7333 60.5501 73.5529L60.55 73.5529V73.5596V81.3294H41.45V73.5596H41.4501L41.4499 73.5529C41.2124 64.7333 35.4307 57.5659 28.1435 57.2702L28.1333 57.2698L28.1232 57.2702C20.8359 57.5659 15.0543 64.7333 14.8168 73.5529ZM64.1361 23.0673L63.8167 22.975V23.3075V49.5002V49.7502H64.0667H73.8667H74.1167V49.5002V27.3174V27.1676L73.9846 27.097C70.8078 25.3969 67.5118 24.0428 64.1361 23.0673ZM61.05 22.5055V22.3027L60.8516 22.2609C57.6008 21.5757 54.3038 21.229 51 21.229H50.75V21.479V49.5002V49.7502H51H60.8H61.05V49.5002V22.5055ZM24.7328 29.0551L24.6167 29.1287V29.2662V49.5002V49.7502H24.8667H34.6667H34.9167V49.5002V36.9532V24.4062V24.0481L34.5805 24.1715C31.1789 25.421 27.8833 27.057 24.7328 29.0551ZM37.6833 49.5002V49.7502H37.9333H47.7333H47.9833V49.5002V21.5512V21.2836L47.7164 21.3017C44.3992 21.5275 41.1021 22.108 37.8645 23.0351L37.6833 23.087V23.2754V49.5002ZM21.85 31.4075V30.9113L21.4512 31.2066C15.0998 35.9103 9.4856 42.078 5.05304 49.3703L4.82215 49.7502H5.26667H21.6H21.85V49.5002V31.4075ZM76.8833 49.5002V49.7502H77.1333H96.7333H97.1788L96.9467 49.37C91.6624 40.7103 84.808 33.6713 76.9182 28.8127L76.5932 29.1835L76.8833 29.5396V49.5002Z" fill="#599FCF" stroke="black" stroke-width="0.5"/>
</mask>
<g mask="url(#mask0_49_197)">
<rect x="2.25" y="49.75" width="97.5" height="31.9802" fill="#599FCF" stroke="black" stroke-width="0.5"/>
</g>
</svg>
