<svg width="100" height="76" viewBox="0 0 100 76" fill="none" xmlns="http://www.w3.org/2000/svg">
<mask id="path-1-inside-1_124_381" fill="white">
<path d="M35.5882 26.4755H33.8801V22.6718H35.5882C36.5894 22.6718 37.2822 22.734 37.6697 22.8584C38.0571 22.98 38.3512 23.1865 38.5577 23.4777C38.7613 23.769 38.8631 24.1169 38.8631 24.5298C38.8631 24.9229 38.7557 25.2736 38.5379 25.5733C38.323 25.8731 38.0006 26.1022 37.5707 26.2492C37.1408 26.3991 36.4876 26.4755 35.5882 26.4755ZM54.3467 27.9659C54.3467 38.2656 45.9955 46.6169 35.6929 46.6169C25.3931 46.6169 17.0447 38.2628 17.0447 27.9659C17.0447 17.6633 25.3931 9.31485 35.6929 9.31485C45.9955 9.31203 54.3467 17.6633 54.3467 27.9659ZM100 46.9478C100 57.8527 91.1199 66.7328 80.2149 66.7328H59.7907V75.8477H43.8829V66.7328H19.7879C8.87726 66.7328 0 57.8527 0 46.9478C0 40.6695 3.04864 34.7362 8.07127 31.0287C7.94966 29.9823 7.89027 28.967 7.89027 27.9659C7.89027 12.6322 20.3648 0.154785 35.6957 0.154785C47.3756 0.154785 57.6159 7.36632 61.6657 18.0649C63.8857 17.2249 66.2443 16.7894 68.6199 16.7894C76.2868 16.7894 83.3116 21.3256 86.5441 28.2176C94.5362 30.9099 100 38.4127 100 46.9478ZM94.3439 46.9478C94.3439 40.5168 89.9915 34.8946 83.7557 33.2826C82.8705 33.0535 82.1521 32.4087 81.8184 31.5518C79.7398 26.105 74.4372 22.4427 68.6171 22.4427C66.0831 22.4427 63.5888 23.1384 61.3801 24.4506C60.6137 24.9116 59.6691 24.9794 58.8405 24.6316C58.0119 24.2837 57.3982 23.5654 57.1889 22.6944C54.7624 12.7509 45.9219 5.80524 35.69 5.80524C23.4785 5.80524 13.5407 15.743 13.5407 27.9602C13.5407 29.2046 13.6623 30.4885 13.9112 31.8856C14.1176 33.0451 13.586 34.2102 12.5735 34.8126C8.24378 37.3946 5.65611 41.928 5.65611 46.9421C5.65611 54.7362 11.9966 61.0767 19.7879 61.0767H43.8857V59.5581H37.9779L51.8382 45.7034L65.69 59.5637H59.7851V61.0767H80.2121C88.0034 61.0767 94.3439 54.7362 94.3439 46.9478ZM91.5158 45.5337C90.7381 45.5337 90.1018 46.1672 90.1018 46.9478C90.1018 52.4003 85.6674 56.8346 80.2149 56.8346H71.6827C70.9022 56.8346 70.2687 57.471 70.2687 58.2487C70.2687 59.0292 70.9022 59.6627 71.6827 59.6627H80.2149C87.2257 59.6627 92.9299 53.9529 92.9299 46.9478C92.9299 46.1644 92.2992 45.5337 91.5158 45.5337ZM77.8563 33.0649L78.8971 35.7939C79.0611 36.221 79.4202 36.5434 79.8671 36.6593L82.6951 37.3918C84.1572 37.7679 85.5288 38.4891 86.6685 39.4704C86.9429 39.6995 87.2681 39.8154 87.5962 39.8154C87.9921 39.8154 88.3852 39.6429 88.668 39.3233C89.1799 38.7323 89.1092 37.8386 88.5181 37.3267C87.0475 36.0626 85.28 35.1378 83.3965 34.6514L81.2755 34.1027L80.4977 32.0552C78.6256 27.1542 73.849 23.8595 68.6171 23.8595C66.3405 23.8595 64.0865 24.4845 62.1097 25.6695C61.4423 26.0711 61.2245 26.9365 61.6176 27.6095C62.0221 28.2798 62.8874 28.4947 63.5633 28.0988C65.1046 27.174 66.8552 26.6876 68.6171 26.6876C72.6838 26.6876 76.4027 29.2526 77.8563 33.0649Z"/>
</mask>
<path d="M35.5882 26.4755H33.8801V22.6718H35.5882C36.5894 22.6718 37.2822 22.734 37.6697 22.8584C38.0571 22.98 38.3512 23.1865 38.5577 23.4777C38.7613 23.769 38.8631 24.1169 38.8631 24.5298C38.8631 24.9229 38.7557 25.2736 38.5379 25.5733C38.323 25.8731 38.0006 26.1022 37.5707 26.2492C37.1408 26.3991 36.4876 26.4755 35.5882 26.4755ZM54.3467 27.9659C54.3467 38.2656 45.9955 46.6169 35.6929 46.6169C25.3931 46.6169 17.0447 38.2628 17.0447 27.9659C17.0447 17.6633 25.3931 9.31485 35.6929 9.31485C45.9955 9.31203 54.3467 17.6633 54.3467 27.9659ZM100 46.9478C100 57.8527 91.1199 66.7328 80.2149 66.7328H59.7907V75.8477H43.8829V66.7328H19.7879C8.87726 66.7328 0 57.8527 0 46.9478C0 40.6695 3.04864 34.7362 8.07127 31.0287C7.94966 29.9823 7.89027 28.967 7.89027 27.9659C7.89027 12.6322 20.3648 0.154785 35.6957 0.154785C47.3756 0.154785 57.6159 7.36632 61.6657 18.0649C63.8857 17.2249 66.2443 16.7894 68.6199 16.7894C76.2868 16.7894 83.3116 21.3256 86.5441 28.2176C94.5362 30.9099 100 38.4127 100 46.9478ZM94.3439 46.9478C94.3439 40.5168 89.9915 34.8946 83.7557 33.2826C82.8705 33.0535 82.1521 32.4087 81.8184 31.5518C79.7398 26.105 74.4372 22.4427 68.6171 22.4427C66.0831 22.4427 63.5888 23.1384 61.3801 24.4506C60.6137 24.9116 59.6691 24.9794 58.8405 24.6316C58.0119 24.2837 57.3982 23.5654 57.1889 22.6944C54.7624 12.7509 45.9219 5.80524 35.69 5.80524C23.4785 5.80524 13.5407 15.743 13.5407 27.9602C13.5407 29.2046 13.6623 30.4885 13.9112 31.8856C14.1176 33.0451 13.586 34.2102 12.5735 34.8126C8.24378 37.3946 5.65611 41.928 5.65611 46.9421C5.65611 54.7362 11.9966 61.0767 19.7879 61.0767H43.8857V59.5581H37.9779L51.8382 45.7034L65.69 59.5637H59.7851V61.0767H80.2121C88.0034 61.0767 94.3439 54.7362 94.3439 46.9478ZM91.5158 45.5337C90.7381 45.5337 90.1018 46.1672 90.1018 46.9478C90.1018 52.4003 85.6674 56.8346 80.2149 56.8346H71.6827C70.9022 56.8346 70.2687 57.471 70.2687 58.2487C70.2687 59.0292 70.9022 59.6627 71.6827 59.6627H80.2149C87.2257 59.6627 92.9299 53.9529 92.9299 46.9478C92.9299 46.1644 92.2992 45.5337 91.5158 45.5337ZM77.8563 33.0649L78.8971 35.7939C79.0611 36.221 79.4202 36.5434 79.8671 36.6593L82.6951 37.3918C84.1572 37.7679 85.5288 38.4891 86.6685 39.4704C86.9429 39.6995 87.2681 39.8154 87.5962 39.8154C87.9921 39.8154 88.3852 39.6429 88.668 39.3233C89.1799 38.7323 89.1092 37.8386 88.5181 37.3267C87.0475 36.0626 85.28 35.1378 83.3965 34.6514L81.2755 34.1027L80.4977 32.0552C78.6256 27.1542 73.849 23.8595 68.6171 23.8595C66.3405 23.8595 64.0865 24.4845 62.1097 25.6695C61.4423 26.0711 61.2245 26.9365 61.6176 27.6095C62.0221 28.2798 62.8874 28.4947 63.5633 28.0988C65.1046 27.174 66.8552 26.6876 68.6171 26.6876C72.6838 26.6876 76.4027 29.2526 77.8563 33.0649Z" fill="#599FCF"/>
<path d="M37.8733 29.0207L37.7842 29.2543L37.786 29.255L37.8733 29.0207ZM33.8801 28.7747V28.5247H33.6301V28.7747H33.8801ZM33.8801 32.1542H33.6301L33.6301 32.1587L33.8801 32.1542ZM33.9366 32.9913L34.1705 32.9028L34.1693 32.8999L33.9366 32.9913ZM34.1205 33.2091L34.2292 32.9839L34.2234 32.9812L34.1205 33.2091ZM42.7262 29.4534L42.5095 29.5781L42.5105 29.5798L42.7262 29.4534ZM41.3942 28.1356L41.2693 28.3521L41.2721 28.3537L41.3942 28.1356ZM39.7172 27.5219L39.6367 27.2852L38.8399 27.5563L39.6555 27.7641L39.7172 27.5219ZM41.3631 26.6423L41.5251 26.8328L41.5257 26.8322L41.3631 26.6423ZM42.3162 25.4178L42.5412 25.5268L42.5422 25.5246L42.3162 25.4178ZM42.0192 21.9987L41.8147 22.1425L41.8149 22.1427L42.0192 21.9987ZM40.2319 20.6356L40.3258 20.4038L40.3251 20.4036L40.2319 20.6356ZM39.1855 20.3471H38.9355V20.5541L39.1389 20.5927L39.1855 20.3471ZM39.1855 17.5926H39.4355V17.3426H39.1855V17.5926ZM36.5413 17.5926V17.3426H36.2913V17.5926H36.5413ZM36.5413 20.1604V20.4104H36.7913V20.1604H36.5413ZM34.8445 20.1604H34.5945V20.4104H34.8445V20.1604ZM34.8445 17.5926H35.0945V17.3426H34.8445V17.5926ZM32.2002 17.5926V17.3426H31.9502V17.5926H32.2002ZM32.2002 20.1604V20.4104H32.4502V20.1604H32.2002ZM28.1674 20.1604V19.9104H27.9174V20.1604H28.1674ZM28.1674 22.3182H27.9174V22.5682H28.1674V22.3182ZM29.9293 22.7311L30.1559 22.6254L30.1539 22.6214L29.9293 22.7311ZM29.9293 33.1949L29.7019 33.0911L29.701 33.093L29.9293 33.1949ZM29.6239 33.4975L29.5174 33.2713L29.5155 33.2722L29.6239 33.4975ZM28.1731 33.605V33.355H27.9231V33.605H28.1731ZM28.1731 35.7628H27.9231V36.0128H28.1731V35.7628ZM32.2059 35.7628H32.4559V35.5128H32.2059V35.7628ZM32.2059 38.3307H31.9559V38.5807H32.2059V38.3307ZM37.9624 28.7872C37.4885 28.6063 36.7892 28.5247 35.8993 28.5247V29.0247C36.7741 29.0247 37.3983 29.1071 37.7842 29.2543L37.9624 28.7872ZM35.8993 28.5247H33.8801V29.0247H35.8993V28.5247ZM33.6301 28.7747V32.1542H34.1301V28.7747H33.6301ZM33.6301 32.1587C33.6344 32.3989 33.6408 32.5931 33.6504 32.7387C33.6552 32.8114 33.661 32.8751 33.6682 32.928C33.6746 32.9753 33.6845 33.0331 33.704 33.0827L34.1693 32.8999C34.1733 32.9099 34.1694 32.9031 34.1636 32.8606C34.1586 32.8238 34.1538 32.7728 34.1493 32.7059C34.1406 32.5723 34.1343 32.3875 34.1301 32.1498L33.6301 32.1587ZM33.7028 33.0798C33.757 33.2231 33.8501 33.3613 34.0176 33.4369L34.2234 32.9812C34.216 32.9779 34.2102 32.9738 34.2034 32.9655C34.1953 32.9557 34.1834 32.9371 34.1705 32.9028L33.7028 33.0798ZM34.0118 33.4342C34.0984 33.4761 34.22 33.4936 34.3343 33.504C34.461 33.5156 34.6227 33.5213 34.8162 33.5213V33.0213C34.6307 33.0213 34.4855 33.0157 34.3797 33.0061C34.2613 32.9953 34.2245 32.9817 34.2292 32.9839L34.0118 33.4342ZM34.8162 33.5213H35.9531V33.0213H34.8162V33.5213ZM39.0539 29.6085C38.8019 29.232 38.4331 28.9625 37.9606 28.7865L37.786 29.255C38.1789 29.4014 38.4549 29.6126 38.6384 29.8866L39.0539 29.6085ZM43.4683 31.3369C43.4683 30.6001 43.2941 29.9281 42.9419 29.3271L42.5105 29.5798C42.8145 30.0987 42.9683 30.6823 42.9683 31.3369H43.4683ZM42.943 29.3288C42.5952 28.7241 42.1214 28.2562 41.5164 27.9174L41.2721 28.3537C41.7983 28.6484 42.2068 29.0516 42.5095 29.578L42.943 29.3288ZM41.5191 27.919C41.1029 27.679 40.5204 27.4686 39.7789 27.2796L39.6555 27.7641C40.3789 27.9485 40.9107 28.1453 41.2693 28.3521L41.5191 27.919ZM39.7977 27.7585C40.5005 27.5194 41.0793 27.2119 41.5251 26.8328L41.2012 26.4519C40.8155 26.7798 40.2971 27.0605 39.6367 27.2852L39.7977 27.7585ZM41.5257 26.8322C41.9638 26.4571 42.3022 26.0198 42.5411 25.5268L42.0912 25.3088C41.8833 25.7377 41.5882 26.1205 41.2005 26.4524L41.5257 26.8322ZM42.5422 25.5246C42.7758 25.0301 42.8942 24.5044 42.8942 23.95H42.3942C42.3942 24.4307 42.2921 24.8835 42.0901 25.311L42.5422 25.5246ZM42.8942 23.95C42.8942 23.1906 42.6714 22.49 42.2236 21.8547L41.8149 22.1427C42.2042 22.6951 42.3942 23.2954 42.3942 23.95H42.8942ZM42.2237 21.8549C41.7767 21.2192 41.1389 20.7332 40.3258 20.4038L40.138 20.8673C40.8747 21.1657 41.4304 21.596 41.8147 22.1425L42.2237 21.8549ZM40.3251 20.4036C40.0021 20.2738 39.6286 20.1767 39.2321 20.1015L39.1389 20.5927C39.5173 20.6645 39.8565 20.7541 40.1387 20.8675L40.3251 20.4036ZM39.4355 20.3471V17.5926H38.9355V20.3471H39.4355ZM39.1855 17.3426H36.5413V17.8426H39.1855V17.3426ZM36.2913 17.5926V20.1604H36.7913V17.5926H36.2913ZM36.5413 19.9104H34.8445V20.4104H36.5413V19.9104ZM35.0945 20.1604V17.5926H34.5945V20.1604H35.0945ZM34.8445 17.3426H32.2002V17.8426H34.8445V17.3426ZM31.9502 17.5926V20.1604H32.4502V17.5926H31.9502ZM32.2002 19.9104H28.1674V20.4104H32.2002V19.9104ZM27.9174 20.1604V22.3182H28.4174V20.1604H27.9174ZM28.1674 22.5682H28.7896V22.0682H28.1674V22.5682ZM28.7896 22.5682C29.2027 22.5682 29.4229 22.6104 29.5121 22.655L29.7357 22.2078C29.5307 22.1053 29.2023 22.0682 28.7896 22.0682V22.5682ZM29.5121 22.655C29.6115 22.7047 29.6701 22.77 29.7047 22.8409L30.1539 22.6214C30.0697 22.449 29.9303 22.3051 29.7357 22.2078L29.5121 22.655ZM29.7028 22.8369C29.7137 22.8603 29.7334 22.9302 29.7481 23.0732C29.7621 23.2088 29.7698 23.389 29.7698 23.6163H30.2698C30.2698 23.3799 30.2619 23.181 30.2455 23.0219C30.2298 22.8701 30.2043 22.7292 30.1558 22.6254L29.7028 22.8369ZM29.7698 23.6163V32.3182H30.2698V23.6163H29.7698ZM29.7698 32.3182C29.7698 32.5412 29.7621 32.7185 29.7482 32.8527C29.7335 32.9935 29.7139 33.0649 29.7019 33.0911L30.1567 33.2988C30.2041 33.1949 30.2297 33.0556 30.2455 32.9044C30.2619 32.7467 30.2698 32.5506 30.2698 32.3182H29.7698ZM29.701 33.093C29.668 33.167 29.6118 33.2269 29.5174 33.2713L29.7303 33.7237C29.9244 33.6324 30.0718 33.4887 30.1576 33.2969L29.701 33.093ZM29.5155 33.2722C29.4254 33.3156 29.204 33.355 28.7896 33.355V33.855C29.2009 33.855 29.5283 33.8209 29.7322 33.7229L29.5155 33.2722ZM28.7896 33.355H28.1731V33.855H28.7896V33.355ZM27.9231 33.605V35.7628H28.4231V33.605H27.9231ZM28.1731 36.0128H32.2059V35.5128H28.1731V36.0128ZM31.9559 35.7628V38.3307H32.4559V35.7628H31.9559ZM32.2059 38.5807H34.8501V38.0807H32.2059V38.5807ZM36.349 36.0128C36.3491 36.0128 36.3492 36.0128 36.3494 36.0128C36.3495 36.0128 36.3496 36.0128 36.3498 36.0128C36.3499 36.0128 36.35 36.0128 36.3502 36.0128C36.3503 36.0128 36.3504 36.0128 36.3506 36.0128C36.3507 36.0128 36.3508 36.0128 36.351 36.0128C36.3511 36.0128 36.3512 36.0128 36.3514 36.0128C36.3515 36.0128 36.3516 36.0128 36.3518 36.0128C36.3519 36.0128 36.352 36.0128 36.3522 36.0128C36.3523 36.0128 36.3524 36.0128 36.3526 36.0128C36.3527 36.0128 36.3528 36.0128 36.353 36.0128C36.3531 36.0128 36.3532 36.0128 36.3534 36.0128C36.3535 36.0128 36.3536 36.0128 36.3537 36.0128C36.3539 36.0128 36.354 36.0128 36.3541 36.0128C36.3543 36.0128 36.3544 36.0128 36.3545 36.0128C36.3547 36.0128 36.3548 36.0128 36.3549 36.0128C36.3551 36.0128 36.3552 36.0128 36.3553 36.0128C36.3555 36.0128 36.3556 36.0128 36.3557 36.0128C36.3559 36.0128 36.356 36.0128 36.3561 36.0128C36.3563 36.0128 36.3564 36.0128 36.3565 36.0128C36.3567 36.0128 36.3568 36.0128 36.3569 36.0128C36.3571 36.0128 36.3572 36.0128 36.3573 36.0128C36.3574 36.0128 36.3576 36.0128 36.3577 36.0128C36.3578 36.0128 36.358 36.0128 36.3581 36.0128C36.3582 36.0128 36.3584 36.0128 36.3585 36.0128C36.3586 36.0128 36.3588 36.0128 36.3589 36.0128C36.359 36.0128 36.3592 36.0128 36.3593 36.0128C36.3594 36.0128 36.3596 36.0128 36.3597 36.0128C36.3598 36.0128 36.36 36.0128 36.3601 36.0128C36.3602 36.0128 36.3604 36.0128 36.3605 36.0128C36.3606 36.0128 36.3607 36.0128 36.3609 36.0128C36.361 36.0128 36.3611 36.0128 36.3613 36.0128C36.3614 36.0128 36.3615 36.0128 36.3617 36.0128C36.3618 36.0128 36.3619 36.0128 36.3621 36.0128C36.3622 36.0128 36.3623 36.0128 36.3625 36.0128C36.3626 36.0128 36.3627 36.0128 36.3629 36.0128C36.363 36.0128 36.3631 36.0128 36.3633 36.0128C36.3634 36.0128 36.3635 36.0128 36.3637 36.0128C36.3638 36.0128 36.3639 36.0128 36.364 36.0128C36.3642 36.0128 36.3643 36.0128 36.3644 36.0128C36.3646 36.0128 36.3647 36.0128 36.3648 36.0128C36.365 36.0128 36.3651 36.0128 36.3652 36.0128C36.3654 36.0128 36.3655 36.0128 36.3656 36.0128C36.3658 36.0128 36.3659 36.0128 36.366 36.0128C36.3662 36.0128 36.3663 36.0128 36.3664 36.0128C36.3665 36.0128 36.3667 36.0128 36.3668 36.0128C36.3669 36.0128 36.3671 36.0128 36.3672 36.0128C36.3673 36.0128 36.3675 36.0128 36.3676 36.0128C36.3677 36.0128 36.3679 36.0128 36.368 36.0128C36.3681 36.0128 36.3683 36.0128 36.3684 36.0128C36.3685 36.0128 36.3687 36.0128 36.3688 36.0128C36.3689 36.0128 36.369 36.0128 36.3692 36.0128C36.3693 36.0128 36.3694 36.0128 36.3696 36.0128C36.3697 36.0128 36.3698 36.0128 36.37 36.0128C36.3701 36.0128 36.3702 36.0128 36.3704 36.0128C36.3705 36.0128 36.3706 36.0128 36.3708 36.0128C36.3709 36.0128 36.371 36.0128 36.3712 36.0128C36.3713 36.0128 36.3714 36.0128 36.3715 36.0128C36.3717 36.0128 36.3718 36.0128 36.3719 36.0128C36.3721 36.0128 36.3722 36.0128 36.3723 36.0128C36.3725 36.0128 36.3726 36.0128 36.3727 36.0128C36.3729 36.0128 36.373 36.0128 36.3731 36.0128C36.3732 36.0128 36.3734 36.0128 36.3735 36.0128C36.3736 36.0128 36.3738 36.0128 36.3739 36.0128C36.374 36.0128 36.3742 36.0128 36.3743 36.0128C36.3744 36.0128 36.3746 36.0128 36.3747 36.0128C36.3748 36.0128 36.375 36.0128 36.3751 36.0128C36.3752 36.0128 36.3754 36.0128 36.3755 36.0128C36.3756 36.0128 36.3757 36.0128 36.3759 36.0128C36.376 36.0128 36.3761 36.0128 36.3763 36.0128C36.3764 36.0128 36.3765 36.0128 36.3767 36.0128C36.3768 36.0128 36.3769 36.0128 36.3771 36.0128C36.3772 36.0128 36.3773 36.0128 36.3774 36.0128C36.3776 36.0128 36.3777 36.0128 36.3778 36.0128C36.378 36.0128 36.3781 36.0128 36.3782 36.0128C36.3784 36.0128 36.3785 36.0128 36.3786 36.0128C36.3788 36.0128 36.3789 36.0128 36.379 36.0128C36.3792 36.0128 36.3793 36.0128 36.3794 36.0128C36.3795 36.0128 36.3797 36.0128 36.3798 36.0128C36.3799 36.0128 36.3801 36.0128 36.3802 36.0128C36.3803 36.0128 36.3805 36.0128 36.3806 36.0128C36.3807 36.0128 36.3809 36.0128 36.381 36.0128C36.3811 36.0128 36.3812 36.0128 36.3814 36.0128C36.3815 36.0128 36.3816 36.0128 36.3818 36.0128C36.3819 36.0128 36.382 36.0128 36.3822 36.0128C36.3823 36.0128 36.3824 36.0128 36.3825 36.0128C36.3827 36.0128 36.3828 36.0128 36.3829 36.0128C36.3831 36.0128 36.3832 36.0128 36.3833 36.0128C36.3835 36.0128 36.3836 36.0128 36.3837 36.0128C36.3839 36.0128 36.384 36.0128 36.3841 36.0128C36.3843 36.0128 36.3844 36.0128 36.3845 36.0128C36.3846 36.0128 36.3848 36.0128 36.3849 36.0128C36.385 36.0128 36.3852 36.0128 36.3853 36.0128C36.3854 36.0128 36.3856 36.0128 36.3857 36.0128C36.3858 36.0128 36.3859 36.0128 36.3861 36.0128C36.3862 36.0128 36.3863 36.0128 36.3865 36.0128C36.3866 36.0128 36.3867 36.0128 36.3869 36.0128C36.387 36.0128 36.3871 36.0128 36.3873 36.0128C36.3874 36.0128 36.3875 36.0128 36.3876 36.0128C36.3878 36.0128 36.3879 36.0128 36.388 36.0128C36.3882 36.0128 36.3883 36.0128 36.3884 36.0128C36.3886 36.0128 36.3887 36.0128 36.3888 36.0128C36.3889 36.0128 36.3891 36.0128 36.3892 36.0128C36.3893 36.0128 36.3895 36.0128 36.3896 36.0128C36.3897 36.0128 36.3899 36.0128 36.39 36.0128C36.3901 36.0128 36.3903 36.0128 36.3904 36.0128C36.3905 36.0128 36.3906 36.0128 36.3908 36.0128C36.3909 36.0128 36.391 36.0128 36.3912 36.0128C36.3913 36.0128 36.3914 36.0128 36.3916 36.0128C36.3917 36.0128 36.3918 36.0128 36.3919 36.0128C36.3921 36.0128 36.3922 36.0128 36.3923 36.0128C36.3925 36.0128 36.3926 36.0128 36.3927 36.0128C36.3929 36.0128 36.393 36.0128 36.3931 36.0128C36.3932 36.0128 36.3934 36.0128 36.3935 36.0128C36.3936 36.0128 36.3938 36.0128 36.3939 36.0128C36.394 36.0128 36.3942 36.0128 36.3943 36.0128C36.3944 36.0128 36.3945 36.0128 36.3947 36.0128C36.3948 36.0128 36.3949 36.0128 36.3951 36.0128C36.3952 36.0128 36.3953 36.0128 36.3955 36.0128C36.3956 36.0128 36.3957 36.0128 36.3958 36.0128C36.396 36.0128 36.3961 36.0128 36.3962 36.0128C36.3964 36.0128 36.3965 36.0128 36.3966 36.0128C36.3968 36.0128 36.3969 36.0128 36.397 36.0128C36.3971 36.0128 36.3973 36.0128 36.3974 36.0128C36.3975 36.0128 36.3977 36.0128 36.3978 36.0128C36.3979 36.0128 36.3981 36.0128 36.3982 36.0128C36.3983 36.0128 36.3984 36.0128 36.3986 36.0128C36.3987 36.0128 36.3988 36.0128 36.399 36.0128C36.3991 36.0128 36.3992 36.0128 36.3994 36.0128C36.3995 36.0128 36.3996 36.0128 36.3997 36.0128C36.3999 36.0128 36.4 36.0128 36.4001 36.0128C36.4003 36.0128 36.4004 36.0128 36.4005 36.0128C36.4007 36.0128 36.4008 36.0128 36.4009 36.0128C36.401 36.0128 36.4012 36.0128 36.4013 36.0128C36.4014 36.0128 36.4016 36.0128 36.4017 36.0128C36.4018 36.0128 36.402 36.0128 36.4021 36.0128C36.4022 36.0128 36.4023 36.0128 36.4025 36.0128C36.4026 36.0128 36.4027 36.0128 36.4029 36.0128C36.403 36.0128 36.4031 36.0128 36.4032 36.0128C36.4034 36.0128 36.4035 36.0128 36.4036 36.0128C36.4038 36.0128 36.4039 36.0128 36.404 36.0128C36.4042 36.0128 36.4043 36.0128 36.4044 36.0128C36.4045 36.0128 36.4047 36.0128 36.4048 36.0128C36.4049 36.0128 36.4051 36.0128 36.4052 36.0128C36.4053 36.0128 36.4054 36.0128 36.4056 36.0128C36.4057 36.0128 36.4058 36.0128 36.406 36.0128C36.4061 36.0128 36.4062 36.0128 36.4064 36.0128C36.4065 36.0128 36.4066 36.0128 36.4067 36.0128C36.4069 36.0128 36.407 36.0128 36.4071 36.0128C36.4073 36.0128 36.4074 36.0128 36.4075 36.0128C36.4076 36.0128 36.4078 36.0128 36.4079 36.0128C36.408 36.0128 36.4082 36.0128 36.4083 36.0128C36.4084 36.0128 36.4086 36.0128 36.4087 36.0128C36.4088 36.0128 36.4089 36.0128 36.4091 36.0128C36.4092 36.0128 36.4093 36.0128 36.4095 36.0128C36.4096 36.0128 36.4097 36.0128 36.4098 36.0128C36.41 36.0128 36.4101 36.0128 36.4102 36.0128C36.4104 36.0128 36.4105 36.0128 36.4106 36.0128C36.4108 36.0128 36.4109 36.0128 36.411 36.0128C36.4111 36.0128 36.4113 36.0128 36.4114 36.0128C36.4115 36.0128 36.4117 36.0128 36.4118 36.0128C36.4119 36.0128 36.412 36.0128 36.4122 36.0128C36.4123 36.0128 36.4124 36.0128 36.4126 36.0128C36.4127 36.0128 36.4128 36.0128 36.4129 36.0128C36.4131 36.0128 36.4132 36.0128 36.4133 36.0128C36.4135 36.0128 36.4136 36.0128 36.4137 36.0128C36.4138 36.0128 36.414 36.0128 36.4141 36.0128C36.4142 36.0128 36.4144 36.0128 36.4145 36.0128C36.4146 36.0128 36.4147 36.0128 36.4149 36.0128C36.415 36.0128 36.4151 36.0128 36.4153 36.0128C36.4154 36.0128 36.4155 36.0128 36.4157 36.0128C36.4158 36.0128 36.4159 36.0128 36.416 36.0128C36.4162 36.0128 36.4163 36.0128 36.4164 36.0128C36.4166 36.0128 36.4167 36.0128 36.4168 36.0128C36.4169 36.0128 36.4171 36.0128 36.4172 36.0128C36.4173 36.0128 36.4175 36.0128 36.4176 36.0128C36.4177 36.0128 36.4178 36.0128 36.418 36.0128C36.4181 36.0128 36.4182 36.0128 36.4184 36.0128C36.4185 36.0128 36.4186 36.0128 36.4187 36.0128C36.4189 36.0128 36.419 36.0128 36.4191 36.0128C36.4193 36.0128 36.4194 36.0128 36.4195 36.0128C36.4196 36.0128 36.4198 36.0128 36.4199 36.0128C36.42 36.0128 36.4202 36.0128 36.4203 36.0128C36.4204 36.0128 36.4205 36.0128 36.4207 36.0128C36.4208 36.0128 36.4209 36.0128 36.4211 36.0128C36.4212 36.0128 36.4213 36.0128 36.4214 36.0128C36.4216 36.0128 36.4217 36.0128 36.4218 36.0128C36.422 36.0128 36.4221 36.0128 36.4222 36.0128C36.4223 36.0128 36.4225 36.0128 36.4226 36.0128C36.4227 36.0128 36.4229 36.0128 36.423 36.0128C36.4231 36.0128 36.4232 36.0128 36.4234 36.0128C36.4235 36.0128 36.4236 36.0128 36.4238 36.0128C36.4239 36.0128 36.424 36.0128 36.4241 36.0128C36.4243 36.0128 36.4244 36.0128 36.4245 36.0128C36.4247 36.0128 36.4248 36.0128 36.4249 36.0128C36.425 36.0128 36.4252 36.0128 36.4253 36.0128C36.4254 36.0128 36.4256 36.0128 36.4257 36.0128C36.4258 36.0128 36.4259 36.0128 36.4261 36.0128C36.4262 36.0128 36.4263 36.0128 36.4265 36.0128C36.4266 36.0128 36.4267 36.0128 36.4268 36.0128C36.427 36.0128 36.4271 36.0128 36.4272 36.0128C36.4274 36.0128 36.4275 36.0128 36.4276 36.0128C36.4277 36.0128 36.4279 36.0128 36.428 36.0128C36.4281 36.0128 36.4282 36.0128 36.4284 36.0128C36.4285 36.0128 36.4286 36.0128 36.4288 36.0128C36.4289 36.0128 36.429 36.0128 36.4291 36.0128C36.4293 36.0128 36.4294 36.0128 36.4295 36.0128C36.4297 36.0128 36.4298 36.0128 36.4299 36.0128C36.43 36.0128 36.4302 36.0128 36.4303 36.0128C36.4304 36.0128 36.4306 36.0128 36.4307 36.0128C36.4308 36.0128 36.4309 36.0128 36.4311 36.0128C36.4312 36.0128 36.4313 36.0128 36.4315 36.0128C36.4316 36.0128 36.4317 36.0128 36.4318 36.0128C36.432 36.0128 36.4321 36.0128 36.4322 36.0128C36.4324 36.0128 36.4325 36.0128 36.4326 36.0128C36.4327 36.0128 36.4329 36.0128 36.433 36.0128C36.4331 36.0128 36.4332 36.0128 36.4334 36.0128C36.4335 36.0128 36.4336 36.0128 36.4338 36.0128C36.4339 36.0128 36.434 36.0128 36.4341 36.0128C36.4343 36.0128 36.4344 36.0128 36.4345 36.0128C36.4347 36.0128 36.4348 36.0128 36.4349 36.0128C36.435 36.0128 36.4352 36.0128 36.4353 36.0128C36.4354 36.0128 36.4355 36.0128 36.4357 36.0128C36.4358 36.0128 36.4359 36.0128 36.4361 36.0128C36.4362 36.0128 36.4363 36.0128 36.4364 36.0128C36.4366 36.0128 36.4367 36.0128 36.4368 36.0128C36.437 36.0128 36.4371 36.0128 36.4372 36.0128C36.4373 36.0128 36.4375 36.0128 36.4376 36.0128C36.4377 36.0128 36.4378 36.0128 36.438 36.0128C36.4381 36.0128 36.4382 36.0128 36.4384 36.0128C36.4385 36.0128 36.4386 36.0128 36.4387 36.0128C36.4389 36.0128 36.439 36.0128 36.4391 36.0128C36.4392 36.0128 36.4394 36.0128 36.4395 36.0128C36.4396 36.0128 36.4398 36.0128 36.4399 36.0128C36.44 36.0128 36.4401 36.0128 36.4403 36.0128C36.4404 36.0128 36.4405 36.0128 36.4407 36.0128C36.4408 36.0128 36.4409 36.0128 36.441 36.0128C36.4412 36.0128 36.4413 36.0128 36.4414 36.0128C36.4415 36.0128 36.4417 36.0128 36.4418 36.0128C36.4419 36.0128 36.4421 36.0128 36.4422 36.0128C36.4423 36.0128 36.4424 36.0128 36.4426 36.0128C36.4427 36.0128 36.4428 36.0128 36.4429 36.0128C36.4431 36.0128 36.4432 36.0128 36.4433 36.0128C36.4435 36.0128 36.4436 36.0128 36.4437 36.0128C36.4438 36.0128 36.444 36.0128 36.4441 36.0128C36.4442 36.0128 36.4443 36.0128 36.4445 36.0128C36.4446 36.0128 36.4447 36.0128 36.4449 36.0128C36.445 36.0128 36.4451 36.0128 36.4452 36.0128C36.4454 36.0128 36.4455 36.0128 36.4456 36.0128C36.4457 36.0128 36.4459 36.0128 36.446 36.0128C36.4461 36.0128 36.4463 36.0128 36.4464 36.0128C36.4465 36.0128 36.4466 36.0128 36.4468 36.0128C36.4469 36.0128 36.447 36.0128 36.4471 36.0128C36.4473 36.0128 36.4474 36.0128 36.4475 36.0128C36.4477 36.0128 36.4478 36.0128 36.4479 36.0128C36.448 36.0128 36.4482 36.0128 36.4483 36.0128C36.4484 36.0128 36.4485 36.0128 36.4487 36.0128C36.4488 36.0128 36.4489 36.0128 36.4491 36.0128C36.4492 36.0128 36.4493 36.0128 36.4494 36.0128C36.4496 36.0128 36.4497 36.0128 36.4498 36.0128C36.4499 36.0128 36.4501 36.0128 36.4502 36.0128C36.4503 36.0128 36.4504 36.0128 36.4506 36.0128C36.4507 36.0128 36.4508 36.0128 36.451 36.0128C36.4511 36.0128 36.4512 36.0128 36.4513 36.0128C36.4515 36.0128 36.4516 36.0128 36.4517 36.0128C36.4518 36.0128 36.452 36.0128 36.4521 36.0128C36.4522 36.0128 36.4524 36.0128 36.4525 36.0128C36.4526 36.0128 36.4527 36.0128 36.4529 36.0128C36.453 36.0128 36.4531 36.0128 36.4532 36.0128C36.4534 36.0128 36.4535 36.0128 36.4536 36.0128C36.4537 36.0128 36.4539 36.0128 36.454 36.0128C36.4541 36.0128 36.4543 36.0128 36.4544 36.0128C36.4545 36.0128 36.4546 36.0128 36.4548 36.0128C36.4549 36.0128 36.455 36.0128 36.4551 36.0128C36.4553 36.0128 36.4554 36.0128 36.4555 36.0128C36.4556 36.0128 36.4558 36.0128 36.4559 36.0128C36.456 36.0128 36.4562 36.0128 36.4563 36.0128C36.4564 36.0128 36.4565 36.0128 36.4567 36.0128C36.4568 36.0128 36.4569 36.0128 36.457 36.0128C36.4572 36.0128 36.4573 36.0128 36.4574 36.0128C36.4575 36.0128 36.4577 36.0128 36.4578 36.0128C36.4579 36.0128 36.458 36.0128 36.4582 36.0128C36.4583 36.0128 36.4584 36.0128 36.4586 36.0128C36.4587 36.0128 36.4588 36.0128 36.4589 36.0128C36.4591 36.0128 36.4592 36.0128 36.4593 36.0128C36.4594 36.0128 36.4596 36.0128 36.4597 36.0128C36.4598 36.0128 36.4599 36.0128 36.4601 36.0128C36.4602 36.0128 36.4603 36.0128 36.4605 36.0128C36.4606 36.0128 36.4607 36.0128 36.4608 36.0128C36.461 36.0128 36.4611 36.0128 36.4612 36.0128C36.4613 36.0128 36.4615 36.0128 36.4616 36.0128C36.4617 36.0128 36.4618 36.0128 36.462 36.0128C36.4621 36.0128 36.4622 36.0128 36.4623 36.0128C36.4625 36.0128 36.4626 36.0128 36.4627 36.0128C36.4629 36.0128 36.463 36.0128 36.4631 36.0128C36.4632 36.0128 36.4634 36.0128 36.4635 36.0128C36.4636 36.0128 36.4637 36.0128 36.4639 36.0128C36.464 36.0128 36.4641 36.0128 36.4642 36.0128C36.4644 36.0128 36.4645 36.0128 36.4646 36.0128C36.4647 36.0128 36.4649 36.0128 36.465 36.0128C36.4651 36.0128 36.4653 36.0128 36.4654 36.0128C36.4655 36.0128 36.4656 36.0128 36.4658 36.0128C36.4659 36.0128 36.466 36.0128 36.4661 36.0128C36.4663 36.0128 36.4664 36.0128 36.4665 36.0128C36.4666 36.0128 36.4668 36.0128 36.4669 36.0128C36.467 36.0128 36.4671 36.0128 36.4673 36.0128C36.4674 36.0128 36.4675 36.0128 36.4676 36.0128C36.4678 36.0128 36.4679 36.0128 36.468 36.0128C36.4681 36.0128 36.4683 36.0128 36.4684 36.0128C36.4685 36.0128 36.4687 36.0128 36.4688 36.0128C36.4689 36.0128 36.469 36.0128 36.4692 36.0128C36.4693 36.0128 36.4694 36.0128 36.4695 36.0128C36.4697 36.0128 36.4698 36.0128 36.4699 36.0128C36.47 36.0128 36.4702 36.0128 36.4703 36.0128C36.4704 36.0128 36.4705 36.0128 36.4707 36.0128C36.4708 36.0128 36.4709 36.0128 36.471 36.0128C36.4712 36.0128 36.4713 36.0128 36.4714 36.0128C36.4715 36.0128 36.4717 36.0128 36.4718 36.0128C36.4719 36.0128 36.472 36.0128 36.4722 36.0128C36.4723 36.0128 36.4724 36.0128 36.4726 36.0128C36.4727 36.0128 36.4728 36.0128 36.4729 36.0128C36.4731 36.0128 36.4732 36.0128 36.4733 36.0128C36.4734 36.0128 36.4736 36.0128 36.4737 36.0128C36.4738 36.0128 36.4739 36.0128 36.4741 36.0128C36.4742 36.0128 36.4743 36.0128 36.4744 36.0128C36.4746 36.0128 36.4747 36.0128 36.4748 36.0128C36.4749 36.0128 36.4751 36.0128 36.4752 36.0128C36.4753 36.0128 36.4754 36.0128 36.4756 36.0128C36.4757 36.0128 36.4758 36.0128 36.4759 36.0128C36.4761 36.0128 36.4762 36.0128 36.4763 36.0128C36.4764 36.0128 36.4766 36.0128 36.4767 36.0128C36.4768 36.0128 36.4769 36.0128 36.4771 36.0128C36.4772 36.0128 36.4773 36.0128 36.4774 36.0128C36.4776 36.0128 36.4777 36.0128 36.4778 36.0128C36.478 36.0128 36.4781 36.0128 36.4782 36.0128C36.4783 36.0128 36.4785 36.0128 36.4786 36.0128C36.4787 36.0128 36.4788 36.0128 36.479 36.0128C36.4791 36.0128 36.4792 36.0128 36.4793 36.0128C36.4795 36.0128 36.4796 36.0128 36.4797 36.0128C36.4798 36.0128 36.48 36.0128 36.4801 36.0128C36.4802 36.0128 36.4803 36.0128 36.4805 36.0128C36.4806 36.0128 36.4807 36.0128 36.4808 36.0128C36.481 36.0128 36.4811 36.0128 36.4812 36.0128C36.4813 36.0128 36.4815 36.0128 36.4816 36.0128C36.4817 36.0128 36.4818 36.0128 36.482 36.0128C36.4821 36.0128 36.4822 36.0128 36.4823 36.0128C36.4825 36.0128 36.4826 36.0128 36.4827 36.0128C36.4828 36.0128 36.483 36.0128 36.4831 36.0128C36.4832 36.0128 36.4833 36.0128 36.4835 36.0128C36.4836 36.0128 36.4837 36.0128 36.4838 36.0128C36.484 36.0128 36.4841 36.0128 36.4842 36.0128C36.4843 36.0128 36.4845 36.0128 36.4846 36.0128C36.4847 36.0128 36.4848 36.0128 36.485 36.0128C36.4851 36.0128 36.4852 36.0128 36.4853 36.0128C36.4855 36.0128 36.4856 36.0128 36.4857 36.0128C36.4858 36.0128 36.486 36.0128 36.4861 36.0128C36.4862 36.0128 36.4863 36.0128 36.4865 36.0128C36.4866 36.0128 36.4867 36.0128 36.4868 36.0128C36.487 36.0128 36.4871 36.0128 36.4872 36.0128C36.4873 36.0128 36.4875 36.0128 36.4876 36.0128C36.4877 36.0128 36.4878 36.0128 36.488 36.0128C36.4881 36.0128 36.4882 36.0128 36.4883 36.0128C36.4885 36.0128 36.4886 36.0128 36.4887 36.0128C36.4888 36.0128 36.489 36.0128 36.4891 36.0128C36.4892 36.0128 36.4893 36.0128 36.4895 36.0128C36.4896 36.0128 36.4897 36.0128 36.4898 36.0128C36.49 36.0128 36.4901 36.0128 36.4902 36.0128C36.4903 36.0128 36.4905 36.0128 36.4906 36.0128C36.4907 36.0128 36.4908 36.0128 36.491 36.0128C36.4911 36.0128 36.4912 36.0128 36.4913 36.0128C36.4914 36.0128 36.4916 36.0128 36.4917 36.0128C36.4918 36.0128 36.4919 36.0128 36.4921 36.0128C36.4922 36.0128 36.4923 36.0128 36.4924 36.0128C36.4926 36.0128 36.4927 36.0128 36.4928 36.0128C36.4929 36.0128 36.4931 36.0128 36.4932 36.0128C36.4933 36.0128 36.4934 36.0128 36.4936 36.0128C36.4937 36.0128 36.4938 36.0128 36.4939 36.0128C36.4941 36.0128 36.4942 36.0128 36.4943 36.0128C36.4944 36.0128 36.4946 36.0128 36.4947 36.0128C36.4948 36.0128 36.4949 36.0128 36.4951 36.0128C36.4952 36.0128 36.4953 36.0128 36.4954 36.0128C36.4956 36.0128 36.4957 36.0128 36.4958 36.0128C36.4959 36.0128 36.4961 36.0128 36.4962 36.0128C36.4963 36.0128 36.4964 36.0128 36.4966 36.0128C36.4967 36.0128 36.4968 36.0128 36.4969 36.0128C36.497 36.0128 36.4972 36.0128 36.4973 36.0128C36.4974 36.0128 36.4975 36.0128 36.4977 36.0128C36.4978 36.0128 36.4979 36.0128 36.498 36.0128C36.4982 36.0128 36.4983 36.0128 36.4984 36.0128C36.4985 36.0128 36.4987 36.0128 36.4988 36.0128C36.4989 36.0128 36.499 36.0128 36.4992 36.0128C36.4993 36.0128 36.4994 36.0128 36.4995 36.0128C36.4997 36.0128 36.4998 36.0128 36.4999 36.0128C36.5 36.0128 36.5002 36.0128 36.5003 36.0128C36.5004 36.0128 36.5005 36.0128 36.5006 36.0128C36.5008 36.0128 36.5009 36.0128 36.501 36.0128C36.5011 36.0128 36.5013 36.0128 36.5014 36.0128C36.5015 36.0128 36.5016 36.0128 36.5018 36.0128C36.5019 36.0128 36.502 36.0128 36.5021 36.0128C36.5023 36.0128 36.5024 36.0128 36.5025 36.0128C36.5026 36.0128 36.5028 36.0128 36.5029 36.0128C36.503 36.0128 36.5031 36.0128 36.5033 36.0128C36.5034 36.0128 36.5035 36.0128 36.5036 36.0128C36.5037 36.0128 36.5039 36.0128 36.504 36.0128C36.5041 36.0128 36.5042 36.0128 36.5044 36.0128C36.5045 36.0128 36.5046 36.0128 36.5047 36.0128C36.5049 36.0128 36.505 36.0128 36.5051 36.0128C36.5052 36.0128 36.5054 36.0128 36.5055 36.0128C36.5056 36.0128 36.5057 36.0128 36.5059 36.0128C36.506 36.0128 36.5061 36.0128 36.5062 36.0128C36.5063 36.0128 36.5065 36.0128 36.5066 36.0128C36.5067 36.0128 36.5068 36.0128 36.507 36.0128C36.5071 36.0128 36.5072 36.0128 36.5073 36.0128C36.5075 36.0128 36.5076 36.0128 36.5077 36.0128C36.5078 36.0128 36.508 36.0128 36.5081 36.0128C36.5082 36.0128 36.5083 36.0128 36.5084 36.0128C36.5086 36.0128 36.5087 36.0128 36.5088 36.0128C36.5089 36.0128 36.5091 36.0128 36.5092 36.0128C36.5093 36.0128 36.5094 36.0128 36.5096 36.0128C36.5097 36.0128 36.5098 36.0128 36.5099 36.0128C36.5101 36.0128 36.5102 36.0128 36.5103 36.0128C36.5104 36.0128 36.5106 36.0128 36.5107 36.0128C36.5108 36.0128 36.5109 36.0128 36.511 36.0128C36.5112 36.0128 36.5113 36.0128 36.5114 36.0128C36.5115 36.0128 36.5117 36.0128 36.5118 36.0128C36.5119 36.0128 36.512 36.0128 36.5122 36.0128C36.5123 36.0128 36.5124 36.0128 36.5125 36.0128C36.5126 36.0128 36.5128 36.0128 36.5129 36.0128C36.513 36.0128 36.5131 36.0128 36.5133 36.0128C36.5134 36.0128 36.5135 36.0128 36.5136 36.0128C36.5138 36.0128 36.5139 36.0128 36.514 36.0128C36.5141 36.0128 36.5143 36.0128 36.5144 36.0128C36.5145 36.0128 36.5146 36.0128 36.5147 36.0128C36.5149 36.0128 36.515 36.0128 36.5151 36.0128C36.5152 36.0128 36.5154 36.0128 36.5155 36.0128C36.5156 36.0128 36.5157 36.0128 36.5159 36.0128C36.516 36.0128 36.5161 36.0128 36.5162 36.0128C36.5163 36.0128 36.5165 36.0128 36.5166 36.0128C36.5167 36.0128 36.5168 36.0128 36.517 36.0128C36.5171 36.0128 36.5172 36.0128 36.5173 36.0128C36.5175 36.0128 36.5176 36.0128 36.5177 36.0128C36.5178 36.0128 36.5179 36.0128 36.5181 36.0128C36.5182 36.0128 36.5183 36.0128 36.5184 36.0128C36.5186 36.0128 36.5187 36.0128 36.5188 36.0128C36.5189 36.0128 36.5191 36.0128 36.5192 36.0128C36.5193 36.0128 36.5194 36.0128 36.5195 36.0128C36.5197 36.0128 36.5198 36.0128 36.5199 36.0128C36.52 36.0128 36.5202 36.0128 36.5203 36.0128C36.5204 36.0128 36.5205 36.0128 36.5207 36.0128C36.5208 36.0128 36.5209 36.0128 36.521 36.0128C36.5211 36.0128 36.5213 36.0128 36.5214 36.0128C36.5215 36.0128 36.5216 36.0128 36.5218 36.0128C36.5219 36.0128 36.522 36.0128 36.5221 36.0128C36.5223 36.0128 36.5224 36.0128 36.5225 36.0128C36.5226 36.0128 36.5227 36.0128 36.5229 36.0128C36.523 36.0128 36.5231 36.0128 36.5232 36.0128C36.5234 36.0128 36.5235 36.0128 36.5236 36.0128C36.5237 36.0128 36.5238 36.0128 36.524 36.0128C36.5241 36.0128 36.5242 36.0128 36.5243 36.0128C36.5245 36.0128 36.5246 36.0128 36.5247 36.0128C36.5248 36.0128 36.5249 36.0128 36.5251 36.0128C36.5252 36.0128 36.5253 36.0128 36.5254 36.0128C36.5256 36.0128 36.5257 36.0128 36.5258 36.0128C36.5259 36.0128 36.5261 36.0128 36.5262 36.0128C36.5263 36.0128 36.5264 36.0128 36.5265 36.0128C36.5267 36.0128 36.5268 36.0128 36.5269 36.0128C36.527 36.0128 36.5272 36.0128 36.5273 36.0128C36.5274 36.0128 36.5275 36.0128 36.5276 36.0128C36.5278 36.0128 36.5279 36.0128 36.528 36.0128C36.5281 36.0128 36.5283 36.0128 36.5284 36.0128C36.5285 36.0128 36.5286 36.0128 36.5287 36.0128C36.5289 36.0128 36.529 36.0128 36.5291 36.0128C36.5292 36.0128 36.5294 36.0128 36.5295 36.0128C36.5296 36.0128 36.5297 36.0128 36.5299 36.0128C36.53 36.0128 36.5301 36.0128 36.5302 36.0128C36.5303 36.0128 36.5305 36.0128 36.5306 36.0128C36.5307 36.0128 36.5308 36.0128 36.531 36.0128C36.5311 36.0128 36.5312 36.0128 36.5313 36.0128C36.5314 36.0128 36.5316 36.0128 36.5317 36.0128C36.5318 36.0128 36.5319 36.0128 36.5321 36.0128C36.5322 36.0128 36.5323 36.0128 36.5324 36.0128C36.5325 36.0128 36.5327 36.0128 36.5328 36.0128C36.5329 36.0128 36.533 36.0128 36.5331 36.0128C36.5333 36.0128 36.5334 36.0128 36.5335 36.0128C36.5336 36.0128 36.5338 36.0128 36.5339 36.0128C36.534 36.0128 36.5341 36.0128 36.5343 36.0128C36.5344 36.0128 36.5345 36.0128 36.5346 36.0128C36.5347 36.0128 36.5349 36.0128 36.535 36.0128C36.5351 36.0128 36.5352 36.0128 36.5354 36.0128C36.5355 36.0128 36.5356 36.0128 36.5357 36.0128C36.5358 36.0128 36.536 36.0128 36.5361 36.0128C36.5362 36.0128 36.5363 36.0128 36.5364 36.0128C36.5366 36.0128 36.5367 36.0128 36.5368 36.0128C36.5369 36.0128 36.5371 36.0128 36.5372 36.0128C36.5373 36.0128 36.5374 36.0128 36.5375 36.0128C36.5377 36.0128 36.5378 36.0128 36.5379 36.0128C36.538 36.0128 36.5382 36.0128 36.5383 36.0128C36.5384 36.0128 36.5385 36.0128 36.5386 36.0128C36.5388 36.0128 36.5389 36.0128 36.539 36.0128C36.5391 36.0128 36.5392 36.0128 36.5394 36.0128C36.5395 36.0128 36.5396 36.0128 36.5397 36.0128C36.5399 36.0128 36.54 36.0128 36.5401 36.0128C36.5402 36.0128 36.5403 36.0128 36.5405 36.0128C36.5406 36.0128 36.5407 36.0128 36.5408 36.0128C36.541 36.0128 36.5411 36.0128 36.5412 36.0128C36.5413 36.0128 36.5414 36.0128 36.5416 36.0128C36.5417 36.0128 36.5418 36.0128 36.5419 36.0128C36.542 36.0128 36.5422 36.0128 36.5423 36.0128C36.5424 36.0128 36.5425 36.0128 36.5427 36.0128C36.5428 36.0128 36.5429 36.0128 36.543 36.0128C36.5431 36.0128 36.5433 36.0128 36.5434 36.0128C36.5435 36.0128 36.5436 36.0128 36.5438 36.0128C36.5439 36.0128 36.544 36.0128 36.5441 36.0128V35.5128C36.544 35.5128 36.5439 35.5128 36.5438 35.5128C36.5436 35.5128 36.5435 35.5128 36.5434 35.5128C36.5433 35.5128 36.5431 35.5128 36.543 35.5128C36.5429 35.5128 36.5428 35.5128 36.5427 35.5128C36.5425 35.5128 36.5424 35.5128 36.5423 35.5128C36.5422 35.5128 36.542 35.5128 36.5419 35.5128C36.5418 35.5128 36.5417 35.5128 36.5416 35.5128C36.5414 35.5128 36.5413 35.5128 36.5412 35.5128C36.5411 35.5128 36.541 35.5128 36.5408 35.5128C36.5407 35.5128 36.5406 35.5128 36.5405 35.5128C36.5403 35.5128 36.5402 35.5128 36.5401 35.5128C36.54 35.5128 36.5399 35.5128 36.5397 35.5128C36.5396 35.5128 36.5395 35.5128 36.5394 35.5128C36.5392 35.5128 36.5391 35.5128 36.539 35.5128C36.5389 35.5128 36.5388 35.5128 36.5386 35.5128C36.5385 35.5128 36.5384 35.5128 36.5383 35.5128C36.5382 35.5128 36.538 35.5128 36.5379 35.5128C36.5378 35.5128 36.5377 35.5128 36.5375 35.5128C36.5374 35.5128 36.5373 35.5128 36.5372 35.5128C36.5371 35.5128 36.5369 35.5128 36.5368 35.5128C36.5367 35.5128 36.5366 35.5128 36.5364 35.5128C36.5363 35.5128 36.5362 35.5128 36.5361 35.5128C36.536 35.5128 36.5358 35.5128 36.5357 35.5128C36.5356 35.5128 36.5355 35.5128 36.5354 35.5128C36.5352 35.5128 36.5351 35.5128 36.535 35.5128C36.5349 35.5128 36.5347 35.5128 36.5346 35.5128C36.5345 35.5128 36.5344 35.5128 36.5343 35.5128C36.5341 35.5128 36.534 35.5128 36.5339 35.5128C36.5338 35.5128 36.5336 35.5128 36.5335 35.5128C36.5334 35.5128 36.5333 35.5128 36.5331 35.5128C36.533 35.5128 36.5329 35.5128 36.5328 35.5128C36.5327 35.5128 36.5325 35.5128 36.5324 35.5128C36.5323 35.5128 36.5322 35.5128 36.5321 35.5128C36.5319 35.5128 36.5318 35.5128 36.5317 35.5128C36.5316 35.5128 36.5314 35.5128 36.5313 35.5128C36.5312 35.5128 36.5311 35.5128 36.531 35.5128C36.5308 35.5128 36.5307 35.5128 36.5306 35.5128C36.5305 35.5128 36.5303 35.5128 36.5302 35.5128C36.5301 35.5128 36.53 35.5128 36.5299 35.5128C36.5297 35.5128 36.5296 35.5128 36.5295 35.5128C36.5294 35.5128 36.5292 35.5128 36.5291 35.5128C36.529 35.5128 36.5289 35.5128 36.5287 35.5128C36.5286 35.5128 36.5285 35.5128 36.5284 35.5128C36.5283 35.5128 36.5281 35.5128 36.528 35.5128C36.5279 35.5128 36.5278 35.5128 36.5276 35.5128C36.5275 35.5128 36.5274 35.5128 36.5273 35.5128C36.5272 35.5128 36.527 35.5128 36.5269 35.5128C36.5268 35.5128 36.5267 35.5128 36.5265 35.5128C36.5264 35.5128 36.5263 35.5128 36.5262 35.5128C36.5261 35.5128 36.5259 35.5128 36.5258 35.5128C36.5257 35.5128 36.5256 35.5128 36.5254 35.5128C36.5253 35.5128 36.5252 35.5128 36.5251 35.5128C36.5249 35.5128 36.5248 35.5128 36.5247 35.5128C36.5246 35.5128 36.5245 35.5128 36.5243 35.5128C36.5242 35.5128 36.5241 35.5128 36.524 35.5128C36.5238 35.5128 36.5237 35.5128 36.5236 35.5128C36.5235 35.5128 36.5234 35.5128 36.5232 35.5128C36.5231 35.5128 36.523 35.5128 36.5229 35.5128C36.5227 35.5128 36.5226 35.5128 36.5225 35.5128C36.5224 35.5128 36.5223 35.5128 36.5221 35.5128C36.522 35.5128 36.5219 35.5128 36.5218 35.5128C36.5216 35.5128 36.5215 35.5128 36.5214 35.5128C36.5213 35.5128 36.5211 35.5128 36.521 35.5128C36.5209 35.5128 36.5208 35.5128 36.5207 35.5128C36.5205 35.5128 36.5204 35.5128 36.5203 35.5128C36.5202 35.5128 36.52 35.5128 36.5199 35.5128C36.5198 35.5128 36.5197 35.5128 36.5195 35.5128C36.5194 35.5128 36.5193 35.5128 36.5192 35.5128C36.5191 35.5128 36.5189 35.5128 36.5188 35.5128C36.5187 35.5128 36.5186 35.5128 36.5184 35.5128C36.5183 35.5128 36.5182 35.5128 36.5181 35.5128C36.5179 35.5128 36.5178 35.5128 36.5177 35.5128C36.5176 35.5128 36.5175 35.5128 36.5173 35.5128C36.5172 35.5128 36.5171 35.5128 36.517 35.5128C36.5168 35.5128 36.5167 35.5128 36.5166 35.5128C36.5165 35.5128 36.5163 35.5128 36.5162 35.5128C36.5161 35.5128 36.516 35.5128 36.5159 35.5128C36.5157 35.5128 36.5156 35.5128 36.5155 35.5128C36.5154 35.5128 36.5152 35.5128 36.5151 35.5128C36.515 35.5128 36.5149 35.5128 36.5147 35.5128C36.5146 35.5128 36.5145 35.5128 36.5144 35.5128C36.5143 35.5128 36.5141 35.5128 36.514 35.5128C36.5139 35.5128 36.5138 35.5128 36.5136 35.5128C36.5135 35.5128 36.5134 35.5128 36.5133 35.5128C36.5131 35.5128 36.513 35.5128 36.5129 35.5128C36.5128 35.5128 36.5126 35.5128 36.5125 35.5128C36.5124 35.5128 36.5123 35.5128 36.5122 35.5128C36.512 35.5128 36.5119 35.5128 36.5118 35.5128C36.5117 35.5128 36.5115 35.5128 36.5114 35.5128C36.5113 35.5128 36.5112 35.5128 36.511 35.5128C36.5109 35.5128 36.5108 35.5128 36.5107 35.5128C36.5106 35.5128 36.5104 35.5128 36.5103 35.5128C36.5102 35.5128 36.5101 35.5128 36.5099 35.5128C36.5098 35.5128 36.5097 35.5128 36.5096 35.5128C36.5094 35.5128 36.5093 35.5128 36.5092 35.5128C36.5091 35.5128 36.5089 35.5128 36.5088 35.5128C36.5087 35.5128 36.5086 35.5128 36.5084 35.5128C36.5083 35.5128 36.5082 35.5128 36.5081 35.5128C36.508 35.5128 36.5078 35.5128 36.5077 35.5128C36.5076 35.5128 36.5075 35.5128 36.5073 35.5128C36.5072 35.5128 36.5071 35.5128 36.507 35.5128C36.5068 35.5128 36.5067 35.5128 36.5066 35.5128C36.5065 35.5128 36.5063 35.5128 36.5062 35.5128C36.5061 35.5128 36.506 35.5128 36.5059 35.5128C36.5057 35.5128 36.5056 35.5128 36.5055 35.5128C36.5054 35.5128 36.5052 35.5128 36.5051 35.5128C36.505 35.5128 36.5049 35.5128 36.5047 35.5128C36.5046 35.5128 36.5045 35.5128 36.5044 35.5128C36.5042 35.5128 36.5041 35.5128 36.504 35.5128C36.5039 35.5128 36.5037 35.5128 36.5036 35.5128C36.5035 35.5128 36.5034 35.5128 36.5033 35.5128C36.5031 35.5128 36.503 35.5128 36.5029 35.5128C36.5028 35.5128 36.5026 35.5128 36.5025 35.5128C36.5024 35.5128 36.5023 35.5128 36.5021 35.5128C36.502 35.5128 36.5019 35.5128 36.5018 35.5128C36.5016 35.5128 36.5015 35.5128 36.5014 35.5128C36.5013 35.5128 36.5011 35.5128 36.501 35.5128C36.5009 35.5128 36.5008 35.5128 36.5006 35.5128C36.5005 35.5128 36.5004 35.5128 36.5003 35.5128C36.5002 35.5128 36.5 35.5128 36.4999 35.5128C36.4998 35.5128 36.4997 35.5128 36.4995 35.5128C36.4994 35.5128 36.4993 35.5128 36.4992 35.5128C36.499 35.5128 36.4989 35.5128 36.4988 35.5128C36.4987 35.5128 36.4985 35.5128 36.4984 35.5128C36.4983 35.5128 36.4982 35.5128 36.498 35.5128C36.4979 35.5128 36.4978 35.5128 36.4977 35.5128C36.4975 35.5128 36.4974 35.5128 36.4973 35.5128C36.4972 35.5128 36.497 35.5128 36.4969 35.5128C36.4968 35.5128 36.4967 35.5128 36.4966 35.5128C36.4964 35.5128 36.4963 35.5128 36.4962 35.5128C36.4961 35.5128 36.4959 35.5128 36.4958 35.5128C36.4957 35.5128 36.4956 35.5128 36.4954 35.5128C36.4953 35.5128 36.4952 35.5128 36.4951 35.5128C36.4949 35.5128 36.4948 35.5128 36.4947 35.5128C36.4946 35.5128 36.4944 35.5128 36.4943 35.5128C36.4942 35.5128 36.4941 35.5128 36.4939 35.5128C36.4938 35.5128 36.4937 35.5128 36.4936 35.5128C36.4934 35.5128 36.4933 35.5128 36.4932 35.5128C36.4931 35.5128 36.4929 35.5128 36.4928 35.5128C36.4927 35.5128 36.4926 35.5128 36.4924 35.5128C36.4923 35.5128 36.4922 35.5128 36.4921 35.5128C36.4919 35.5128 36.4918 35.5128 36.4917 35.5128C36.4916 35.5128 36.4914 35.5128 36.4913 35.5128C36.4912 35.5128 36.4911 35.5128 36.491 35.5128C36.4908 35.5128 36.4907 35.5128 36.4906 35.5128C36.4905 35.5128 36.4903 35.5128 36.4902 35.5128C36.4901 35.5128 36.49 35.5128 36.4898 35.5128C36.4897 35.5128 36.4896 35.5128 36.4895 35.5128C36.4893 35.5128 36.4892 35.5128 36.4891 35.5128C36.489 35.5128 36.4888 35.5128 36.4887 35.5128C36.4886 35.5128 36.4885 35.5128 36.4883 35.5128C36.4882 35.5128 36.4881 35.5128 36.488 35.5128C36.4878 35.5128 36.4877 35.5128 36.4876 35.5128C36.4875 35.5128 36.4873 35.5128 36.4872 35.5128C36.4871 35.5128 36.487 35.5128 36.4868 35.5128C36.4867 35.5128 36.4866 35.5128 36.4865 35.5128C36.4863 35.5128 36.4862 35.5128 36.4861 35.5128C36.486 35.5128 36.4858 35.5128 36.4857 35.5128C36.4856 35.5128 36.4855 35.5128 36.4853 35.5128C36.4852 35.5128 36.4851 35.5128 36.485 35.5128C36.4848 35.5128 36.4847 35.5128 36.4846 35.5128C36.4845 35.5128 36.4843 35.5128 36.4842 35.5128C36.4841 35.5128 36.484 35.5128 36.4838 35.5128C36.4837 35.5128 36.4836 35.5128 36.4835 35.5128C36.4833 35.5128 36.4832 35.5128 36.4831 35.5128C36.483 35.5128 36.4828 35.5128 36.4827 35.5128C36.4826 35.5128 36.4825 35.5128 36.4823 35.5128C36.4822 35.5128 36.4821 35.5128 36.482 35.5128C36.4818 35.5128 36.4817 35.5128 36.4816 35.5128C36.4815 35.5128 36.4813 35.5128 36.4812 35.5128C36.4811 35.5128 36.481 35.5128 36.4808 35.5128C36.4807 35.5128 36.4806 35.5128 36.4805 35.5128C36.4803 35.5128 36.4802 35.5128 36.4801 35.5128C36.48 35.5128 36.4798 35.5128 36.4797 35.5128C36.4796 35.5128 36.4795 35.5128 36.4793 35.5128C36.4792 35.5128 36.4791 35.5128 36.479 35.5128C36.4788 35.5128 36.4787 35.5128 36.4786 35.5128C36.4785 35.5128 36.4783 35.5128 36.4782 35.5128C36.4781 35.5128 36.478 35.5128 36.4778 35.5128C36.4777 35.5128 36.4776 35.5128 36.4774 35.5128C36.4773 35.5128 36.4772 35.5128 36.4771 35.5128C36.4769 35.5128 36.4768 35.5128 36.4767 35.5128C36.4766 35.5128 36.4764 35.5128 36.4763 35.5128C36.4762 35.5128 36.4761 35.5128 36.4759 35.5128C36.4758 35.5128 36.4757 35.5128 36.4756 35.5128C36.4754 35.5128 36.4753 35.5128 36.4752 35.5128C36.4751 35.5128 36.4749 35.5128 36.4748 35.5128C36.4747 35.5128 36.4746 35.5128 36.4744 35.5128C36.4743 35.5128 36.4742 35.5128 36.4741 35.5128C36.4739 35.5128 36.4738 35.5128 36.4737 35.5128C36.4736 35.5128 36.4734 35.5128 36.4733 35.5128C36.4732 35.5128 36.4731 35.5128 36.4729 35.5128C36.4728 35.5128 36.4727 35.5128 36.4726 35.5128C36.4724 35.5128 36.4723 35.5128 36.4722 35.5128C36.472 35.5128 36.4719 35.5128 36.4718 35.5128C36.4717 35.5128 36.4715 35.5128 36.4714 35.5128C36.4713 35.5128 36.4712 35.5128 36.471 35.5128C36.4709 35.5128 36.4708 35.5128 36.4707 35.5128C36.4705 35.5128 36.4704 35.5128 36.4703 35.5128C36.4702 35.5128 36.47 35.5128 36.4699 35.5128C36.4698 35.5128 36.4697 35.5128 36.4695 35.5128C36.4694 35.5128 36.4693 35.5128 36.4692 35.5128C36.469 35.5128 36.4689 35.5128 36.4688 35.5128C36.4687 35.5128 36.4685 35.5128 36.4684 35.5128C36.4683 35.5128 36.4681 35.5128 36.468 35.5128C36.4679 35.5128 36.4678 35.5128 36.4676 35.5128C36.4675 35.5128 36.4674 35.5128 36.4673 35.5128C36.4671 35.5128 36.467 35.5128 36.4669 35.5128C36.4668 35.5128 36.4666 35.5128 36.4665 35.5128C36.4664 35.5128 36.4663 35.5128 36.4661 35.5128C36.466 35.5128 36.4659 35.5128 36.4658 35.5128C36.4656 35.5128 36.4655 35.5128 36.4654 35.5128C36.4653 35.5128 36.4651 35.5128 36.465 35.5128C36.4649 35.5128 36.4647 35.5128 36.4646 35.5128C36.4645 35.5128 36.4644 35.5128 36.4642 35.5128C36.4641 35.5128 36.464 35.5128 36.4639 35.5128C36.4637 35.5128 36.4636 35.5128 36.4635 35.5128C36.4634 35.5128 36.4632 35.5128 36.4631 35.5128C36.463 35.5128 36.4629 35.5128 36.4627 35.5128C36.4626 35.5128 36.4625 35.5128 36.4623 35.5128C36.4622 35.5128 36.4621 35.5128 36.462 35.5128C36.4618 35.5128 36.4617 35.5128 36.4616 35.5128C36.4615 35.5128 36.4613 35.5128 36.4612 35.5128C36.4611 35.5128 36.461 35.5128 36.4608 35.5128C36.4607 35.5128 36.4606 35.5128 36.4605 35.5128C36.4603 35.5128 36.4602 35.5128 36.4601 35.5128C36.4599 35.5128 36.4598 35.5128 36.4597 35.5128C36.4596 35.5128 36.4594 35.5128 36.4593 35.5128C36.4592 35.5128 36.4591 35.5128 36.4589 35.5128C36.4588 35.5128 36.4587 35.5128 36.4586 35.5128C36.4584 35.5128 36.4583 35.5128 36.4582 35.5128C36.458 35.5128 36.4579 35.5128 36.4578 35.5128C36.4577 35.5128 36.4575 35.5128 36.4574 35.5128C36.4573 35.5128 36.4572 35.5128 36.457 35.5128C36.4569 35.5128 36.4568 35.5128 36.4567 35.5128C36.4565 35.5128 36.4564 35.5128 36.4563 35.5128C36.4562 35.5128 36.456 35.5128 36.4559 35.5128C36.4558 35.5128 36.4556 35.5128 36.4555 35.5128C36.4554 35.5128 36.4553 35.5128 36.4551 35.5128C36.455 35.5128 36.4549 35.5128 36.4548 35.5128C36.4546 35.5128 36.4545 35.5128 36.4544 35.5128C36.4543 35.5128 36.4541 35.5128 36.454 35.5128C36.4539 35.5128 36.4537 35.5128 36.4536 35.5128C36.4535 35.5128 36.4534 35.5128 36.4532 35.5128C36.4531 35.5128 36.453 35.5128 36.4529 35.5128C36.4527 35.5128 36.4526 35.5128 36.4525 35.5128C36.4524 35.5128 36.4522 35.5128 36.4521 35.5128C36.452 35.5128 36.4518 35.5128 36.4517 35.5128C36.4516 35.5128 36.4515 35.5128 36.4513 35.5128C36.4512 35.5128 36.4511 35.5128 36.451 35.5128C36.4508 35.5128 36.4507 35.5128 36.4506 35.5128C36.4504 35.5128 36.4503 35.5128 36.4502 35.5128C36.4501 35.5128 36.4499 35.5128 36.4498 35.5128C36.4497 35.5128 36.4496 35.5128 36.4494 35.5128C36.4493 35.5128 36.4492 35.5128 36.4491 35.5128C36.4489 35.5128 36.4488 35.5128 36.4487 35.5128C36.4485 35.5128 36.4484 35.5128 36.4483 35.5128C36.4482 35.5128 36.448 35.5128 36.4479 35.5128C36.4478 35.5128 36.4477 35.5128 36.4475 35.5128C36.4474 35.5128 36.4473 35.5128 36.4471 35.5128C36.447 35.5128 36.4469 35.5128 36.4468 35.5128C36.4466 35.5128 36.4465 35.5128 36.4464 35.5128C36.4463 35.5128 36.4461 35.5128 36.446 35.5128C36.4459 35.5128 36.4457 35.5128 36.4456 35.5128C36.4455 35.5128 36.4454 35.5128 36.4452 35.5128C36.4451 35.5128 36.445 35.5128 36.4449 35.5128C36.4447 35.5128 36.4446 35.5128 36.4445 35.5128C36.4443 35.5128 36.4442 35.5128 36.4441 35.5128C36.444 35.5128 36.4438 35.5128 36.4437 35.5128C36.4436 35.5128 36.4435 35.5128 36.4433 35.5128C36.4432 35.5128 36.4431 35.5128 36.4429 35.5128C36.4428 35.5128 36.4427 35.5128 36.4426 35.5128C36.4424 35.5128 36.4423 35.5128 36.4422 35.5128C36.4421 35.5128 36.4419 35.5128 36.4418 35.5128C36.4417 35.5128 36.4415 35.5128 36.4414 35.5128C36.4413 35.5128 36.4412 35.5128 36.441 35.5128C36.4409 35.5128 36.4408 35.5128 36.4407 35.5128C36.4405 35.5128 36.4404 35.5128 36.4403 35.5128C36.4401 35.5128 36.44 35.5128 36.4399 35.5128C36.4398 35.5128 36.4396 35.5128 36.4395 35.5128C36.4394 35.5128 36.4392 35.5128 36.4391 35.5128C36.439 35.5128 36.4389 35.5128 36.4387 35.5128C36.4386 35.5128 36.4385 35.5128 36.4384 35.5128C36.4382 35.5128 36.4381 35.5128 36.438 35.5128C36.4378 35.5128 36.4377 35.5128 36.4376 35.5128C36.4375 35.5128 36.4373 35.5128 36.4372 35.5128C36.4371 35.5128 36.437 35.5128 36.4368 35.5128C36.4367 35.5128 36.4366 35.5128 36.4364 35.5128C36.4363 35.5128 36.4362 35.5128 36.4361 35.5128C36.4359 35.5128 36.4358 35.5128 36.4357 35.5128C36.4355 35.5128 36.4354 35.5128 36.4353 35.5128C36.4352 35.5128 36.435 35.5128 36.4349 35.5128C36.4348 35.5128 36.4347 35.5128 36.4345 35.5128C36.4344 35.5128 36.4343 35.5128 36.4341 35.5128C36.434 35.5128 36.4339 35.5128 36.4338 35.5128C36.4336 35.5128 36.4335 35.5128 36.4334 35.5128C36.4332 35.5128 36.4331 35.5128 36.433 35.5128C36.4329 35.5128 36.4327 35.5128 36.4326 35.5128C36.4325 35.5128 36.4324 35.5128 36.4322 35.5128C36.4321 35.5128 36.432 35.5128 36.4318 35.5128C36.4317 35.5128 36.4316 35.5128 36.4315 35.5128C36.4313 35.5128 36.4312 35.5128 36.4311 35.5128C36.4309 35.5128 36.4308 35.5128 36.4307 35.5128C36.4306 35.5128 36.4304 35.5128 36.4303 35.5128C36.4302 35.5128 36.43 35.5128 36.4299 35.5128C36.4298 35.5128 36.4297 35.5128 36.4295 35.5128C36.4294 35.5128 36.4293 35.5128 36.4291 35.5128C36.429 35.5128 36.4289 35.5128 36.4288 35.5128C36.4286 35.5128 36.4285 35.5128 36.4284 35.5128C36.4282 35.5128 36.4281 35.5128 36.428 35.5128C36.4279 35.5128 36.4277 35.5128 36.4276 35.5128C36.4275 35.5128 36.4274 35.5128 36.4272 35.5128C36.4271 35.5128 36.427 35.5128 36.4268 35.5128C36.4267 35.5128 36.4266 35.5128 36.4265 35.5128C36.4263 35.5128 36.4262 35.5128 36.4261 35.5128C36.4259 35.5128 36.4258 35.5128 36.4257 35.5128C36.4256 35.5128 36.4254 35.5128 36.4253 35.5128C36.4252 35.5128 36.425 35.5128 36.4249 35.5128C36.4248 35.5128 36.4247 35.5128 36.4245 35.5128C36.4244 35.5128 36.4243 35.5128 36.4241 35.5128C36.424 35.5128 36.4239 35.5128 36.4238 35.5128C36.4236 35.5128 36.4235 35.5128 36.4234 35.5128C36.4232 35.5128 36.4231 35.5128 36.423 35.5128C36.4229 35.5128 36.4227 35.5128 36.4226 35.5128C36.4225 35.5128 36.4223 35.5128 36.4222 35.5128C36.4221 35.5128 36.422 35.5128 36.4218 35.5128C36.4217 35.5128 36.4216 35.5128 36.4214 35.5128C36.4213 35.5128 36.4212 35.5128 36.4211 35.5128C36.4209 35.5128 36.4208 35.5128 36.4207 35.5128C36.4205 35.5128 36.4204 35.5128 36.4203 35.5128C36.4202 35.5128 36.42 35.5128 36.4199 35.5128C36.4198 35.5128 36.4196 35.5128 36.4195 35.5128C36.4194 35.5128 36.4193 35.5128 36.4191 35.5128C36.419 35.5128 36.4189 35.5128 36.4187 35.5128C36.4186 35.5128 36.4185 35.5128 36.4184 35.5128C36.4182 35.5128 36.4181 35.5128 36.418 35.5128C36.4178 35.5128 36.4177 35.5128 36.4176 35.5128C36.4175 35.5128 36.4173 35.5128 36.4172 35.5128C36.4171 35.5128 36.4169 35.5128 36.4168 35.5128C36.4167 35.5128 36.4166 35.5128 36.4164 35.5128C36.4163 35.5128 36.4162 35.5128 36.416 35.5128C36.4159 35.5128 36.4158 35.5128 36.4157 35.5128C36.4155 35.5128 36.4154 35.5128 36.4153 35.5128C36.4151 35.5128 36.415 35.5128 36.4149 35.5128C36.4147 35.5128 36.4146 35.5128 36.4145 35.5128C36.4144 35.5128 36.4142 35.5128 36.4141 35.5128C36.414 35.5128 36.4138 35.5128 36.4137 35.5128C36.4136 35.5128 36.4135 35.5128 36.4133 35.5128C36.4132 35.5128 36.4131 35.5128 36.4129 35.5128C36.4128 35.5128 36.4127 35.5128 36.4126 35.5128C36.4124 35.5128 36.4123 35.5128 36.4122 35.5128C36.412 35.5128 36.4119 35.5128 36.4118 35.5128C36.4117 35.5128 36.4115 35.5128 36.4114 35.5128C36.4113 35.5128 36.4111 35.5128 36.411 35.5128C36.4109 35.5128 36.4108 35.5128 36.4106 35.5128C36.4105 35.5128 36.4104 35.5128 36.4102 35.5128C36.4101 35.5128 36.41 35.5128 36.4098 35.5128C36.4097 35.5128 36.4096 35.5128 36.4095 35.5128C36.4093 35.5128 36.4092 35.5128 36.4091 35.5128C36.4089 35.5128 36.4088 35.5128 36.4087 35.5128C36.4086 35.5128 36.4084 35.5128 36.4083 35.5128C36.4082 35.5128 36.408 35.5128 36.4079 35.5128C36.4078 35.5128 36.4076 35.5128 36.4075 35.5128C36.4074 35.5128 36.4073 35.5128 36.4071 35.5128C36.407 35.5128 36.4069 35.5128 36.4067 35.5128C36.4066 35.5128 36.4065 35.5128 36.4064 35.5128C36.4062 35.5128 36.4061 35.5128 36.406 35.5128C36.4058 35.5128 36.4057 35.5128 36.4056 35.5128C36.4054 35.5128 36.4053 35.5128 36.4052 35.5128C36.4051 35.5128 36.4049 35.5128 36.4048 35.5128C36.4047 35.5128 36.4045 35.5128 36.4044 35.5128C36.4043 35.5128 36.4042 35.5128 36.404 35.5128C36.4039 35.5128 36.4038 35.5128 36.4036 35.5128C36.4035 35.5128 36.4034 35.5128 36.4032 35.5128C36.4031 35.5128 36.403 35.5128 36.4029 35.5128C36.4027 35.5128 36.4026 35.5128 36.4025 35.5128C36.4023 35.5128 36.4022 35.5128 36.4021 35.5128C36.402 35.5128 36.4018 35.5128 36.4017 35.5128C36.4016 35.5128 36.4014 35.5128 36.4013 35.5128C36.4012 35.5128 36.401 35.5128 36.4009 35.5128C36.4008 35.5128 36.4007 35.5128 36.4005 35.5128C36.4004 35.5128 36.4003 35.5128 36.4001 35.5128C36.4 35.5128 36.3999 35.5128 36.3997 35.5128C36.3996 35.5128 36.3995 35.5128 36.3994 35.5128C36.3992 35.5128 36.3991 35.5128 36.399 35.5128C36.3988 35.5128 36.3987 35.5128 36.3986 35.5128C36.3984 35.5128 36.3983 35.5128 36.3982 35.5128C36.3981 35.5128 36.3979 35.5128 36.3978 35.5128C36.3977 35.5128 36.3975 35.5128 36.3974 35.5128C36.3973 35.5128 36.3971 35.5128 36.397 35.5128C36.3969 35.5128 36.3968 35.5128 36.3966 35.5128C36.3965 35.5128 36.3964 35.5128 36.3962 35.5128C36.3961 35.5128 36.396 35.5128 36.3958 35.5128C36.3957 35.5128 36.3956 35.5128 36.3955 35.5128C36.3953 35.5128 36.3952 35.5128 36.3951 35.5128C36.3949 35.5128 36.3948 35.5128 36.3947 35.5128C36.3945 35.5128 36.3944 35.5128 36.3943 35.5128C36.3942 35.5128 36.394 35.5128 36.3939 35.5128C36.3938 35.5128 36.3936 35.5128 36.3935 35.5128C36.3934 35.5128 36.3932 35.5128 36.3931 35.5128C36.393 35.5128 36.3929 35.5128 36.3927 35.5128C36.3926 35.5128 36.3925 35.5128 36.3923 35.5128C36.3922 35.5128 36.3921 35.5128 36.3919 35.5128C36.3918 35.5128 36.3917 35.5128 36.3916 35.5128C36.3914 35.5128 36.3913 35.5128 36.3912 35.5128C36.391 35.5128 36.3909 35.5128 36.3908 35.5128C36.3906 35.5128 36.3905 35.5128 36.3904 35.5128C36.3903 35.5128 36.3901 35.5128 36.39 35.5128C36.3899 35.5128 36.3897 35.5128 36.3896 35.5128C36.3895 35.5128 36.3893 35.5128 36.3892 35.5128C36.3891 35.5128 36.3889 35.5128 36.3888 35.5128C36.3887 35.5128 36.3886 35.5128 36.3884 35.5128C36.3883 35.5128 36.3882 35.5128 36.388 35.5128C36.3879 35.5128 36.3878 35.5128 36.3876 35.5128C36.3875 35.5128 36.3874 35.5128 36.3873 35.5128C36.3871 35.5128 36.387 35.5128 36.3869 35.5128C36.3867 35.5128 36.3866 35.5128 36.3865 35.5128C36.3863 35.5128 36.3862 35.5128 36.3861 35.5128C36.3859 35.5128 36.3858 35.5128 36.3857 35.5128C36.3856 35.5128 36.3854 35.5128 36.3853 35.5128C36.3852 35.5128 36.385 35.5128 36.3849 35.5128C36.3848 35.5128 36.3846 35.5128 36.3845 35.5128C36.3844 35.5128 36.3843 35.5128 36.3841 35.5128C36.384 35.5128 36.3839 35.5128 36.3837 35.5128C36.3836 35.5128 36.3835 35.5128 36.3833 35.5128C36.3832 35.5128 36.3831 35.5128 36.3829 35.5128C36.3828 35.5128 36.3827 35.5128 36.3825 35.5128C36.3824 35.5128 36.3823 35.5128 36.3822 35.5128C36.382 35.5128 36.3819 35.5128 36.3818 35.5128C36.3816 35.5128 36.3815 35.5128 36.3814 35.5128C36.3812 35.5128 36.3811 35.5128 36.381 35.5128C36.3809 35.5128 36.3807 35.5128 36.3806 35.5128C36.3805 35.5128 36.3803 35.5128 36.3802 35.5128C36.3801 35.5128 36.3799 35.5128 36.3798 35.5128C36.3797 35.5128 36.3795 35.5128 36.3794 35.5128C36.3793 35.5128 36.3792 35.5128 36.379 35.5128C36.3789 35.5128 36.3788 35.5128 36.3786 35.5128C36.3785 35.5128 36.3784 35.5128 36.3782 35.5128C36.3781 35.5128 36.378 35.5128 36.3778 35.5128C36.3777 35.5128 36.3776 35.5128 36.3774 35.5128C36.3773 35.5128 36.3772 35.5128 36.3771 35.5128C36.3769 35.5128 36.3768 35.5128 36.3767 35.5128C36.3765 35.5128 36.3764 35.5128 36.3763 35.5128C36.3761 35.5128 36.376 35.5128 36.3759 35.5128C36.3757 35.5128 36.3756 35.5128 36.3755 35.5128C36.3754 35.5128 36.3752 35.5128 36.3751 35.5128C36.375 35.5128 36.3748 35.5128 36.3747 35.5128C36.3746 35.5128 36.3744 35.5128 36.3743 35.5128C36.3742 35.5128 36.374 35.5128 36.3739 35.5128C36.3738 35.5128 36.3736 35.5128 36.3735 35.5128C36.3734 35.5128 36.3732 35.5128 36.3731 35.5128C36.373 35.5128 36.3729 35.5128 36.3727 35.5128C36.3726 35.5128 36.3725 35.5128 36.3723 35.5128C36.3722 35.5128 36.3721 35.5128 36.3719 35.5128C36.3718 35.5128 36.3717 35.5128 36.3715 35.5128C36.3714 35.5128 36.3713 35.5128 36.3712 35.5128C36.371 35.5128 36.3709 35.5128 36.3708 35.5128C36.3706 35.5128 36.3705 35.5128 36.3704 35.5128C36.3702 35.5128 36.3701 35.5128 36.37 35.5128C36.3698 35.5128 36.3697 35.5128 36.3696 35.5128C36.3694 35.5128 36.3693 35.5128 36.3692 35.5128C36.369 35.5128 36.3689 35.5128 36.3688 35.5128C36.3687 35.5128 36.3685 35.5128 36.3684 35.5128C36.3683 35.5128 36.3681 35.5128 36.368 35.5128C36.3679 35.5128 36.3677 35.5128 36.3676 35.5128C36.3675 35.5128 36.3673 35.5128 36.3672 35.5128C36.3671 35.5128 36.3669 35.5128 36.3668 35.5128C36.3667 35.5128 36.3665 35.5128 36.3664 35.5128C36.3663 35.5128 36.3662 35.5128 36.366 35.5128C36.3659 35.5128 36.3658 35.5128 36.3656 35.5128C36.3655 35.5128 36.3654 35.5128 36.3652 35.5128C36.3651 35.5128 36.365 35.5128 36.3648 35.5128C36.3647 35.5128 36.3646 35.5128 36.3644 35.5128C36.3643 35.5128 36.3642 35.5128 36.364 35.5128C36.3639 35.5128 36.3638 35.5128 36.3637 35.5128C36.3635 35.5128 36.3634 35.5128 36.3633 35.5128C36.3631 35.5128 36.363 35.5128 36.3629 35.5128C36.3627 35.5128 36.3626 35.5128 36.3625 35.5128C36.3623 35.5128 36.3622 35.5128 36.3621 35.5128C36.3619 35.5128 36.3618 35.5128 36.3617 35.5128C36.3615 35.5128 36.3614 35.5128 36.3613 35.5128C36.3611 35.5128 36.361 35.5128 36.3609 35.5128C36.3607 35.5128 36.3606 35.5128 36.3605 35.5128C36.3604 35.5128 36.3602 35.5128 36.3601 35.5128C36.36 35.5128 36.3598 35.5128 36.3597 35.5128C36.3596 35.5128 36.3594 35.5128 36.3593 35.5128C36.3592 35.5128 36.359 35.5128 36.3589 35.5128C36.3588 35.5128 36.3586 35.5128 36.3585 35.5128C36.3584 35.5128 36.3582 35.5128 36.3581 35.5128C36.358 35.5128 36.3578 35.5128 36.3577 35.5128C36.3576 35.5128 36.3574 35.5128 36.3573 35.5128C36.3572 35.5128 36.3571 35.5128 36.3569 35.5128C36.3568 35.5128 36.3567 35.5128 36.3565 35.5128C36.3564 35.5128 36.3563 35.5128 36.3561 35.5128C36.356 35.5128 36.3559 35.5128 36.3557 35.5128C36.3556 35.5128 36.3555 35.5128 36.3553 35.5128C36.3552 35.5128 36.3551 35.5128 36.3549 35.5128C36.3548 35.5128 36.3547 35.5128 36.3545 35.5128C36.3544 35.5128 36.3543 35.5128 36.3541 35.5128C36.354 35.5128 36.3539 35.5128 36.3537 35.5128C36.3536 35.5128 36.3535 35.5128 36.3534 35.5128C36.3532 35.5128 36.3531 35.5128 36.353 35.5128C36.3528 35.5128 36.3527 35.5128 36.3526 35.5128C36.3524 35.5128 36.3523 35.5128 36.3522 35.5128C36.352 35.5128 36.3519 35.5128 36.3518 35.5128C36.3516 35.5128 36.3515 35.5128 36.3514 35.5128C36.3512 35.5128 36.3511 35.5128 36.351 35.5128C36.3508 35.5128 36.3507 35.5128 36.3506 35.5128C36.3504 35.5128 36.3503 35.5128 36.3502 35.5128C36.35 35.5128 36.3499 35.5128 36.3498 35.5128C36.3496 35.5128 36.3495 35.5128 36.3494 35.5128C36.3492 35.5128 36.3491 35.5128 36.349 35.5128V36.0128ZM39.4383 38.3335V35.5394H38.9383V38.3335H39.4383ZM42.6722 33.7674C43.1989 33.0313 43.4683 32.2172 43.4683 31.3369H42.9683C42.9683 32.1082 42.7343 32.8213 42.2656 33.4765L42.6722 33.7674ZM33.8801 26.4755H33.3801V26.9755H33.8801V26.4755ZM33.8801 22.6718V22.1718H33.3801V22.6718H33.8801ZM37.6697 22.8584L37.5168 23.3345L37.52 23.3355L37.6697 22.8584ZM38.5577 23.4777L38.9675 23.1913L38.9656 23.1886L38.5577 23.4777ZM38.5379 25.5733L38.1334 25.2795L38.1315 25.282L38.5379 25.5733ZM37.5707 26.2492L37.4089 25.7761L37.4061 25.7771L37.5707 26.2492ZM35.6929 9.31485V9.81485H35.693L35.6929 9.31485ZM59.7907 66.7328V66.2328H59.2907V66.7328H59.7907ZM59.7907 75.8477V76.3477H60.2907V75.8477H59.7907ZM43.8829 75.8477H43.3829V76.3477H43.8829V75.8477ZM43.8829 66.7328H44.3829V66.2328H43.8829V66.7328ZM8.07127 31.0287L8.36821 31.4309L8.60138 31.2588L8.56792 30.9709L8.07127 31.0287ZM61.6657 18.0649L61.1981 18.2419L61.3751 18.7094L61.8427 18.5325L61.6657 18.0649ZM86.5441 28.2176L86.0914 28.4299L86.1821 28.6232L86.3845 28.6914L86.5441 28.2176ZM83.7557 33.2826L83.6304 33.7667L83.6305 33.7667L83.7557 33.2826ZM81.8184 31.5518L81.3513 31.7301L81.3525 31.7333L81.8184 31.5518ZM61.3801 24.4506L61.1247 24.0207L61.1224 24.0221L61.3801 24.4506ZM57.1889 22.6944L57.6751 22.5776L57.6747 22.5758L57.1889 22.6944ZM13.9112 31.8856L14.4035 31.7979L14.4034 31.7979L13.9112 31.8856ZM12.5735 34.8126L12.3179 34.3829L12.3174 34.3831L12.5735 34.8126ZM43.8857 61.0767V61.5767H44.3857V61.0767H43.8857ZM43.8857 59.5581H44.3857V59.0581H43.8857V59.5581ZM37.9779 59.5581L37.6245 59.2044L36.7705 60.0581H37.9779V59.5581ZM51.8382 45.7034L52.1919 45.35L51.8384 44.9963L51.4848 45.3498L51.8382 45.7034ZM65.69 59.5637V60.0637H66.8966L66.0437 59.2103L65.69 59.5637ZM59.7851 59.5637V59.0637H59.2851V59.5637H59.7851ZM59.7851 61.0767H59.2851V61.5767H59.7851V61.0767ZM77.8563 33.0649L77.3891 33.243V33.243L77.8563 33.0649ZM78.8971 35.7939L78.4299 35.9721L78.4303 35.9732L78.8971 35.7939ZM79.8671 36.6593L79.7415 37.1433L79.7417 37.1433L79.8671 36.6593ZM82.6951 37.3918L82.5698 37.8758L82.5706 37.876L82.6951 37.3918ZM86.6685 39.4704L86.3423 39.8493L86.3481 39.8542L86.6685 39.4704ZM88.668 39.3233L89.0424 39.6547L89.0459 39.6507L88.668 39.3233ZM88.5181 37.3267L88.8454 36.9488L88.844 36.9476L88.5181 37.3267ZM83.3965 34.6514L83.2713 35.1355L83.2715 35.1355L83.3965 34.6514ZM81.2755 34.1027L80.808 34.2803L80.8999 34.522L81.1502 34.5868L81.2755 34.1027ZM80.4977 32.0552L80.9651 31.8777L80.9648 31.8768L80.4977 32.0552ZM62.1097 25.6695L61.8527 25.2406L61.8519 25.2411L62.1097 25.6695ZM61.6176 27.6095L61.1858 27.8617L61.1895 27.8678L61.6176 27.6095ZM63.5633 28.0988L63.8161 28.5302L63.8206 28.5275L63.5633 28.0988ZM68.6171 26.6876V27.1876V26.6876ZM35.5882 25.9755H33.8801V26.9755H35.5882V25.9755ZM34.3801 26.4755V22.6718H33.3801V26.4755H34.3801ZM33.8801 23.1718H35.5882V22.1718H33.8801V23.1718ZM35.5882 23.1718C36.5913 23.1718 37.2122 23.2366 37.5168 23.3345L37.8226 22.3824C37.3523 22.2313 36.5875 22.1718 35.5882 22.1718V23.1718ZM37.52 23.3355C37.8165 23.4285 38.0142 23.5756 38.1498 23.7669L38.9656 23.1886C38.6883 22.7973 38.2977 22.5315 37.8194 22.3813L37.52 23.3355ZM38.1479 23.7642C38.2843 23.9594 38.3631 24.2035 38.3631 24.5298H39.3631C39.3631 24.0303 39.2383 23.5787 38.9675 23.1913L38.1479 23.7642ZM38.3631 24.5298C38.3631 24.8267 38.2837 25.0725 38.1334 25.2795L38.9424 25.8672C39.2276 25.4747 39.3631 25.019 39.3631 24.5298H38.3631ZM38.1315 25.282C37.9879 25.4824 37.7591 25.6563 37.4089 25.7762L37.7325 26.7223C38.242 26.548 38.658 26.2639 38.9442 25.8647L38.1315 25.282ZM37.4061 25.7771C37.0579 25.8985 36.4733 25.9755 35.5882 25.9755V26.9755C36.5018 26.9755 37.2238 26.8997 37.7353 26.7214L37.4061 25.7771ZM53.8467 27.9659C53.8467 37.9895 45.7194 46.1169 35.6929 46.1169V47.1169C46.2716 47.1169 54.8467 38.5418 54.8467 27.9659H53.8467ZM35.6929 46.1169C25.6694 46.1169 17.5447 37.9868 17.5447 27.9659H16.5447C16.5447 38.5388 25.1168 47.1169 35.6929 47.1169V46.1169ZM17.5447 27.9659C17.5447 17.9394 25.6693 9.81485 35.6929 9.81485V8.81485C25.1169 8.81485 16.5447 17.3872 16.5447 27.9659H17.5447ZM35.693 9.81485C45.7193 9.8121 53.8467 17.9394 53.8467 27.9659H54.8467C54.8467 17.3872 46.2716 8.81195 35.6927 8.81485L35.693 9.81485ZM99.5 46.9478C99.5 57.5766 90.8438 66.2328 80.2149 66.2328V67.2328C91.396 67.2328 100.5 58.1289 100.5 46.9478H99.5ZM80.2149 66.2328H59.7907V67.2328H80.2149V66.2328ZM59.2907 66.7328V75.8477H60.2907V66.7328H59.2907ZM59.7907 75.3477H43.8829V76.3477H59.7907V75.3477ZM44.3829 75.8477V66.7328H43.3829V75.8477H44.3829ZM43.8829 66.2328H19.7879V67.2328H43.8829V66.2328ZM19.7879 66.2328C9.1534 66.2328 0.5 57.5766 0.5 46.9478H-0.5C-0.5 58.1289 8.60112 67.2328 19.7879 67.2328V66.2328ZM0.5 46.9478C0.5 40.8306 3.47132 35.0457 8.36821 31.4309L7.77432 30.6264C2.62597 34.4268 -0.5 40.5083 -0.5 46.9478H0.5ZM8.56792 30.9709C8.44846 29.943 8.39027 28.947 8.39027 27.9659H7.39027C7.39027 28.987 7.45086 30.0215 7.57461 31.0864L8.56792 30.9709ZM8.39027 27.9659C8.39027 12.9082 20.6411 0.654785 35.6957 0.654785V-0.345215C20.0886 -0.345215 7.39027 12.3561 7.39027 27.9659H8.39027ZM35.6957 0.654785C47.166 0.654785 57.2213 7.73616 61.1981 18.2419L62.1333 17.8878C58.0106 6.99649 47.5851 -0.345215 35.6957 -0.345215V0.654785ZM61.8427 18.5325C64.0067 17.7138 66.3054 17.2894 68.6199 17.2894V16.2894C66.1833 16.2894 63.7648 16.7361 61.4888 17.5972L61.8427 18.5325ZM68.6199 17.2894C76.0904 17.2894 82.9403 21.7113 86.0914 28.4299L86.9968 28.0053C83.683 20.9399 76.4831 16.2894 68.6199 16.2894V17.2894ZM86.3845 28.6914C94.1746 31.3157 99.5 38.6289 99.5 46.9478H100.5C100.5 38.1965 94.8977 30.5041 86.7037 27.7437L86.3845 28.6914ZM94.8439 46.9478C94.8439 40.2887 90.3372 34.4675 83.8808 32.7985L83.6305 33.7667C89.6458 35.3217 93.8439 40.7449 93.8439 46.9478H94.8439ZM83.8809 32.7986C83.1538 32.6104 82.5607 32.08 82.2844 31.3704L81.3525 31.7333C81.7436 32.7375 82.5871 33.4967 83.6304 33.7667L83.8809 32.7986ZM82.2856 31.3736C80.1333 25.7338 74.6454 21.9427 68.6171 21.9427V22.9427C74.229 22.9427 79.3463 26.4763 81.3513 31.7301L82.2856 31.3736ZM68.6171 21.9427C65.9912 21.9427 63.4089 22.6637 61.1247 24.0207L61.6355 24.8805C63.7687 23.6131 66.1751 22.9427 68.6171 22.9427V21.9427ZM61.1224 24.0221C60.4931 24.4007 59.7161 24.4569 59.034 24.1706L58.647 25.0926C59.6221 25.502 60.7343 25.4225 61.6378 24.8791L61.1224 24.0221ZM59.034 24.1706C58.351 23.8838 57.8469 23.2926 57.6751 22.5776L56.7027 22.8112C56.9495 23.8382 57.6727 24.6836 58.647 25.0926L59.034 24.1706ZM57.6747 22.5758C55.1936 12.4086 46.1526 5.30524 35.69 5.30524V6.30524C45.6913 6.30524 54.3313 13.0932 56.7032 22.8129L57.6747 22.5758ZM35.69 5.30524C23.2023 5.30524 13.0407 15.467 13.0407 27.9602H14.0407C14.0407 16.0191 23.7547 6.30524 35.69 6.30524V5.30524ZM13.0407 27.9602C13.0407 29.2379 13.1657 30.5514 13.4189 31.9732L14.4034 31.7979C14.159 30.4256 14.0407 29.1713 14.0407 27.9602H13.0407ZM13.4189 31.9732C13.589 32.9282 13.1512 33.8871 12.3179 34.3829L12.8292 35.2423C14.0208 34.5333 14.6463 33.1619 14.4035 31.7979L13.4189 31.9732ZM12.3174 34.3831C7.83766 37.0546 5.15611 41.7504 5.15611 46.9421H6.15611C6.15611 42.1055 8.6499 37.7346 12.8296 35.242L12.3174 34.3831ZM5.15611 46.9421C5.15611 55.0123 11.7204 61.5767 19.7879 61.5767V60.5767C12.2728 60.5767 6.15611 54.4601 6.15611 46.9421H5.15611ZM19.7879 61.5767H43.8857V60.5767H19.7879V61.5767ZM44.3857 61.0767V59.5581H43.3857V61.0767H44.3857ZM43.8857 59.0581H37.9779V60.0581H43.8857V59.0581ZM38.3314 59.9117L52.1917 46.057L51.4848 45.3498L37.6245 59.2044L38.3314 59.9117ZM51.4846 46.0569L65.3364 59.9172L66.0437 59.2103L52.1919 45.35L51.4846 46.0569ZM65.69 59.0637H59.7851V60.0637H65.69V59.0637ZM59.2851 59.5637V61.0767H60.2851V59.5637H59.2851ZM59.7851 61.5767H80.2121V60.5767H59.7851V61.5767ZM80.2121 61.5767C88.2795 61.5767 94.8439 55.0124 94.8439 46.9478H93.8439C93.8439 54.46 87.7273 60.5767 80.2121 60.5767V61.5767ZM91.5158 45.0337C90.4626 45.0337 89.6018 45.8904 89.6018 46.9478H90.6018C90.6018 46.444 91.0136 46.0337 91.5158 46.0337V45.0337ZM89.6018 46.9478C89.6018 52.1241 85.3913 56.3346 80.2149 56.3346V57.3346C85.9436 57.3346 90.6018 52.6764 90.6018 46.9478H89.6018ZM80.2149 56.3346H71.6827V57.3346H80.2149V56.3346ZM71.6827 56.3346C70.6254 56.3346 69.7687 57.1955 69.7687 58.2487H70.7687C70.7687 57.7465 71.1789 57.3346 71.6827 57.3346V56.3346ZM69.7687 58.2487C69.7687 59.3054 70.626 60.1627 71.6827 60.1627V59.1627C71.1783 59.1627 70.7687 58.7531 70.7687 58.2487H69.7687ZM71.6827 60.1627H80.2149V59.1627H71.6827V60.1627ZM80.2149 60.1627C87.502 60.1627 93.4299 54.2289 93.4299 46.9478H92.4299C92.4299 53.6769 86.9494 59.1627 80.2149 59.1627V60.1627ZM93.4299 46.9478C93.4299 45.8883 92.5754 45.0337 91.5158 45.0337V46.0337C92.0231 46.0337 92.4299 46.4405 92.4299 46.9478H93.4299ZM77.3891 33.243L78.4299 35.9721L79.3642 35.6158L78.3235 32.8867L77.3891 33.243ZM78.4303 35.9732C78.6521 36.5507 79.1382 36.9867 79.7415 37.1433L79.9927 36.1753C79.7023 36.1 79.47 35.8912 79.3638 35.6146L78.4303 35.9732ZM79.7417 37.1433L82.5698 37.8758L82.8205 36.9077L79.9924 36.1753L79.7417 37.1433ZM82.5706 37.876C83.9575 38.2328 85.2602 38.9176 86.3423 39.8493L86.9948 39.0915C85.7975 38.0605 84.357 37.303 82.8197 36.9075L82.5706 37.876ZM86.3481 39.8542C86.7097 40.1562 87.1476 40.3154 87.5962 40.3154V39.3154C87.3885 39.3154 87.176 39.2427 86.989 39.0866L86.3481 39.8542ZM87.5962 40.3154C88.1373 40.3154 88.666 40.08 89.0424 39.6547L88.2935 38.992C88.1043 39.2058 87.8469 39.3154 87.5962 39.3154V40.3154ZM89.0459 39.6507C89.7414 38.8477 89.642 37.6386 88.8454 36.9488L88.1908 37.7047C88.5763 38.0386 88.6183 38.6169 88.29 38.996L89.0459 39.6507ZM88.844 36.9476C87.3155 35.6336 85.4792 34.6729 83.5215 34.1673L83.2715 35.1355C85.0807 35.6028 86.7795 36.4916 88.1922 37.7059L88.844 36.9476ZM83.5217 34.1673L81.4007 33.6187L81.1502 34.5868L83.2713 35.1355L83.5217 34.1673ZM81.7429 33.9252L80.9651 31.8777L80.0303 32.2328L80.808 34.2803L81.7429 33.9252ZM80.9648 31.8768C79.0189 26.7828 74.057 23.3595 68.6171 23.3595V24.3595C73.6409 24.3595 78.2322 27.5256 80.0307 32.2337L80.9648 31.8768ZM68.6171 23.3595C66.2492 23.3595 63.9065 24.0095 61.8527 25.2406L62.3668 26.0983C64.2666 24.9596 66.4318 24.3595 68.6171 24.3595V23.3595ZM61.8519 25.2411C60.9481 25.7849 60.656 26.9543 61.1859 27.8617L62.0494 27.3574C61.7931 26.9186 61.9365 26.3573 62.3675 26.0979L61.8519 25.2411ZM61.1895 27.8678C61.737 28.7752 62.907 29.0628 63.8161 28.5302L63.3106 27.6674C62.8679 27.9267 62.3071 27.7844 62.0458 27.3512L61.1895 27.8678ZM63.8206 28.5275C65.2852 27.6488 66.947 27.1876 68.6171 27.1876V26.1876C66.7634 26.1876 64.924 26.6993 63.3061 27.67L63.8206 28.5275ZM68.6171 27.1876C72.4758 27.1876 76.0092 29.624 77.3891 33.243L78.3235 32.8867C76.7962 28.8813 72.8919 26.1876 68.6171 26.1876V27.1876Z" fill="black" mask="url(#path-1-inside-1_124_381)"/>
<path d="M54.5 28C54.5 38.7816 45.9816 47.5 35.5 47.5C25.0184 47.5 16.5 38.7816 16.5 28C16.5 17.2184 25.0184 8.5 35.5 8.5C45.9816 8.5 54.5 17.2184 54.5 28Z" fill="#4FCFBD" stroke="black"/>
<path d="M32.2015 19.6959V17M37.8034 19.6959V17M37.8034 19.6959H28M37.8034 19.6959C40.1239 19.6959 42.0049 21.5065 42.0049 23.7399C42.0049 25.9733 40.1239 27.7838 37.8034 27.7838M30.801 35.8716V27.7838M30.801 27.7838V19.6959M30.801 27.7838H39.2039C41.5244 27.7838 43.4054 29.5942 43.4054 31.8277C43.4054 34.0612 41.5244 35.8716 39.2039 35.8716H28M32.2015 38.5676V35.8716M37.8034 38.5676V35.8716" stroke="black" stroke-linecap="round" stroke-linejoin="round"/>
</svg>
