<svg width="100" height="100" viewBox="0 0 100 100" fill="none" xmlns="http://www.w3.org/2000/svg">
<g clip-path="url(#clip0_45_327)">
<mask id="path-1-inside-1_45_327" fill="white">
<path d="M35.5882 38.4755H33.8801V34.6718H35.5882C36.5894 34.6718 37.2822 34.734 37.6697 34.8584C38.0571 34.98 38.3512 35.1865 38.5577 35.4777C38.7613 35.769 38.8631 36.1169 38.8631 36.5298C38.8631 36.9229 38.7557 37.2736 38.5379 37.5733C38.323 37.8731 38.0006 38.1022 37.5707 38.2492C37.1408 38.3991 36.4876 38.4755 35.5882 38.4755ZM54.3467 39.9659C54.3467 50.2656 45.9955 58.6169 35.6929 58.6169C25.3931 58.6169 17.0447 50.2628 17.0447 39.9659C17.0447 29.6633 25.3931 21.3149 35.6929 21.3149C45.9955 21.312 54.3467 29.6633 54.3467 39.9659ZM100 58.9478C100 69.8527 91.1199 78.7328 80.2149 78.7328H59.7907V87.8477H43.8829V78.7328H19.7879C8.87726 78.7328 0 69.8527 0 58.9478C0 52.6695 3.04864 46.7362 8.07127 43.0287C7.94966 41.9823 7.89027 40.967 7.89027 39.9659C7.89027 24.6322 20.3648 12.1548 35.6957 12.1548C47.3756 12.1548 57.6159 19.3663 61.6657 30.0649C63.8857 29.2249 66.2443 28.7894 68.6199 28.7894C76.2868 28.7894 83.3116 33.3256 86.5441 40.2176C94.5362 42.9099 100 50.4127 100 58.9478ZM94.3439 58.9478C94.3439 52.5168 89.9915 46.8946 83.7557 45.2826C82.8705 45.0535 82.1521 44.4087 81.8184 43.5518C79.7398 38.105 74.4372 34.4427 68.6171 34.4427C66.0831 34.4427 63.5888 35.1384 61.3801 36.4506C60.6137 36.9116 59.6691 36.9794 58.8405 36.6316C58.0119 36.2837 57.3982 35.5654 57.1889 34.6944C54.7624 24.7509 45.9219 17.8052 35.69 17.8052C23.4785 17.8052 13.5407 27.743 13.5407 39.9602C13.5407 41.2046 13.6623 42.4885 13.9112 43.8856C14.1176 45.0451 13.586 46.2102 12.5735 46.8126C8.24378 49.3946 5.65611 53.928 5.65611 58.9421C5.65611 66.7362 11.9966 73.0767 19.7879 73.0767H43.8857V71.5581H37.9779L51.8382 57.7034L65.69 71.5637H59.7851V73.0767H80.2121C88.0034 73.0767 94.3439 66.7362 94.3439 58.9478ZM91.5158 57.5337C90.7381 57.5337 90.1018 58.1672 90.1018 58.9478C90.1018 64.4003 85.6674 68.8346 80.2149 68.8346H71.6827C70.9022 68.8346 70.2687 69.471 70.2687 70.2487C70.2687 71.0292 70.9022 71.6627 71.6827 71.6627H80.2149C87.2257 71.6627 92.9299 65.9529 92.9299 58.9478C92.9299 58.1644 92.2992 57.5337 91.5158 57.5337ZM77.8563 45.0649L78.8971 47.7939C79.0611 48.221 79.4202 48.5434 79.8671 48.6593L82.6951 49.3918C84.1572 49.7679 85.5288 50.4891 86.6685 51.4704C86.9429 51.6995 87.2681 51.8154 87.5962 51.8154C87.9921 51.8154 88.3852 51.6429 88.668 51.3233C89.1799 50.7323 89.1092 49.8386 88.5181 49.3267C87.0475 48.0626 85.28 47.1378 83.3965 46.6514L81.2755 46.1027L80.4977 44.0552C78.6256 39.1542 73.849 35.8595 68.6171 35.8595C66.3405 35.8595 64.0865 36.4845 62.1097 37.6695C61.4423 38.0711 61.2245 38.9365 61.6176 39.6095C62.0221 40.2798 62.8874 40.4947 63.5633 40.0988C65.1046 39.174 66.8552 38.6876 68.6171 38.6876C72.6838 38.6876 76.4027 41.2526 77.8563 45.0649Z"/>
</mask>
<path d="M35.5882 38.4755H33.8801V34.6718H35.5882C36.5894 34.6718 37.2822 34.734 37.6697 34.8584C38.0571 34.98 38.3512 35.1865 38.5577 35.4777C38.7613 35.769 38.8631 36.1169 38.8631 36.5298C38.8631 36.9229 38.7557 37.2736 38.5379 37.5733C38.323 37.8731 38.0006 38.1022 37.5707 38.2492C37.1408 38.3991 36.4876 38.4755 35.5882 38.4755ZM54.3467 39.9659C54.3467 50.2656 45.9955 58.6169 35.6929 58.6169C25.3931 58.6169 17.0447 50.2628 17.0447 39.9659C17.0447 29.6633 25.3931 21.3149 35.6929 21.3149C45.9955 21.312 54.3467 29.6633 54.3467 39.9659ZM100 58.9478C100 69.8527 91.1199 78.7328 80.2149 78.7328H59.7907V87.8477H43.8829V78.7328H19.7879C8.87726 78.7328 0 69.8527 0 58.9478C0 52.6695 3.04864 46.7362 8.07127 43.0287C7.94966 41.9823 7.89027 40.967 7.89027 39.9659C7.89027 24.6322 20.3648 12.1548 35.6957 12.1548C47.3756 12.1548 57.6159 19.3663 61.6657 30.0649C63.8857 29.2249 66.2443 28.7894 68.6199 28.7894C76.2868 28.7894 83.3116 33.3256 86.5441 40.2176C94.5362 42.9099 100 50.4127 100 58.9478ZM94.3439 58.9478C94.3439 52.5168 89.9915 46.8946 83.7557 45.2826C82.8705 45.0535 82.1521 44.4087 81.8184 43.5518C79.7398 38.105 74.4372 34.4427 68.6171 34.4427C66.0831 34.4427 63.5888 35.1384 61.3801 36.4506C60.6137 36.9116 59.6691 36.9794 58.8405 36.6316C58.0119 36.2837 57.3982 35.5654 57.1889 34.6944C54.7624 24.7509 45.9219 17.8052 35.69 17.8052C23.4785 17.8052 13.5407 27.743 13.5407 39.9602C13.5407 41.2046 13.6623 42.4885 13.9112 43.8856C14.1176 45.0451 13.586 46.2102 12.5735 46.8126C8.24378 49.3946 5.65611 53.928 5.65611 58.9421C5.65611 66.7362 11.9966 73.0767 19.7879 73.0767H43.8857V71.5581H37.9779L51.8382 57.7034L65.69 71.5637H59.7851V73.0767H80.2121C88.0034 73.0767 94.3439 66.7362 94.3439 58.9478ZM91.5158 57.5337C90.7381 57.5337 90.1018 58.1672 90.1018 58.9478C90.1018 64.4003 85.6674 68.8346 80.2149 68.8346H71.6827C70.9022 68.8346 70.2687 69.471 70.2687 70.2487C70.2687 71.0292 70.9022 71.6627 71.6827 71.6627H80.2149C87.2257 71.6627 92.9299 65.9529 92.9299 58.9478C92.9299 58.1644 92.2992 57.5337 91.5158 57.5337ZM77.8563 45.0649L78.8971 47.7939C79.0611 48.221 79.4202 48.5434 79.8671 48.6593L82.6951 49.3918C84.1572 49.7679 85.5288 50.4891 86.6685 51.4704C86.9429 51.6995 87.2681 51.8154 87.5962 51.8154C87.9921 51.8154 88.3852 51.6429 88.668 51.3233C89.1799 50.7323 89.1092 49.8386 88.5181 49.3267C87.0475 48.0626 85.28 47.1378 83.3965 46.6514L81.2755 46.1027L80.4977 44.0552C78.6256 39.1542 73.849 35.8595 68.6171 35.8595C66.3405 35.8595 64.0865 36.4845 62.1097 37.6695C61.4423 38.0711 61.2245 38.9365 61.6176 39.6095C62.0221 40.2798 62.8874 40.4947 63.5633 40.0988C65.1046 39.174 66.8552 38.6876 68.6171 38.6876C72.6838 38.6876 76.4027 41.2526 77.8563 45.0649Z" fill="#599FCF"/>
<path d="M37.8733 41.0207L37.7842 41.2543L37.786 41.255L37.8733 41.0207ZM33.8801 40.7747V40.5247H33.6301V40.7747H33.8801ZM33.8801 44.1542H33.6301L33.6301 44.1587L33.8801 44.1542ZM33.9366 44.9913L34.1705 44.9028L34.1693 44.8999L33.9366 44.9913ZM34.1205 45.2091L34.2292 44.9839L34.2234 44.9812L34.1205 45.2091ZM42.7262 41.4534L42.5095 41.5781L42.5105 41.5798L42.7262 41.4534ZM41.3942 40.1356L41.2693 40.3521L41.2721 40.3537L41.3942 40.1356ZM39.7172 39.5219L39.6367 39.2852L38.8399 39.5563L39.6555 39.7641L39.7172 39.5219ZM41.3631 38.6423L41.5251 38.8328L41.5257 38.8322L41.3631 38.6423ZM42.3162 37.4178L42.5412 37.5268L42.5422 37.5246L42.3162 37.4178ZM42.0192 33.9987L41.8147 34.1425L41.8149 34.1427L42.0192 33.9987ZM40.2319 32.6356L40.3258 32.4038L40.3251 32.4036L40.2319 32.6356ZM39.1855 32.3471H38.9355V32.5541L39.1389 32.5927L39.1855 32.3471ZM39.1855 29.5926H39.4355V29.3426H39.1855V29.5926ZM36.5413 29.5926V29.3426H36.2913V29.5926H36.5413ZM36.5413 32.1604V32.4104H36.7913V32.1604H36.5413ZM34.8445 32.1604H34.5945V32.4104H34.8445V32.1604ZM34.8445 29.5926H35.0945V29.3426H34.8445V29.5926ZM32.2002 29.5926V29.3426H31.9502V29.5926H32.2002ZM32.2002 32.1604V32.4104H32.4502V32.1604H32.2002ZM28.1674 32.1604V31.9104H27.9174V32.1604H28.1674ZM28.1674 34.3182H27.9174V34.5682H28.1674V34.3182ZM29.9293 34.7311L30.1559 34.6254L30.1539 34.6214L29.9293 34.7311ZM29.9293 45.1949L29.7019 45.0911L29.701 45.093L29.9293 45.1949ZM29.6239 45.4975L29.5174 45.2713L29.5155 45.2722L29.6239 45.4975ZM28.1731 45.605V45.355H27.9231V45.605H28.1731ZM28.1731 47.7628H27.9231V48.0128H28.1731V47.7628ZM32.2059 47.7628H32.4559V47.5128H32.2059V47.7628ZM32.2059 50.3307H31.9559V50.5807H32.2059V50.3307ZM37.9624 40.7872C37.4885 40.6063 36.7892 40.5247 35.8993 40.5247V41.0247C36.7741 41.0247 37.3983 41.1071 37.7842 41.2543L37.9624 40.7872ZM35.8993 40.5247H33.8801V41.0247H35.8993V40.5247ZM33.6301 40.7747V44.1542H34.1301V40.7747H33.6301ZM33.6301 44.1587C33.6344 44.3989 33.6408 44.5931 33.6504 44.7387C33.6552 44.8114 33.661 44.8751 33.6682 44.928C33.6746 44.9753 33.6845 45.0331 33.704 45.0827L34.1693 44.8999C34.1733 44.9099 34.1694 44.9031 34.1636 44.8606C34.1586 44.8238 34.1538 44.7728 34.1493 44.7059C34.1406 44.5723 34.1343 44.3875 34.1301 44.1498L33.6301 44.1587ZM33.7028 45.0798C33.757 45.2231 33.8501 45.3613 34.0176 45.4369L34.2234 44.9812C34.216 44.9779 34.2102 44.9738 34.2034 44.9655C34.1953 44.9557 34.1834 44.9371 34.1705 44.9028L33.7028 45.0798ZM34.0118 45.4342C34.0984 45.4761 34.22 45.4936 34.3343 45.504C34.461 45.5156 34.6227 45.5213 34.8162 45.5213V45.0213C34.6307 45.0213 34.4855 45.0157 34.3797 45.0061C34.2613 44.9953 34.2245 44.9817 34.2292 44.9839L34.0118 45.4342ZM34.8162 45.5213H35.9531V45.0213H34.8162V45.5213ZM39.0539 41.6085C38.8019 41.232 38.4331 40.9625 37.9606 40.7865L37.786 41.255C38.1789 41.4014 38.4549 41.6126 38.6384 41.8866L39.0539 41.6085ZM43.4683 43.3369C43.4683 42.6001 43.2941 41.9281 42.9419 41.3271L42.5105 41.5798C42.8145 42.0987 42.9683 42.6823 42.9683 43.3369H43.4683ZM42.943 41.3288C42.5952 40.7241 42.1214 40.2562 41.5164 39.9174L41.2721 40.3537C41.7983 40.6484 42.2068 41.0516 42.5095 41.578L42.943 41.3288ZM41.5191 39.919C41.1029 39.679 40.5204 39.4686 39.7789 39.2796L39.6555 39.7641C40.3789 39.9485 40.9107 40.1453 41.2693 40.3521L41.5191 39.919ZM39.7977 39.7585C40.5005 39.5194 41.0793 39.2119 41.5251 38.8328L41.2012 38.4519C40.8155 38.7798 40.2971 39.0605 39.6367 39.2852L39.7977 39.7585ZM41.5257 38.8322C41.9638 38.4571 42.3022 38.0198 42.5411 37.5268L42.0912 37.3088C41.8833 37.7377 41.5882 38.1205 41.2005 38.4524L41.5257 38.8322ZM42.5422 37.5246C42.7758 37.0301 42.8942 36.5044 42.8942 35.95H42.3942C42.3942 36.4307 42.2921 36.8835 42.0901 37.311L42.5422 37.5246ZM42.8942 35.95C42.8942 35.1906 42.6714 34.49 42.2236 33.8547L41.8149 34.1427C42.2042 34.6951 42.3942 35.2954 42.3942 35.95H42.8942ZM42.2237 33.8549C41.7767 33.2192 41.1389 32.7332 40.3258 32.4038L40.138 32.8673C40.8747 33.1657 41.4304 33.596 41.8147 34.1425L42.2237 33.8549ZM40.3251 32.4036C40.0021 32.2738 39.6286 32.1767 39.2321 32.1015L39.1389 32.5927C39.5173 32.6645 39.8565 32.7541 40.1387 32.8675L40.3251 32.4036ZM39.4355 32.3471V29.5926H38.9355V32.3471H39.4355ZM39.1855 29.3426H36.5413V29.8426H39.1855V29.3426ZM36.2913 29.5926V32.1604H36.7913V29.5926H36.2913ZM36.5413 31.9104H34.8445V32.4104H36.5413V31.9104ZM35.0945 32.1604V29.5926H34.5945V32.1604H35.0945ZM34.8445 29.3426H32.2002V29.8426H34.8445V29.3426ZM31.9502 29.5926V32.1604H32.4502V29.5926H31.9502ZM32.2002 31.9104H28.1674V32.4104H32.2002V31.9104ZM27.9174 32.1604V34.3182H28.4174V32.1604H27.9174ZM28.1674 34.5682H28.7896V34.0682H28.1674V34.5682ZM28.7896 34.5682C29.2027 34.5682 29.4229 34.6104 29.5121 34.655L29.7357 34.2078C29.5307 34.1053 29.2023 34.0682 28.7896 34.0682V34.5682ZM29.5121 34.655C29.6115 34.7047 29.6701 34.77 29.7047 34.8409L30.1539 34.6214C30.0697 34.449 29.9303 34.3051 29.7357 34.2078L29.5121 34.655ZM29.7028 34.8369C29.7137 34.8603 29.7334 34.9302 29.7481 35.0732C29.7621 35.2088 29.7698 35.389 29.7698 35.6163H30.2698C30.2698 35.3799 30.2619 35.181 30.2455 35.0219C30.2298 34.8701 30.2043 34.7292 30.1558 34.6254L29.7028 34.8369ZM29.7698 35.6163V44.3182H30.2698V35.6163H29.7698ZM29.7698 44.3182C29.7698 44.5412 29.7621 44.7185 29.7482 44.8527C29.7335 44.9935 29.7139 45.0649 29.7019 45.0911L30.1567 45.2988C30.2041 45.1949 30.2297 45.0556 30.2455 44.9044C30.2619 44.7467 30.2698 44.5506 30.2698 44.3182H29.7698ZM29.701 45.093C29.668 45.167 29.6118 45.2269 29.5174 45.2713L29.7303 45.7237C29.9244 45.6324 30.0718 45.4887 30.1576 45.2969L29.701 45.093ZM29.5155 45.2722C29.4254 45.3156 29.204 45.355 28.7896 45.355V45.855C29.2009 45.855 29.5283 45.8209 29.7322 45.7229L29.5155 45.2722ZM28.7896 45.355H28.1731V45.855H28.7896V45.355ZM27.9231 45.605V47.7628H28.4231V45.605H27.9231ZM28.1731 48.0128H32.2059V47.5128H28.1731V48.0128ZM31.9559 47.7628V50.3307H32.4559V47.7628H31.9559ZM32.2059 50.5807H34.8501V50.0807H32.2059V50.5807ZM36.349 48.0128C36.3491 48.0128 36.3492 48.0128 36.3494 48.0128C36.3495 48.0128 36.3496 48.0128 36.3498 48.0128C36.3499 48.0128 36.35 48.0128 36.3502 48.0128C36.3503 48.0128 36.3504 48.0128 36.3506 48.0128C36.3507 48.0128 36.3508 48.0128 36.351 48.0128C36.3511 48.0128 36.3512 48.0128 36.3514 48.0128C36.3515 48.0128 36.3516 48.0128 36.3518 48.0128C36.3519 48.0128 36.352 48.0128 36.3522 48.0128C36.3523 48.0128 36.3524 48.0128 36.3526 48.0128C36.3527 48.0128 36.3528 48.0128 36.353 48.0128C36.3531 48.0128 36.3532 48.0128 36.3534 48.0128C36.3535 48.0128 36.3536 48.0128 36.3537 48.0128C36.3539 48.0128 36.354 48.0128 36.3541 48.0128C36.3543 48.0128 36.3544 48.0128 36.3545 48.0128C36.3547 48.0128 36.3548 48.0128 36.3549 48.0128C36.3551 48.0128 36.3552 48.0128 36.3553 48.0128C36.3555 48.0128 36.3556 48.0128 36.3557 48.0128C36.3559 48.0128 36.356 48.0128 36.3561 48.0128C36.3563 48.0128 36.3564 48.0128 36.3565 48.0128C36.3567 48.0128 36.3568 48.0128 36.3569 48.0128C36.3571 48.0128 36.3572 48.0128 36.3573 48.0128C36.3574 48.0128 36.3576 48.0128 36.3577 48.0128C36.3578 48.0128 36.358 48.0128 36.3581 48.0128C36.3582 48.0128 36.3584 48.0128 36.3585 48.0128C36.3586 48.0128 36.3588 48.0128 36.3589 48.0128C36.359 48.0128 36.3592 48.0128 36.3593 48.0128C36.3594 48.0128 36.3596 48.0128 36.3597 48.0128C36.3598 48.0128 36.36 48.0128 36.3601 48.0128C36.3602 48.0128 36.3604 48.0128 36.3605 48.0128C36.3606 48.0128 36.3607 48.0128 36.3609 48.0128C36.361 48.0128 36.3611 48.0128 36.3613 48.0128C36.3614 48.0128 36.3615 48.0128 36.3617 48.0128C36.3618 48.0128 36.3619 48.0128 36.3621 48.0128C36.3622 48.0128 36.3623 48.0128 36.3625 48.0128C36.3626 48.0128 36.3627 48.0128 36.3629 48.0128C36.363 48.0128 36.3631 48.0128 36.3633 48.0128C36.3634 48.0128 36.3635 48.0128 36.3637 48.0128C36.3638 48.0128 36.3639 48.0128 36.364 48.0128C36.3642 48.0128 36.3643 48.0128 36.3644 48.0128C36.3646 48.0128 36.3647 48.0128 36.3648 48.0128C36.365 48.0128 36.3651 48.0128 36.3652 48.0128C36.3654 48.0128 36.3655 48.0128 36.3656 48.0128C36.3658 48.0128 36.3659 48.0128 36.366 48.0128C36.3662 48.0128 36.3663 48.0128 36.3664 48.0128C36.3665 48.0128 36.3667 48.0128 36.3668 48.0128C36.3669 48.0128 36.3671 48.0128 36.3672 48.0128C36.3673 48.0128 36.3675 48.0128 36.3676 48.0128C36.3677 48.0128 36.3679 48.0128 36.368 48.0128C36.3681 48.0128 36.3683 48.0128 36.3684 48.0128C36.3685 48.0128 36.3687 48.0128 36.3688 48.0128C36.3689 48.0128 36.369 48.0128 36.3692 48.0128C36.3693 48.0128 36.3694 48.0128 36.3696 48.0128C36.3697 48.0128 36.3698 48.0128 36.37 48.0128C36.3701 48.0128 36.3702 48.0128 36.3704 48.0128C36.3705 48.0128 36.3706 48.0128 36.3708 48.0128C36.3709 48.0128 36.371 48.0128 36.3712 48.0128C36.3713 48.0128 36.3714 48.0128 36.3715 48.0128C36.3717 48.0128 36.3718 48.0128 36.3719 48.0128C36.3721 48.0128 36.3722 48.0128 36.3723 48.0128C36.3725 48.0128 36.3726 48.0128 36.3727 48.0128C36.3729 48.0128 36.373 48.0128 36.3731 48.0128C36.3732 48.0128 36.3734 48.0128 36.3735 48.0128C36.3736 48.0128 36.3738 48.0128 36.3739 48.0128C36.374 48.0128 36.3742 48.0128 36.3743 48.0128C36.3744 48.0128 36.3746 48.0128 36.3747 48.0128C36.3748 48.0128 36.375 48.0128 36.3751 48.0128C36.3752 48.0128 36.3754 48.0128 36.3755 48.0128C36.3756 48.0128 36.3757 48.0128 36.3759 48.0128C36.376 48.0128 36.3761 48.0128 36.3763 48.0128C36.3764 48.0128 36.3765 48.0128 36.3767 48.0128C36.3768 48.0128 36.3769 48.0128 36.3771 48.0128C36.3772 48.0128 36.3773 48.0128 36.3774 48.0128C36.3776 48.0128 36.3777 48.0128 36.3778 48.0128C36.378 48.0128 36.3781 48.0128 36.3782 48.0128C36.3784 48.0128 36.3785 48.0128 36.3786 48.0128C36.3788 48.0128 36.3789 48.0128 36.379 48.0128C36.3792 48.0128 36.3793 48.0128 36.3794 48.0128C36.3795 48.0128 36.3797 48.0128 36.3798 48.0128C36.3799 48.0128 36.3801 48.0128 36.3802 48.0128C36.3803 48.0128 36.3805 48.0128 36.3806 48.0128C36.3807 48.0128 36.3809 48.0128 36.381 48.0128C36.3811 48.0128 36.3812 48.0128 36.3814 48.0128C36.3815 48.0128 36.3816 48.0128 36.3818 48.0128C36.3819 48.0128 36.382 48.0128 36.3822 48.0128C36.3823 48.0128 36.3824 48.0128 36.3825 48.0128C36.3827 48.0128 36.3828 48.0128 36.3829 48.0128C36.3831 48.0128 36.3832 48.0128 36.3833 48.0128C36.3835 48.0128 36.3836 48.0128 36.3837 48.0128C36.3839 48.0128 36.384 48.0128 36.3841 48.0128C36.3843 48.0128 36.3844 48.0128 36.3845 48.0128C36.3846 48.0128 36.3848 48.0128 36.3849 48.0128C36.385 48.0128 36.3852 48.0128 36.3853 48.0128C36.3854 48.0128 36.3856 48.0128 36.3857 48.0128C36.3858 48.0128 36.3859 48.0128 36.3861 48.0128C36.3862 48.0128 36.3863 48.0128 36.3865 48.0128C36.3866 48.0128 36.3867 48.0128 36.3869 48.0128C36.387 48.0128 36.3871 48.0128 36.3873 48.0128C36.3874 48.0128 36.3875 48.0128 36.3876 48.0128C36.3878 48.0128 36.3879 48.0128 36.388 48.0128C36.3882 48.0128 36.3883 48.0128 36.3884 48.0128C36.3886 48.0128 36.3887 48.0128 36.3888 48.0128C36.3889 48.0128 36.3891 48.0128 36.3892 48.0128C36.3893 48.0128 36.3895 48.0128 36.3896 48.0128C36.3897 48.0128 36.3899 48.0128 36.39 48.0128C36.3901 48.0128 36.3903 48.0128 36.3904 48.0128C36.3905 48.0128 36.3906 48.0128 36.3908 48.0128C36.3909 48.0128 36.391 48.0128 36.3912 48.0128C36.3913 48.0128 36.3914 48.0128 36.3916 48.0128C36.3917 48.0128 36.3918 48.0128 36.3919 48.0128C36.3921 48.0128 36.3922 48.0128 36.3923 48.0128C36.3925 48.0128 36.3926 48.0128 36.3927 48.0128C36.3929 48.0128 36.393 48.0128 36.3931 48.0128C36.3932 48.0128 36.3934 48.0128 36.3935 48.0128C36.3936 48.0128 36.3938 48.0128 36.3939 48.0128C36.394 48.0128 36.3942 48.0128 36.3943 48.0128C36.3944 48.0128 36.3945 48.0128 36.3947 48.0128C36.3948 48.0128 36.3949 48.0128 36.3951 48.0128C36.3952 48.0128 36.3953 48.0128 36.3955 48.0128C36.3956 48.0128 36.3957 48.0128 36.3958 48.0128C36.396 48.0128 36.3961 48.0128 36.3962 48.0128C36.3964 48.0128 36.3965 48.0128 36.3966 48.0128C36.3968 48.0128 36.3969 48.0128 36.397 48.0128C36.3971 48.0128 36.3973 48.0128 36.3974 48.0128C36.3975 48.0128 36.3977 48.0128 36.3978 48.0128C36.3979 48.0128 36.3981 48.0128 36.3982 48.0128C36.3983 48.0128 36.3984 48.0128 36.3986 48.0128C36.3987 48.0128 36.3988 48.0128 36.399 48.0128C36.3991 48.0128 36.3992 48.0128 36.3994 48.0128C36.3995 48.0128 36.3996 48.0128 36.3997 48.0128C36.3999 48.0128 36.4 48.0128 36.4001 48.0128C36.4003 48.0128 36.4004 48.0128 36.4005 48.0128C36.4007 48.0128 36.4008 48.0128 36.4009 48.0128C36.401 48.0128 36.4012 48.0128 36.4013 48.0128C36.4014 48.0128 36.4016 48.0128 36.4017 48.0128C36.4018 48.0128 36.402 48.0128 36.4021 48.0128C36.4022 48.0128 36.4023 48.0128 36.4025 48.0128C36.4026 48.0128 36.4027 48.0128 36.4029 48.0128C36.403 48.0128 36.4031 48.0128 36.4032 48.0128C36.4034 48.0128 36.4035 48.0128 36.4036 48.0128C36.4038 48.0128 36.4039 48.0128 36.404 48.0128C36.4042 48.0128 36.4043 48.0128 36.4044 48.0128C36.4045 48.0128 36.4047 48.0128 36.4048 48.0128C36.4049 48.0128 36.4051 48.0128 36.4052 48.0128C36.4053 48.0128 36.4054 48.0128 36.4056 48.0128C36.4057 48.0128 36.4058 48.0128 36.406 48.0128C36.4061 48.0128 36.4062 48.0128 36.4064 48.0128C36.4065 48.0128 36.4066 48.0128 36.4067 48.0128C36.4069 48.0128 36.407 48.0128 36.4071 48.0128C36.4073 48.0128 36.4074 48.0128 36.4075 48.0128C36.4076 48.0128 36.4078 48.0128 36.4079 48.0128C36.408 48.0128 36.4082 48.0128 36.4083 48.0128C36.4084 48.0128 36.4086 48.0128 36.4087 48.0128C36.4088 48.0128 36.4089 48.0128 36.4091 48.0128C36.4092 48.0128 36.4093 48.0128 36.4095 48.0128C36.4096 48.0128 36.4097 48.0128 36.4098 48.0128C36.41 48.0128 36.4101 48.0128 36.4102 48.0128C36.4104 48.0128 36.4105 48.0128 36.4106 48.0128C36.4108 48.0128 36.4109 48.0128 36.411 48.0128C36.4111 48.0128 36.4113 48.0128 36.4114 48.0128C36.4115 48.0128 36.4117 48.0128 36.4118 48.0128C36.4119 48.0128 36.412 48.0128 36.4122 48.0128C36.4123 48.0128 36.4124 48.0128 36.4126 48.0128C36.4127 48.0128 36.4128 48.0128 36.4129 48.0128C36.4131 48.0128 36.4132 48.0128 36.4133 48.0128C36.4135 48.0128 36.4136 48.0128 36.4137 48.0128C36.4138 48.0128 36.414 48.0128 36.4141 48.0128C36.4142 48.0128 36.4144 48.0128 36.4145 48.0128C36.4146 48.0128 36.4147 48.0128 36.4149 48.0128C36.415 48.0128 36.4151 48.0128 36.4153 48.0128C36.4154 48.0128 36.4155 48.0128 36.4157 48.0128C36.4158 48.0128 36.4159 48.0128 36.416 48.0128C36.4162 48.0128 36.4163 48.0128 36.4164 48.0128C36.4166 48.0128 36.4167 48.0128 36.4168 48.0128C36.4169 48.0128 36.4171 48.0128 36.4172 48.0128C36.4173 48.0128 36.4175 48.0128 36.4176 48.0128C36.4177 48.0128 36.4178 48.0128 36.418 48.0128C36.4181 48.0128 36.4182 48.0128 36.4184 48.0128C36.4185 48.0128 36.4186 48.0128 36.4187 48.0128C36.4189 48.0128 36.419 48.0128 36.4191 48.0128C36.4193 48.0128 36.4194 48.0128 36.4195 48.0128C36.4196 48.0128 36.4198 48.0128 36.4199 48.0128C36.42 48.0128 36.4202 48.0128 36.4203 48.0128C36.4204 48.0128 36.4205 48.0128 36.4207 48.0128C36.4208 48.0128 36.4209 48.0128 36.4211 48.0128C36.4212 48.0128 36.4213 48.0128 36.4214 48.0128C36.4216 48.0128 36.4217 48.0128 36.4218 48.0128C36.422 48.0128 36.4221 48.0128 36.4222 48.0128C36.4223 48.0128 36.4225 48.0128 36.4226 48.0128C36.4227 48.0128 36.4229 48.0128 36.423 48.0128C36.4231 48.0128 36.4232 48.0128 36.4234 48.0128C36.4235 48.0128 36.4236 48.0128 36.4238 48.0128C36.4239 48.0128 36.424 48.0128 36.4241 48.0128C36.4243 48.0128 36.4244 48.0128 36.4245 48.0128C36.4247 48.0128 36.4248 48.0128 36.4249 48.0128C36.425 48.0128 36.4252 48.0128 36.4253 48.0128C36.4254 48.0128 36.4256 48.0128 36.4257 48.0128C36.4258 48.0128 36.4259 48.0128 36.4261 48.0128C36.4262 48.0128 36.4263 48.0128 36.4265 48.0128C36.4266 48.0128 36.4267 48.0128 36.4268 48.0128C36.427 48.0128 36.4271 48.0128 36.4272 48.0128C36.4274 48.0128 36.4275 48.0128 36.4276 48.0128C36.4277 48.0128 36.4279 48.0128 36.428 48.0128C36.4281 48.0128 36.4282 48.0128 36.4284 48.0128C36.4285 48.0128 36.4286 48.0128 36.4288 48.0128C36.4289 48.0128 36.429 48.0128 36.4291 48.0128C36.4293 48.0128 36.4294 48.0128 36.4295 48.0128C36.4297 48.0128 36.4298 48.0128 36.4299 48.0128C36.43 48.0128 36.4302 48.0128 36.4303 48.0128C36.4304 48.0128 36.4306 48.0128 36.4307 48.0128C36.4308 48.0128 36.4309 48.0128 36.4311 48.0128C36.4312 48.0128 36.4313 48.0128 36.4315 48.0128C36.4316 48.0128 36.4317 48.0128 36.4318 48.0128C36.432 48.0128 36.4321 48.0128 36.4322 48.0128C36.4324 48.0128 36.4325 48.0128 36.4326 48.0128C36.4327 48.0128 36.4329 48.0128 36.433 48.0128C36.4331 48.0128 36.4332 48.0128 36.4334 48.0128C36.4335 48.0128 36.4336 48.0128 36.4338 48.0128C36.4339 48.0128 36.434 48.0128 36.4341 48.0128C36.4343 48.0128 36.4344 48.0128 36.4345 48.0128C36.4347 48.0128 36.4348 48.0128 36.4349 48.0128C36.435 48.0128 36.4352 48.0128 36.4353 48.0128C36.4354 48.0128 36.4355 48.0128 36.4357 48.0128C36.4358 48.0128 36.4359 48.0128 36.4361 48.0128C36.4362 48.0128 36.4363 48.0128 36.4364 48.0128C36.4366 48.0128 36.4367 48.0128 36.4368 48.0128C36.437 48.0128 36.4371 48.0128 36.4372 48.0128C36.4373 48.0128 36.4375 48.0128 36.4376 48.0128C36.4377 48.0128 36.4378 48.0128 36.438 48.0128C36.4381 48.0128 36.4382 48.0128 36.4384 48.0128C36.4385 48.0128 36.4386 48.0128 36.4387 48.0128C36.4389 48.0128 36.439 48.0128 36.4391 48.0128C36.4392 48.0128 36.4394 48.0128 36.4395 48.0128C36.4396 48.0128 36.4398 48.0128 36.4399 48.0128C36.44 48.0128 36.4401 48.0128 36.4403 48.0128C36.4404 48.0128 36.4405 48.0128 36.4407 48.0128C36.4408 48.0128 36.4409 48.0128 36.441 48.0128C36.4412 48.0128 36.4413 48.0128 36.4414 48.0128C36.4415 48.0128 36.4417 48.0128 36.4418 48.0128C36.4419 48.0128 36.4421 48.0128 36.4422 48.0128C36.4423 48.0128 36.4424 48.0128 36.4426 48.0128C36.4427 48.0128 36.4428 48.0128 36.4429 48.0128C36.4431 48.0128 36.4432 48.0128 36.4433 48.0128C36.4435 48.0128 36.4436 48.0128 36.4437 48.0128C36.4438 48.0128 36.444 48.0128 36.4441 48.0128C36.4442 48.0128 36.4443 48.0128 36.4445 48.0128C36.4446 48.0128 36.4447 48.0128 36.4449 48.0128C36.445 48.0128 36.4451 48.0128 36.4452 48.0128C36.4454 48.0128 36.4455 48.0128 36.4456 48.0128C36.4457 48.0128 36.4459 48.0128 36.446 48.0128C36.4461 48.0128 36.4463 48.0128 36.4464 48.0128C36.4465 48.0128 36.4466 48.0128 36.4468 48.0128C36.4469 48.0128 36.447 48.0128 36.4471 48.0128C36.4473 48.0128 36.4474 48.0128 36.4475 48.0128C36.4477 48.0128 36.4478 48.0128 36.4479 48.0128C36.448 48.0128 36.4482 48.0128 36.4483 48.0128C36.4484 48.0128 36.4485 48.0128 36.4487 48.0128C36.4488 48.0128 36.4489 48.0128 36.4491 48.0128C36.4492 48.0128 36.4493 48.0128 36.4494 48.0128C36.4496 48.0128 36.4497 48.0128 36.4498 48.0128C36.4499 48.0128 36.4501 48.0128 36.4502 48.0128C36.4503 48.0128 36.4504 48.0128 36.4506 48.0128C36.4507 48.0128 36.4508 48.0128 36.451 48.0128C36.4511 48.0128 36.4512 48.0128 36.4513 48.0128C36.4515 48.0128 36.4516 48.0128 36.4517 48.0128C36.4518 48.0128 36.452 48.0128 36.4521 48.0128C36.4522 48.0128 36.4524 48.0128 36.4525 48.0128C36.4526 48.0128 36.4527 48.0128 36.4529 48.0128C36.453 48.0128 36.4531 48.0128 36.4532 48.0128C36.4534 48.0128 36.4535 48.0128 36.4536 48.0128C36.4537 48.0128 36.4539 48.0128 36.454 48.0128C36.4541 48.0128 36.4543 48.0128 36.4544 48.0128C36.4545 48.0128 36.4546 48.0128 36.4548 48.0128C36.4549 48.0128 36.455 48.0128 36.4551 48.0128C36.4553 48.0128 36.4554 48.0128 36.4555 48.0128C36.4556 48.0128 36.4558 48.0128 36.4559 48.0128C36.456 48.0128 36.4562 48.0128 36.4563 48.0128C36.4564 48.0128 36.4565 48.0128 36.4567 48.0128C36.4568 48.0128 36.4569 48.0128 36.457 48.0128C36.4572 48.0128 36.4573 48.0128 36.4574 48.0128C36.4575 48.0128 36.4577 48.0128 36.4578 48.0128C36.4579 48.0128 36.458 48.0128 36.4582 48.0128C36.4583 48.0128 36.4584 48.0128 36.4586 48.0128C36.4587 48.0128 36.4588 48.0128 36.4589 48.0128C36.4591 48.0128 36.4592 48.0128 36.4593 48.0128C36.4594 48.0128 36.4596 48.0128 36.4597 48.0128C36.4598 48.0128 36.4599 48.0128 36.4601 48.0128C36.4602 48.0128 36.4603 48.0128 36.4605 48.0128C36.4606 48.0128 36.4607 48.0128 36.4608 48.0128C36.461 48.0128 36.4611 48.0128 36.4612 48.0128C36.4613 48.0128 36.4615 48.0128 36.4616 48.0128C36.4617 48.0128 36.4618 48.0128 36.462 48.0128C36.4621 48.0128 36.4622 48.0128 36.4623 48.0128C36.4625 48.0128 36.4626 48.0128 36.4627 48.0128C36.4629 48.0128 36.463 48.0128 36.4631 48.0128C36.4632 48.0128 36.4634 48.0128 36.4635 48.0128C36.4636 48.0128 36.4637 48.0128 36.4639 48.0128C36.464 48.0128 36.4641 48.0128 36.4642 48.0128C36.4644 48.0128 36.4645 48.0128 36.4646 48.0128C36.4647 48.0128 36.4649 48.0128 36.465 48.0128C36.4651 48.0128 36.4653 48.0128 36.4654 48.0128C36.4655 48.0128 36.4656 48.0128 36.4658 48.0128C36.4659 48.0128 36.466 48.0128 36.4661 48.0128C36.4663 48.0128 36.4664 48.0128 36.4665 48.0128C36.4666 48.0128 36.4668 48.0128 36.4669 48.0128C36.467 48.0128 36.4671 48.0128 36.4673 48.0128C36.4674 48.0128 36.4675 48.0128 36.4676 48.0128C36.4678 48.0128 36.4679 48.0128 36.468 48.0128C36.4681 48.0128 36.4683 48.0128 36.4684 48.0128C36.4685 48.0128 36.4687 48.0128 36.4688 48.0128C36.4689 48.0128 36.469 48.0128 36.4692 48.0128C36.4693 48.0128 36.4694 48.0128 36.4695 48.0128C36.4697 48.0128 36.4698 48.0128 36.4699 48.0128C36.47 48.0128 36.4702 48.0128 36.4703 48.0128C36.4704 48.0128 36.4705 48.0128 36.4707 48.0128C36.4708 48.0128 36.4709 48.0128 36.471 48.0128C36.4712 48.0128 36.4713 48.0128 36.4714 48.0128C36.4715 48.0128 36.4717 48.0128 36.4718 48.0128C36.4719 48.0128 36.472 48.0128 36.4722 48.0128C36.4723 48.0128 36.4724 48.0128 36.4726 48.0128C36.4727 48.0128 36.4728 48.0128 36.4729 48.0128C36.4731 48.0128 36.4732 48.0128 36.4733 48.0128C36.4734 48.0128 36.4736 48.0128 36.4737 48.0128C36.4738 48.0128 36.4739 48.0128 36.4741 48.0128C36.4742 48.0128 36.4743 48.0128 36.4744 48.0128C36.4746 48.0128 36.4747 48.0128 36.4748 48.0128C36.4749 48.0128 36.4751 48.0128 36.4752 48.0128C36.4753 48.0128 36.4754 48.0128 36.4756 48.0128C36.4757 48.0128 36.4758 48.0128 36.4759 48.0128C36.4761 48.0128 36.4762 48.0128 36.4763 48.0128C36.4764 48.0128 36.4766 48.0128 36.4767 48.0128C36.4768 48.0128 36.4769 48.0128 36.4771 48.0128C36.4772 48.0128 36.4773 48.0128 36.4774 48.0128C36.4776 48.0128 36.4777 48.0128 36.4778 48.0128C36.478 48.0128 36.4781 48.0128 36.4782 48.0128C36.4783 48.0128 36.4785 48.0128 36.4786 48.0128C36.4787 48.0128 36.4788 48.0128 36.479 48.0128C36.4791 48.0128 36.4792 48.0128 36.4793 48.0128C36.4795 48.0128 36.4796 48.0128 36.4797 48.0128C36.4798 48.0128 36.48 48.0128 36.4801 48.0128C36.4802 48.0128 36.4803 48.0128 36.4805 48.0128C36.4806 48.0128 36.4807 48.0128 36.4808 48.0128C36.481 48.0128 36.4811 48.0128 36.4812 48.0128C36.4813 48.0128 36.4815 48.0128 36.4816 48.0128C36.4817 48.0128 36.4818 48.0128 36.482 48.0128C36.4821 48.0128 36.4822 48.0128 36.4823 48.0128C36.4825 48.0128 36.4826 48.0128 36.4827 48.0128C36.4828 48.0128 36.483 48.0128 36.4831 48.0128C36.4832 48.0128 36.4833 48.0128 36.4835 48.0128C36.4836 48.0128 36.4837 48.0128 36.4838 48.0128C36.484 48.0128 36.4841 48.0128 36.4842 48.0128C36.4843 48.0128 36.4845 48.0128 36.4846 48.0128C36.4847 48.0128 36.4848 48.0128 36.485 48.0128C36.4851 48.0128 36.4852 48.0128 36.4853 48.0128C36.4855 48.0128 36.4856 48.0128 36.4857 48.0128C36.4858 48.0128 36.486 48.0128 36.4861 48.0128C36.4862 48.0128 36.4863 48.0128 36.4865 48.0128C36.4866 48.0128 36.4867 48.0128 36.4868 48.0128C36.487 48.0128 36.4871 48.0128 36.4872 48.0128C36.4873 48.0128 36.4875 48.0128 36.4876 48.0128C36.4877 48.0128 36.4878 48.0128 36.488 48.0128C36.4881 48.0128 36.4882 48.0128 36.4883 48.0128C36.4885 48.0128 36.4886 48.0128 36.4887 48.0128C36.4888 48.0128 36.489 48.0128 36.4891 48.0128C36.4892 48.0128 36.4893 48.0128 36.4895 48.0128C36.4896 48.0128 36.4897 48.0128 36.4898 48.0128C36.49 48.0128 36.4901 48.0128 36.4902 48.0128C36.4903 48.0128 36.4905 48.0128 36.4906 48.0128C36.4907 48.0128 36.4908 48.0128 36.491 48.0128C36.4911 48.0128 36.4912 48.0128 36.4913 48.0128C36.4914 48.0128 36.4916 48.0128 36.4917 48.0128C36.4918 48.0128 36.4919 48.0128 36.4921 48.0128C36.4922 48.0128 36.4923 48.0128 36.4924 48.0128C36.4926 48.0128 36.4927 48.0128 36.4928 48.0128C36.4929 48.0128 36.4931 48.0128 36.4932 48.0128C36.4933 48.0128 36.4934 48.0128 36.4936 48.0128C36.4937 48.0128 36.4938 48.0128 36.4939 48.0128C36.4941 48.0128 36.4942 48.0128 36.4943 48.0128C36.4944 48.0128 36.4946 48.0128 36.4947 48.0128C36.4948 48.0128 36.4949 48.0128 36.4951 48.0128C36.4952 48.0128 36.4953 48.0128 36.4954 48.0128C36.4956 48.0128 36.4957 48.0128 36.4958 48.0128C36.4959 48.0128 36.4961 48.0128 36.4962 48.0128C36.4963 48.0128 36.4964 48.0128 36.4966 48.0128C36.4967 48.0128 36.4968 48.0128 36.4969 48.0128C36.497 48.0128 36.4972 48.0128 36.4973 48.0128C36.4974 48.0128 36.4975 48.0128 36.4977 48.0128C36.4978 48.0128 36.4979 48.0128 36.498 48.0128C36.4982 48.0128 36.4983 48.0128 36.4984 48.0128C36.4985 48.0128 36.4987 48.0128 36.4988 48.0128C36.4989 48.0128 36.499 48.0128 36.4992 48.0128C36.4993 48.0128 36.4994 48.0128 36.4995 48.0128C36.4997 48.0128 36.4998 48.0128 36.4999 48.0128C36.5 48.0128 36.5002 48.0128 36.5003 48.0128C36.5004 48.0128 36.5005 48.0128 36.5006 48.0128C36.5008 48.0128 36.5009 48.0128 36.501 48.0128C36.5011 48.0128 36.5013 48.0128 36.5014 48.0128C36.5015 48.0128 36.5016 48.0128 36.5018 48.0128C36.5019 48.0128 36.502 48.0128 36.5021 48.0128C36.5023 48.0128 36.5024 48.0128 36.5025 48.0128C36.5026 48.0128 36.5028 48.0128 36.5029 48.0128C36.503 48.0128 36.5031 48.0128 36.5033 48.0128C36.5034 48.0128 36.5035 48.0128 36.5036 48.0128C36.5037 48.0128 36.5039 48.0128 36.504 48.0128C36.5041 48.0128 36.5042 48.0128 36.5044 48.0128C36.5045 48.0128 36.5046 48.0128 36.5047 48.0128C36.5049 48.0128 36.505 48.0128 36.5051 48.0128C36.5052 48.0128 36.5054 48.0128 36.5055 48.0128C36.5056 48.0128 36.5057 48.0128 36.5059 48.0128C36.506 48.0128 36.5061 48.0128 36.5062 48.0128C36.5063 48.0128 36.5065 48.0128 36.5066 48.0128C36.5067 48.0128 36.5068 48.0128 36.507 48.0128C36.5071 48.0128 36.5072 48.0128 36.5073 48.0128C36.5075 48.0128 36.5076 48.0128 36.5077 48.0128C36.5078 48.0128 36.508 48.0128 36.5081 48.0128C36.5082 48.0128 36.5083 48.0128 36.5084 48.0128C36.5086 48.0128 36.5087 48.0128 36.5088 48.0128C36.5089 48.0128 36.5091 48.0128 36.5092 48.0128C36.5093 48.0128 36.5094 48.0128 36.5096 48.0128C36.5097 48.0128 36.5098 48.0128 36.5099 48.0128C36.5101 48.0128 36.5102 48.0128 36.5103 48.0128C36.5104 48.0128 36.5106 48.0128 36.5107 48.0128C36.5108 48.0128 36.5109 48.0128 36.511 48.0128C36.5112 48.0128 36.5113 48.0128 36.5114 48.0128C36.5115 48.0128 36.5117 48.0128 36.5118 48.0128C36.5119 48.0128 36.512 48.0128 36.5122 48.0128C36.5123 48.0128 36.5124 48.0128 36.5125 48.0128C36.5126 48.0128 36.5128 48.0128 36.5129 48.0128C36.513 48.0128 36.5131 48.0128 36.5133 48.0128C36.5134 48.0128 36.5135 48.0128 36.5136 48.0128C36.5138 48.0128 36.5139 48.0128 36.514 48.0128C36.5141 48.0128 36.5143 48.0128 36.5144 48.0128C36.5145 48.0128 36.5146 48.0128 36.5147 48.0128C36.5149 48.0128 36.515 48.0128 36.5151 48.0128C36.5152 48.0128 36.5154 48.0128 36.5155 48.0128C36.5156 48.0128 36.5157 48.0128 36.5159 48.0128C36.516 48.0128 36.5161 48.0128 36.5162 48.0128C36.5163 48.0128 36.5165 48.0128 36.5166 48.0128C36.5167 48.0128 36.5168 48.0128 36.517 48.0128C36.5171 48.0128 36.5172 48.0128 36.5173 48.0128C36.5175 48.0128 36.5176 48.0128 36.5177 48.0128C36.5178 48.0128 36.5179 48.0128 36.5181 48.0128C36.5182 48.0128 36.5183 48.0128 36.5184 48.0128C36.5186 48.0128 36.5187 48.0128 36.5188 48.0128C36.5189 48.0128 36.5191 48.0128 36.5192 48.0128C36.5193 48.0128 36.5194 48.0128 36.5195 48.0128C36.5197 48.0128 36.5198 48.0128 36.5199 48.0128C36.52 48.0128 36.5202 48.0128 36.5203 48.0128C36.5204 48.0128 36.5205 48.0128 36.5207 48.0128C36.5208 48.0128 36.5209 48.0128 36.521 48.0128C36.5211 48.0128 36.5213 48.0128 36.5214 48.0128C36.5215 48.0128 36.5216 48.0128 36.5218 48.0128C36.5219 48.0128 36.522 48.0128 36.5221 48.0128C36.5223 48.0128 36.5224 48.0128 36.5225 48.0128C36.5226 48.0128 36.5227 48.0128 36.5229 48.0128C36.523 48.0128 36.5231 48.0128 36.5232 48.0128C36.5234 48.0128 36.5235 48.0128 36.5236 48.0128C36.5237 48.0128 36.5238 48.0128 36.524 48.0128C36.5241 48.0128 36.5242 48.0128 36.5243 48.0128C36.5245 48.0128 36.5246 48.0128 36.5247 48.0128C36.5248 48.0128 36.5249 48.0128 36.5251 48.0128C36.5252 48.0128 36.5253 48.0128 36.5254 48.0128C36.5256 48.0128 36.5257 48.0128 36.5258 48.0128C36.5259 48.0128 36.5261 48.0128 36.5262 48.0128C36.5263 48.0128 36.5264 48.0128 36.5265 48.0128C36.5267 48.0128 36.5268 48.0128 36.5269 48.0128C36.527 48.0128 36.5272 48.0128 36.5273 48.0128C36.5274 48.0128 36.5275 48.0128 36.5276 48.0128C36.5278 48.0128 36.5279 48.0128 36.528 48.0128C36.5281 48.0128 36.5283 48.0128 36.5284 48.0128C36.5285 48.0128 36.5286 48.0128 36.5287 48.0128C36.5289 48.0128 36.529 48.0128 36.5291 48.0128C36.5292 48.0128 36.5294 48.0128 36.5295 48.0128C36.5296 48.0128 36.5297 48.0128 36.5299 48.0128C36.53 48.0128 36.5301 48.0128 36.5302 48.0128C36.5303 48.0128 36.5305 48.0128 36.5306 48.0128C36.5307 48.0128 36.5308 48.0128 36.531 48.0128C36.5311 48.0128 36.5312 48.0128 36.5313 48.0128C36.5314 48.0128 36.5316 48.0128 36.5317 48.0128C36.5318 48.0128 36.5319 48.0128 36.5321 48.0128C36.5322 48.0128 36.5323 48.0128 36.5324 48.0128C36.5325 48.0128 36.5327 48.0128 36.5328 48.0128C36.5329 48.0128 36.533 48.0128 36.5331 48.0128C36.5333 48.0128 36.5334 48.0128 36.5335 48.0128C36.5336 48.0128 36.5338 48.0128 36.5339 48.0128C36.534 48.0128 36.5341 48.0128 36.5343 48.0128C36.5344 48.0128 36.5345 48.0128 36.5346 48.0128C36.5347 48.0128 36.5349 48.0128 36.535 48.0128C36.5351 48.0128 36.5352 48.0128 36.5354 48.0128C36.5355 48.0128 36.5356 48.0128 36.5357 48.0128C36.5358 48.0128 36.536 48.0128 36.5361 48.0128C36.5362 48.0128 36.5363 48.0128 36.5364 48.0128C36.5366 48.0128 36.5367 48.0128 36.5368 48.0128C36.5369 48.0128 36.5371 48.0128 36.5372 48.0128C36.5373 48.0128 36.5374 48.0128 36.5375 48.0128C36.5377 48.0128 36.5378 48.0128 36.5379 48.0128C36.538 48.0128 36.5382 48.0128 36.5383 48.0128C36.5384 48.0128 36.5385 48.0128 36.5386 48.0128C36.5388 48.0128 36.5389 48.0128 36.539 48.0128C36.5391 48.0128 36.5392 48.0128 36.5394 48.0128C36.5395 48.0128 36.5396 48.0128 36.5397 48.0128C36.5399 48.0128 36.54 48.0128 36.5401 48.0128C36.5402 48.0128 36.5403 48.0128 36.5405 48.0128C36.5406 48.0128 36.5407 48.0128 36.5408 48.0128C36.541 48.0128 36.5411 48.0128 36.5412 48.0128C36.5413 48.0128 36.5414 48.0128 36.5416 48.0128C36.5417 48.0128 36.5418 48.0128 36.5419 48.0128C36.542 48.0128 36.5422 48.0128 36.5423 48.0128C36.5424 48.0128 36.5425 48.0128 36.5427 48.0128C36.5428 48.0128 36.5429 48.0128 36.543 48.0128C36.5431 48.0128 36.5433 48.0128 36.5434 48.0128C36.5435 48.0128 36.5436 48.0128 36.5438 48.0128C36.5439 48.0128 36.544 48.0128 36.5441 48.0128V47.5128C36.544 47.5128 36.5439 47.5128 36.5438 47.5128C36.5436 47.5128 36.5435 47.5128 36.5434 47.5128C36.5433 47.5128 36.5431 47.5128 36.543 47.5128C36.5429 47.5128 36.5428 47.5128 36.5427 47.5128C36.5425 47.5128 36.5424 47.5128 36.5423 47.5128C36.5422 47.5128 36.542 47.5128 36.5419 47.5128C36.5418 47.5128 36.5417 47.5128 36.5416 47.5128C36.5414 47.5128 36.5413 47.5128 36.5412 47.5128C36.5411 47.5128 36.541 47.5128 36.5408 47.5128C36.5407 47.5128 36.5406 47.5128 36.5405 47.5128C36.5403 47.5128 36.5402 47.5128 36.5401 47.5128C36.54 47.5128 36.5399 47.5128 36.5397 47.5128C36.5396 47.5128 36.5395 47.5128 36.5394 47.5128C36.5392 47.5128 36.5391 47.5128 36.539 47.5128C36.5389 47.5128 36.5388 47.5128 36.5386 47.5128C36.5385 47.5128 36.5384 47.5128 36.5383 47.5128C36.5382 47.5128 36.538 47.5128 36.5379 47.5128C36.5378 47.5128 36.5377 47.5128 36.5375 47.5128C36.5374 47.5128 36.5373 47.5128 36.5372 47.5128C36.5371 47.5128 36.5369 47.5128 36.5368 47.5128C36.5367 47.5128 36.5366 47.5128 36.5364 47.5128C36.5363 47.5128 36.5362 47.5128 36.5361 47.5128C36.536 47.5128 36.5358 47.5128 36.5357 47.5128C36.5356 47.5128 36.5355 47.5128 36.5354 47.5128C36.5352 47.5128 36.5351 47.5128 36.535 47.5128C36.5349 47.5128 36.5347 47.5128 36.5346 47.5128C36.5345 47.5128 36.5344 47.5128 36.5343 47.5128C36.5341 47.5128 36.534 47.5128 36.5339 47.5128C36.5338 47.5128 36.5336 47.5128 36.5335 47.5128C36.5334 47.5128 36.5333 47.5128 36.5331 47.5128C36.533 47.5128 36.5329 47.5128 36.5328 47.5128C36.5327 47.5128 36.5325 47.5128 36.5324 47.5128C36.5323 47.5128 36.5322 47.5128 36.5321 47.5128C36.5319 47.5128 36.5318 47.5128 36.5317 47.5128C36.5316 47.5128 36.5314 47.5128 36.5313 47.5128C36.5312 47.5128 36.5311 47.5128 36.531 47.5128C36.5308 47.5128 36.5307 47.5128 36.5306 47.5128C36.5305 47.5128 36.5303 47.5128 36.5302 47.5128C36.5301 47.5128 36.53 47.5128 36.5299 47.5128C36.5297 47.5128 36.5296 47.5128 36.5295 47.5128C36.5294 47.5128 36.5292 47.5128 36.5291 47.5128C36.529 47.5128 36.5289 47.5128 36.5287 47.5128C36.5286 47.5128 36.5285 47.5128 36.5284 47.5128C36.5283 47.5128 36.5281 47.5128 36.528 47.5128C36.5279 47.5128 36.5278 47.5128 36.5276 47.5128C36.5275 47.5128 36.5274 47.5128 36.5273 47.5128C36.5272 47.5128 36.527 47.5128 36.5269 47.5128C36.5268 47.5128 36.5267 47.5128 36.5265 47.5128C36.5264 47.5128 36.5263 47.5128 36.5262 47.5128C36.5261 47.5128 36.5259 47.5128 36.5258 47.5128C36.5257 47.5128 36.5256 47.5128 36.5254 47.5128C36.5253 47.5128 36.5252 47.5128 36.5251 47.5128C36.5249 47.5128 36.5248 47.5128 36.5247 47.5128C36.5246 47.5128 36.5245 47.5128 36.5243 47.5128C36.5242 47.5128 36.5241 47.5128 36.524 47.5128C36.5238 47.5128 36.5237 47.5128 36.5236 47.5128C36.5235 47.5128 36.5234 47.5128 36.5232 47.5128C36.5231 47.5128 36.523 47.5128 36.5229 47.5128C36.5227 47.5128 36.5226 47.5128 36.5225 47.5128C36.5224 47.5128 36.5223 47.5128 36.5221 47.5128C36.522 47.5128 36.5219 47.5128 36.5218 47.5128C36.5216 47.5128 36.5215 47.5128 36.5214 47.5128C36.5213 47.5128 36.5211 47.5128 36.521 47.5128C36.5209 47.5128 36.5208 47.5128 36.5207 47.5128C36.5205 47.5128 36.5204 47.5128 36.5203 47.5128C36.5202 47.5128 36.52 47.5128 36.5199 47.5128C36.5198 47.5128 36.5197 47.5128 36.5195 47.5128C36.5194 47.5128 36.5193 47.5128 36.5192 47.5128C36.5191 47.5128 36.5189 47.5128 36.5188 47.5128C36.5187 47.5128 36.5186 47.5128 36.5184 47.5128C36.5183 47.5128 36.5182 47.5128 36.5181 47.5128C36.5179 47.5128 36.5178 47.5128 36.5177 47.5128C36.5176 47.5128 36.5175 47.5128 36.5173 47.5128C36.5172 47.5128 36.5171 47.5128 36.517 47.5128C36.5168 47.5128 36.5167 47.5128 36.5166 47.5128C36.5165 47.5128 36.5163 47.5128 36.5162 47.5128C36.5161 47.5128 36.516 47.5128 36.5159 47.5128C36.5157 47.5128 36.5156 47.5128 36.5155 47.5128C36.5154 47.5128 36.5152 47.5128 36.5151 47.5128C36.515 47.5128 36.5149 47.5128 36.5147 47.5128C36.5146 47.5128 36.5145 47.5128 36.5144 47.5128C36.5143 47.5128 36.5141 47.5128 36.514 47.5128C36.5139 47.5128 36.5138 47.5128 36.5136 47.5128C36.5135 47.5128 36.5134 47.5128 36.5133 47.5128C36.5131 47.5128 36.513 47.5128 36.5129 47.5128C36.5128 47.5128 36.5126 47.5128 36.5125 47.5128C36.5124 47.5128 36.5123 47.5128 36.5122 47.5128C36.512 47.5128 36.5119 47.5128 36.5118 47.5128C36.5117 47.5128 36.5115 47.5128 36.5114 47.5128C36.5113 47.5128 36.5112 47.5128 36.511 47.5128C36.5109 47.5128 36.5108 47.5128 36.5107 47.5128C36.5106 47.5128 36.5104 47.5128 36.5103 47.5128C36.5102 47.5128 36.5101 47.5128 36.5099 47.5128C36.5098 47.5128 36.5097 47.5128 36.5096 47.5128C36.5094 47.5128 36.5093 47.5128 36.5092 47.5128C36.5091 47.5128 36.5089 47.5128 36.5088 47.5128C36.5087 47.5128 36.5086 47.5128 36.5084 47.5128C36.5083 47.5128 36.5082 47.5128 36.5081 47.5128C36.508 47.5128 36.5078 47.5128 36.5077 47.5128C36.5076 47.5128 36.5075 47.5128 36.5073 47.5128C36.5072 47.5128 36.5071 47.5128 36.507 47.5128C36.5068 47.5128 36.5067 47.5128 36.5066 47.5128C36.5065 47.5128 36.5063 47.5128 36.5062 47.5128C36.5061 47.5128 36.506 47.5128 36.5059 47.5128C36.5057 47.5128 36.5056 47.5128 36.5055 47.5128C36.5054 47.5128 36.5052 47.5128 36.5051 47.5128C36.505 47.5128 36.5049 47.5128 36.5047 47.5128C36.5046 47.5128 36.5045 47.5128 36.5044 47.5128C36.5042 47.5128 36.5041 47.5128 36.504 47.5128C36.5039 47.5128 36.5037 47.5128 36.5036 47.5128C36.5035 47.5128 36.5034 47.5128 36.5033 47.5128C36.5031 47.5128 36.503 47.5128 36.5029 47.5128C36.5028 47.5128 36.5026 47.5128 36.5025 47.5128C36.5024 47.5128 36.5023 47.5128 36.5021 47.5128C36.502 47.5128 36.5019 47.5128 36.5018 47.5128C36.5016 47.5128 36.5015 47.5128 36.5014 47.5128C36.5013 47.5128 36.5011 47.5128 36.501 47.5128C36.5009 47.5128 36.5008 47.5128 36.5006 47.5128C36.5005 47.5128 36.5004 47.5128 36.5003 47.5128C36.5002 47.5128 36.5 47.5128 36.4999 47.5128C36.4998 47.5128 36.4997 47.5128 36.4995 47.5128C36.4994 47.5128 36.4993 47.5128 36.4992 47.5128C36.499 47.5128 36.4989 47.5128 36.4988 47.5128C36.4987 47.5128 36.4985 47.5128 36.4984 47.5128C36.4983 47.5128 36.4982 47.5128 36.498 47.5128C36.4979 47.5128 36.4978 47.5128 36.4977 47.5128C36.4975 47.5128 36.4974 47.5128 36.4973 47.5128C36.4972 47.5128 36.497 47.5128 36.4969 47.5128C36.4968 47.5128 36.4967 47.5128 36.4966 47.5128C36.4964 47.5128 36.4963 47.5128 36.4962 47.5128C36.4961 47.5128 36.4959 47.5128 36.4958 47.5128C36.4957 47.5128 36.4956 47.5128 36.4954 47.5128C36.4953 47.5128 36.4952 47.5128 36.4951 47.5128C36.4949 47.5128 36.4948 47.5128 36.4947 47.5128C36.4946 47.5128 36.4944 47.5128 36.4943 47.5128C36.4942 47.5128 36.4941 47.5128 36.4939 47.5128C36.4938 47.5128 36.4937 47.5128 36.4936 47.5128C36.4934 47.5128 36.4933 47.5128 36.4932 47.5128C36.4931 47.5128 36.4929 47.5128 36.4928 47.5128C36.4927 47.5128 36.4926 47.5128 36.4924 47.5128C36.4923 47.5128 36.4922 47.5128 36.4921 47.5128C36.4919 47.5128 36.4918 47.5128 36.4917 47.5128C36.4916 47.5128 36.4914 47.5128 36.4913 47.5128C36.4912 47.5128 36.4911 47.5128 36.491 47.5128C36.4908 47.5128 36.4907 47.5128 36.4906 47.5128C36.4905 47.5128 36.4903 47.5128 36.4902 47.5128C36.4901 47.5128 36.49 47.5128 36.4898 47.5128C36.4897 47.5128 36.4896 47.5128 36.4895 47.5128C36.4893 47.5128 36.4892 47.5128 36.4891 47.5128C36.489 47.5128 36.4888 47.5128 36.4887 47.5128C36.4886 47.5128 36.4885 47.5128 36.4883 47.5128C36.4882 47.5128 36.4881 47.5128 36.488 47.5128C36.4878 47.5128 36.4877 47.5128 36.4876 47.5128C36.4875 47.5128 36.4873 47.5128 36.4872 47.5128C36.4871 47.5128 36.487 47.5128 36.4868 47.5128C36.4867 47.5128 36.4866 47.5128 36.4865 47.5128C36.4863 47.5128 36.4862 47.5128 36.4861 47.5128C36.486 47.5128 36.4858 47.5128 36.4857 47.5128C36.4856 47.5128 36.4855 47.5128 36.4853 47.5128C36.4852 47.5128 36.4851 47.5128 36.485 47.5128C36.4848 47.5128 36.4847 47.5128 36.4846 47.5128C36.4845 47.5128 36.4843 47.5128 36.4842 47.5128C36.4841 47.5128 36.484 47.5128 36.4838 47.5128C36.4837 47.5128 36.4836 47.5128 36.4835 47.5128C36.4833 47.5128 36.4832 47.5128 36.4831 47.5128C36.483 47.5128 36.4828 47.5128 36.4827 47.5128C36.4826 47.5128 36.4825 47.5128 36.4823 47.5128C36.4822 47.5128 36.4821 47.5128 36.482 47.5128C36.4818 47.5128 36.4817 47.5128 36.4816 47.5128C36.4815 47.5128 36.4813 47.5128 36.4812 47.5128C36.4811 47.5128 36.481 47.5128 36.4808 47.5128C36.4807 47.5128 36.4806 47.5128 36.4805 47.5128C36.4803 47.5128 36.4802 47.5128 36.4801 47.5128C36.48 47.5128 36.4798 47.5128 36.4797 47.5128C36.4796 47.5128 36.4795 47.5128 36.4793 47.5128C36.4792 47.5128 36.4791 47.5128 36.479 47.5128C36.4788 47.5128 36.4787 47.5128 36.4786 47.5128C36.4785 47.5128 36.4783 47.5128 36.4782 47.5128C36.4781 47.5128 36.478 47.5128 36.4778 47.5128C36.4777 47.5128 36.4776 47.5128 36.4774 47.5128C36.4773 47.5128 36.4772 47.5128 36.4771 47.5128C36.4769 47.5128 36.4768 47.5128 36.4767 47.5128C36.4766 47.5128 36.4764 47.5128 36.4763 47.5128C36.4762 47.5128 36.4761 47.5128 36.4759 47.5128C36.4758 47.5128 36.4757 47.5128 36.4756 47.5128C36.4754 47.5128 36.4753 47.5128 36.4752 47.5128C36.4751 47.5128 36.4749 47.5128 36.4748 47.5128C36.4747 47.5128 36.4746 47.5128 36.4744 47.5128C36.4743 47.5128 36.4742 47.5128 36.4741 47.5128C36.4739 47.5128 36.4738 47.5128 36.4737 47.5128C36.4736 47.5128 36.4734 47.5128 36.4733 47.5128C36.4732 47.5128 36.4731 47.5128 36.4729 47.5128C36.4728 47.5128 36.4727 47.5128 36.4726 47.5128C36.4724 47.5128 36.4723 47.5128 36.4722 47.5128C36.472 47.5128 36.4719 47.5128 36.4718 47.5128C36.4717 47.5128 36.4715 47.5128 36.4714 47.5128C36.4713 47.5128 36.4712 47.5128 36.471 47.5128C36.4709 47.5128 36.4708 47.5128 36.4707 47.5128C36.4705 47.5128 36.4704 47.5128 36.4703 47.5128C36.4702 47.5128 36.47 47.5128 36.4699 47.5128C36.4698 47.5128 36.4697 47.5128 36.4695 47.5128C36.4694 47.5128 36.4693 47.5128 36.4692 47.5128C36.469 47.5128 36.4689 47.5128 36.4688 47.5128C36.4687 47.5128 36.4685 47.5128 36.4684 47.5128C36.4683 47.5128 36.4681 47.5128 36.468 47.5128C36.4679 47.5128 36.4678 47.5128 36.4676 47.5128C36.4675 47.5128 36.4674 47.5128 36.4673 47.5128C36.4671 47.5128 36.467 47.5128 36.4669 47.5128C36.4668 47.5128 36.4666 47.5128 36.4665 47.5128C36.4664 47.5128 36.4663 47.5128 36.4661 47.5128C36.466 47.5128 36.4659 47.5128 36.4658 47.5128C36.4656 47.5128 36.4655 47.5128 36.4654 47.5128C36.4653 47.5128 36.4651 47.5128 36.465 47.5128C36.4649 47.5128 36.4647 47.5128 36.4646 47.5128C36.4645 47.5128 36.4644 47.5128 36.4642 47.5128C36.4641 47.5128 36.464 47.5128 36.4639 47.5128C36.4637 47.5128 36.4636 47.5128 36.4635 47.5128C36.4634 47.5128 36.4632 47.5128 36.4631 47.5128C36.463 47.5128 36.4629 47.5128 36.4627 47.5128C36.4626 47.5128 36.4625 47.5128 36.4623 47.5128C36.4622 47.5128 36.4621 47.5128 36.462 47.5128C36.4618 47.5128 36.4617 47.5128 36.4616 47.5128C36.4615 47.5128 36.4613 47.5128 36.4612 47.5128C36.4611 47.5128 36.461 47.5128 36.4608 47.5128C36.4607 47.5128 36.4606 47.5128 36.4605 47.5128C36.4603 47.5128 36.4602 47.5128 36.4601 47.5128C36.4599 47.5128 36.4598 47.5128 36.4597 47.5128C36.4596 47.5128 36.4594 47.5128 36.4593 47.5128C36.4592 47.5128 36.4591 47.5128 36.4589 47.5128C36.4588 47.5128 36.4587 47.5128 36.4586 47.5128C36.4584 47.5128 36.4583 47.5128 36.4582 47.5128C36.458 47.5128 36.4579 47.5128 36.4578 47.5128C36.4577 47.5128 36.4575 47.5128 36.4574 47.5128C36.4573 47.5128 36.4572 47.5128 36.457 47.5128C36.4569 47.5128 36.4568 47.5128 36.4567 47.5128C36.4565 47.5128 36.4564 47.5128 36.4563 47.5128C36.4562 47.5128 36.456 47.5128 36.4559 47.5128C36.4558 47.5128 36.4556 47.5128 36.4555 47.5128C36.4554 47.5128 36.4553 47.5128 36.4551 47.5128C36.455 47.5128 36.4549 47.5128 36.4548 47.5128C36.4546 47.5128 36.4545 47.5128 36.4544 47.5128C36.4543 47.5128 36.4541 47.5128 36.454 47.5128C36.4539 47.5128 36.4537 47.5128 36.4536 47.5128C36.4535 47.5128 36.4534 47.5128 36.4532 47.5128C36.4531 47.5128 36.453 47.5128 36.4529 47.5128C36.4527 47.5128 36.4526 47.5128 36.4525 47.5128C36.4524 47.5128 36.4522 47.5128 36.4521 47.5128C36.452 47.5128 36.4518 47.5128 36.4517 47.5128C36.4516 47.5128 36.4515 47.5128 36.4513 47.5128C36.4512 47.5128 36.4511 47.5128 36.451 47.5128C36.4508 47.5128 36.4507 47.5128 36.4506 47.5128C36.4504 47.5128 36.4503 47.5128 36.4502 47.5128C36.4501 47.5128 36.4499 47.5128 36.4498 47.5128C36.4497 47.5128 36.4496 47.5128 36.4494 47.5128C36.4493 47.5128 36.4492 47.5128 36.4491 47.5128C36.4489 47.5128 36.4488 47.5128 36.4487 47.5128C36.4485 47.5128 36.4484 47.5128 36.4483 47.5128C36.4482 47.5128 36.448 47.5128 36.4479 47.5128C36.4478 47.5128 36.4477 47.5128 36.4475 47.5128C36.4474 47.5128 36.4473 47.5128 36.4471 47.5128C36.447 47.5128 36.4469 47.5128 36.4468 47.5128C36.4466 47.5128 36.4465 47.5128 36.4464 47.5128C36.4463 47.5128 36.4461 47.5128 36.446 47.5128C36.4459 47.5128 36.4457 47.5128 36.4456 47.5128C36.4455 47.5128 36.4454 47.5128 36.4452 47.5128C36.4451 47.5128 36.445 47.5128 36.4449 47.5128C36.4447 47.5128 36.4446 47.5128 36.4445 47.5128C36.4443 47.5128 36.4442 47.5128 36.4441 47.5128C36.444 47.5128 36.4438 47.5128 36.4437 47.5128C36.4436 47.5128 36.4435 47.5128 36.4433 47.5128C36.4432 47.5128 36.4431 47.5128 36.4429 47.5128C36.4428 47.5128 36.4427 47.5128 36.4426 47.5128C36.4424 47.5128 36.4423 47.5128 36.4422 47.5128C36.4421 47.5128 36.4419 47.5128 36.4418 47.5128C36.4417 47.5128 36.4415 47.5128 36.4414 47.5128C36.4413 47.5128 36.4412 47.5128 36.441 47.5128C36.4409 47.5128 36.4408 47.5128 36.4407 47.5128C36.4405 47.5128 36.4404 47.5128 36.4403 47.5128C36.4401 47.5128 36.44 47.5128 36.4399 47.5128C36.4398 47.5128 36.4396 47.5128 36.4395 47.5128C36.4394 47.5128 36.4392 47.5128 36.4391 47.5128C36.439 47.5128 36.4389 47.5128 36.4387 47.5128C36.4386 47.5128 36.4385 47.5128 36.4384 47.5128C36.4382 47.5128 36.4381 47.5128 36.438 47.5128C36.4378 47.5128 36.4377 47.5128 36.4376 47.5128C36.4375 47.5128 36.4373 47.5128 36.4372 47.5128C36.4371 47.5128 36.437 47.5128 36.4368 47.5128C36.4367 47.5128 36.4366 47.5128 36.4364 47.5128C36.4363 47.5128 36.4362 47.5128 36.4361 47.5128C36.4359 47.5128 36.4358 47.5128 36.4357 47.5128C36.4355 47.5128 36.4354 47.5128 36.4353 47.5128C36.4352 47.5128 36.435 47.5128 36.4349 47.5128C36.4348 47.5128 36.4347 47.5128 36.4345 47.5128C36.4344 47.5128 36.4343 47.5128 36.4341 47.5128C36.434 47.5128 36.4339 47.5128 36.4338 47.5128C36.4336 47.5128 36.4335 47.5128 36.4334 47.5128C36.4332 47.5128 36.4331 47.5128 36.433 47.5128C36.4329 47.5128 36.4327 47.5128 36.4326 47.5128C36.4325 47.5128 36.4324 47.5128 36.4322 47.5128C36.4321 47.5128 36.432 47.5128 36.4318 47.5128C36.4317 47.5128 36.4316 47.5128 36.4315 47.5128C36.4313 47.5128 36.4312 47.5128 36.4311 47.5128C36.4309 47.5128 36.4308 47.5128 36.4307 47.5128C36.4306 47.5128 36.4304 47.5128 36.4303 47.5128C36.4302 47.5128 36.43 47.5128 36.4299 47.5128C36.4298 47.5128 36.4297 47.5128 36.4295 47.5128C36.4294 47.5128 36.4293 47.5128 36.4291 47.5128C36.429 47.5128 36.4289 47.5128 36.4288 47.5128C36.4286 47.5128 36.4285 47.5128 36.4284 47.5128C36.4282 47.5128 36.4281 47.5128 36.428 47.5128C36.4279 47.5128 36.4277 47.5128 36.4276 47.5128C36.4275 47.5128 36.4274 47.5128 36.4272 47.5128C36.4271 47.5128 36.427 47.5128 36.4268 47.5128C36.4267 47.5128 36.4266 47.5128 36.4265 47.5128C36.4263 47.5128 36.4262 47.5128 36.4261 47.5128C36.4259 47.5128 36.4258 47.5128 36.4257 47.5128C36.4256 47.5128 36.4254 47.5128 36.4253 47.5128C36.4252 47.5128 36.425 47.5128 36.4249 47.5128C36.4248 47.5128 36.4247 47.5128 36.4245 47.5128C36.4244 47.5128 36.4243 47.5128 36.4241 47.5128C36.424 47.5128 36.4239 47.5128 36.4238 47.5128C36.4236 47.5128 36.4235 47.5128 36.4234 47.5128C36.4232 47.5128 36.4231 47.5128 36.423 47.5128C36.4229 47.5128 36.4227 47.5128 36.4226 47.5128C36.4225 47.5128 36.4223 47.5128 36.4222 47.5128C36.4221 47.5128 36.422 47.5128 36.4218 47.5128C36.4217 47.5128 36.4216 47.5128 36.4214 47.5128C36.4213 47.5128 36.4212 47.5128 36.4211 47.5128C36.4209 47.5128 36.4208 47.5128 36.4207 47.5128C36.4205 47.5128 36.4204 47.5128 36.4203 47.5128C36.4202 47.5128 36.42 47.5128 36.4199 47.5128C36.4198 47.5128 36.4196 47.5128 36.4195 47.5128C36.4194 47.5128 36.4193 47.5128 36.4191 47.5128C36.419 47.5128 36.4189 47.5128 36.4187 47.5128C36.4186 47.5128 36.4185 47.5128 36.4184 47.5128C36.4182 47.5128 36.4181 47.5128 36.418 47.5128C36.4178 47.5128 36.4177 47.5128 36.4176 47.5128C36.4175 47.5128 36.4173 47.5128 36.4172 47.5128C36.4171 47.5128 36.4169 47.5128 36.4168 47.5128C36.4167 47.5128 36.4166 47.5128 36.4164 47.5128C36.4163 47.5128 36.4162 47.5128 36.416 47.5128C36.4159 47.5128 36.4158 47.5128 36.4157 47.5128C36.4155 47.5128 36.4154 47.5128 36.4153 47.5128C36.4151 47.5128 36.415 47.5128 36.4149 47.5128C36.4147 47.5128 36.4146 47.5128 36.4145 47.5128C36.4144 47.5128 36.4142 47.5128 36.4141 47.5128C36.414 47.5128 36.4138 47.5128 36.4137 47.5128C36.4136 47.5128 36.4135 47.5128 36.4133 47.5128C36.4132 47.5128 36.4131 47.5128 36.4129 47.5128C36.4128 47.5128 36.4127 47.5128 36.4126 47.5128C36.4124 47.5128 36.4123 47.5128 36.4122 47.5128C36.412 47.5128 36.4119 47.5128 36.4118 47.5128C36.4117 47.5128 36.4115 47.5128 36.4114 47.5128C36.4113 47.5128 36.4111 47.5128 36.411 47.5128C36.4109 47.5128 36.4108 47.5128 36.4106 47.5128C36.4105 47.5128 36.4104 47.5128 36.4102 47.5128C36.4101 47.5128 36.41 47.5128 36.4098 47.5128C36.4097 47.5128 36.4096 47.5128 36.4095 47.5128C36.4093 47.5128 36.4092 47.5128 36.4091 47.5128C36.4089 47.5128 36.4088 47.5128 36.4087 47.5128C36.4086 47.5128 36.4084 47.5128 36.4083 47.5128C36.4082 47.5128 36.408 47.5128 36.4079 47.5128C36.4078 47.5128 36.4076 47.5128 36.4075 47.5128C36.4074 47.5128 36.4073 47.5128 36.4071 47.5128C36.407 47.5128 36.4069 47.5128 36.4067 47.5128C36.4066 47.5128 36.4065 47.5128 36.4064 47.5128C36.4062 47.5128 36.4061 47.5128 36.406 47.5128C36.4058 47.5128 36.4057 47.5128 36.4056 47.5128C36.4054 47.5128 36.4053 47.5128 36.4052 47.5128C36.4051 47.5128 36.4049 47.5128 36.4048 47.5128C36.4047 47.5128 36.4045 47.5128 36.4044 47.5128C36.4043 47.5128 36.4042 47.5128 36.404 47.5128C36.4039 47.5128 36.4038 47.5128 36.4036 47.5128C36.4035 47.5128 36.4034 47.5128 36.4032 47.5128C36.4031 47.5128 36.403 47.5128 36.4029 47.5128C36.4027 47.5128 36.4026 47.5128 36.4025 47.5128C36.4023 47.5128 36.4022 47.5128 36.4021 47.5128C36.402 47.5128 36.4018 47.5128 36.4017 47.5128C36.4016 47.5128 36.4014 47.5128 36.4013 47.5128C36.4012 47.5128 36.401 47.5128 36.4009 47.5128C36.4008 47.5128 36.4007 47.5128 36.4005 47.5128C36.4004 47.5128 36.4003 47.5128 36.4001 47.5128C36.4 47.5128 36.3999 47.5128 36.3997 47.5128C36.3996 47.5128 36.3995 47.5128 36.3994 47.5128C36.3992 47.5128 36.3991 47.5128 36.399 47.5128C36.3988 47.5128 36.3987 47.5128 36.3986 47.5128C36.3984 47.5128 36.3983 47.5128 36.3982 47.5128C36.3981 47.5128 36.3979 47.5128 36.3978 47.5128C36.3977 47.5128 36.3975 47.5128 36.3974 47.5128C36.3973 47.5128 36.3971 47.5128 36.397 47.5128C36.3969 47.5128 36.3968 47.5128 36.3966 47.5128C36.3965 47.5128 36.3964 47.5128 36.3962 47.5128C36.3961 47.5128 36.396 47.5128 36.3958 47.5128C36.3957 47.5128 36.3956 47.5128 36.3955 47.5128C36.3953 47.5128 36.3952 47.5128 36.3951 47.5128C36.3949 47.5128 36.3948 47.5128 36.3947 47.5128C36.3945 47.5128 36.3944 47.5128 36.3943 47.5128C36.3942 47.5128 36.394 47.5128 36.3939 47.5128C36.3938 47.5128 36.3936 47.5128 36.3935 47.5128C36.3934 47.5128 36.3932 47.5128 36.3931 47.5128C36.393 47.5128 36.3929 47.5128 36.3927 47.5128C36.3926 47.5128 36.3925 47.5128 36.3923 47.5128C36.3922 47.5128 36.3921 47.5128 36.3919 47.5128C36.3918 47.5128 36.3917 47.5128 36.3916 47.5128C36.3914 47.5128 36.3913 47.5128 36.3912 47.5128C36.391 47.5128 36.3909 47.5128 36.3908 47.5128C36.3906 47.5128 36.3905 47.5128 36.3904 47.5128C36.3903 47.5128 36.3901 47.5128 36.39 47.5128C36.3899 47.5128 36.3897 47.5128 36.3896 47.5128C36.3895 47.5128 36.3893 47.5128 36.3892 47.5128C36.3891 47.5128 36.3889 47.5128 36.3888 47.5128C36.3887 47.5128 36.3886 47.5128 36.3884 47.5128C36.3883 47.5128 36.3882 47.5128 36.388 47.5128C36.3879 47.5128 36.3878 47.5128 36.3876 47.5128C36.3875 47.5128 36.3874 47.5128 36.3873 47.5128C36.3871 47.5128 36.387 47.5128 36.3869 47.5128C36.3867 47.5128 36.3866 47.5128 36.3865 47.5128C36.3863 47.5128 36.3862 47.5128 36.3861 47.5128C36.3859 47.5128 36.3858 47.5128 36.3857 47.5128C36.3856 47.5128 36.3854 47.5128 36.3853 47.5128C36.3852 47.5128 36.385 47.5128 36.3849 47.5128C36.3848 47.5128 36.3846 47.5128 36.3845 47.5128C36.3844 47.5128 36.3843 47.5128 36.3841 47.5128C36.384 47.5128 36.3839 47.5128 36.3837 47.5128C36.3836 47.5128 36.3835 47.5128 36.3833 47.5128C36.3832 47.5128 36.3831 47.5128 36.3829 47.5128C36.3828 47.5128 36.3827 47.5128 36.3825 47.5128C36.3824 47.5128 36.3823 47.5128 36.3822 47.5128C36.382 47.5128 36.3819 47.5128 36.3818 47.5128C36.3816 47.5128 36.3815 47.5128 36.3814 47.5128C36.3812 47.5128 36.3811 47.5128 36.381 47.5128C36.3809 47.5128 36.3807 47.5128 36.3806 47.5128C36.3805 47.5128 36.3803 47.5128 36.3802 47.5128C36.3801 47.5128 36.3799 47.5128 36.3798 47.5128C36.3797 47.5128 36.3795 47.5128 36.3794 47.5128C36.3793 47.5128 36.3792 47.5128 36.379 47.5128C36.3789 47.5128 36.3788 47.5128 36.3786 47.5128C36.3785 47.5128 36.3784 47.5128 36.3782 47.5128C36.3781 47.5128 36.378 47.5128 36.3778 47.5128C36.3777 47.5128 36.3776 47.5128 36.3774 47.5128C36.3773 47.5128 36.3772 47.5128 36.3771 47.5128C36.3769 47.5128 36.3768 47.5128 36.3767 47.5128C36.3765 47.5128 36.3764 47.5128 36.3763 47.5128C36.3761 47.5128 36.376 47.5128 36.3759 47.5128C36.3757 47.5128 36.3756 47.5128 36.3755 47.5128C36.3754 47.5128 36.3752 47.5128 36.3751 47.5128C36.375 47.5128 36.3748 47.5128 36.3747 47.5128C36.3746 47.5128 36.3744 47.5128 36.3743 47.5128C36.3742 47.5128 36.374 47.5128 36.3739 47.5128C36.3738 47.5128 36.3736 47.5128 36.3735 47.5128C36.3734 47.5128 36.3732 47.5128 36.3731 47.5128C36.373 47.5128 36.3729 47.5128 36.3727 47.5128C36.3726 47.5128 36.3725 47.5128 36.3723 47.5128C36.3722 47.5128 36.3721 47.5128 36.3719 47.5128C36.3718 47.5128 36.3717 47.5128 36.3715 47.5128C36.3714 47.5128 36.3713 47.5128 36.3712 47.5128C36.371 47.5128 36.3709 47.5128 36.3708 47.5128C36.3706 47.5128 36.3705 47.5128 36.3704 47.5128C36.3702 47.5128 36.3701 47.5128 36.37 47.5128C36.3698 47.5128 36.3697 47.5128 36.3696 47.5128C36.3694 47.5128 36.3693 47.5128 36.3692 47.5128C36.369 47.5128 36.3689 47.5128 36.3688 47.5128C36.3687 47.5128 36.3685 47.5128 36.3684 47.5128C36.3683 47.5128 36.3681 47.5128 36.368 47.5128C36.3679 47.5128 36.3677 47.5128 36.3676 47.5128C36.3675 47.5128 36.3673 47.5128 36.3672 47.5128C36.3671 47.5128 36.3669 47.5128 36.3668 47.5128C36.3667 47.5128 36.3665 47.5128 36.3664 47.5128C36.3663 47.5128 36.3662 47.5128 36.366 47.5128C36.3659 47.5128 36.3658 47.5128 36.3656 47.5128C36.3655 47.5128 36.3654 47.5128 36.3652 47.5128C36.3651 47.5128 36.365 47.5128 36.3648 47.5128C36.3647 47.5128 36.3646 47.5128 36.3644 47.5128C36.3643 47.5128 36.3642 47.5128 36.364 47.5128C36.3639 47.5128 36.3638 47.5128 36.3637 47.5128C36.3635 47.5128 36.3634 47.5128 36.3633 47.5128C36.3631 47.5128 36.363 47.5128 36.3629 47.5128C36.3627 47.5128 36.3626 47.5128 36.3625 47.5128C36.3623 47.5128 36.3622 47.5128 36.3621 47.5128C36.3619 47.5128 36.3618 47.5128 36.3617 47.5128C36.3615 47.5128 36.3614 47.5128 36.3613 47.5128C36.3611 47.5128 36.361 47.5128 36.3609 47.5128C36.3607 47.5128 36.3606 47.5128 36.3605 47.5128C36.3604 47.5128 36.3602 47.5128 36.3601 47.5128C36.36 47.5128 36.3598 47.5128 36.3597 47.5128C36.3596 47.5128 36.3594 47.5128 36.3593 47.5128C36.3592 47.5128 36.359 47.5128 36.3589 47.5128C36.3588 47.5128 36.3586 47.5128 36.3585 47.5128C36.3584 47.5128 36.3582 47.5128 36.3581 47.5128C36.358 47.5128 36.3578 47.5128 36.3577 47.5128C36.3576 47.5128 36.3574 47.5128 36.3573 47.5128C36.3572 47.5128 36.3571 47.5128 36.3569 47.5128C36.3568 47.5128 36.3567 47.5128 36.3565 47.5128C36.3564 47.5128 36.3563 47.5128 36.3561 47.5128C36.356 47.5128 36.3559 47.5128 36.3557 47.5128C36.3556 47.5128 36.3555 47.5128 36.3553 47.5128C36.3552 47.5128 36.3551 47.5128 36.3549 47.5128C36.3548 47.5128 36.3547 47.5128 36.3545 47.5128C36.3544 47.5128 36.3543 47.5128 36.3541 47.5128C36.354 47.5128 36.3539 47.5128 36.3537 47.5128C36.3536 47.5128 36.3535 47.5128 36.3534 47.5128C36.3532 47.5128 36.3531 47.5128 36.353 47.5128C36.3528 47.5128 36.3527 47.5128 36.3526 47.5128C36.3524 47.5128 36.3523 47.5128 36.3522 47.5128C36.352 47.5128 36.3519 47.5128 36.3518 47.5128C36.3516 47.5128 36.3515 47.5128 36.3514 47.5128C36.3512 47.5128 36.3511 47.5128 36.351 47.5128C36.3508 47.5128 36.3507 47.5128 36.3506 47.5128C36.3504 47.5128 36.3503 47.5128 36.3502 47.5128C36.35 47.5128 36.3499 47.5128 36.3498 47.5128C36.3496 47.5128 36.3495 47.5128 36.3494 47.5128C36.3492 47.5128 36.3491 47.5128 36.349 47.5128V48.0128ZM39.4383 50.3335V47.5394H38.9383V50.3335H39.4383ZM42.6722 45.7674C43.1989 45.0313 43.4683 44.2172 43.4683 43.3369H42.9683C42.9683 44.1082 42.7343 44.8213 42.2656 45.4765L42.6722 45.7674ZM33.8801 38.4755H33.3801V38.9755H33.8801V38.4755ZM33.8801 34.6718V34.1718H33.3801V34.6718H33.8801ZM37.6697 34.8584L37.5168 35.3345L37.52 35.3355L37.6697 34.8584ZM38.5577 35.4777L38.9675 35.1913L38.9656 35.1886L38.5577 35.4777ZM38.5379 37.5733L38.1334 37.2795L38.1315 37.282L38.5379 37.5733ZM37.5707 38.2492L37.4089 37.7761L37.4061 37.7771L37.5707 38.2492ZM35.6929 21.3149V21.8149H35.693L35.6929 21.3149ZM59.7907 78.7328V78.2328H59.2907V78.7328H59.7907ZM59.7907 87.8477V88.3477H60.2907V87.8477H59.7907ZM43.8829 87.8477H43.3829V88.3477H43.8829V87.8477ZM43.8829 78.7328H44.3829V78.2328H43.8829V78.7328ZM8.07127 43.0287L8.36821 43.4309L8.60138 43.2588L8.56792 42.9709L8.07127 43.0287ZM61.6657 30.0649L61.1981 30.2419L61.3751 30.7094L61.8427 30.5325L61.6657 30.0649ZM86.5441 40.2176L86.0914 40.4299L86.1821 40.6232L86.3845 40.6914L86.5441 40.2176ZM83.7557 45.2826L83.6304 45.7667L83.6305 45.7667L83.7557 45.2826ZM81.8184 43.5518L81.3513 43.7301L81.3525 43.7333L81.8184 43.5518ZM61.3801 36.4506L61.1247 36.0207L61.1224 36.0221L61.3801 36.4506ZM57.1889 34.6944L57.6751 34.5776L57.6747 34.5758L57.1889 34.6944ZM13.9112 43.8856L14.4035 43.7979L14.4034 43.7979L13.9112 43.8856ZM12.5735 46.8126L12.3179 46.3829L12.3174 46.3831L12.5735 46.8126ZM43.8857 73.0767V73.5767H44.3857V73.0767H43.8857ZM43.8857 71.5581H44.3857V71.0581H43.8857V71.5581ZM37.9779 71.5581L37.6245 71.2044L36.7705 72.0581H37.9779V71.5581ZM51.8382 57.7034L52.1919 57.35L51.8384 56.9963L51.4848 57.3498L51.8382 57.7034ZM65.69 71.5637V72.0637H66.8966L66.0437 71.2103L65.69 71.5637ZM59.7851 71.5637V71.0637H59.2851V71.5637H59.7851ZM59.7851 73.0767H59.2851V73.5767H59.7851V73.0767ZM77.8563 45.0649L77.3891 45.243V45.243L77.8563 45.0649ZM78.8971 47.7939L78.4299 47.9721L78.4303 47.9732L78.8971 47.7939ZM79.8671 48.6593L79.7415 49.1433L79.7417 49.1433L79.8671 48.6593ZM82.6951 49.3918L82.5698 49.8758L82.5706 49.876L82.6951 49.3918ZM86.6685 51.4704L86.3423 51.8493L86.3481 51.8542L86.6685 51.4704ZM88.668 51.3233L89.0424 51.6547L89.0459 51.6507L88.668 51.3233ZM88.5181 49.3267L88.8454 48.9488L88.844 48.9476L88.5181 49.3267ZM83.3965 46.6514L83.2713 47.1355L83.2715 47.1355L83.3965 46.6514ZM81.2755 46.1027L80.808 46.2803L80.8999 46.522L81.1502 46.5868L81.2755 46.1027ZM80.4977 44.0552L80.9651 43.8777L80.9648 43.8768L80.4977 44.0552ZM62.1097 37.6695L61.8527 37.2406L61.8519 37.2411L62.1097 37.6695ZM61.6176 39.6095L61.1858 39.8617L61.1895 39.8678L61.6176 39.6095ZM63.5633 40.0988L63.8161 40.5302L63.8206 40.5275L63.5633 40.0988ZM68.6171 38.6876V39.1876V38.6876ZM35.5882 37.9755H33.8801V38.9755H35.5882V37.9755ZM34.3801 38.4755V34.6718H33.3801V38.4755H34.3801ZM33.8801 35.1718H35.5882V34.1718H33.8801V35.1718ZM35.5882 35.1718C36.5913 35.1718 37.2122 35.2366 37.5168 35.3345L37.8226 34.3824C37.3523 34.2313 36.5875 34.1718 35.5882 34.1718V35.1718ZM37.52 35.3355C37.8165 35.4285 38.0142 35.5756 38.1498 35.7669L38.9656 35.1886C38.6883 34.7973 38.2977 34.5315 37.8194 34.3813L37.52 35.3355ZM38.1479 35.7642C38.2843 35.9594 38.3631 36.2035 38.3631 36.5298H39.3631C39.3631 36.0303 39.2383 35.5787 38.9675 35.1913L38.1479 35.7642ZM38.3631 36.5298C38.3631 36.8267 38.2837 37.0725 38.1334 37.2795L38.9424 37.8672C39.2276 37.4747 39.3631 37.019 39.3631 36.5298H38.3631ZM38.1315 37.282C37.9879 37.4824 37.7591 37.6563 37.4089 37.7762L37.7325 38.7223C38.242 38.548 38.658 38.2639 38.9442 37.8647L38.1315 37.282ZM37.4061 37.7771C37.0579 37.8985 36.4733 37.9755 35.5882 37.9755V38.9755C36.5018 38.9755 37.2238 38.8997 37.7353 38.7214L37.4061 37.7771ZM53.8467 39.9659C53.8467 49.9895 45.7194 58.1169 35.6929 58.1169V59.1169C46.2716 59.1169 54.8467 50.5418 54.8467 39.9659H53.8467ZM35.6929 58.1169C25.6694 58.1169 17.5447 49.9868 17.5447 39.9659H16.5447C16.5447 50.5388 25.1168 59.1169 35.6929 59.1169V58.1169ZM17.5447 39.9659C17.5447 29.9394 25.6693 21.8149 35.6929 21.8149V20.8149C25.1169 20.8149 16.5447 29.3872 16.5447 39.9659H17.5447ZM35.693 21.8149C45.7193 21.8121 53.8467 29.9394 53.8467 39.9659H54.8467C54.8467 29.3872 46.2716 20.8119 35.6927 20.8149L35.693 21.8149ZM99.5 58.9478C99.5 69.5766 90.8438 78.2328 80.2149 78.2328V79.2328C91.396 79.2328 100.5 70.1289 100.5 58.9478H99.5ZM80.2149 78.2328H59.7907V79.2328H80.2149V78.2328ZM59.2907 78.7328V87.8477H60.2907V78.7328H59.2907ZM59.7907 87.3477H43.8829V88.3477H59.7907V87.3477ZM44.3829 87.8477V78.7328H43.3829V87.8477H44.3829ZM43.8829 78.2328H19.7879V79.2328H43.8829V78.2328ZM19.7879 78.2328C9.1534 78.2328 0.5 69.5766 0.5 58.9478H-0.5C-0.5 70.1289 8.60112 79.2328 19.7879 79.2328V78.2328ZM0.5 58.9478C0.5 52.8306 3.47132 47.0457 8.36821 43.4309L7.77432 42.6264C2.62597 46.4268 -0.5 52.5083 -0.5 58.9478H0.5ZM8.56792 42.9709C8.44846 41.943 8.39027 40.947 8.39027 39.9659H7.39027C7.39027 40.987 7.45086 42.0215 7.57461 43.0864L8.56792 42.9709ZM8.39027 39.9659C8.39027 24.9082 20.6411 12.6548 35.6957 12.6548V11.6548C20.0886 11.6548 7.39027 24.3561 7.39027 39.9659H8.39027ZM35.6957 12.6548C47.166 12.6548 57.2213 19.7362 61.1981 30.2419L62.1333 29.8878C58.0106 18.9965 47.5851 11.6548 35.6957 11.6548V12.6548ZM61.8427 30.5325C64.0067 29.7138 66.3054 29.2894 68.6199 29.2894V28.2894C66.1833 28.2894 63.7648 28.7361 61.4888 29.5972L61.8427 30.5325ZM68.6199 29.2894C76.0904 29.2894 82.9403 33.7113 86.0914 40.4299L86.9968 40.0053C83.683 32.9399 76.4831 28.2894 68.6199 28.2894V29.2894ZM86.3845 40.6914C94.1746 43.3157 99.5 50.6289 99.5 58.9478H100.5C100.5 50.1965 94.8977 42.5041 86.7037 39.7437L86.3845 40.6914ZM94.8439 58.9478C94.8439 52.2887 90.3372 46.4675 83.8808 44.7985L83.6305 45.7667C89.6458 47.3217 93.8439 52.7449 93.8439 58.9478H94.8439ZM83.8809 44.7986C83.1538 44.6104 82.5607 44.08 82.2844 43.3704L81.3525 43.7333C81.7436 44.7375 82.5871 45.4967 83.6304 45.7667L83.8809 44.7986ZM82.2856 43.3736C80.1333 37.7338 74.6454 33.9427 68.6171 33.9427V34.9427C74.229 34.9427 79.3463 38.4763 81.3513 43.7301L82.2856 43.3736ZM68.6171 33.9427C65.9912 33.9427 63.4089 34.6637 61.1247 36.0207L61.6355 36.8805C63.7687 35.6131 66.1751 34.9427 68.6171 34.9427V33.9427ZM61.1224 36.0221C60.4931 36.4007 59.7161 36.4569 59.034 36.1706L58.647 37.0926C59.6221 37.502 60.7343 37.4225 61.6378 36.8791L61.1224 36.0221ZM59.034 36.1706C58.351 35.8838 57.8469 35.2926 57.6751 34.5776L56.7027 34.8112C56.9495 35.8382 57.6727 36.6836 58.647 37.0926L59.034 36.1706ZM57.6747 34.5758C55.1936 24.4086 46.1526 17.3052 35.69 17.3052V18.3052C45.6913 18.3052 54.3313 25.0932 56.7032 34.8129L57.6747 34.5758ZM35.69 17.3052C23.2023 17.3052 13.0407 27.467 13.0407 39.9602H14.0407C14.0407 28.0191 23.7547 18.3052 35.69 18.3052V17.3052ZM13.0407 39.9602C13.0407 41.2379 13.1657 42.5514 13.4189 43.9732L14.4034 43.7979C14.159 42.4256 14.0407 41.1713 14.0407 39.9602H13.0407ZM13.4189 43.9732C13.589 44.9282 13.1512 45.8871 12.3179 46.3829L12.8292 47.2423C14.0208 46.5333 14.6463 45.1619 14.4035 43.7979L13.4189 43.9732ZM12.3174 46.3831C7.83766 49.0546 5.15611 53.7504 5.15611 58.9421H6.15611C6.15611 54.1055 8.6499 49.7346 12.8296 47.242L12.3174 46.3831ZM5.15611 58.9421C5.15611 67.0123 11.7204 73.5767 19.7879 73.5767V72.5767C12.2728 72.5767 6.15611 66.4601 6.15611 58.9421H5.15611ZM19.7879 73.5767H43.8857V72.5767H19.7879V73.5767ZM44.3857 73.0767V71.5581H43.3857V73.0767H44.3857ZM43.8857 71.0581H37.9779V72.0581H43.8857V71.0581ZM38.3314 71.9117L52.1917 58.057L51.4848 57.3498L37.6245 71.2044L38.3314 71.9117ZM51.4846 58.0569L65.3364 71.9172L66.0437 71.2103L52.1919 57.35L51.4846 58.0569ZM65.69 71.0637H59.7851V72.0637H65.69V71.0637ZM59.2851 71.5637V73.0767H60.2851V71.5637H59.2851ZM59.7851 73.5767H80.2121V72.5767H59.7851V73.5767ZM80.2121 73.5767C88.2795 73.5767 94.8439 67.0124 94.8439 58.9478H93.8439C93.8439 66.46 87.7273 72.5767 80.2121 72.5767V73.5767ZM91.5158 57.0337C90.4626 57.0337 89.6018 57.8904 89.6018 58.9478H90.6018C90.6018 58.444 91.0136 58.0337 91.5158 58.0337V57.0337ZM89.6018 58.9478C89.6018 64.1241 85.3913 68.3346 80.2149 68.3346V69.3346C85.9436 69.3346 90.6018 64.6764 90.6018 58.9478H89.6018ZM80.2149 68.3346H71.6827V69.3346H80.2149V68.3346ZM71.6827 68.3346C70.6254 68.3346 69.7687 69.1955 69.7687 70.2487H70.7687C70.7687 69.7465 71.1789 69.3346 71.6827 69.3346V68.3346ZM69.7687 70.2487C69.7687 71.3054 70.626 72.1627 71.6827 72.1627V71.1627C71.1783 71.1627 70.7687 70.7531 70.7687 70.2487H69.7687ZM71.6827 72.1627H80.2149V71.1627H71.6827V72.1627ZM80.2149 72.1627C87.502 72.1627 93.4299 66.2289 93.4299 58.9478H92.4299C92.4299 65.6769 86.9494 71.1627 80.2149 71.1627V72.1627ZM93.4299 58.9478C93.4299 57.8883 92.5754 57.0337 91.5158 57.0337V58.0337C92.0231 58.0337 92.4299 58.4405 92.4299 58.9478H93.4299ZM77.3891 45.243L78.4299 47.9721L79.3642 47.6158L78.3235 44.8867L77.3891 45.243ZM78.4303 47.9732C78.6521 48.5507 79.1382 48.9867 79.7415 49.1433L79.9927 48.1753C79.7023 48.1 79.47 47.8912 79.3638 47.6146L78.4303 47.9732ZM79.7417 49.1433L82.5698 49.8758L82.8205 48.9077L79.9924 48.1753L79.7417 49.1433ZM82.5706 49.876C83.9575 50.2328 85.2602 50.9176 86.3423 51.8493L86.9948 51.0915C85.7975 50.0605 84.357 49.303 82.8197 48.9075L82.5706 49.876ZM86.3481 51.8542C86.7097 52.1562 87.1476 52.3154 87.5962 52.3154V51.3154C87.3885 51.3154 87.176 51.2427 86.989 51.0866L86.3481 51.8542ZM87.5962 52.3154C88.1373 52.3154 88.666 52.08 89.0424 51.6547L88.2935 50.992C88.1043 51.2058 87.8469 51.3154 87.5962 51.3154V52.3154ZM89.0459 51.6507C89.7414 50.8477 89.642 49.6386 88.8454 48.9488L88.1908 49.7047C88.5763 50.0386 88.6183 50.6169 88.29 50.996L89.0459 51.6507ZM88.844 48.9476C87.3155 47.6336 85.4792 46.6729 83.5215 46.1673L83.2715 47.1355C85.0807 47.6028 86.7795 48.4916 88.1922 49.7059L88.844 48.9476ZM83.5217 46.1673L81.4007 45.6187L81.1502 46.5868L83.2713 47.1355L83.5217 46.1673ZM81.7429 45.9252L80.9651 43.8777L80.0303 44.2328L80.808 46.2803L81.7429 45.9252ZM80.9648 43.8768C79.0189 38.7828 74.057 35.3595 68.6171 35.3595V36.3595C73.6409 36.3595 78.2322 39.5256 80.0307 44.2337L80.9648 43.8768ZM68.6171 35.3595C66.2492 35.3595 63.9065 36.0095 61.8527 37.2406L62.3668 38.0983C64.2666 36.9596 66.4318 36.3595 68.6171 36.3595V35.3595ZM61.8519 37.2411C60.9481 37.7849 60.656 38.9543 61.1859 39.8617L62.0494 39.3574C61.7931 38.9186 61.9365 38.3573 62.3675 38.0979L61.8519 37.2411ZM61.1895 39.8678C61.737 40.7752 62.907 41.0628 63.8161 40.5302L63.3106 39.6674C62.8679 39.9267 62.3071 39.7844 62.0458 39.3512L61.1895 39.8678ZM63.8206 40.5275C65.2852 39.6488 66.947 39.1876 68.6171 39.1876V38.1876C66.7634 38.1876 64.924 38.6993 63.3061 39.67L63.8206 40.5275ZM68.6171 39.1876C72.4758 39.1876 76.0092 41.624 77.3891 45.243L78.3235 44.8867C76.7962 40.8813 72.8919 38.1876 68.6171 38.1876V39.1876Z" fill="black" mask="url(#path-1-inside-1_45_327)"/>
<path d="M54.5 40C54.5 50.7816 45.9816 59.5 35.5 59.5C25.0184 59.5 16.5 50.7816 16.5 40C16.5 29.2184 25.0184 20.5 35.5 20.5C45.9816 20.5 54.5 29.2184 54.5 40Z" fill="#4FCFBD" stroke="black"/>
<path d="M32.2015 31.6959V29M37.8034 31.6959V29M37.8034 31.6959H28M37.8034 31.6959C40.1239 31.6959 42.0049 33.5065 42.0049 35.7399C42.0049 37.9733 40.1239 39.7838 37.8034 39.7838M30.801 47.8716V39.7838M30.801 39.7838V31.6959M30.801 39.7838H39.2039C41.5244 39.7838 43.4054 41.5942 43.4054 43.8277C43.4054 46.0612 41.5244 47.8716 39.2039 47.8716H28M32.2015 50.5676V47.8716M37.8034 50.5676V47.8716" stroke="black" stroke-linecap="round" stroke-linejoin="round"/>
</g>
<defs>
<clipPath id="clip0_45_327">
<rect width="100" height="100" fill="white"/>
</clipPath>
</defs>
</svg>
