<svg width="100" height="100" viewBox="0 0 100 100" fill="none" xmlns="http://www.w3.org/2000/svg">
<path d="M25.9374 39.3555L25.9051 39.1597L25.7071 39.1467C25.4189 39.1276 25.0121 38.9209 24.5217 38.1917C24.0336 37.466 23.4917 36.2635 22.9255 34.351L22.9252 34.3501C22.1436 31.7472 22.1941 30.3334 22.5451 29.5974C22.7152 29.2408 22.9582 29.0379 23.2299 28.9258C23.5083 28.811 23.8307 28.7862 24.1569 28.815L24.5506 28.8497L24.4133 28.4792C24.1564 27.7854 23.9552 27.0761 23.8275 26.3862L23.8275 26.3862L23.8264 26.3807C23.3267 23.9845 23.2027 21.7707 23.7853 19.6543L23.7854 19.6543L23.7868 19.6486C24.5004 16.7955 26.1118 14.524 27.9546 12.7477L27.9546 12.7477L27.9583 12.744C29.1188 11.5776 30.4274 10.5673 31.8287 9.7309L31.8287 9.73101L31.8353 9.72678C32.9788 8.99473 34.2279 8.35309 35.583 7.9203C36.648 7.59068 37.7836 7.36605 38.9718 7.31422L38.9718 7.31443L38.9819 7.31358C42.6985 7.00059 45.5047 7.88712 47.5179 9.01132L47.5178 9.01141L47.5242 9.01474C49.0351 9.80223 50.0718 10.7138 50.7293 11.4255C51.0581 11.7814 51.292 12.0872 51.4428 12.3025C51.5182 12.41 51.5728 12.4949 51.608 12.552C51.6256 12.5806 51.6384 12.6022 51.6465 12.6162L51.6553 12.6314L51.6571 12.6346L51.6571 12.6347L51.6572 12.6349L51.6573 12.635L51.6573 12.635L51.7229 12.755L51.859 12.7642L51.8592 12.7642L51.8596 12.7642L51.8608 12.7643L51.8718 12.7654C51.8824 12.7664 51.8991 12.7682 51.9217 12.7712C51.9668 12.7773 52.0349 12.7879 52.122 12.8062C52.2964 12.8429 52.5464 12.9099 52.8409 13.031C53.4292 13.2728 54.1959 13.7303 54.8947 14.5946C56.2892 16.3195 57.4562 19.7222 56.2778 26.4227C56.1503 27.1112 55.9493 27.8028 55.6915 28.5163L55.5584 28.8847L55.9486 28.8503C56.2743 28.8216 56.5951 28.8473 56.8718 28.9631C57.1419 29.0761 57.3837 29.2803 57.553 29.6385C57.9024 30.3775 57.9524 31.792 57.1802 34.3857C56.614 36.2804 56.0722 37.4742 55.5842 38.1955C55.0938 38.9205 54.6869 39.1276 54.3984 39.1467L54.2005 39.1597L54.1682 39.3553C53.4346 43.7922 49.6818 49.4409 43.8078 51.4359L43.8075 51.436C41.3775 52.2648 38.6901 52.265 36.2591 51.4531L36.2586 51.453C30.2957 49.4763 26.6715 43.8134 25.9374 39.3555Z" fill="#599FCF" stroke="black" stroke-width="0.5"/>
<path d="M38.6359 65.8348L38.6833 65.7064L38.6007 65.5973C36.9544 63.4236 36.1833 61.7928 35.9497 60.5771C35.7186 59.3749 36.0128 58.5852 36.5063 58.0511C37.012 57.5038 37.756 57.1934 38.4726 57.0222C39.1852 56.8519 39.8407 56.8262 40.1372 56.8262H40.1558H40.1745H40.1932H40.21C40.5096 56.8305 41.1644 56.8598 41.8761 57.0317C42.5934 57.2049 43.3383 57.5159 43.8454 58.0625C44.3401 58.5959 44.6356 59.3829 44.4072 60.5799C44.1761 61.7906 43.4086 63.4147 41.7671 65.5796L41.6851 65.6877L41.7311 65.8154L41.871 66.2038C41.293 66.0774 40.6872 66.0098 40.0812 66.0098C39.5469 66.0098 39.0247 66.0638 38.5147 66.1632L38.6359 65.8348Z" fill="#599FCF" stroke="black" stroke-width="0.5"/>
<path d="M46.5651 69.1334L52.3136 51.976C52.4671 52.0662 52.6851 52.1924 52.9651 52.3495C53.5679 52.6878 54.4579 53.1698 55.6095 53.746C57.9127 54.8985 61.2626 56.4283 65.4539 57.9402L65.4539 57.9402L65.4573 57.9414C69.3218 59.2725 71.4019 61.2923 72.5604 64.1659L66.2629 70.1173L65.2737 71.0522L62.8474 73.3452L56.9346 78.9331L48.5954 71.0522L46.5651 69.1334Z" fill="#599FCF" stroke="black" stroke-width="0.5"/>
<path d="M28.0534 51.9936L33.7458 68.9746L20.7946 81.2142H6.25343C6.26385 80.4316 6.27197 79.6712 6.27985 78.9325C6.33855 73.434 6.38441 69.1371 7.27503 65.8084C7.7839 63.9065 8.56577 62.3358 9.77538 61.0478C10.9854 59.7592 12.6374 58.7386 14.9093 57.9591L14.9093 57.9591L14.913 57.9578C19.1043 56.4459 22.4542 54.9161 24.7574 53.7636C25.909 53.1874 26.799 52.7054 27.4018 52.3671C27.6818 52.2099 27.8999 52.0838 28.0534 51.9936Z" fill="#599FCF" stroke="black" stroke-width="0.5"/>
<path d="M78.3067 56.9478L78.081 56.8404L78.3067 56.9478C78.4447 56.6579 78.6298 56.5213 78.8436 56.4453C79.0685 56.3654 79.3269 56.3507 79.6336 56.3332L79.6599 56.3316C79.6604 56.3316 79.6609 56.3316 79.6614 56.3316C83.6345 56.1553 87.6263 55.979 91.618 55.8027H91.6181H91.6186H91.619H91.6194H91.6199H91.6203H91.6207H91.6212H91.6216H91.622H91.6224H91.6229H91.6233H91.6237H91.6242H91.6246H91.625H91.6254H91.6259H91.6263H91.6267H91.6271H91.6275H91.628H91.6284H91.6288H91.6292H91.6297H91.6301H91.6305H91.6309H91.6313H91.6318H91.6322H91.6326H91.633H91.6334H91.6339H91.6343H91.6347H91.6351H91.6355H91.6359H91.6363H91.6368H91.6372H91.6376H91.638H91.6384H91.6388H91.6392H91.6397H91.6401H91.6405H91.6409H91.6413H91.6417H91.6421H91.6425H91.6429H91.6433H91.6438H91.6442H91.6446H91.645H91.6454H91.6458H91.6462H91.6466H91.647H91.6474H91.6478H91.6482H91.6486H91.649H91.6494H91.6498H91.6502H91.6506H91.651H91.6514H91.6518H91.6522H91.6526H91.653H91.6535H91.6538H91.6542H91.6546H91.655H91.6554H91.6558H91.6562H91.6566H91.657H91.6574H91.6578H91.6582H91.6586H91.659H91.6594H91.6598H91.6602H91.6606H91.661H91.6614H91.6618H91.6622H91.6625H91.6629H91.6633H91.6637H91.6641H91.6645H91.6649H91.6653H91.6657H91.6661H91.6665H91.6668H91.6672H91.6676H91.668H91.6684H91.6688H91.6692H91.6695H91.6699H91.6703H91.6707H91.6711H91.6715H91.6719H91.6722H91.6726H91.673H91.6734H91.6738H91.6742H91.6745H91.6749H91.6753H91.6757H91.6761H91.6765H91.6768H91.6772H91.6776H91.678H91.6784H91.6787H91.6791H91.6795H91.6799H91.6802H91.6806H91.681H91.6814H91.6817H91.6821H91.6825H91.6829H91.6833H91.6836H91.684H91.6844H91.6848H91.6851H91.6855H91.6859H91.6862H91.6866H91.687H91.6874H91.6877H91.6881H91.6885H91.6889H91.6892H91.6896H91.69H91.6903H91.6907H91.6911H91.6915H91.6918H91.6922H91.6926H91.6929H91.6933H91.6937H91.694H91.6944H91.6948H91.6951H91.6955H91.6959H91.6962H91.6966H91.697H91.6973H91.6977H91.6981H91.6984H91.6988H91.6992H91.6995H91.6999H91.7002H91.7006H91.701H91.7013H91.7017H91.7021H91.7024H91.7028H91.7031H91.7035H91.7039H91.7042H91.7046H91.7049H91.7053H91.7057H91.706H91.7064H91.7067H91.7071H91.7075H91.7078H91.7082H91.7085H91.7089H91.7093H91.7096H91.71H91.7103H91.7107H91.711H91.7114H91.7118H91.7121H91.7125H91.7128H91.7132H91.7135H91.7139H91.7142H91.7146H91.715H91.7153H91.7157H91.716H91.7164H91.7167H91.7171H91.7174H91.7178H91.7181H91.7185H91.7188H91.7192H91.7195H91.7199H91.7202H91.7206H91.7209H91.7213H91.7216H91.722H91.7223H91.7227H91.723H91.7234H91.7237H91.7241H91.7244H91.7248H91.7251H91.7255H91.7258H91.7262H91.7265H91.7269H91.7272H91.7276H91.7279H91.7283H91.7286H91.729H91.7293H91.7297H91.73H91.7303H91.7307H91.731H91.7314H91.7317H91.7321H91.7324H91.7328H91.7331H91.7334H91.7338H91.7341H91.7345H91.7348H91.7352H91.7355H91.7359H91.7362H91.7365H91.7369H91.7372H91.7376H91.7379H91.7383H91.7386H91.7389H91.7393H91.7396H91.74H91.7403H91.7406H91.741H91.7413H91.7417H91.742H91.7423H91.7427H91.743H91.7434H91.7437H91.744H91.7444H91.7447H91.7451H91.7454H91.7457H91.7461H91.7464H91.7468H91.7471H91.7474H91.7478H91.7481H91.7484H91.7488H91.7491H91.7495H91.7498H91.7501H91.7505H91.7508H91.7511H91.7515H91.7518H91.7522H91.7525H91.7528H91.7532H91.7535H91.7538H91.7542H91.7545H91.7548H91.7552H91.7555H91.7559H91.7562H91.7565H91.7569H91.7572H91.7575H91.7579H91.7582H91.7585H91.7589H91.7592H91.7595H91.7599H91.7602H91.7605H91.7609H91.7612H91.7615H91.7619H91.7622H91.7625H91.7629H91.7632H91.7635H91.7639H91.7642H91.7645H91.7649H91.7652H91.7655H91.7659H91.7662H91.7665H91.7669H91.7672H91.7675H91.7679H91.7682H91.7685H91.7689H91.7692H91.7695H91.7698H91.7702H91.7705H91.7708H91.7712H91.7715H91.7718H91.7722H91.7725H91.7728H91.7732H91.7735H91.7738H91.7741H91.7745H91.7748H91.7751H91.7755H91.7758H91.7761H91.7765H91.7768H91.7771H91.7775H91.7778H91.7781H91.7784H91.7788H91.7791H91.7794H91.7798H91.7801H91.7804H91.7807H91.7811H91.7814H91.7817H91.7821H91.7824H91.7827H91.7831H91.7834H91.7837H91.784H91.7844H91.7847H91.785H91.7854H91.7857H91.786H91.7863H91.7867H91.787H91.7873H91.7877H91.788H91.7883H91.7886H91.789H91.7893H91.7896H91.79H91.7903H91.7906H91.7909H91.7913H91.7916H91.7919H91.7923H91.7926H91.7929H91.7932H91.7936H91.7939H91.7942H91.7945H91.7949H91.7952H91.7955H91.7959H91.7962H91.7965H91.7968H91.7972H91.7975H91.7978H91.7982H91.7985H91.7988H91.7991C92.3504 55.8027 92.6787 55.9216 92.8686 56.1157C93.0569 56.308 93.1624 56.629 93.1359 57.1631L93.1116 57.6434C92.9331 61.1678 92.7553 64.6782 92.5946 68.2048C92.5765 68.5287 92.5321 68.807 92.4202 69.0427C92.3122 69.2702 92.1342 69.4724 91.8197 69.6332C91.6182 69.728 91.4513 69.7664 91.3325 69.7664C91.1637 69.7664 91.011 69.707 90.8534 69.6015C90.701 69.4994 90.5592 69.3652 90.3994 69.2139L90.3657 69.1821L90.3653 69.1817L86.7631 65.795L86.5914 65.6336L86.4201 65.7955L85.0763 67.0655L74.0271 77.5075L73.0379 78.4424L70.6116 80.7354L59.2451 91.4774L58.5952 92.0916C58.5946 92.0921 58.5941 92.0926 58.5935 92.0932C58.1184 92.5254 57.5077 92.7496 56.8972 92.7496C56.2819 92.7496 55.6737 92.54 55.2025 92.0947L54.5492 91.4774L52.1229 89.1843L40.7564 78.4424L40.1965 77.9132L40.0248 77.751L39.853 77.9132L27.93 89.1813C27.9294 89.1818 27.9289 89.1823 27.9283 89.1828C27.4532 89.615 26.8424 89.8392 26.2319 89.8392C25.6167 89.8392 25.0084 89.6296 24.5372 89.1843L23.8856 88.5685C23.8854 88.5683 23.8851 88.568 23.8848 88.5678C22.9604 87.6774 22.963 86.273 23.884 85.4026L37.6768 72.3677L38.3283 71.7519C38.8035 71.3197 39.4142 71.0954 40.0248 71.0954C40.64 71.0954 41.2483 71.305 41.7195 71.7503L42.3727 72.3677L44.799 74.6607L56.1655 85.4026L56.7254 85.9318L56.8972 86.0941L57.0689 85.9318L66.5689 76.9537L68.9953 74.6607L69.9845 73.7259L81.0337 63.2838L82.3961 61.9962L82.5913 61.8117L82.3934 61.6302C81.5622 60.8681 80.7573 60.0997 79.9476 59.3266C79.5414 58.9388 79.1339 58.5498 78.7213 58.1599C78.5089 57.9499 78.3463 57.7844 78.2619 57.5989C78.1881 57.4367 78.1672 57.2408 78.3067 56.9478Z" fill="#4FCFBD" stroke="black" stroke-width="0.5"/>
<path d="M75 48.6665V49.8332V50.9998" fill="white"/>
<path d="M75 48.6665V49.8332V50.9998" stroke="black" stroke-width="4" stroke-linecap="round"/>
<path d="M75 23V24.1667V25.3333" fill="white"/>
<path d="M75 23V24.1667V25.3333" stroke="black" stroke-width="4" stroke-linecap="round"/>
<path d="M82 31.1668C82 27.9452 78.8661 25.3335 75 25.3335C71.1339 25.3335 68 27.9452 68 31.1668C68 34.3885 71.1339 37.0002 75 37.0002C78.8661 37.0002 82 39.6119 82 42.8335C82 46.0551 78.8661 48.6668 75 48.6668C71.1339 48.6668 68 46.0551 68 42.8335" stroke="black" stroke-width="4" stroke-linecap="round"/>
<path d="M75 48.6665V49.8332V50.9998" fill="white"/>
<path d="M75 48.6665V49.8332V50.9998" stroke="#4FCFBD" stroke-width="3" stroke-linecap="round"/>
<path d="M75 23V24.1667V25.3333" fill="white"/>
<path d="M75 23V24.1667V25.3333" stroke="#4FCFBD" stroke-width="3" stroke-linecap="round"/>
<path d="M82 31.1668C82 27.9452 78.8661 25.3335 75 25.3335C71.1339 25.3335 68 27.9452 68 31.1668C68 34.3885 71.1339 37.0002 75 37.0002C78.8661 37.0002 82 39.6119 82 42.8335C82 46.0551 78.8661 48.6668 75 48.6668C71.1339 48.6668 68 46.0551 68 42.8335" stroke="#4FCFBD" stroke-width="3" stroke-linecap="round"/>
</svg>
