<svg width="88" height="86" viewBox="0 0 88 86" fill="none" xmlns="http://www.w3.org/2000/svg">
<path d="M19.9374 32.3555L19.9051 32.1597L19.7071 32.1467C19.4189 32.1276 19.0121 31.9209 18.5217 31.1917C18.0336 30.466 17.4917 29.2635 16.9255 27.351L16.9252 27.3501C16.1436 24.7472 16.1941 23.3334 16.5451 22.5974C16.7152 22.2408 16.9582 22.0379 17.2299 21.9258C17.5083 21.811 17.8307 21.7862 18.1569 21.815L18.5506 21.8497L18.4133 21.4792C18.1564 20.7854 17.9552 20.0761 17.8275 19.3862L17.8275 19.3862L17.8264 19.3807C17.3267 16.9845 17.2027 14.7707 17.7853 12.6543L17.7854 12.6543L17.7868 12.6486C18.5004 9.79553 20.1118 7.52403 21.9546 5.74771L21.9546 5.74775L21.9583 5.74405C23.1188 4.57763 24.4274 3.56731 25.8287 2.7309L25.8287 2.73101L25.8353 2.72678C26.9788 1.99473 28.2279 1.35309 29.583 0.920302C30.648 0.590677 31.7836 0.36605 32.9718 0.314222L32.9718 0.314426L32.9819 0.313578C36.6985 0.000588318 39.5047 0.887121 41.5179 2.01132L41.5178 2.01141L41.5242 2.01474C43.0351 2.80223 44.0718 3.71382 44.7293 4.42549C45.0581 4.78139 45.292 5.08725 45.4428 5.30245C45.5182 5.41004 45.5728 5.49493 45.608 5.55202C45.6256 5.58057 45.6384 5.60216 45.6465 5.61616L45.6553 5.63138L45.6571 5.63457L45.6571 5.63473L45.6572 5.63488L45.6573 5.63497L45.6573 5.63503L45.7229 5.75495L45.859 5.76419L45.8592 5.7642L45.8596 5.76423L45.8608 5.76434L45.8718 5.76536C45.8824 5.7664 45.8991 5.76824 45.9217 5.77125C45.9668 5.77726 46.0349 5.78794 46.122 5.80625C46.2964 5.84288 46.5464 5.90994 46.8409 6.03101C47.4292 6.2728 48.1959 6.73027 48.8947 7.59459C50.2892 9.31946 51.4562 12.7222 50.2778 19.4227C50.1503 20.1112 49.9493 20.8028 49.6915 21.5163L49.5584 21.8847L49.9486 21.8503C50.2743 21.8216 50.5951 21.8473 50.8718 21.9631C51.1419 22.0761 51.3837 22.2803 51.553 22.6385C51.9024 23.3775 51.9524 24.792 51.1802 27.3857C50.614 29.2804 50.0722 30.4742 49.5842 31.1955C49.0938 31.9205 48.6869 32.1276 48.3984 32.1467L48.2005 32.1597L48.1682 32.3553C47.4346 36.7922 43.6818 42.4409 37.8078 44.4359L37.8075 44.436C35.3775 45.2648 32.6901 45.265 30.2591 44.4531L30.2586 44.453C24.2957 42.4763 20.6715 36.8134 19.9374 32.3555Z" fill="#599FCF" stroke="black" stroke-width="0.5"/>
<path d="M32.6359 58.8348L32.6833 58.7064L32.6007 58.5973C30.9544 56.4236 30.1833 54.7928 29.9497 53.5771C29.7186 52.3749 30.0128 51.5852 30.5063 51.0511C31.012 50.5038 31.756 50.1934 32.4726 50.0222C33.1852 49.8519 33.8407 49.8262 34.1372 49.8262H34.1558H34.1745H34.1932H34.21C34.5096 49.8305 35.1644 49.8598 35.8761 50.0317C36.5934 50.2049 37.3383 50.5159 37.8454 51.0625C38.3401 51.5959 38.6356 52.3829 38.4072 53.5799C38.1761 54.7906 37.4086 56.4147 35.7671 58.5796L35.6851 58.6877L35.7311 58.8154L35.871 59.2038C35.293 59.0774 34.6872 59.0098 34.0812 59.0098C33.5469 59.0098 33.0247 59.0638 32.5147 59.1632L32.6359 58.8348Z" fill="#599FCF" stroke="black" stroke-width="0.5"/>
<path d="M40.5651 62.1334L46.3136 44.976C46.4671 45.0662 46.6851 45.1924 46.9651 45.3495C47.5679 45.6878 48.4579 46.1698 49.6095 46.746C51.9127 47.8985 55.2626 49.4283 59.4539 50.9402L59.4539 50.9402L59.4573 50.9414C63.3218 52.2725 65.4019 54.2923 66.5604 57.1659L60.2629 63.1173L59.2737 64.0522L56.8474 66.3452L50.9346 71.9331L42.5954 64.0522L40.5651 62.1334Z" fill="#599FCF" stroke="black" stroke-width="0.5"/>
<path d="M22.0534 44.9936L27.7458 61.9746L14.7946 74.2142H0.253426C0.263853 73.4316 0.27197 72.6712 0.279855 71.9325C0.338547 66.434 0.384412 62.1371 1.27503 58.8084C1.7839 56.9065 2.56577 55.3358 3.77538 54.0478C4.98542 52.7592 6.63741 51.7386 8.90929 50.9591L8.9093 50.9591L8.91298 50.9578C13.1043 49.4459 16.4542 47.9161 18.7574 46.7636C19.909 46.1874 20.799 45.7054 21.4018 45.3671C21.6818 45.2099 21.8999 45.0838 22.0534 44.9936Z" fill="#599FCF" stroke="black" stroke-width="0.5"/>
<path d="M61.9598 36.5135C61.7184 37.2506 61.4956 37.9876 61.2914 38.7245L61.2905 38.7278L61.2905 38.7278C61.2165 38.9813 61.172 39.1688 61.1572 39.3172C61.1428 39.4621 61.1586 39.5526 61.1907 39.6213C61.2231 39.6908 61.285 39.7653 61.4122 39.8547C61.5413 39.9456 61.7223 40.0414 61.9757 40.159C63.2337 40.7274 64.5891 41.0403 65.977 41.2502C66.2488 41.2894 66.4736 41.3245 66.6502 41.3735C66.8286 41.4231 66.9908 41.4954 67.1117 41.6311C67.2331 41.7674 67.2847 41.9359 67.3112 42.116C67.3373 42.2937 67.343 42.5157 67.3476 42.7808L67.3477 42.7852H67.3477C67.3477 43.28 67.3477 43.7689 67.3661 44.2394L67.3665 44.2492H67.3663C67.3663 44.5171 67.4348 44.6876 67.538 44.7935C67.6412 44.8993 67.8166 44.9792 68.1119 44.987C68.112 44.987 68.112 44.987 68.1121 44.987L68.1055 45.237C68.8708 45.2546 69.636 45.2546 70.4012 45.237L61.9598 36.5135ZM61.9598 36.5135C62.0281 36.3072 62.0885 36.1639 62.1484 36.0663C62.2067 35.9713 62.2533 35.9379 62.2878 35.9238C62.3234 35.9094 62.3841 35.9 62.5002 35.9272C62.618 35.9546 62.7705 36.0143 62.9749 36.113C62.9753 36.1132 62.9757 36.1134 62.9761 36.1136L63.0849 35.8885L61.9598 36.5135ZM69.6049 21.6512L69.6049 21.6513C71.4153 21.5613 73.1543 21.8676 74.7987 22.6265C74.9927 22.716 75.1388 22.7684 75.2523 22.7911C75.3634 22.8134 75.4268 22.8039 75.4677 22.7873C75.5545 22.752 75.6599 22.6346 75.8018 22.2419C75.9948 21.67 76.1693 21.092 76.346 20.5069C76.4238 20.2492 76.502 19.9901 76.5824 19.7296C76.6538 19.4889 76.6354 19.3275 76.5727 19.209C76.5074 19.0854 76.3696 18.9622 76.109 18.8507C75.0985 18.4342 74.0555 18.1234 72.9604 17.9682L72.9596 17.9681C72.6004 17.9158 72.3121 17.8732 72.0913 17.8161C71.8705 17.759 71.676 17.6781 71.5356 17.5216C71.3935 17.3632 71.3391 17.1638 71.3141 16.9455C71.2897 16.7328 71.2897 16.4618 71.2897 16.131V16.1155C71.2897 15.6196 71.2893 15.2701 71.2591 15.0131C71.2288 14.7555 71.1735 14.6466 71.1099 14.5871C71.0433 14.5247 70.9201 14.4714 70.6417 14.4445C70.3666 14.418 69.9939 14.4208 69.4701 14.4253L69.468 14.4253L69.4663 14.4253H69.4645H69.4628H69.461H69.4593H69.4575H69.4558H69.454H69.4523H69.4505H69.4488H69.447H69.4453H69.4435H69.4418H69.44H69.4383H69.4365H69.4348H69.433H69.4313H69.4295H69.4278H69.426H69.4243H69.4225H69.4208H69.419H69.4173H69.4155H69.4138H69.412H69.4103H69.4085H69.4068H69.405H69.4033H69.4015H69.3998H69.398H69.3963H69.3945H69.3928H69.391H69.3893H69.3875H69.3858H69.384H69.3823H69.3805H69.3788H69.377H69.3753H69.3735H69.3718H69.37H69.3683H69.3665H69.3648H69.363H69.3613H69.3595H69.3578H69.356H69.3543H69.3525H69.3508H69.349H69.3473H69.3455H69.3438H69.342H69.3403H69.3385H69.3368H69.335H69.3333H69.3315H69.3298H69.328H69.3263H69.3245H69.3228H69.321H69.3193H69.3175H69.3158H69.314H69.3123H69.3105H69.3088H69.307H69.3053H69.3035H69.3018H69.3H69.2983H69.2965H69.2948H69.293H69.2913H69.2895H69.2878H69.286H69.2843H69.2825H69.2808H69.279H69.2773H69.2755H69.2738H69.272H69.2703H69.2685H69.2668H69.265H69.2633H69.2615H69.2598H69.258H69.2563H69.2545H69.2528H69.251H69.2493H69.2475H69.2458H69.244H69.2423H69.2405H69.2388H69.237H69.2353H69.2335H69.2318H69.23H69.2283H69.2265H69.2248H69.223H69.2213H69.2195H69.2178H69.216H69.2143H69.2125H69.2108H69.209H69.2073H69.2055H69.2038H69.202H69.2003H69.1985H69.1968H69.195H69.1933H69.1915H69.1898H69.188H69.1863H69.1846H69.1828H69.1811H69.1793H69.1776H69.1758H69.1741H69.1723H69.1706H69.1688H69.1671H69.1653H69.1636H69.1618H69.1601H69.1583H69.1566H69.1548H69.1531H69.1513H69.1496H69.1478H69.1461H69.1443H69.1426H69.1408H69.1391H69.1373H69.1356H69.1338H69.1321H69.1303H69.1286H69.1268H69.1251H69.1233H69.1216H69.1198H69.1181H69.1163H69.1146H69.1128H69.1111H69.1093H69.1076H69.1058H69.1041H69.1023H69.1006H69.0988H69.0971H69.0953H69.0936H69.0918H69.0901H69.0883H69.0866H69.0848H69.0831H69.0813H69.0796H69.0778H69.0761H69.0743H69.0726H69.0708H69.0691H69.0673H69.0656H69.0638H69.0621H69.0603H69.0586H69.0568H69.0551H69.0533H69.0516H69.0498H69.0481H69.0463H69.0446H69.0428H69.0411H69.0393H69.0376H69.0358H69.0341H69.0323H69.0306H69.0288H69.0271H69.0253H69.0236H69.0218H69.0201H69.0183H69.0166H69.0148H69.0131H69.0113H69.0096H69.0078H69.0061H69.0043H69.0026H69.0008H68.9991H68.9973H68.9956H68.9938H68.9921H68.9903H68.9886H68.9868H68.9851H68.9833H68.9816H68.9798H68.9781H68.9763H68.9746H68.9728H68.9711H68.9693H68.9676H68.9658H68.9641H68.9623H68.9606H68.9588H68.9571H68.9553H68.9536H68.9518H68.9501H68.9483H68.9466H68.9448H68.9431H68.9413H68.9396H68.9378H68.9361H68.9343H68.9326H68.9308H68.9291H68.9273H68.9256H68.9238H68.9221H68.9203H68.9186H68.9168H68.9151H68.9133H68.9116H68.9098H68.9081H68.9063H68.9046H68.9028H68.9011H68.8993H68.8976H68.8958H68.8941H68.8923H68.8906H68.8888H68.8871H68.8853H68.8836H68.8818H68.8801H68.8783H68.8766H68.8748H68.8731H68.8713H68.8696H68.8678H68.8661H68.8643H68.8626H68.8608H68.8591H68.8573H68.8556H68.8538H68.8521H68.8503H68.8486H68.8468H68.8451H68.8433H68.8416H68.8398H68.8381H68.8363H68.8346H68.8328H68.8311H68.8293H68.8276H68.8258H68.8241H68.8223H68.8206H68.8189H68.8171H68.8154H68.8136H68.8119H68.8101H68.8084H68.8066H68.8049H68.8031H68.8014H68.7996H68.7979H68.7961H68.7944H68.7926H68.7909H68.7891H68.7874H68.7856H68.7839H68.7821H68.7804H68.7786H68.7769H68.7751H68.7734H68.7716H68.7699H68.7681H68.7664H68.7646H68.7629H68.7611H68.7594H68.7576H68.7559H68.7541H68.7524H68.7506H68.7489H68.7471H68.7454H68.7436H68.7419H68.7401H68.7384H68.7366H68.7349H68.7331H68.7314H68.7296H68.7279H68.7261H68.7244H68.7226H68.7209H68.7191H68.7174H68.7156H68.7139H68.7121H68.7104H68.7086H68.7069H68.7051H68.7034H68.7016H68.6999H68.6981H68.6964H68.6946H68.6929H68.6911H68.6894H68.6876H68.6859H68.6841H68.6824H68.6806H68.6789H68.6771H68.6754H68.6736H68.6719H68.6701H68.6684H68.6666H68.6649H68.6631H68.6614H68.6596H68.6579H68.6561H68.6544H68.6526H68.6509H68.6491H68.6474H68.6456H68.6439H68.6421H68.6404H68.6386H68.6369H68.6351H68.6334H68.6316H68.6299H68.6281H68.6264H68.6246H68.6229H68.6211H68.6194H68.6176H68.6159H68.6141H68.6124H68.6106H68.6089H68.6071H68.6054H68.6036H68.6019H68.6001H68.5984H68.5966H68.5949H68.5931H68.5914H68.5896H68.5879H68.5861H68.5844H68.5826H68.5809H68.5791H68.5774H68.5767C68.3386 14.434 68.166 14.449 68.0371 14.4768C67.9092 14.5043 67.8456 14.54 67.8083 14.5753C67.7726 14.609 67.7373 14.6646 67.7107 14.7797C67.6833 14.8986 67.6695 15.0613 67.6649 15.2915L67.6648 15.298L67.6647 15.298C67.6526 15.5618 67.6566 15.8272 67.6607 16.0987C67.6628 16.2377 67.665 16.3784 67.665 16.5212C67.665 16.8206 67.6642 17.0643 67.641 17.2583C67.6173 17.4569 67.5674 17.634 67.4477 17.7853C67.3307 17.9334 67.1683 18.0291 66.9801 18.1119C66.8086 18.1872 66.5883 18.2628 66.3198 18.355C66.2955 18.3633 66.2708 18.3718 66.2457 18.3804L66.2455 18.3805C64.7818 18.8819 63.6154 19.5976 62.7909 20.5499C61.969 21.4994 61.4741 22.6985 61.3746 24.1924L69.6049 21.6512ZM69.6049 21.6512L69.5985 21.6517M69.6049 21.6512L69.5985 21.6517M69.5985 21.6517C69.1301 21.6871 68.6288 21.7417 68.1599 21.9343L69.5985 21.6517ZM70.9338 44.8086C70.8323 44.9073 70.6633 44.9792 70.3948 44.987L68.1598 21.9344C67.321 22.2783 66.8008 22.9021 66.6941 23.61C66.5872 24.3201 66.9058 25.0538 67.6188 25.5929C68.2973 26.1059 69.0856 26.4861 69.8807 26.7904C70.1265 26.889 70.3721 26.9862 70.617 27.0831C71.7375 27.5266 72.8431 27.9642 73.8878 28.5079C77.8855 30.5935 78.9229 35.2953 76.1479 38.4935C75.1192 39.6702 73.8018 40.4558 72.2617 40.8497C71.8936 40.9437 71.5832 41.0897 71.3739 41.3391C71.1596 41.5944 71.0826 41.9201 71.1035 42.3048L71.1035 42.3052C71.1279 42.7432 71.1198 43.1736 71.1116 43.6145C71.1074 43.8401 71.1031 44.0685 71.1031 44.3021C71.1031 44.5555 71.0332 44.712 70.9338 44.8086Z" fill="#4FCFBD" stroke="black" stroke-width="0.5"/>
<path d="M72.3067 49.9478L72.081 49.8404L72.3067 49.9478C72.4447 49.6579 72.6298 49.5213 72.8436 49.4453C73.0685 49.3654 73.3269 49.3507 73.6336 49.3332L73.6599 49.3316C73.6604 49.3316 73.6609 49.3316 73.6614 49.3316C77.6345 49.1553 81.6263 48.979 85.618 48.8027H85.6181H85.6186H85.619H85.6194H85.6199H85.6203H85.6207H85.6212H85.6216H85.622H85.6224H85.6229H85.6233H85.6237H85.6242H85.6246H85.625H85.6254H85.6259H85.6263H85.6267H85.6271H85.6275H85.628H85.6284H85.6288H85.6292H85.6297H85.6301H85.6305H85.6309H85.6313H85.6318H85.6322H85.6326H85.633H85.6334H85.6339H85.6343H85.6347H85.6351H85.6355H85.6359H85.6363H85.6368H85.6372H85.6376H85.638H85.6384H85.6388H85.6392H85.6397H85.6401H85.6405H85.6409H85.6413H85.6417H85.6421H85.6425H85.6429H85.6433H85.6438H85.6442H85.6446H85.645H85.6454H85.6458H85.6462H85.6466H85.647H85.6474H85.6478H85.6482H85.6486H85.649H85.6494H85.6498H85.6502H85.6506H85.651H85.6514H85.6518H85.6522H85.6526H85.653H85.6535H85.6538H85.6542H85.6546H85.655H85.6554H85.6558H85.6562H85.6566H85.657H85.6574H85.6578H85.6582H85.6586H85.659H85.6594H85.6598H85.6602H85.6606H85.661H85.6614H85.6618H85.6622H85.6625H85.6629H85.6633H85.6637H85.6641H85.6645H85.6649H85.6653H85.6657H85.6661H85.6665H85.6668H85.6672H85.6676H85.668H85.6684H85.6688H85.6692H85.6695H85.6699H85.6703H85.6707H85.6711H85.6715H85.6719H85.6722H85.6726H85.673H85.6734H85.6738H85.6742H85.6745H85.6749H85.6753H85.6757H85.6761H85.6765H85.6768H85.6772H85.6776H85.678H85.6784H85.6787H85.6791H85.6795H85.6799H85.6802H85.6806H85.681H85.6814H85.6817H85.6821H85.6825H85.6829H85.6833H85.6836H85.684H85.6844H85.6848H85.6851H85.6855H85.6859H85.6862H85.6866H85.687H85.6874H85.6877H85.6881H85.6885H85.6889H85.6892H85.6896H85.69H85.6903H85.6907H85.6911H85.6915H85.6918H85.6922H85.6926H85.6929H85.6933H85.6937H85.694H85.6944H85.6948H85.6951H85.6955H85.6959H85.6962H85.6966H85.697H85.6973H85.6977H85.6981H85.6984H85.6988H85.6992H85.6995H85.6999H85.7002H85.7006H85.701H85.7013H85.7017H85.7021H85.7024H85.7028H85.7031H85.7035H85.7039H85.7042H85.7046H85.7049H85.7053H85.7057H85.706H85.7064H85.7067H85.7071H85.7075H85.7078H85.7082H85.7085H85.7089H85.7093H85.7096H85.71H85.7103H85.7107H85.711H85.7114H85.7118H85.7121H85.7125H85.7128H85.7132H85.7135H85.7139H85.7142H85.7146H85.715H85.7153H85.7157H85.716H85.7164H85.7167H85.7171H85.7174H85.7178H85.7181H85.7185H85.7188H85.7192H85.7195H85.7199H85.7202H85.7206H85.7209H85.7213H85.7216H85.722H85.7223H85.7227H85.723H85.7234H85.7237H85.7241H85.7244H85.7248H85.7251H85.7255H85.7258H85.7262H85.7265H85.7269H85.7272H85.7276H85.7279H85.7283H85.7286H85.729H85.7293H85.7297H85.73H85.7303H85.7307H85.731H85.7314H85.7317H85.7321H85.7324H85.7328H85.7331H85.7334H85.7338H85.7341H85.7345H85.7348H85.7352H85.7355H85.7359H85.7362H85.7365H85.7369H85.7372H85.7376H85.7379H85.7383H85.7386H85.7389H85.7393H85.7396H85.74H85.7403H85.7406H85.741H85.7413H85.7417H85.742H85.7423H85.7427H85.743H85.7434H85.7437H85.744H85.7444H85.7447H85.7451H85.7454H85.7457H85.7461H85.7464H85.7468H85.7471H85.7474H85.7478H85.7481H85.7484H85.7488H85.7491H85.7495H85.7498H85.7501H85.7505H85.7508H85.7511H85.7515H85.7518H85.7522H85.7525H85.7528H85.7532H85.7535H85.7538H85.7542H85.7545H85.7548H85.7552H85.7555H85.7559H85.7562H85.7565H85.7569H85.7572H85.7575H85.7579H85.7582H85.7585H85.7589H85.7592H85.7595H85.7599H85.7602H85.7605H85.7609H85.7612H85.7615H85.7619H85.7622H85.7625H85.7629H85.7632H85.7635H85.7639H85.7642H85.7645H85.7649H85.7652H85.7655H85.7659H85.7662H85.7665H85.7669H85.7672H85.7675H85.7679H85.7682H85.7685H85.7689H85.7692H85.7695H85.7698H85.7702H85.7705H85.7708H85.7712H85.7715H85.7718H85.7722H85.7725H85.7728H85.7732H85.7735H85.7738H85.7741H85.7745H85.7748H85.7751H85.7755H85.7758H85.7761H85.7765H85.7768H85.7771H85.7775H85.7778H85.7781H85.7784H85.7788H85.7791H85.7794H85.7798H85.7801H85.7804H85.7807H85.7811H85.7814H85.7817H85.7821H85.7824H85.7827H85.7831H85.7834H85.7837H85.784H85.7844H85.7847H85.785H85.7854H85.7857H85.786H85.7863H85.7867H85.787H85.7873H85.7877H85.788H85.7883H85.7886H85.789H85.7893H85.7896H85.79H85.7903H85.7906H85.7909H85.7913H85.7916H85.7919H85.7923H85.7926H85.7929H85.7932H85.7936H85.7939H85.7942H85.7945H85.7949H85.7952H85.7955H85.7959H85.7962H85.7965H85.7968H85.7972H85.7975H85.7978H85.7982H85.7985H85.7988H85.7991C86.3504 48.8027 86.6787 48.9216 86.8686 49.1157C87.0569 49.308 87.1624 49.629 87.1359 50.1631L87.1116 50.6434C86.9331 54.1678 86.7553 57.6782 86.5946 61.2048C86.5765 61.5287 86.5321 61.807 86.4202 62.0427C86.3122 62.2702 86.1342 62.4724 85.8197 62.6332C85.6182 62.728 85.4513 62.7664 85.3325 62.7664C85.1637 62.7664 85.011 62.707 84.8534 62.6015C84.701 62.4994 84.5592 62.3652 84.3994 62.2139L84.3657 62.1821L84.3653 62.1817L80.7631 58.795L80.5914 58.6336L80.4201 58.7955L79.0763 60.0655L68.0271 70.5075L67.0379 71.4424L64.6116 73.7354L53.2451 84.4774L52.5952 85.0916C52.5946 85.0921 52.5941 85.0926 52.5935 85.0932C52.1184 85.5254 51.5077 85.7496 50.8972 85.7496C50.2819 85.7496 49.6737 85.54 49.2025 85.0947L48.5492 84.4774L46.1229 82.1843L34.7564 71.4424L34.1965 70.9132L34.0248 70.751L33.853 70.9132L21.93 82.1813C21.9294 82.1818 21.9289 82.1823 21.9283 82.1828C21.4532 82.615 20.8424 82.8392 20.2319 82.8392C19.6167 82.8392 19.0084 82.6296 18.5372 82.1843L17.8856 81.5685C17.8854 81.5683 17.8851 81.568 17.8848 81.5678C16.9604 80.6774 16.963 79.273 17.884 78.4026L31.6768 65.3677L32.3283 64.7519C32.8035 64.3197 33.4142 64.0954 34.0248 64.0954C34.64 64.0954 35.2483 64.305 35.7195 64.7503L36.3727 65.3677L38.799 67.6607L50.1655 78.4026L50.7254 78.9318L50.8972 79.0941L51.0689 78.9318L60.5689 69.9537L62.9953 67.6607L63.9845 66.7259L75.0337 56.2838L76.3961 54.9962L76.5913 54.8117L76.3934 54.6302C75.5622 53.8681 74.7573 53.0997 73.9476 52.3266C73.5414 51.9388 73.1339 51.5498 72.7213 51.1599C72.5089 50.9499 72.3463 50.7844 72.2619 50.5989C72.1881 50.4367 72.1672 50.2408 72.3067 49.9478Z" fill="#4FCFBD" stroke="black" stroke-width="0.5"/>
</svg>
