<svg width="100" height="100" viewBox="0 0 100 100" fill="none" xmlns="http://www.w3.org/2000/svg">
<mask id="path-1-inside-1_48_105" fill="white">
<path fill-rule="evenodd" clip-rule="evenodd" d="M63.8907 72.2466C65.1891 67.6562 65.9421 62.4087 66.0263 56.8166H49.9695V70.9321C54.5961 70.9739 59.2427 71.4123 63.8907 72.2466ZM49.9693 89.4609C54.1979 89.0436 58.0498 85.4652 60.9389 79.894C61.8604 78.0683 62.6981 76.0444 63.4098 73.8431C58.9285 73.0397 54.449 72.6224 49.9693 72.5809V89.4609ZM34.8756 73.8535C35.566 76.0546 36.4035 78.0787 37.345 79.8938C40.2126 85.4652 44.0858 89.0434 48.3146 89.4607V72.5804C43.8346 72.6331 39.3551 73.0606 34.8756 73.8535ZM32.2575 56.8169C32.3204 62.4087 33.095 67.6669 34.3931 72.2679C39.0414 71.433 43.668 70.9846 48.3146 70.9324V56.8169H32.2575ZM34.4345 39.5819C33.095 44.2137 32.3204 49.5139 32.2573 55.1582H48.3143V40.9172C46.4096 40.8965 44.5252 40.8023 42.6205 40.6564C39.8989 40.4372 37.1567 40.0723 34.4345 39.5819ZM48.3146 22.5139C44.086 22.9312 40.2126 26.5096 37.345 32.0808C36.4235 33.8648 35.6074 35.8469 34.9168 37.9962C37.5117 38.4553 40.1297 38.7996 42.7462 39.0082C44.5881 39.1541 46.4513 39.2376 48.3146 39.2585V22.5139ZM33.2633 37.6831C34.0165 35.3776 34.8756 33.2389 35.8798 31.3296C37.7018 27.7719 39.9417 24.9551 42.4539 23.14C35.8586 24.4647 29.9551 27.7199 25.3699 32.2891C24.5126 33.1447 23.6949 34.042 22.9417 34.9809C26.3954 36.0974 29.8294 37.005 33.2633 37.6831ZM30.6042 55.1579C30.6668 49.4197 31.4415 44.0156 32.8027 39.2687C29.159 38.5488 25.5168 37.5787 21.8745 36.3684C18.0225 41.6681 15.6984 48.1468 15.5301 55.1579H30.6042ZM32.7596 72.5806C31.4415 67.8653 30.6668 62.5027 30.6042 56.8169H15.5301C15.6986 63.7753 17.9797 70.2229 21.7902 75.502C25.4539 74.2915 29.0959 73.3109 32.7596 72.5806ZM42.4539 88.8453C39.9417 87.0195 37.7018 84.2132 35.8798 80.6452C34.8756 78.6942 33.9753 76.5239 33.2421 74.1663C29.7665 74.8548 26.3126 75.7626 22.8572 76.8893C23.6321 77.8699 24.4693 78.7983 25.3697 79.685C29.9548 84.2549 35.8583 87.5097 42.4539 88.8453ZM65.042 74.1456C64.2885 76.5137 63.4098 78.6942 62.4041 80.6454C60.5622 84.2134 58.3226 87.0197 55.8102 88.8455C62.4255 87.5099 68.3288 84.2552 72.914 79.6855C73.7929 78.7988 74.6303 77.8704 75.4264 76.8898C71.9515 75.7524 68.4957 74.8342 65.042 74.1456ZM67.6796 56.8169C67.617 62.5027 66.8421 67.8548 65.524 72.5598C69.1663 73.2901 72.8299 74.2709 76.472 75.502C80.2827 70.2125 82.5852 63.7753 82.7537 56.8169H67.6796ZM64.0376 40.2493L63.4925 39.6652C58.9913 40.4579 54.4706 40.865 49.9693 40.917V55.1579H66.0261C65.9833 52.6019 65.8164 50.119 65.5026 47.7506C65.1674 45.111 64.6651 42.5965 64.0376 40.2493ZM66.2987 42.6072C66.6538 44.1928 66.9264 45.8518 67.1561 47.5418C67.4701 50.0039 67.6582 52.5599 67.6796 55.1579H82.754C82.7109 53.374 82.5226 51.6215 82.2088 49.9204C81.9363 48.3452 81.5182 46.7906 81.0159 45.2883L80.5125 45.7891C78.7747 47.5107 77.0799 49.1799 75.5933 50.7764C75.3009 51.11 74.7775 51.1204 74.442 50.8182L74.3794 50.7657C72.914 49.1694 71.2178 47.5107 69.48 45.7891C68.4331 44.7461 67.3656 43.682 66.2987 42.6072ZM53.7784 23.7761C53.0666 23.3799 52.3562 23.0563 51.6228 22.8475C51.0777 22.6807 50.5342 22.5658 49.9693 22.5139V39.2585C54.0296 39.2272 58.1124 38.8725 62.1743 38.2152C58.2595 33.7604 54.9299 28.9508 53.7784 23.7761ZM82.0834 12.3002C80.283 10.4849 77.7705 9.36857 75.0072 9.36857C72.2436 9.36857 69.7314 10.4851 67.911 12.2897C66.1108 14.105 64.9791 16.5984 64.9791 19.363C64.9791 22.1172 66.1106 24.6108 67.911 26.4261C69.7314 28.231 72.2436 29.3473 75.0072 29.3473C77.7491 29.3473 80.2413 28.2414 82.0422 26.4676L82.0836 26.4157C83.9052 24.6108 85.0138 22.1172 85.0138 19.363C85.0136 16.5984 83.905 14.105 82.0834 12.3002ZM75.0072 7.7203C78.21 7.7203 81.1418 9.02453 83.256 11.1317C85.3702 13.239 86.6685 16.1498 86.6685 19.363C86.6685 22.5765 85.3702 25.4873 83.256 27.5842L83.213 27.6362C81.0985 29.7124 78.1897 30.9956 75.007 30.9956C71.7825 30.9956 68.8523 29.6916 66.7381 27.5944C64.6239 25.4766 63.3256 22.5658 63.3256 19.363C63.3256 16.1498 64.6239 13.239 66.7381 11.1317C68.8523 9.0243 71.7827 7.7203 75.0072 7.7203ZM14.8824 81.0521C14.2118 80.1759 12.8936 81.1774 13.5414 82.0432C13.8766 82.4918 14.2118 82.9405 14.567 83.3785C14.8395 83.7227 15.363 83.7749 15.7198 83.5249C16.0964 83.2326 16.1376 82.7212 15.8653 82.3457C15.5301 81.9286 15.1963 81.4901 14.8824 81.0521ZM11.4484 75.5642C10.8207 74.5316 9.48112 75.5018 9.98342 76.3363C10.2346 76.8163 10.5071 77.3484 10.7781 77.8075C11.3644 78.7777 12.7668 77.891 12.2233 76.9833C11.9507 76.5242 11.6996 76.0444 11.4484 75.5642ZM8.8948 69.6175C8.43393 68.5014 6.94728 69.2319 7.32389 70.1499C7.49241 70.6609 7.68071 71.2453 7.88904 71.7251C8.30847 72.7683 9.83632 72.1215 9.43829 71.1407C9.23021 70.6714 9.04004 70.0979 8.8948 69.6175ZM7.28269 63.3373C7.05156 62.2315 5.43969 62.607 5.64917 63.6294C5.73343 64.1825 5.85889 64.7353 5.96317 65.2775C6.17265 66.3 7.76334 66.0495 7.59669 64.9543C7.49241 64.4119 7.36695 63.8797 7.28269 63.3373ZM6.65493 56.9002C6.65493 55.836 5 55.8674 5 56.9315C5 57.495 5.02141 58.0582 5.06285 58.6215C5.06285 58.7783 5.12546 58.8929 5.1883 59.0075C5.58633 59.6859 6.71778 59.446 6.71778 58.5171C6.67495 57.9854 6.65493 57.4323 6.65493 56.9002ZM6.98871 50.4319C7.19843 49.4928 5.58656 49.0233 5.35682 50.2129L5.16829 51.8925C5.16829 52.9882 6.59232 53.1443 6.82182 52.0491L6.98871 50.4319ZM8.33012 44.0991C8.68508 43.1916 7.15723 42.5863 6.80041 43.4837C6.78062 43.5252 6.75898 43.5881 6.7378 43.64C6.59232 44.172 6.46663 44.725 6.29834 45.2572C6.06884 46.4255 7.72214 46.6343 7.91045 45.6639C8.05732 45.1424 8.18301 44.6209 8.33012 44.0991ZM19.1738 88.3026C19.9056 89.0329 21.0782 87.8855 20.2838 87.0924C19.8858 86.7274 19.5092 86.3519 19.1109 85.9656C18.3577 85.2042 17.1851 86.3727 17.9383 87.1341C18.3577 87.5308 18.7543 87.9166 19.1738 88.3026ZM91.4834 52.4977C91.4834 52.7063 91.6289 52.9044 91.776 53.0508C92.3835 53.5099 93.137 53.155 93.137 52.362C93.1156 51.8823 93.0741 51.152 92.9701 50.6929C92.7192 49.4617 91.1485 49.9728 91.3366 50.8808C91.3992 51.4023 91.462 51.9658 91.4834 52.4977ZM91.5246 58.9762C91.5246 60.1972 93.1782 60.0403 93.1782 59.0804C93.2212 58.5276 93.2624 57.9643 93.2624 57.4115C93.2624 56.2534 91.6089 56.3262 91.6089 57.359C91.6089 57.8917 91.5661 58.4338 91.5246 58.9762ZM90.5831 65.3821C90.3734 66.4882 92.0069 66.7591 92.2152 65.7368C92.3207 65.1944 92.4464 64.6413 92.5502 64.099C92.6347 63.6918 92.3833 63.3058 92.0698 63.191C91.5246 62.972 91.0223 63.2849 90.9185 63.796C90.8129 64.3182 90.7088 64.8501 90.5831 65.3821ZM88.677 71.5687C88.2592 72.5702 89.8085 73.1755 90.2063 72.1737C90.4148 71.6624 90.6245 71.12 90.8126 70.5881C91.2106 69.5968 89.64 69.0333 89.2436 70.0455C89.0339 70.5148 88.8653 71.0781 88.677 71.5687ZM85.8311 77.3795C85.2643 78.3079 86.7095 79.122 87.2546 78.2142C87.5472 77.7345 87.8195 77.244 88.0707 76.7536C88.5942 75.9085 87.3177 75.0218 86.6685 75.898C86.3743 76.378 86.1022 76.8998 85.8311 77.3795ZM82.1246 82.7004C81.4128 83.629 82.7951 84.5574 83.4013 83.7439C83.7581 83.3054 84.1133 82.8674 84.4487 82.4185C85.0976 81.553 83.7795 80.5617 83.1303 81.4277C82.7952 81.8552 82.4597 82.2833 82.1246 82.7004ZM77.6451 87.3951C76.8076 88.2402 78.0645 89.325 78.7749 88.6263C79.1731 88.2402 79.5709 87.8542 79.9906 87.4682C80.7852 86.6857 79.5926 85.5278 78.838 86.2892C78.4409 86.6648 78.0429 87.0404 77.6451 87.3951ZM72.5159 91.3702C71.6373 91.8917 72.4319 93.3419 73.4374 92.7473C73.8971 92.4343 74.3578 92.1216 74.8186 91.7871C75.7402 91.1092 74.6932 89.8261 73.8557 90.452C73.4165 90.7649 72.977 91.0675 72.5159 91.3702ZM66.8422 94.5101C65.879 94.8857 66.4655 96.4403 67.533 96.0127C68.0362 95.8039 68.5799 95.5223 69.0622 95.272C69.9821 94.7189 69.3546 93.3834 68.3072 93.8116C67.8467 94.0408 67.303 94.312 66.8422 94.5101ZM60.7506 96.7532C59.6838 97.1706 60.123 98.5474 61.2114 98.3389C61.7349 98.1825 62.2784 98.0259 62.8235 97.8489C63.9533 97.4 63.2001 95.9188 62.3 96.2732C61.8175 96.4612 61.2529 96.6073 60.7506 96.7532ZM54.3862 98.0261C53.1723 98.266 53.653 99.8519 54.5961 99.6644C55.1394 99.6016 55.7045 99.5183 56.2496 99.435C57.4006 99.2053 57.0029 97.5988 55.9771 97.7967C55.4536 97.8904 54.9099 97.9635 54.3862 98.0261ZM47.8965 98.3286C46.7453 98.3286 46.8079 99.9769 47.8337 99.9769C48.3986 99.9769 48.9635 100.008 49.5282 99.9978C50.5968 99.9978 50.5756 98.3495 49.5084 98.3495C48.9635 98.36 48.44 98.3286 47.8965 98.3286ZM41.4281 97.6503C40.3809 97.4418 40.0455 99.0587 41.1341 99.2779C41.679 99.3823 42.2442 99.4554 42.7877 99.5494C43.8348 99.7579 44.1288 98.1305 43.0388 97.9113C42.4951 97.8385 41.9502 97.7549 41.4281 97.6503ZM35.1466 96.0023C34.7071 95.8246 34.2462 96.1273 34.1008 96.4925C33.9322 96.9829 34.1834 97.3896 34.6028 97.5566C35.1463 97.7341 35.67 97.9217 36.2152 98.0888C37.1153 98.4432 37.743 96.9205 36.8213 96.5553C36.2978 96.357 35.6703 96.1795 35.1466 96.0023ZM29.2018 93.4043C28.4272 92.9454 27.4014 94.1035 28.3844 94.8444C28.8881 95.1154 29.4118 95.3868 29.9336 95.6267C31.0651 96.0858 31.526 94.4897 30.6457 94.1346C30.1648 93.9053 29.6825 93.6652 29.2018 93.4043ZM91.6501 44.0887C91.4618 43.1394 89.8283 43.3479 90.0594 44.5373L90.4777 46.1026C90.6872 47.1978 92.4033 46.6969 92.0898 45.7163C91.9443 45.1737 91.8188 44.6311 91.6501 44.0887ZM18.3577 26.7808C19.1109 26.0296 17.9166 24.8924 17.142 25.6436L16.0122 26.8852C15.3002 27.6051 16.4516 28.7736 17.2048 28.0224C17.6029 27.6153 17.9599 27.1877 18.3577 26.7808ZM23.1728 22.4408C23.9675 21.8669 23.1926 20.5107 22.1883 21.1261C21.7276 21.4704 21.2882 21.8253 20.8487 22.2009C20.031 23.0043 21.057 24.0997 21.9157 23.4632L23.1728 22.4408ZM28.6153 18.8937C29.5999 18.2885 28.6781 16.9218 27.7992 17.4436C27.3169 17.6941 26.8149 18.0071 26.3326 18.2885C25.4125 18.8415 26.25 20.2708 27.2129 19.6971C27.6523 19.4257 28.133 19.1336 28.6153 18.8937ZM34.5188 16.202C35.5858 15.7742 34.8954 14.2718 33.9539 14.6579C33.4302 14.8458 32.8853 15.0441 32.3632 15.2629C31.42 15.6385 31.9652 17.1928 33.0107 16.7861C33.493 16.5776 34.0165 16.3794 34.5188 16.202ZM40.7575 14.4493C41.8047 14.2408 41.5321 12.6129 40.4435 12.8321C39.8986 12.9365 39.3335 13.0616 38.7902 13.197C38.5588 13.2388 38.3079 13.4476 38.2237 13.6561C37.9728 14.3029 38.4962 14.9393 39.1866 14.7931C39.7103 14.6683 40.234 14.5537 40.7575 14.4493ZM47.2059 13.6773C48.0848 13.6773 48.4614 12.2271 47.1847 12.0183C46.6396 12.029 46.0119 12.081 45.4469 12.1332C45.2801 12.1332 45.0075 12.2686 44.9018 12.4043C44.4426 13.0198 44.7978 13.771 45.5938 13.771C46.1373 13.7295 46.6824 13.6984 47.2059 13.6773ZM53.7156 13.8754C54.659 14.0633 55.077 12.467 53.8843 12.2271L52.2096 12.0812C50.9527 12.0812 51.1622 13.7297 52.0837 13.7297C52.5445 13.7712 53.2763 13.8754 53.7156 13.8754ZM11.9507 32.2478C11.3446 33.2389 12.8096 34.0211 13.3331 33.1447C13.6257 32.6856 13.9392 32.2372 14.2534 31.7989C14.8197 30.8288 13.5214 30.0045 12.8939 30.8598C12.5585 31.3189 12.2445 31.7781 11.9507 32.2478ZM80.7436 43.2438L80.785 43.1809L80.8064 43.1707C87.6943 36.2953 95 28.4917 95 19.937C95 14.4284 92.7604 9.44164 89.1379 5.84236C85.5168 2.23264 80.5336 0 75.007 0C69.48 0 64.4768 2.23264 60.8546 5.84236C57.2335 9.44164 54.9923 14.4287 54.9923 19.937C54.9923 20.5942 55.0353 21.2514 55.1194 21.9086L55.1391 21.9295V21.9504C56.228 30.3172 63.9117 37.9336 70.6527 44.6211C72.1805 46.1232 73.6455 47.5838 75.0067 49.0131C76.3463 47.5838 77.8329 46.1232 79.3608 44.6211L80.7436 43.2438Z"/>
</mask>
<path fill-rule="evenodd" clip-rule="evenodd" d="M63.8907 72.2466C65.1891 67.6562 65.9421 62.4087 66.0263 56.8166H49.9695V70.9321C54.5961 70.9739 59.2427 71.4123 63.8907 72.2466ZM49.9693 89.4609C54.1979 89.0436 58.0498 85.4652 60.9389 79.894C61.8604 78.0683 62.6981 76.0444 63.4098 73.8431C58.9285 73.0397 54.449 72.6224 49.9693 72.5809V89.4609ZM34.8756 73.8535C35.566 76.0546 36.4035 78.0787 37.345 79.8938C40.2126 85.4652 44.0858 89.0434 48.3146 89.4607V72.5804C43.8346 72.6331 39.3551 73.0606 34.8756 73.8535ZM32.2575 56.8169C32.3204 62.4087 33.095 67.6669 34.3931 72.2679C39.0414 71.433 43.668 70.9846 48.3146 70.9324V56.8169H32.2575ZM34.4345 39.5819C33.095 44.2137 32.3204 49.5139 32.2573 55.1582H48.3143V40.9172C46.4096 40.8965 44.5252 40.8023 42.6205 40.6564C39.8989 40.4372 37.1567 40.0723 34.4345 39.5819ZM48.3146 22.5139C44.086 22.9312 40.2126 26.5096 37.345 32.0808C36.4235 33.8648 35.6074 35.8469 34.9168 37.9962C37.5117 38.4553 40.1297 38.7996 42.7462 39.0082C44.5881 39.1541 46.4513 39.2376 48.3146 39.2585V22.5139ZM33.2633 37.6831C34.0165 35.3776 34.8756 33.2389 35.8798 31.3296C37.7018 27.7719 39.9417 24.9551 42.4539 23.14C35.8586 24.4647 29.9551 27.7199 25.3699 32.2891C24.5126 33.1447 23.6949 34.042 22.9417 34.9809C26.3954 36.0974 29.8294 37.005 33.2633 37.6831ZM30.6042 55.1579C30.6668 49.4197 31.4415 44.0156 32.8027 39.2687C29.159 38.5488 25.5168 37.5787 21.8745 36.3684C18.0225 41.6681 15.6984 48.1468 15.5301 55.1579H30.6042ZM32.7596 72.5806C31.4415 67.8653 30.6668 62.5027 30.6042 56.8169H15.5301C15.6986 63.7753 17.9797 70.2229 21.7902 75.502C25.4539 74.2915 29.0959 73.3109 32.7596 72.5806ZM42.4539 88.8453C39.9417 87.0195 37.7018 84.2132 35.8798 80.6452C34.8756 78.6942 33.9753 76.5239 33.2421 74.1663C29.7665 74.8548 26.3126 75.7626 22.8572 76.8893C23.6321 77.8699 24.4693 78.7983 25.3697 79.685C29.9548 84.2549 35.8583 87.5097 42.4539 88.8453ZM65.042 74.1456C64.2885 76.5137 63.4098 78.6942 62.4041 80.6454C60.5622 84.2134 58.3226 87.0197 55.8102 88.8455C62.4255 87.5099 68.3288 84.2552 72.914 79.6855C73.7929 78.7988 74.6303 77.8704 75.4264 76.8898C71.9515 75.7524 68.4957 74.8342 65.042 74.1456ZM67.6796 56.8169C67.617 62.5027 66.8421 67.8548 65.524 72.5598C69.1663 73.2901 72.8299 74.2709 76.472 75.502C80.2827 70.2125 82.5852 63.7753 82.7537 56.8169H67.6796ZM64.0376 40.2493L63.4925 39.6652C58.9913 40.4579 54.4706 40.865 49.9693 40.917V55.1579H66.0261C65.9833 52.6019 65.8164 50.119 65.5026 47.7506C65.1674 45.111 64.6651 42.5965 64.0376 40.2493ZM66.2987 42.6072C66.6538 44.1928 66.9264 45.8518 67.1561 47.5418C67.4701 50.0039 67.6582 52.5599 67.6796 55.1579H82.754C82.7109 53.374 82.5226 51.6215 82.2088 49.9204C81.9363 48.3452 81.5182 46.7906 81.0159 45.2883L80.5125 45.7891C78.7747 47.5107 77.0799 49.1799 75.5933 50.7764C75.3009 51.11 74.7775 51.1204 74.442 50.8182L74.3794 50.7657C72.914 49.1694 71.2178 47.5107 69.48 45.7891C68.4331 44.7461 67.3656 43.682 66.2987 42.6072ZM53.7784 23.7761C53.0666 23.3799 52.3562 23.0563 51.6228 22.8475C51.0777 22.6807 50.5342 22.5658 49.9693 22.5139V39.2585C54.0296 39.2272 58.1124 38.8725 62.1743 38.2152C58.2595 33.7604 54.9299 28.9508 53.7784 23.7761ZM82.0834 12.3002C80.283 10.4849 77.7705 9.36857 75.0072 9.36857C72.2436 9.36857 69.7314 10.4851 67.911 12.2897C66.1108 14.105 64.9791 16.5984 64.9791 19.363C64.9791 22.1172 66.1106 24.6108 67.911 26.4261C69.7314 28.231 72.2436 29.3473 75.0072 29.3473C77.7491 29.3473 80.2413 28.2414 82.0422 26.4676L82.0836 26.4157C83.9052 24.6108 85.0138 22.1172 85.0138 19.363C85.0136 16.5984 83.905 14.105 82.0834 12.3002ZM75.0072 7.7203C78.21 7.7203 81.1418 9.02453 83.256 11.1317C85.3702 13.239 86.6685 16.1498 86.6685 19.363C86.6685 22.5765 85.3702 25.4873 83.256 27.5842L83.213 27.6362C81.0985 29.7124 78.1897 30.9956 75.007 30.9956C71.7825 30.9956 68.8523 29.6916 66.7381 27.5944C64.6239 25.4766 63.3256 22.5658 63.3256 19.363C63.3256 16.1498 64.6239 13.239 66.7381 11.1317C68.8523 9.0243 71.7827 7.7203 75.0072 7.7203ZM14.8824 81.0521C14.2118 80.1759 12.8936 81.1774 13.5414 82.0432C13.8766 82.4918 14.2118 82.9405 14.567 83.3785C14.8395 83.7227 15.363 83.7749 15.7198 83.5249C16.0964 83.2326 16.1376 82.7212 15.8653 82.3457C15.5301 81.9286 15.1963 81.4901 14.8824 81.0521ZM11.4484 75.5642C10.8207 74.5316 9.48112 75.5018 9.98342 76.3363C10.2346 76.8163 10.5071 77.3484 10.7781 77.8075C11.3644 78.7777 12.7668 77.891 12.2233 76.9833C11.9507 76.5242 11.6996 76.0444 11.4484 75.5642ZM8.8948 69.6175C8.43393 68.5014 6.94728 69.2319 7.32389 70.1499C7.49241 70.6609 7.68071 71.2453 7.88904 71.7251C8.30847 72.7683 9.83632 72.1215 9.43829 71.1407C9.23021 70.6714 9.04004 70.0979 8.8948 69.6175ZM7.28269 63.3373C7.05156 62.2315 5.43969 62.607 5.64917 63.6294C5.73343 64.1825 5.85889 64.7353 5.96317 65.2775C6.17265 66.3 7.76334 66.0495 7.59669 64.9543C7.49241 64.4119 7.36695 63.8797 7.28269 63.3373ZM6.65493 56.9002C6.65493 55.836 5 55.8674 5 56.9315C5 57.495 5.02141 58.0582 5.06285 58.6215C5.06285 58.7783 5.12546 58.8929 5.1883 59.0075C5.58633 59.6859 6.71778 59.446 6.71778 58.5171C6.67495 57.9854 6.65493 57.4323 6.65493 56.9002ZM6.98871 50.4319C7.19843 49.4928 5.58656 49.0233 5.35682 50.2129L5.16829 51.8925C5.16829 52.9882 6.59232 53.1443 6.82182 52.0491L6.98871 50.4319ZM8.33012 44.0991C8.68508 43.1916 7.15723 42.5863 6.80041 43.4837C6.78062 43.5252 6.75898 43.5881 6.7378 43.64C6.59232 44.172 6.46663 44.725 6.29834 45.2572C6.06884 46.4255 7.72214 46.6343 7.91045 45.6639C8.05732 45.1424 8.18301 44.6209 8.33012 44.0991ZM19.1738 88.3026C19.9056 89.0329 21.0782 87.8855 20.2838 87.0924C19.8858 86.7274 19.5092 86.3519 19.1109 85.9656C18.3577 85.2042 17.1851 86.3727 17.9383 87.1341C18.3577 87.5308 18.7543 87.9166 19.1738 88.3026ZM91.4834 52.4977C91.4834 52.7063 91.6289 52.9044 91.776 53.0508C92.3835 53.5099 93.137 53.155 93.137 52.362C93.1156 51.8823 93.0741 51.152 92.9701 50.6929C92.7192 49.4617 91.1485 49.9728 91.3366 50.8808C91.3992 51.4023 91.462 51.9658 91.4834 52.4977ZM91.5246 58.9762C91.5246 60.1972 93.1782 60.0403 93.1782 59.0804C93.2212 58.5276 93.2624 57.9643 93.2624 57.4115C93.2624 56.2534 91.6089 56.3262 91.6089 57.359C91.6089 57.8917 91.5661 58.4338 91.5246 58.9762ZM90.5831 65.3821C90.3734 66.4882 92.0069 66.7591 92.2152 65.7368C92.3207 65.1944 92.4464 64.6413 92.5502 64.099C92.6347 63.6918 92.3833 63.3058 92.0698 63.191C91.5246 62.972 91.0223 63.2849 90.9185 63.796C90.8129 64.3182 90.7088 64.8501 90.5831 65.3821ZM88.677 71.5687C88.2592 72.5702 89.8085 73.1755 90.2063 72.1737C90.4148 71.6624 90.6245 71.12 90.8126 70.5881C91.2106 69.5968 89.64 69.0333 89.2436 70.0455C89.0339 70.5148 88.8653 71.0781 88.677 71.5687ZM85.8311 77.3795C85.2643 78.3079 86.7095 79.122 87.2546 78.2142C87.5472 77.7345 87.8195 77.244 88.0707 76.7536C88.5942 75.9085 87.3177 75.0218 86.6685 75.898C86.3743 76.378 86.1022 76.8998 85.8311 77.3795ZM82.1246 82.7004C81.4128 83.629 82.7951 84.5574 83.4013 83.7439C83.7581 83.3054 84.1133 82.8674 84.4487 82.4185C85.0976 81.553 83.7795 80.5617 83.1303 81.4277C82.7952 81.8552 82.4597 82.2833 82.1246 82.7004ZM77.6451 87.3951C76.8076 88.2402 78.0645 89.325 78.7749 88.6263C79.1731 88.2402 79.5709 87.8542 79.9906 87.4682C80.7852 86.6857 79.5926 85.5278 78.838 86.2892C78.4409 86.6648 78.0429 87.0404 77.6451 87.3951ZM72.5159 91.3702C71.6373 91.8917 72.4319 93.3419 73.4374 92.7473C73.8971 92.4343 74.3578 92.1216 74.8186 91.7871C75.7402 91.1092 74.6932 89.8261 73.8557 90.452C73.4165 90.7649 72.977 91.0675 72.5159 91.3702ZM66.8422 94.5101C65.879 94.8857 66.4655 96.4403 67.533 96.0127C68.0362 95.8039 68.5799 95.5223 69.0622 95.272C69.9821 94.7189 69.3546 93.3834 68.3072 93.8116C67.8467 94.0408 67.303 94.312 66.8422 94.5101ZM60.7506 96.7532C59.6838 97.1706 60.123 98.5474 61.2114 98.3389C61.7349 98.1825 62.2784 98.0259 62.8235 97.8489C63.9533 97.4 63.2001 95.9188 62.3 96.2732C61.8175 96.4612 61.2529 96.6073 60.7506 96.7532ZM54.3862 98.0261C53.1723 98.266 53.653 99.8519 54.5961 99.6644C55.1394 99.6016 55.7045 99.5183 56.2496 99.435C57.4006 99.2053 57.0029 97.5988 55.9771 97.7967C55.4536 97.8904 54.9099 97.9635 54.3862 98.0261ZM47.8965 98.3286C46.7453 98.3286 46.8079 99.9769 47.8337 99.9769C48.3986 99.9769 48.9635 100.008 49.5282 99.9978C50.5968 99.9978 50.5756 98.3495 49.5084 98.3495C48.9635 98.36 48.44 98.3286 47.8965 98.3286ZM41.4281 97.6503C40.3809 97.4418 40.0455 99.0587 41.1341 99.2779C41.679 99.3823 42.2442 99.4554 42.7877 99.5494C43.8348 99.7579 44.1288 98.1305 43.0388 97.9113C42.4951 97.8385 41.9502 97.7549 41.4281 97.6503ZM35.1466 96.0023C34.7071 95.8246 34.2462 96.1273 34.1008 96.4925C33.9322 96.9829 34.1834 97.3896 34.6028 97.5566C35.1463 97.7341 35.67 97.9217 36.2152 98.0888C37.1153 98.4432 37.743 96.9205 36.8213 96.5553C36.2978 96.357 35.6703 96.1795 35.1466 96.0023ZM29.2018 93.4043C28.4272 92.9454 27.4014 94.1035 28.3844 94.8444C28.8881 95.1154 29.4118 95.3868 29.9336 95.6267C31.0651 96.0858 31.526 94.4897 30.6457 94.1346C30.1648 93.9053 29.6825 93.6652 29.2018 93.4043ZM91.6501 44.0887C91.4618 43.1394 89.8283 43.3479 90.0594 44.5373L90.4777 46.1026C90.6872 47.1978 92.4033 46.6969 92.0898 45.7163C91.9443 45.1737 91.8188 44.6311 91.6501 44.0887ZM18.3577 26.7808C19.1109 26.0296 17.9166 24.8924 17.142 25.6436L16.0122 26.8852C15.3002 27.6051 16.4516 28.7736 17.2048 28.0224C17.6029 27.6153 17.9599 27.1877 18.3577 26.7808ZM23.1728 22.4408C23.9675 21.8669 23.1926 20.5107 22.1883 21.1261C21.7276 21.4704 21.2882 21.8253 20.8487 22.2009C20.031 23.0043 21.057 24.0997 21.9157 23.4632L23.1728 22.4408ZM28.6153 18.8937C29.5999 18.2885 28.6781 16.9218 27.7992 17.4436C27.3169 17.6941 26.8149 18.0071 26.3326 18.2885C25.4125 18.8415 26.25 20.2708 27.2129 19.6971C27.6523 19.4257 28.133 19.1336 28.6153 18.8937ZM34.5188 16.202C35.5858 15.7742 34.8954 14.2718 33.9539 14.6579C33.4302 14.8458 32.8853 15.0441 32.3632 15.2629C31.42 15.6385 31.9652 17.1928 33.0107 16.7861C33.493 16.5776 34.0165 16.3794 34.5188 16.202ZM40.7575 14.4493C41.8047 14.2408 41.5321 12.6129 40.4435 12.8321C39.8986 12.9365 39.3335 13.0616 38.7902 13.197C38.5588 13.2388 38.3079 13.4476 38.2237 13.6561C37.9728 14.3029 38.4962 14.9393 39.1866 14.7931C39.7103 14.6683 40.234 14.5537 40.7575 14.4493ZM47.2059 13.6773C48.0848 13.6773 48.4614 12.2271 47.1847 12.0183C46.6396 12.029 46.0119 12.081 45.4469 12.1332C45.2801 12.1332 45.0075 12.2686 44.9018 12.4043C44.4426 13.0198 44.7978 13.771 45.5938 13.771C46.1373 13.7295 46.6824 13.6984 47.2059 13.6773ZM53.7156 13.8754C54.659 14.0633 55.077 12.467 53.8843 12.2271L52.2096 12.0812C50.9527 12.0812 51.1622 13.7297 52.0837 13.7297C52.5445 13.7712 53.2763 13.8754 53.7156 13.8754ZM11.9507 32.2478C11.3446 33.2389 12.8096 34.0211 13.3331 33.1447C13.6257 32.6856 13.9392 32.2372 14.2534 31.7989C14.8197 30.8288 13.5214 30.0045 12.8939 30.8598C12.5585 31.3189 12.2445 31.7781 11.9507 32.2478ZM80.7436 43.2438L80.785 43.1809L80.8064 43.1707C87.6943 36.2953 95 28.4917 95 19.937C95 14.4284 92.7604 9.44164 89.1379 5.84236C85.5168 2.23264 80.5336 0 75.007 0C69.48 0 64.4768 2.23264 60.8546 5.84236C57.2335 9.44164 54.9923 14.4287 54.9923 19.937C54.9923 20.5942 55.0353 21.2514 55.1194 21.9086L55.1391 21.9295V21.9504C56.228 30.3172 63.9117 37.9336 70.6527 44.6211C72.1805 46.1232 73.6455 47.5838 75.0067 49.0131C76.3463 47.5838 77.8329 46.1232 79.3608 44.6211L80.7436 43.2438Z" fill="#599FCF" stroke="black" stroke-width="2" mask="url(#path-1-inside-1_48_105)"/>
<path d="M81.9056 12.4762L81.9072 12.4778C83.6826 14.2369 84.7634 16.6669 84.7636 19.363C84.7636 22.0486 83.683 24.4788 81.9074 26.2381L81.897 26.2484L81.8879 26.2598L81.8559 26.3C80.1007 28.0234 77.6752 29.0973 75.0069 29.0973C72.3123 29.0973 69.8629 28.0092 68.0875 26.2493C66.331 24.4779 65.2289 22.0468 65.2289 19.363C65.2289 16.6687 66.3314 14.2378 68.0875 12.4665C68.5133 12.0447 69.1547 11.6512 69.8953 11.2976C70.6327 10.9454 71.4518 10.6405 72.2191 10.3901C72.9857 10.1399 73.6964 9.94545 74.2157 9.81353C74.4752 9.7476 74.6866 9.69738 74.8328 9.66369C74.9059 9.64685 74.9627 9.63414 75.0011 9.62568L75.0069 9.6244L75.0128 9.62568C75.0511 9.63414 75.1079 9.64684 75.181 9.66369C75.3272 9.69739 75.5384 9.74764 75.7978 9.81364C76.3167 9.94569 77.0268 10.1404 77.792 10.3912C78.5579 10.6422 79.375 10.948 80.1095 11.3016C80.8475 11.6568 81.4851 12.0522 81.9056 12.4762ZM83.3879 27.8145L83.397 27.8055L83.4052 27.7957L83.4405 27.7531C85.5955 25.6113 86.9183 22.6408 86.9183 19.363C86.9183 16.081 85.5918 13.1072 83.4323 10.9546L83.2558 11.1317L83.4323 10.9546C81.2731 8.80262 78.2785 7.4703 75.0069 7.4703C71.714 7.4703 68.7207 8.80222 66.5614 10.9546C64.4018 13.1072 63.0753 16.081 63.0753 19.363C63.0753 22.6348 64.402 25.6083 66.5609 27.771L66.5618 27.7719C68.721 29.9137 71.7138 31.2456 75.0067 31.2456C78.2577 31.2456 81.2287 29.9348 83.3879 27.8145ZM90.2804 32.0412C87.6152 35.8889 84.0945 39.5343 80.6599 42.9635L80.6143 42.9852L80.576 43.0434L80.5487 43.0848L79.1852 44.4428L79.1841 44.444L79.1425 44.4849C77.6987 45.9044 76.2884 47.2908 75.0052 48.6496C73.693 47.2783 72.2882 45.8787 70.8277 44.4428L70.8173 44.4325C67.4476 41.0895 63.8589 37.5293 60.9746 33.7635C58.0902 29.9975 55.9286 26.0488 55.3889 21.9341V21.9295V21.8299L55.357 21.7962C55.2809 21.1761 55.242 20.5564 55.242 19.937C55.242 14.4979 57.4548 9.57392 61.0306 6.01967L61.0308 6.01945C64.608 2.4546 69.5485 0.25 75.0067 0.25C80.4644 0.25 85.3849 2.45441 88.9612 6.01942L88.9615 6.01971C92.5386 9.57391 94.7498 14.4976 94.7498 19.937C94.7498 24.1425 92.9537 28.182 90.2804 32.0412Z" fill="#4FCFBD" stroke="black" stroke-width="0.5"/>
</svg>
