<svg width="945" height="330" viewBox="0 0 945 330" fill="none" xmlns="http://www.w3.org/2000/svg">
<path d="M483.111 177.667C478.22 177.667 473.837 176.873 469.961 175.285C466.086 173.697 462.974 171.346 460.623 168.233C458.336 165.121 457.129 161.373 457.002 156.989H474.345C474.599 159.467 475.456 161.373 476.918 162.707C478.379 163.977 480.284 164.612 482.635 164.612C485.049 164.612 486.955 164.072 488.352 162.993C489.75 161.849 490.449 160.293 490.449 158.323C490.449 156.672 489.877 155.306 488.733 154.226C487.653 153.146 486.288 152.257 484.636 151.558C483.048 150.859 480.761 150.065 477.775 149.176C473.455 147.842 469.93 146.508 467.198 145.174C464.466 143.839 462.116 141.87 460.147 139.266C458.177 136.661 457.193 133.262 457.193 129.07C457.193 122.844 459.448 117.984 463.958 114.49C468.469 110.933 474.345 109.154 481.587 109.154C488.956 109.154 494.895 110.933 499.406 114.49C503.916 117.984 506.33 122.876 506.648 129.165H489.019C488.892 127.005 488.098 125.322 486.637 124.115C485.176 122.844 483.302 122.209 481.015 122.209C479.046 122.209 477.457 122.749 476.25 123.829C475.043 124.845 474.44 126.338 474.44 128.307C474.44 130.467 475.456 132.151 477.489 133.358C479.522 134.565 482.698 135.867 487.018 137.265C491.338 138.726 494.832 140.123 497.5 141.457C500.232 142.791 502.582 144.729 504.551 147.27C506.521 149.811 507.505 153.082 507.505 157.085C507.505 160.896 506.521 164.358 504.551 167.471C502.646 170.584 499.85 173.061 496.166 174.904C492.481 176.746 488.13 177.667 483.111 177.667ZM559.174 165.184H534.208L530.206 177H513.15L537.353 110.107H556.22L580.424 177H563.176L559.174 165.184ZM554.981 152.606L546.691 128.117L538.496 152.606H554.981ZM635.911 110.107V123.162H618.187V177H601.893V123.162H584.169V110.107H635.911ZM675.724 177.667C669.435 177.667 663.654 176.206 658.382 173.284C653.173 170.362 649.012 166.296 645.899 161.087C642.85 155.814 641.325 149.906 641.325 143.363C641.325 136.82 642.85 130.944 645.899 125.735C649.012 120.525 653.173 116.46 658.382 113.538C663.654 110.615 669.435 109.154 675.724 109.154C682.013 109.154 687.763 110.615 692.972 113.538C698.244 116.46 702.373 120.525 705.359 125.735C708.408 130.944 709.933 136.82 709.933 143.363C709.933 149.906 708.408 155.814 705.359 161.087C702.31 166.296 698.181 170.362 692.972 173.284C687.763 176.206 682.013 177.667 675.724 177.667ZM675.724 162.802C681.061 162.802 685.317 161.023 688.493 157.466C691.733 153.908 693.353 149.207 693.353 143.363C693.353 137.455 691.733 132.754 688.493 129.26C685.317 125.703 681.061 123.924 675.724 123.924C670.325 123.924 666.005 125.671 662.765 129.165C659.589 132.659 658.001 137.392 658.001 143.363C658.001 149.271 659.589 154.004 662.765 157.561C666.005 161.055 670.325 162.802 675.724 162.802ZM743.202 177.667C738.31 177.667 733.927 176.873 730.052 175.285C726.177 173.697 723.064 171.346 720.713 168.233C718.426 165.121 717.219 161.373 717.092 156.989H734.435C734.689 159.467 735.547 161.373 737.008 162.707C738.469 163.977 740.375 164.612 742.725 164.612C745.139 164.612 747.045 164.072 748.442 162.993C749.84 161.849 750.539 160.293 750.539 158.323C750.539 156.672 749.967 155.306 748.824 154.226C747.744 153.146 746.378 152.257 744.726 151.558C743.138 150.859 740.851 150.065 737.865 149.176C733.546 147.842 730.02 146.508 727.288 145.174C724.557 143.839 722.206 141.87 720.237 139.266C718.268 136.661 717.283 133.262 717.283 129.07C717.283 122.844 719.538 117.984 724.048 114.49C728.559 110.933 734.435 109.154 741.677 109.154C749.046 109.154 754.986 110.933 759.496 114.49C764.006 117.984 766.42 122.876 766.738 129.165H749.109C748.982 127.005 748.188 125.322 746.727 124.115C745.266 122.844 743.392 122.209 741.105 122.209C739.136 122.209 737.548 122.749 736.341 123.829C735.134 124.845 734.53 126.338 734.53 128.307C734.53 130.467 735.547 132.151 737.579 133.358C739.612 134.565 742.789 135.867 747.108 137.265C751.428 138.726 754.922 140.123 757.59 141.457C760.322 142.791 762.672 144.729 764.642 147.27C766.611 149.811 767.595 153.082 767.595 157.085C767.595 160.896 766.611 164.358 764.642 167.471C762.736 170.584 759.941 173.061 756.256 174.904C752.572 176.746 748.22 177.667 743.202 177.667ZM835.559 110.107V177H819.264V149.462H793.918V177H777.623V110.107H793.918V136.312H819.264V110.107H835.559ZM863.616 110.107V177H847.322V110.107H863.616Z" fill="#4FCFBD"/>
<path d="M474.498 245.462V190.503H456.424V180.913H503.084V190.503H484.457V245.462H474.498ZM515.364 245.462V180.913H556.03V190.503H525.323V235.872H556.03V245.462H515.364ZM519.883 217.152V207.562H550.959V217.152H519.883ZM572.007 245.462V180.913H599.487C603.175 180.913 606.556 181.835 609.63 183.679C612.765 185.462 615.255 187.921 617.099 191.056C618.944 194.13 619.866 197.603 619.866 201.476C619.866 204.98 618.944 208.239 617.099 211.251C615.255 214.263 612.796 216.691 609.722 218.536C606.649 220.318 603.237 221.21 599.487 221.21H581.966V245.462H572.007ZM610.368 245.462L593.954 216.323L604.19 214.017L622.448 245.554L610.368 245.462ZM581.966 211.62H600.409C602.192 211.62 603.79 211.189 605.204 210.329C606.618 209.407 607.724 208.177 608.524 206.64C609.323 205.042 609.722 203.29 609.722 201.384C609.722 199.232 609.2 197.357 608.155 195.759C607.171 194.099 605.757 192.808 603.913 191.886C602.13 190.964 600.101 190.503 597.827 190.503H581.966V211.62ZM636.124 245.462V180.913H645.899L669.413 219.181L664.71 219.089L688.501 180.913H697.723V245.462H687.764V218.997C687.764 213.464 687.887 208.484 688.132 204.058C688.44 199.632 688.932 195.236 689.608 190.872L690.899 194.284L669.782 226.927H663.696L643.225 194.652L644.239 190.872C644.915 194.991 645.376 199.232 645.622 203.597C645.929 207.9 646.083 213.034 646.083 218.997V245.462H636.124ZM713.423 245.462V236.241H723.843V190.134H713.423V180.913H744.222V190.134H733.802V236.241H744.222V245.462H713.423ZM759.856 245.462V180.913H768.8L808.268 233.751L806.792 234.581C806.546 233.044 806.331 231.384 806.147 229.601C805.962 227.757 805.778 225.821 805.593 223.792C805.47 221.702 805.348 219.519 805.225 217.245C805.163 214.909 805.102 212.48 805.04 209.96C804.979 207.439 804.948 204.827 804.948 202.122V180.913H814.907V245.462H805.778L766.956 194.56L767.97 193.269C768.278 197.019 768.524 200.216 768.708 202.859C768.954 205.441 769.138 207.655 769.261 209.499C769.446 211.282 769.569 212.757 769.63 213.925C769.692 215.032 769.722 215.954 769.722 216.691C769.784 217.429 769.815 218.075 769.815 218.628V245.462H759.856ZM826.246 245.462L851.236 180.913H861.38L886.185 245.462H875.58L860.826 206.548C860.642 206.118 860.273 205.073 859.72 203.413C859.228 201.753 858.644 199.909 857.968 197.88C857.291 195.851 856.677 194.007 856.123 192.347C855.57 190.626 855.201 189.519 855.017 189.027L857.138 188.935C856.769 189.98 856.308 191.302 855.755 192.9C855.263 194.499 854.709 196.189 854.095 197.972C853.541 199.755 852.988 201.446 852.435 203.044C851.882 204.581 851.421 205.872 851.052 206.917L836.39 245.462H826.246ZM837.312 229.417L841 219.827H870.324L874.566 229.417H837.312ZM897.545 245.462V180.913H907.504V235.872H937.75V245.462H897.545Z" fill="#4FCFBD"/>
<path d="M351.544 83.8417H58.1367V264.638H351.544V83.8417Z" fill="#4FCFBD"/>
<path d="M227.568 269.802H182.111V294.597H227.568V269.802Z" fill="#4FCFBD"/>
<path d="M249.264 283.749H160.416V294.597H249.264V283.749Z" fill="#4FCFBD"/>
<path fill-rule="evenodd" clip-rule="evenodd" d="M164.243 198.021L205.213 221.675V174.367L164.243 150.713V198.021Z" fill="#040813"/>
<path fill-rule="evenodd" clip-rule="evenodd" d="M246.18 198.021L205.21 221.675V174.367L246.18 150.713V198.021Z" fill="#040813"/>
<path fill-rule="evenodd" clip-rule="evenodd" d="M164.243 150.713L205.213 174.367L246.182 150.713L205.142 127.018L164.243 150.713Z" fill="#040813"/>
<path fill-rule="evenodd" clip-rule="evenodd" d="M287.447 127.065L360.766 169.396V84.7341L287.447 42.4032V127.065Z" fill="#040813"/>
<path fill-rule="evenodd" clip-rule="evenodd" d="M434.081 127.065L360.761 169.396V84.7341L434.081 42.4032V127.065Z" fill="#040813"/>
<path fill-rule="evenodd" clip-rule="evenodd" d="M287.447 42.4033L360.766 84.7342L434.085 42.4033L360.641 0L287.447 42.4033Z" fill="#040813"/>
<path fill-rule="evenodd" clip-rule="evenodd" d="M0 293.026L63.3117 329.579V256.473L0 219.92V293.026Z" fill="#040813"/>
<path fill-rule="evenodd" clip-rule="evenodd" d="M126.62 293.026L63.3079 329.579V256.473L126.62 219.92V293.026Z" fill="#040813"/>
<path fill-rule="evenodd" clip-rule="evenodd" d="M0 219.92L63.3117 256.473L126.623 219.92L63.2031 183.305L0 219.92Z" fill="#040813"/>
<path fill-rule="evenodd" clip-rule="evenodd" d="M302.232 270.167L334.453 288.769V251.564L302.232 232.961V270.167Z" fill="#040813"/>
<path fill-rule="evenodd" clip-rule="evenodd" d="M366.672 270.167L334.452 288.769V251.564L366.672 232.961V270.167Z" fill="#040813"/>
<path fill-rule="evenodd" clip-rule="evenodd" d="M302.232 232.961L334.453 251.564L366.674 232.961L334.398 214.327L302.232 232.961Z" fill="#040813"/>
<path fill-rule="evenodd" clip-rule="evenodd" d="M20.0835 114.769L66.7034 141.685V87.8534L20.0835 60.9375V114.769Z" fill="#040813"/>
<path fill-rule="evenodd" clip-rule="evenodd" d="M113.321 114.769L66.7008 141.685V87.8534L113.321 60.9375V114.769Z" fill="#040813"/>
<path fill-rule="evenodd" clip-rule="evenodd" d="M20.0835 60.9375L66.7035 87.8534L113.323 60.9375L66.6235 33.9755L20.0835 60.9375Z" fill="#040813"/>
<path d="M117.957 225.692L171.895 192.835" stroke="black" stroke-width="17.4244" stroke-miterlimit="1.5" stroke-linecap="round" stroke-linejoin="round"/>
<path d="M240.733 154.488L298.014 121.549" stroke="black" stroke-width="15.8273" stroke-miterlimit="1.5" stroke-linecap="round" stroke-linejoin="round"/>
<path d="M240.733 194.032L307.602 235.816" stroke="black" stroke-width="12.9151" stroke-miterlimit="1.5" stroke-linecap="round" stroke-linejoin="round"/>
<path d="M105.954 111.055L171.896 154.288" stroke="black" stroke-width="12.9151" stroke-miterlimit="1.5" stroke-linecap="round" stroke-linejoin="round"/>
<path fill-rule="evenodd" clip-rule="evenodd" d="M302.114 118.591L360.767 152.454V84.7275L302.114 50.8644V118.591Z" stroke="white" stroke-width="13.4403" stroke-miterlimit="1.5" stroke-linecap="round" stroke-linejoin="round"/>
<path fill-rule="evenodd" clip-rule="evenodd" d="M419.417 118.591L360.764 152.454V84.7275L419.417 50.8644V118.591Z" stroke="white" stroke-width="13.4403" stroke-miterlimit="1.5" stroke-linecap="round" stroke-linejoin="round"/>
<path fill-rule="evenodd" clip-rule="evenodd" d="M302.114 50.8643L360.767 84.7275L419.419 50.8643L360.667 16.9434L302.114 50.8643Z" stroke="white" stroke-width="13.4403" stroke-miterlimit="1.5" stroke-linecap="round" stroke-linejoin="round"/>
<path fill-rule="evenodd" clip-rule="evenodd" d="M12.6597 285.708L63.3088 314.95V256.466L12.6597 227.224V285.708Z" stroke="white" stroke-width="11.6063" stroke-miterlimit="1.5" stroke-linecap="round" stroke-linejoin="round"/>
<path fill-rule="evenodd" clip-rule="evenodd" d="M113.955 285.708L63.3054 314.95V256.466L113.955 227.224V285.708Z" stroke="white" stroke-width="11.6063" stroke-miterlimit="1.5" stroke-linecap="round" stroke-linejoin="round"/>
<path fill-rule="evenodd" clip-rule="evenodd" d="M12.6597 227.224L63.3088 256.466L113.958 227.224L63.222 197.932L12.6597 227.224Z" stroke="white" stroke-width="11.6063" stroke-miterlimit="1.5" stroke-linecap="round" stroke-linejoin="round"/>
<path fill-rule="evenodd" clip-rule="evenodd" d="M29.4141 109.377L66.7032 130.906V87.8485L29.4141 66.3197V109.377Z" stroke="white" stroke-width="8.54482" stroke-miterlimit="1.5" stroke-linecap="round" stroke-linejoin="round"/>
<path fill-rule="evenodd" clip-rule="evenodd" d="M103.991 109.377L66.7016 130.906V87.8485L103.991 66.3197V109.377Z" stroke="white" stroke-width="8.54482" stroke-miterlimit="1.5" stroke-linecap="round" stroke-linejoin="round"/>
<path fill-rule="evenodd" clip-rule="evenodd" d="M29.4141 66.3197L66.7032 87.8485L103.992 66.3197L66.6393 44.7541L29.4141 66.3197Z" stroke="white" stroke-width="8.54482" stroke-miterlimit="1.5" stroke-linecap="round" stroke-linejoin="round"/>
<path fill-rule="evenodd" clip-rule="evenodd" d="M308.669 266.447L334.453 281.334V251.561L308.669 236.674V266.447Z" stroke="white" stroke-width="5.90849" stroke-miterlimit="1.5" stroke-linecap="round" stroke-linejoin="round"/>
<path fill-rule="evenodd" clip-rule="evenodd" d="M360.236 266.447L334.452 281.334V251.561L360.236 236.674V266.447Z" stroke="white" stroke-width="5.90849" stroke-miterlimit="1.5" stroke-linecap="round" stroke-linejoin="round"/>
<path fill-rule="evenodd" clip-rule="evenodd" d="M308.669 236.674L334.453 251.561L360.237 236.674L334.409 221.762L308.669 236.674Z" stroke="white" stroke-width="5.90849" stroke-miterlimit="1.5" stroke-linecap="round" stroke-linejoin="round"/>
<path fill-rule="evenodd" clip-rule="evenodd" d="M172.429 193.29L205.213 212.217V174.362L172.429 155.435V193.29Z" stroke="white" stroke-width="7.51238" stroke-miterlimit="1.5" stroke-linecap="round" stroke-linejoin="round"/>
<path fill-rule="evenodd" clip-rule="evenodd" d="M237.994 193.29L205.211 212.217V174.362L237.994 155.435V193.29Z" stroke="white" stroke-width="7.51238" stroke-miterlimit="1.5" stroke-linecap="round" stroke-linejoin="round"/>
<path fill-rule="evenodd" clip-rule="evenodd" d="M172.429 155.435L205.213 174.362L237.996 155.435L205.157 136.475L172.429 155.435Z" stroke="white" stroke-width="7.51238" stroke-miterlimit="1.5" stroke-linecap="round" stroke-linejoin="round"/>
<path d="M105.954 111.055L171.896 154.288" stroke="white" stroke-width="4.58111" stroke-miterlimit="1.5" stroke-linecap="round" stroke-linejoin="round"/>
<path d="M240.733 194.032L307.602 235.816" stroke="white" stroke-width="4.58111" stroke-miterlimit="1.5" stroke-linecap="round" stroke-linejoin="round"/>
<path d="M240.733 154.488L298.014 121.549" stroke="white" stroke-width="6.68124" stroke-miterlimit="1.5" stroke-linecap="round" stroke-linejoin="round"/>
<path d="M117.957 225.692L171.895 192.835" stroke="white" stroke-width="7.13713" stroke-miterlimit="1.5" stroke-linecap="round" stroke-linejoin="round"/>
</svg>
