<svg xmlns="http://www.w3.org/2000/svg" width="43" height="42" fill="none" viewBox="0 0 43 42">
  <g clip-path="url(#a)">
    <path fill="#4FCFBD" d="M24.215 21.642h-5.091v6.323h5.123c2.292 0 4.75-.817 4.75-2.87 0-2.054-1.4-3.453-4.782-3.453Zm3.091-5.361c0-1.981-1.854-2.853-3.673-2.853h-4.51v5.833h4.401c1.819 0 3.782-1 3.782-2.98Z"/>
    <path fill="#4FCFBD" d="M21.103.053C9.511.053.115 9.443.115 21.027.115 32.61 9.51 42 21.103 42c11.591 0 20.988-9.39 20.988-20.973C42.091 9.443 32.694.053 21.103.053Zm3.367 31.342h-9.08v-5.374H9.813v-2.726h5.577V19.68H9.813v-2.726h5.577v-6.395h9.807c3.492 0 5.71 2.92 5.71 5.209 0 2.29-2.109 3.585-2.109 3.585s3.637 1.2 3.637 5.451c0 4.253-3.674 6.592-7.965 6.592Z"/>
  </g>
  <defs>
    <clipPath id="a">
      <path fill="#fff" d="M.062 0h42.03v42H.062z"/>
    </clipPath>
  </defs>
</svg>
