<svg xmlns="http://www.w3.org/2000/svg" width="43" height="42" fill="none" viewBox="0 0 43 42">
  <g clip-path="url(#a)">
    <path fill="#4FCFBD" d="M18.34 16.172c-.982 0-1.78.798-1.78 1.78 0 .98.799 1.78 1.78 1.78.982 0 1.781-.8 1.781-1.78 0-.982-.799-1.78-1.78-1.78Zm5.473-1.877c.982 0 1.78-.798 1.78-1.78 0-.98-.799-1.78-1.78-1.78-.982 0-1.781.8-1.781 1.78 0 .982.799 1.78 1.78 1.78Zm0 11.534c.982 0 1.78-.799 1.78-1.78 0-.982-.799-1.78-1.78-1.78-.982 0-1.781.799-1.781 1.78s.799 1.78 1.78 1.78Z"/>
    <path fill="#4FCFBD" d="M21.076 0C9.47 0 .063 9.402.063 21S9.47 42 21.076 42c11.607 0 21.015-9.402 21.015-21S32.683 0 21.076 0Zm-9.438 11.739h8.934a3.338 3.338 0 0 1 3.24-2.557 3.338 3.338 0 0 1 3.336 3.333 3.338 3.338 0 0 1-3.335 3.333 3.338 3.338 0 0 1-3.24-2.556h-7.381v9.98h7.38a3.338 3.338 0 0 1 3.24-2.556 3.338 3.338 0 0 1 3.336 3.332 3.338 3.338 0 0 1-3.335 3.334 3.338 3.338 0 0 1-3.24-2.557h-8.935V11.74ZM30.515 30.26h-8.934a3.338 3.338 0 0 1-3.24 2.557 3.338 3.338 0 0 1-3.336-3.333 3.338 3.338 0 0 1 3.335-3.333 3.338 3.338 0 0 1 3.24 2.556h7.381v-9.98h-7.38a3.338 3.338 0 0 1-3.24 2.556 3.338 3.338 0 0 1-3.336-3.333 3.338 3.338 0 0 1 3.335-3.333 3.338 3.338 0 0 1 3.24 2.557h8.936V30.26Z"/>
    <path fill="#4FCFBD" d="M18.34 27.705c-.982 0-1.78.799-1.78 1.78s.799 1.78 1.78 1.78c.982 0 1.781-.799 1.781-1.78 0-.982-.799-1.78-1.78-1.78Z"/>
  </g>
  <defs>
    <clipPath id="a">
      <path fill="#fff" d="M.062 0h42.03v42H.062z"/>
    </clipPath>
  </defs>
</svg>
