<svg xmlns="http://www.w3.org/2000/svg" width="43" height="42" fill="none" viewBox="0 0 43 42">
  <g clip-path="url(#a)">
    <path fill="#4FCFBD" d="M39.97 18.072H21.988v1.288h18.13a19.553 19.553 0 0 0-.148-1.288Z"/>
    <path fill="#4FCFBD" d="M41.54 16.224v.02H21.987v1.027h18.66l.058.333c.19 1.116.289 2.26.289 3.4 0 9.27-6.562 17.46-15.601 19.473l-.407.09-1.653-8.985.363-.092a10.83 10.83 0 0 0 6.645-4.972h-8.353v1.271h2.732a7.656 7.656 0 0 1-3.625.907 7.68 7.68 0 0 1-7.682-7.678 7.68 7.68 0 0 1 7.682-7.677c1.627 0 3.136.505 4.378 1.366h15.651C38.444 6.2 30.49.037 21.095.037 9.5.037.1 9.429.1 21.019.1 32.606 9.5 42 21.095 42s20.997-9.394 20.997-20.981c0-1.65-.191-3.256-.552-4.795ZM18.516 1.212a20.192 20.192 0 0 1 2.513-.157 19.9 19.9 0 0 1 18.486 12.402l.225.552H29.284l-.119-.136a10.833 10.833 0 0 0-8.884-3.657l-.35.024-1.844-8.974.43-.054Zm4.243 39.67c-.568.047-1.15.073-1.73.073-8.817 0-16.698-5.9-19.166-14.351l-.111-.38 10.047-3.05a9.404 9.404 0 0 1-.261-2.17c0-3.976 2.465-7.383 5.945-8.79l-2.08-9.52C7.41 5.142 1.866 12.61 1.866 21.004c0 .77.046 1.545.137 2.31l7.403-2.22v-.09c0-3.826 1.9-7.39 5.014-9.548a1.02 1.02 0 0 1-.07-.346 1.02 1.02 0 1 1 .621.937 10.834 10.834 0 0 0-4.758 9.327l.011.31-8.885 2.664-.066-.46a20.258 20.258 0 0 1-.208-2.883c0-8.893 5.975-16.789 14.529-19.201l.408-.115 2.24 10.25a9.462 9.462 0 0 1 5.929.122.995.995 0 0 1 .766-.37 1.013 1.013 0 1 1-.923 1.424 8.408 8.408 0 0 0-2.985-.553c-4.66 0-8.45 3.787-8.45 8.443s3.79 8.444 8.45 8.444c1.18 0 2.343-.261 3.414-.733a1 1 0 0 1 .957-.733 1.013 1.013 0 1 1 0 2.026c-.266 0-.505-.108-.684-.275a9.525 9.525 0 0 1-3.14.722l1.61 10.388-.427.037Z"/>
    <path fill="#4FCFBD" d="m12.012 23.946-1.277.388a10.824 10.824 0 0 0 7.042 6.986c.175-.308.494-.525.874-.525a1.02 1.02 0 0 1 0 2.038c-.452 0-.823-.298-.956-.705a11.62 11.62 0 0 1-7.725-7.562l-7.224 2.193c2.49 7.908 9.952 13.396 18.283 13.396.413 0 .825-.014 1.233-.04l-1.493-9.639a9.497 9.497 0 0 1-8.757-6.53Zm11.573-.418a.5.5 0 1 0 0 1 .5.5 0 0 0 0-1ZM21.029 9.39c3.284 0 6.413 1.39 8.616 3.819h8.892C35.456 6.29 28.648 1.855 21.029 1.855c-.661 0-1.326.035-1.983.102l1.53 7.442c.15-.006.301-.009.453-.009Z"/>
    <path fill="#4FCFBD" d="M31.377 26.3a11.64 11.64 0 0 1-7.123 5.868l1.368 7.433c7.344-1.808 12.9-7.88 14.25-15.172H24.733a1.22 1.22 0 0 1-1.148.82 1.223 1.223 0 0 1 0-2.443c.532 0 .98.345 1.148.822h15.258c.067-.474.118-.951.15-1.434H26.963a1.22 1.22 0 0 1-1.15.822 1.223 1.223 0 0 1-1.22-1.222c0-.674.547-1.222 1.22-1.222.533 0 .983.345 1.15.822h13.212c.003-.13.017-.258.017-.39 0-.28-.02-.562-.032-.844H21.987v5.558h9.688l-.298.583Z"/>
    <path fill="#4FCFBD" d="M25.814 22.295a.501.501 0 1 0 0-1.002.501.501 0 0 0 0 1.002Zm-4.045-2.935a1.22 1.22 0 0 0-1.149-.822c-.673 0-1.222.548-1.222 1.222 0 .673.549 1.221 1.222 1.221a1.22 1.22 0 0 0 1.149-.821h.219v-.8h-.22Zm-1.149.9a.5.5 0 1 1 0-1.001.5.5 0 0 1 0 1.002Zm1.249 5.458a1.22 1.22 0 0 0-1.149-.821 1.223 1.223 0 0 0 0 2.443 1.22 1.22 0 0 0 1.149-.822h.119v-.8h-.119Zm-1.149.901a.501.501 0 1 1 .001-1.002.501.501 0 0 1 0 1.002Zm-1.327-9.348a1.22 1.22 0 0 0-1.148-.82 1.222 1.222 0 0 0 0 2.442c.532 0 .981-.344 1.148-.821h2.595v-.8h-2.595Zm-1.148.902a.5.5 0 1 1 0-1 .5.5 0 0 1 0 1Z"/>
  </g>
  <defs>
    <clipPath id="a">
      <path fill="#fff" d="M.062 0h42.03v42H.062z"/>
    </clipPath>
  </defs>
</svg>
