<svg xmlns="http://www.w3.org/2000/svg" width="43" height="42" fill="none" viewBox="0 0 43 42">
  <path fill="#4FCFBD" d="M23.66 18.581v3.145a51.682 51.682 0 0 1-5.38-.012v-3.123c-4.945.238-8.605 1.092-8.605 2.11 0 1.202 5.105 2.176 11.402 2.176 6.296 0 11.401-.974 11.401-2.176 0-1.033-3.766-1.896-8.818-2.12Z"/>
  <path fill="#4FCFBD" d="M21.076 0C9.47 0 .063 9.402.063 21S9.47 42 21.076 42c11.607 0 21.015-9.402 21.015-21S32.682 0 21.076 0Zm2.584 24.565v9.263h-5.38v-9.275c-5.76-.333-10.068-1.672-10.068-3.274 0-1.6 4.308-2.94 10.068-3.273v-2.595h-7.325v-5.377h20.03v5.377H23.66v2.583c5.867.312 10.281 1.665 10.281 3.285 0 1.622-4.414 2.975-10.281 3.286Z"/>
</svg>
