<svg xmlns="http://www.w3.org/2000/svg" width="43" height="42" fill="none" viewBox="0 0 43 42">
  <g clip-path="url(#a)">
    <path fill="#4FCFBD" d="M21.071 0C9.468 0 .061 9.4.061 20.995c0 11.596 9.407 20.996 21.01 20.996 11.604 0 21.01-9.4 21.01-20.996C42.082 9.4 32.676 0 21.072 0Zm-6.209 30.154h-2.584V22.51l2.584-.795v8.44Zm4.41 0h-2.584v-9.006l2.584-.795v9.801Zm4.409 0h-2.584v-10.36L23.681 19v11.154Zm6.12-12.717-.348-1.233-1.363.419v13.531h-2.583V17.418L8.499 22.652l-.232-.745 20.453-8.915-.296-1.156 5.451.694-4.075 4.907Z"/>
  </g>
  <defs>
    <clipPath id="a">
      <path fill="#fff" d="M.061 0h42.03v42H.061z"/>
    </clipPath>
  </defs>
</svg>
